<svg width="484" height="242" viewBox="0 0 484 242" fill="none" xmlns="http://www.w3.org/2000/svg">
<path d="M112.567 102.761C113.485 102.69 114.4 102.496 115.171 103.479C114.213 104.696 112.863 104.403 111.753 104.443C107.164 104.852 102.543 104.733 97.9812 104.088C96.6696 103.939 95.3419 104.03 94.063 104.357C91.7445 104.721 89.3773 104.636 87.0913 104.104C85.9208 103.913 84.4876 103.68 84.3655 101.87C86.4198 102.204 88.283 102.508 90.1701 102.815C91.2853 102.946 92.4135 102.915 93.5199 102.723C97.6714 102.075 101.749 103.083 105.84 103.112C108.1 103.088 110.339 102.888 112.567 102.761ZM41.8051 153.002C35.9182 153.466 30.0146 153.73 24.1116 154.142C20.834 154.392 17.5808 154.794 14.311 154.997C12.6683 155.146 11.0134 155.22 9.35845 155.294C9.08997 156.942 10.026 157.217 11.0843 157.193C12.5842 157.168 14.0802 157.166 15.5757 157.018C19.4099 156.661 23.212 156.202 27.0462 155.846C32.4515 155.328 37.869 154.887 43.2943 154.397C45.0603 154.244 46.8458 153.971 48.6079 153.841C52.5222 153.596 56.4525 153.402 60.3745 153.109C61.1316 152.95 61.8612 152.68 62.54 152.309L62.4262 151.653C60.3213 151.493 58.2095 151.444 56.0994 151.506C51.3424 151.957 46.5782 152.603 41.8051 153.002ZM78.7173 0.462952C80.5772 1.11822 82.3527 1.99187 84.0067 3.06556C87.7122 5.68638 90.9259 8.94092 93.4996 12.6793C95.6714 15.7549 98.2043 18.5705 100.408 21.6022C104.275 26.9156 108.166 32.2329 111.807 37.7302C114.967 42.4136 117.854 47.273 120.772 52.0886C122.857 55.5425 124.729 59.1086 126.838 62.5664C128.191 64.7975 130.072 66.7959 131.187 69.1353C132.649 72.0831 134.355 74.9037 136.287 77.5676C139.537 82.1912 143.609 86.1789 148.299 89.3325C150.478 90.7136 152.855 91.7541 155.348 92.4181C154.006 90.8752 152.683 89.3602 151.194 87.8179C144.763 81.2538 139.18 73.9107 134.573 65.9597C132.988 62.8757 131.214 59.8924 129.261 57.0269C126.297 52.7925 123.024 48.8018 119.921 44.6673C119.094 43.5231 118.373 42.3058 117.767 41.0306C115.546 36.4512 117.221 32.1878 119.008 27.9915C119.114 27.6962 119.289 27.4302 119.517 27.2154C119.746 27.0006 120.023 26.843 120.324 26.7557C120.625 26.6684 120.943 26.6538 121.251 26.7131C121.559 26.7724 121.849 26.9039 122.096 27.0969C124.397 28.3437 126.368 30.1187 127.849 32.2761C130.512 37.0011 133.418 41.5939 136.268 46.2266C138.346 50.107 140.149 54.1289 141.663 58.2626C144.368 65.4029 147.845 72.2264 152.031 78.6119C152.553 79.4092 153.236 80.0884 154.036 80.6058C153.55 78.467 153.017 76.3204 152.632 74.1733C150.963 64.6846 150.322 55.0437 150.72 45.4176C150.822 42.9822 150.638 40.5001 150.621 38.0453C150.568 35.6282 151.15 33.2394 152.309 31.1176C153.467 28.9957 155.163 27.215 157.225 25.9533C157.534 25.6583 157.907 25.4389 158.314 25.3124C158.722 25.186 159.154 25.1559 159.575 25.2245C159.997 25.2932 160.396 25.4587 160.743 25.708C161.089 25.9574 161.373 26.2838 161.572 26.6615C162.274 27.984 162.87 29.3602 163.354 30.777C163.921 32.267 164.459 33.7769 164.895 35.3191C165.189 36.3029 165.361 37.3192 165.407 38.3451C165.625 44.6825 164.172 50.8948 163.594 57.1515C163.238 60.9924 163.05 64.8605 162.793 68.693C162.8 69.4471 162.734 70.2 162.598 70.9417C161.955 74.0449 161.976 77.2491 162.661 80.3434C163.007 82.5822 163.151 84.8615 163.68 87.032C164.855 91.3776 166.657 95.5288 169.029 99.3546C170.111 101.234 171.651 102.81 173.506 103.934C174.189 104.426 174.971 104.763 175.798 104.92C180.746 105.554 184.719 108.408 188.873 110.753C193.773 113.488 198.448 116.702 203.234 119.688C203.981 120.168 204.835 120.458 205.72 120.534C205.502 120.131 205.263 119.74 205.003 119.363C203.724 117.733 202.469 116.106 201.182 114.523C199.45 112.723 197.827 110.821 196.323 108.827C194.085 105.332 192.029 101.723 190.164 98.0157C189.378 96.4937 189.019 94.7872 189.125 93.0776C189.23 91.3679 189.797 89.7188 190.764 88.3052C191.01 87.7977 191.425 87.3918 191.937 87.1575C192.45 86.9231 193.028 86.8751 193.573 87.0217C194.552 87.1464 195.487 87.5031 196.3 88.062C197.113 88.621 197.781 89.3661 198.248 90.2353C200.491 94.377 203.052 98.3742 205.303 102.468C207.753 106.605 210.654 110.457 213.952 113.955C217.199 117.5 220.69 121.06 223.978 124.661C228.121 129.546 233.043 133.711 238.546 136.989C242.668 139.23 246.992 141.136 251.292 143.038C258.43 146.187 265.879 148.627 272.448 153.007C272.904 153.181 273.375 153.315 273.854 153.408C273.198 152.672 272.491 151.983 271.738 151.346C265.556 146.93 259.664 142.121 254.099 136.948C250.085 132.984 245.901 129.164 241.65 125.455C236.006 120.515 230.188 115.742 224.409 110.877C219.314 106.835 214.718 102.201 210.719 97.0729C209.31 94.9621 208.157 92.6919 207.284 90.3096C206.96 89.3159 206.918 88.2521 207.161 87.2357C207.404 86.2194 207.924 85.2903 208.663 84.5512C209.51 83.9443 210.525 83.6153 211.566 83.6093C212.608 83.6033 213.626 83.9208 214.48 84.5179C216.395 85.8597 218.104 87.5603 219.908 88.9821C225.546 94.2305 230.752 99.9249 235.476 106.01C238.049 109.028 240.575 112.039 243.037 115.137C246.095 118.946 248.982 122.898 252.044 126.683C254.574 129.816 257.247 132.827 259.836 135.897C260.007 135.753 260.197 135.637 260.364 135.517C256.063 127.783 250.803 120.624 244.709 114.208C240.929 109.77 237.672 104.912 235.003 99.7291C234.394 98.6491 233.889 97.5369 233.383 96.4247C232.573 94.8918 232.398 93.1019 232.896 91.441C233.106 90.8252 233.12 90.1593 232.936 89.535C232.466 88.2078 233.084 87.5729 234.209 87.2903C235.468 86.7204 236.868 86.5349 238.232 86.7571C239.596 86.9793 240.864 87.5993 241.877 88.5393C243.055 89.7366 244.317 90.8739 245.408 92.155C246.994 94.0073 248.315 96.1351 250.004 97.8079C253.389 101.733 256.053 106.226 257.871 111.08C259.555 114.738 261.617 118.188 263.481 121.802C263.741 122.179 263.981 122.57 264.197 122.973C266.921 128.983 269.593 135.009 272.348 140.975C273.233 142.625 274.208 144.225 275.27 145.767C275.96 147.186 276.764 148.547 277.672 149.837C278.989 151.292 280.406 152.654 281.913 153.911C282.741 154.523 283.507 155.215 284.2 155.976C286.545 158.751 289.59 160.848 293.02 162.047C298.807 164.755 304.543 167.627 310.33 170.335C311.857 171.049 313.569 171.377 315.162 171.98C317.422 172.942 319.755 173.723 322.138 174.318C319.971 172.567 317.557 170.825 315.331 168.991C308.334 163.168 301.013 157.685 294.548 151.31C288.43 145.409 283.246 138.611 279.172 131.151C278.088 128.955 277.137 126.695 276.326 124.385C276.051 123.679 275.924 122.924 275.952 122.166C275.906 121.691 275.986 121.212 276.183 120.776C276.381 120.341 276.688 119.965 277.076 119.686C277.464 119.407 277.918 119.235 278.393 119.186C278.869 119.136 279.348 119.213 279.785 119.407C281.101 119.879 282.293 120.643 283.271 121.642C287.193 125.861 290.965 130.252 294.761 134.499C299.716 140.21 304.646 145.918 309.632 151.438C310.321 152.171 311.168 152.736 312.109 153.092C310.078 150.505 307.797 147.951 305.837 145.229C304.297 143.102 302.942 140.847 301.786 138.488C301.325 136.915 301.373 135.235 301.924 133.691C302.475 132.147 303.501 130.816 304.854 129.89C305.478 129.545 306.19 129.392 306.9 129.451C307.611 129.51 308.288 129.778 308.846 130.222C311.881 132.113 314.396 134.73 316.163 137.838C318.201 141.432 320.808 144.701 323.148 148.098C324.78 150.424 326.523 152.669 327.992 155.091C330.643 158.976 333.721 162.554 337.166 165.756C338.995 167.623 340.789 169.558 342.51 171.335C347.845 170.587 353.275 171.653 357.931 174.362C359.92 175.419 362.139 175.966 364.391 175.953C363.584 174.952 362.725 173.994 361.818 173.082C359.167 170.689 356.54 168.299 353.826 165.993C352.986 165.226 352.363 164.251 352.019 163.166C351.674 162.081 351.622 160.925 351.866 159.813C351.921 159.298 352.088 158.802 352.356 158.359C352.623 157.915 352.986 157.536 353.416 157.249C353.847 156.961 354.335 156.771 354.847 156.693C355.359 156.615 355.882 156.65 356.379 156.797C357.759 157.123 359.07 157.693 360.248 158.482C363.64 160.996 366.964 163.621 370.232 166.287C375.065 170.189 379.806 174.198 384.643 178.075C385.423 178.564 386.332 178.806 387.251 178.77C390.244 178.914 393.26 178.915 396.734 178.966C395.864 178.285 395.225 177.69 394.563 177.239C390.558 174.576 386.562 171.865 382.49 169.314C375.631 164.818 369.434 159.385 364.08 153.172C359.277 148.121 355.253 142.383 352.141 136.147C351.464 134.703 350.987 133.173 350.724 131.6C350.578 131.074 350.582 130.518 350.738 129.995C350.893 129.472 351.193 129.003 351.602 128.643C352.011 128.282 352.514 128.044 353.052 127.956C353.591 127.868 354.143 127.933 354.646 128.144C355.98 128.593 357.192 129.344 358.187 130.339C363.187 135.322 368.068 140.433 372.889 145.46C375.701 148.371 378.536 151.285 381.276 154.183C384.017 157.081 386.885 160.246 389.764 163.192C391.174 164.572 392.656 165.878 394.203 167.102C394.858 167.563 395.558 167.956 396.292 168.276L396.764 167.789C395.792 166.38 394.765 165.011 393.88 163.519C390.666 158.41 385.981 154.655 381.99 150.253C379.138 147.14 376.634 143.692 373.762 140.551C371.604 138.274 370.051 135.492 369.244 132.459C368.788 130.595 369.203 129.853 371.035 129.293C372.186 128.893 373.412 128.763 374.621 128.913C375.83 129.064 376.988 129.49 378.005 130.159C381.888 132.655 385.22 135.918 387.796 139.748C390.408 143.435 393.294 146.945 395.83 150.644C398.366 154.343 401.158 158.427 403.623 162.261C407.434 169.423 412.347 175.94 418.181 181.577C419.338 182.848 420.812 183.788 422.452 184.301C424.092 184.814 425.839 184.881 427.514 184.495C427.974 184.4 428.451 184.419 428.903 184.549C434.19 185.464 439.554 185.861 444.918 185.736C447.349 185.862 449.6 185.591 451.936 185.702C454.877 185.862 455.764 186.89 455.636 189.787C455.696 192.328 454.821 194.803 453.178 196.743C452.841 197.193 452.376 197.53 451.843 197.71C451.31 197.891 450.735 197.905 450.194 197.752C445.26 196.581 440.683 198.336 436.068 199.571C433.274 200.317 430.544 201.417 427.79 202.366L421.707 204.49C422.691 204.92 423.182 205.22 423.739 205.409C428.033 206.746 432.288 208.322 436.661 209.329C442.897 210.786 449.263 211.749 455.534 212.991C459.878 213.871 464.199 214.893 468.535 215.82C469.24 216.039 469.982 216.116 470.717 216.046C471.453 215.977 472.167 215.762 472.819 215.415C474.155 214.998 475.563 214.86 476.955 215.01L480.249 214.811C481.932 218.174 484.057 221.537 482.713 225.878C481.639 229.308 480.112 229.648 477.821 228.809C474.339 227.39 470.782 226.164 467.165 225.136C462.955 224.033 458.691 223.265 454.415 222.569C452.761 222.44 451.097 222.532 449.467 222.841C441.286 223.414 433.15 224.497 425.104 226.082C421.093 227.072 417.175 228.395 413.225 229.615C407.748 231.175 402.284 233.105 396.775 234.709C393.651 235.547 390.345 235.41 387.3 234.318C386.308 233.992 385.416 233.418 384.709 232.65C384.001 231.883 383.502 230.947 383.257 229.932C383.014 229.001 383.092 228.014 383.481 227.134C383.869 226.253 384.544 225.53 385.396 225.082C388.487 222.746 392.023 221.069 395.787 220.154C401.691 218.982 407.648 218.089 413.465 217.001C419.282 215.914 424.885 215.085 431.03 214.542C429.001 213.009 426.672 211.919 424.195 211.344C420.447 210.415 416.696 209.509 412.956 208.532C411.595 208.311 410.439 207.877 409.506 209.393C409.009 209.951 408.344 210.333 407.612 210.482C401.297 212.63 395.225 215.438 389.499 218.86C385.985 220.878 382.166 222.31 378.191 223.099C376.901 223.274 375.59 223.227 374.315 222.958C372.922 222.739 371.549 222.4 370.214 221.947C369.319 221.664 368.478 221.237 367.722 220.683C367.204 220.394 366.767 219.979 366.452 219.476C366.137 218.974 365.953 218.401 365.917 217.809C365.882 217.217 365.996 216.625 366.249 216.089C366.502 215.552 366.886 215.088 367.366 214.74C368.446 213.788 369.649 212.986 370.942 212.355C375.779 209.906 380.637 207.485 385.554 205.148C386.675 204.78 387.776 204.354 388.851 203.87C382.865 202.233 377.365 203.936 371.926 206.017C371.979 206.59 372.057 207.019 372.077 207.194C367.702 209.669 363.405 211.961 359.26 214.523C356.99 216.042 354.831 217.723 352.801 219.552C346.876 224.619 341.134 229.912 335.064 234.808C332.237 237.462 328.916 239.537 325.291 240.915C325.033 240.996 324.795 241.251 324.52 241.28C321.657 241.549 318.793 241.966 315.945 241.992C313.096 242.019 312.391 240.629 312.834 237.905C313.708 234.318 315.444 230.999 317.892 228.234C319.057 226.673 320.391 225.246 321.871 223.978C324.001 222.339 326.456 221.121 328.686 219.62C332.731 216.92 336.735 214.164 340.631 211.022C340.045 211.033 339.461 211.094 338.885 211.204C330.928 213.537 323.027 215.977 315.038 218.206C309.704 219.79 304.281 220.868 298.943 222.328C296.812 222.812 294.58 222.56 292.61 221.615C292.134 221.457 291.7 221.195 291.338 220.849C290.976 220.503 290.695 220.081 290.515 219.613C290.336 219.145 290.262 218.644 290.3 218.144C290.338 217.644 290.486 217.159 290.734 216.724C291.289 215.533 292.177 214.528 293.289 213.83C302.04 209.276 311.097 205.335 320.394 202.037C323.763 200.918 327.403 200.555 330.809 199.516C339.191 196.982 347.917 197.153 356.484 196.195C358.217 196.171 359.947 196.018 361.658 195.738C361.152 195.533 360.654 195.28 360.116 195.119C354.408 193.429 348.689 191.811 343.025 190.005C339.638 188.859 336.049 188.434 332.488 188.755C323.72 189.87 315.174 192.323 307.15 196.03C301.553 198.477 295.763 200.452 290.097 202.717C286.848 204.002 283.69 205.474 280.48 206.815C277.27 208.155 274.151 209.241 271.06 210.601C266.571 212.567 262.211 214.799 257.809 216.682C254.679 217.986 251.431 218.953 248.169 220.015C246.75 220.446 245.283 220.722 244.194 218.976C243.619 218.219 243.295 217.302 243.265 216.353C243.235 215.403 243.501 214.468 244.027 213.677C244.404 213.14 244.846 212.652 245.343 212.223C248.122 209.534 251.236 207.215 254.608 205.322C258.424 203.271 261.972 200.759 265.82 198.811C269.669 196.863 273.788 195.058 277.928 193.427C282.473 191.716 287.138 190.023 291.732 188.467C293.729 187.838 295.652 186.991 297.464 185.943C295.678 186.069 293.908 186.247 292.126 186.349C285.86 186.722 279.636 187.62 273.519 189.031C268.995 190.032 264.617 191.61 260.494 193.726C255.712 196.135 250.782 198.25 245.784 200.182C242.316 201.869 238.574 202.921 234.735 203.286C232.3 203.374 229.864 203.159 227.483 202.644C226.642 202.466 225.864 202.067 225.228 201.488C224.593 200.909 224.123 200.171 223.867 199.35C223.611 198.529 223.579 197.655 223.773 196.818C223.967 195.98 224.38 195.209 224.971 194.585C225.804 193.69 226.756 192.913 227.799 192.274C229.835 190.914 231.907 189.633 233.999 188.38C236.226 186.971 238.698 185.992 241.286 185.497C245.445 184.801 249.563 183.756 253.649 182.607C260.584 180.987 267.642 179.955 274.75 179.521C278.111 179.21 281.509 179.421 284.899 179.237C286.482 179.152 288.016 178.617 289.614 178.436C293.258 178.049 296.909 177.761 300.568 177.425C300.815 177.371 301.057 177.295 301.292 177.2C301.319 177.032 301.219 176.893 301.171 176.886C295.319 175.932 289.941 173.119 283.92 172.751C281.311 172.39 278.741 171.791 276.242 170.961C274.331 170.503 272.399 170.016 270.468 169.677C265.476 168.864 260.459 168.047 255.467 167.234C250.475 166.421 244.799 165.888 239.488 165.072C235.719 164.241 231.865 163.852 228.005 163.913C227.161 163.966 226.322 164.083 225.496 164.264C222.65 164.825 219.835 165.528 217.061 166.372C211.636 168.21 206.172 170.14 200.874 172.563C195.738 174.904 190.908 177.864 186.491 181.377C182.355 184.765 178.436 188.41 174.758 192.29C171.206 195.88 167.163 199.022 163.308 202.367C161.448 204.001 159.723 205.706 157.851 207.265C155.554 209.171 154.906 209.237 152.322 207.639C151.245 207.162 150.283 206.459 149.5 205.579C148.717 204.698 148.132 203.661 147.783 202.535C147.37 201.173 147.469 199.706 148.062 198.412C150.201 193.548 153.815 189.478 158.392 186.78C162.272 184.641 166.216 182.709 170.307 180.923C174.399 179.138 178.396 176.429 182.295 174.171C184.991 172.673 187.675 171.247 190.363 169.796L193.858 167.914C191.751 167.9 189.674 168.404 187.808 169.38C184.844 170.565 182.02 172.091 179.109 173.407C174.318 175.569 169.464 177.672 164.673 179.834C160.308 181.795 155.942 183.757 151.653 185.854C150.242 186.588 148.959 187.547 147.856 188.693C146.385 190.194 144.957 191.433 142.642 190.59C141.5 190.11 140.552 189.259 139.955 188.173C139.357 187.088 139.144 185.832 139.35 184.61C139.466 183.483 139.753 182.38 140.201 181.34C141.548 178.235 143.527 175.445 146.012 173.148C148.497 170.85 151.434 169.097 154.635 167.998C157.218 167.193 159.578 166.106 162.082 165.337C164.593 164.552 167.151 163.929 169.742 163.47C176.867 162.179 184.017 161.186 191.167 160.045C192.01 159.938 192.83 159.69 193.592 159.312C188.86 159.155 184.113 159.093 179.381 158.788C175.254 158.532 171.15 157.986 167.011 157.655C161.495 157.198 155.978 156.594 150.451 156.503C146.073 156.259 141.748 157.559 138.23 160.176C135.115 162.587 131.529 164.43 128.666 167.103C122.188 173.296 116.598 180.357 112.056 188.084C110.174 191.21 108.547 194.574 106.983 197.851C106.952 198.042 106.714 198.15 106.683 198.341C105.905 203.119 102.346 205.996 99.1543 209.032C97.2361 210.988 94.966 212.565 92.4631 213.68C90.8473 214.349 89.0941 214.62 87.3518 214.468C85.6095 214.317 83.9293 213.748 82.4532 212.81C82.2529 212.736 82.0693 212.623 81.9133 212.478C81.7573 212.332 81.6321 212.157 81.5449 211.962C81.4578 211.767 81.4106 211.557 81.406 211.344C81.4015 211.13 81.4398 210.918 81.5185 210.72C81.7088 209.806 82.1257 208.955 82.7309 208.245C84.4181 206.768 85.9119 205.083 87.1767 203.231C91.9861 197.106 96.3211 190.623 100.144 183.839C103.834 177.16 108.536 171.094 114.083 165.855C114.56 165.399 114.853 164.783 114.905 164.125C114.316 164.326 113.753 164.597 113.229 164.931C108.953 168.599 104.685 172.22 100.454 176.067C97.5436 178.879 94.894 182.199 91.8883 184.995C88.7685 187.855 85.4835 190.53 82.0503 193.005C78.1284 195.937 73.7162 198.15 69.0198 199.538C64.9687 200.859 60.6254 201.002 56.4961 199.95C54.8113 199.455 53.2092 198.752 52.9711 196.752C52.8586 195.868 53.0001 194.97 53.379 194.163C53.7579 193.356 54.3586 192.674 55.1109 192.196L70.2705 181.474L87.4696 169.219C89.1602 168.023 90.8469 166.851 92.4936 165.624L104.552 156.48C103.643 156.582 102.742 156.738 101.852 156.948C94.5326 158.784 87.4844 161.568 80.886 165.229C72.4532 170.182 63.8682 174.864 55.3033 179.575C50.6138 182.17 45.7122 184.413 41.1344 187.075C38.1886 188.937 34.9426 190.275 31.5402 191.03C27.8211 191.82 23.9524 191.514 20.4042 190.147C19.451 189.792 18.6029 189.201 17.9384 188.43C17.274 187.66 16.8145 186.734 16.6026 185.739C16.3907 184.744 16.4332 183.711 16.7262 182.737C17.0192 181.763 17.5531 180.878 18.2787 180.164C22.5815 175.68 27.7851 172.156 33.5472 169.827C38.5021 168.011 43.102 165.964 47.7353 164.316C53.3223 162.382 59.0422 160.837 64.7175 159.113L73.0673 156.476L72.9574 155.796C72.2114 155.809 71.4666 155.859 70.7258 155.948C66.0772 156.637 61.4285 157.327 56.7881 158.116C47.233 159.722 37.7183 161.532 28.1349 163.011C22.6751 163.863 17.1548 164.484 11.6296 164.835C8.72034 164.873 5.9118 163.77 3.80515 161.764C1.6985 159.757 0.461163 157.005 0.357998 154.097C0.536939 152.718 1.06155 151.407 1.88311 150.284C2.70467 149.162 3.79653 148.266 5.05726 147.678C6.02684 147.335 7.03491 147.112 8.05882 147.015C14.7353 146.558 21.4313 146.453 28.1188 146.702C34.0289 147.15 39.9375 147.156 45.8499 147.139C51.7623 147.121 58.2059 146.552 64.4582 147.007C71.3911 147.498 78.1303 146.169 84.9899 146.207C87.119 146.097 89.2391 145.853 91.3373 145.476C91.3814 145.27 91.4152 145.063 91.4385 144.855C90.4353 144.691 89.4081 144.524 88.3815 144.504L70.3772 143.336C63.707 142.887 57.0214 142.534 50.3746 141.942C43.214 141.565 36.1421 140.182 29.3674 137.833C27.7669 137.242 26.3664 136.21 25.3284 134.857C24.2904 133.503 23.6573 131.882 23.5024 130.183C23.3434 128.932 23.6794 127.667 24.439 126.66C25.1986 125.652 26.3216 124.981 27.5688 124.789C30.0187 124.639 32.4755 124.638 34.9256 124.786C36.8077 124.823 38.6831 125.202 40.5447 125.064C47.2077 124.653 53.6443 126.536 60.2266 126.921C66.809 127.307 73.7945 129.131 80.5545 130.233C85.216 130.948 89.8101 132.049 94.2895 133.524C97.9542 134.661 101.54 136.128 105.138 137.523C109.752 139.305 114.137 141.441 118.778 142.908C123.054 144.428 127.452 145.579 131.924 146.349C135.11 147.156 138.43 147.288 141.67 146.735C142.603 146.633 143.548 146.695 144.46 146.92C145.654 147.175 146.884 147.217 148.093 147.046C146.746 146.434 145.402 145.798 144.044 145.258C138.087 142.841 132.189 140.36 126.173 138.154C118.088 134.744 109.797 131.846 101.349 129.476C97.2154 128.508 92.9646 128.11 88.7843 127.429C87.2078 127.172 85.6507 126.796 84.0303 126.508C83.3674 126.438 82.7492 126.141 82.2809 125.667C81.8127 125.193 81.5234 124.571 81.4624 123.907C81.3563 123.201 81.439 122.48 81.7021 121.816C81.9653 121.153 82.3994 120.571 82.9604 120.13C83.1619 119.938 83.4032 119.793 83.6671 119.705C87.6586 118.835 91.483 116.883 95.7599 117.874C98.1253 118.407 100.394 118.629 102.68 119.198C104.323 119.617 105.869 120.352 107.232 121.361C109.182 122.49 111.258 123.388 113.417 124.036L133.431 131.833C136.933 133.213 140.518 134.385 143.934 135.996C147.856 137.812 151.584 140.062 155.443 141.966C157.982 143.238 160.616 144.231 163.202 145.363C164.234 145.801 165.223 146.354 166.267 146.72C169.179 147.808 172.135 148.78 175.047 149.867C180.46 151.54 186.014 152.716 191.64 153.379C189.607 152.175 187.406 151.279 185.109 150.722C182.806 149.807 180.464 149.131 178.165 148.193C174.148 146.557 170.158 144.861 166.194 143.104C164.384 142.319 162.65 141.374 160.884 140.474C155.858 137.914 150.863 135.31 145.824 132.822C141.066 130.413 136.61 127.448 132.55 123.99C129.789 121.676 130.819 119.564 131.856 116.815C132.671 114.667 134.631 114.079 137.371 114.722C141.021 115.69 144.511 117.184 147.732 119.156L162.344 127.446C162.663 127 162.945 126.529 163.187 126.038C163.336 125.403 163.696 124.836 164.207 124.43C164.718 124.024 165.351 123.802 166.003 123.799C169.371 123.564 172.75 123.533 176.121 123.707C183.45 124.458 190.639 126.223 197.483 128.952C201.125 130.172 204.829 131.201 208.579 132.034C208.622 131.772 208.521 131.486 208.453 131.45C200.294 128.552 192.215 125.764 183.984 122.707C180.963 121.4 178.019 119.922 175.166 118.279C174.237 117.809 173.372 117.251 172.479 116.713C171.583 116.294 170.801 115.665 170.199 114.88C169.598 114.094 169.193 113.176 169.021 112.202C168.948 111.645 168.714 111.122 168.348 110.696C167.981 110.271 167.499 109.961 166.959 109.807C163.43 108.376 159.645 107.684 155.838 107.774C149.269 107.612 142.67 108.081 136.13 108.34C132.744 108.5 129.392 108.91 125.995 109.141C121.79 109.364 117.569 109.682 113.375 109.538C106.702 109.407 100.025 109.153 93.351 108.728C88.2885 108.345 83.2606 107.599 78.2326 106.854C76.393 106.477 74.5946 105.921 72.8631 105.194C72.3386 105.018 71.8642 104.718 71.4797 104.32C71.0951 103.922 70.8116 103.437 70.653 102.907C70.4944 102.377 70.4652 101.816 70.568 101.272C70.6708 100.728 70.9025 100.217 71.2438 99.7813C71.8657 98.7823 72.7212 97.9495 73.7365 97.3545C74.7518 96.7595 75.8966 96.4203 77.0721 96.366C80.3741 96.2663 83.6839 96.1189 86.8876 96.322C95.0621 96.8689 103.268 97.2247 111.373 98.3488C119.478 99.4729 127.122 99.6636 134.978 100.355C136.583 100.463 138.195 100.295 139.743 99.856C136.999 98.8227 134.124 98.181 131.201 97.9497C124.513 96.8602 117.793 95.9127 111.042 95.1073C107.607 94.6703 104.129 94.496 100.658 94.1268C97.6011 93.776 94.5202 93.4212 91.4744 92.8515C87.6605 92.227 83.8828 91.3988 80.1575 90.3705C75.764 89.0418 71.4883 87.2909 67.1221 85.795C65.4544 85.135 64.0189 83.9969 62.996 82.5237C61.293 80.3336 61.8954 78.5927 64.277 77.068C65.5844 76.2258 67.0632 75.6858 68.6056 75.4874C70.1481 75.289 71.7154 75.4372 73.1933 75.9212L88.4514 80.0986C93.892 81.6224 99.3721 83.0546 104.849 84.805C110.686 86.6215 116.646 88.0183 122.682 88.9849C130.493 90.2573 138.386 91.0281 145.899 93.6742C147.028 94.1291 148.244 94.3271 149.459 94.254C147.697 93.1284 145.848 92.1465 143.929 91.3181C140.611 90.2912 137.443 88.8269 134.511 86.964C127.388 82.2236 119.219 79.9857 111.082 77.7039C103.463 75.5554 95.82 73.5503 88.2518 71.2386C82.2251 69.3986 76.194 67.4354 70.3485 65.0855C64.9251 63.1445 59.8258 60.3959 55.223 56.9327C53.2703 55.3723 51.3506 53.76 49.4638 52.0958C48.983 51.6333 48.59 51.0874 48.304 50.4846C47.1904 48.4397 47.6072 47.0853 49.7166 46.1784C50.9492 45.5886 52.2951 45.2734 53.6614 45.2546C55.0277 45.2359 56.3817 45.514 57.63 46.0698C61.7403 47.9327 65.831 49.8659 69.902 51.8695C75.8053 54.7683 81.5824 57.9898 87.6001 60.6375C92.0596 62.6145 96.8787 63.8899 101.524 65.4803L101.903 64.8065C100.79 63.9489 99.6242 63.1612 98.4132 62.4479C91.694 59.0971 85.3604 55.0232 79.525 50.2984C73.0203 45.0703 65.8106 40.7081 60.0227 34.5424C58.1236 32.5952 56.3997 30.4846 54.8709 28.235C53.9022 26.5978 53.3908 24.7306 53.3901 22.8283C53.3894 20.9261 53.8995 19.0585 54.867 17.4206C55.0309 16.8607 55.3385 16.3535 55.7594 15.9494C56.1802 15.5454 56.6996 15.2586 57.2657 15.1177C57.8318 14.9768 58.425 14.9866 58.9861 15.1462C59.5473 15.3058 60.0568 15.6096 60.464 16.0274C63.7319 18.5459 66.8492 21.2361 70.1132 23.7785C73.3772 26.3209 76.3407 28.2994 79.3336 30.6995C85.1517 35.3254 90.8787 40.0591 96.669 44.7049C99.8974 47.3151 103.213 49.6942 106.457 52.356C108.899 54.3723 111.18 56.6318 113.468 58.8436C114.993 60.3181 116.447 61.7809 118.156 63.6288C117.772 60.8293 116.47 58.2367 114.453 56.2577C109.999 50.3337 105.552 44.362 101.043 38.478C99.5074 36.4624 97.6944 34.6467 96.1869 32.6111C91.1663 25.6716 85.6771 19.0835 79.7577 12.8929C77.7756 10.6265 76.0579 8.14199 74.6376 5.48724C73.9533 4.41945 73.3352 2.94559 74.4052 1.79577C74.9057 1.16463 75.5853 0.6996 76.3549 0.461736C77.1245 0.223872 77.948 0.224296 78.7173 0.462952ZM353.758 199.527C353.739 199.646 353.716 199.79 353.816 199.929L355.474 199.684C355.474 199.684 355.509 199.469 355.528 199.349L353.758 199.527ZM339.659 207.504C344.488 206.011 349.308 204.417 354.121 202.872C354.896 202.63 355.655 202.337 356.41 202.068C356.236 201.877 356.023 201.727 355.784 201.629C355.546 201.53 355.288 201.486 355.031 201.5C351.837 201.838 348.643 202.176 345.478 202.641C342.591 203.012 339.725 203.527 336.89 204.184C332.159 205.375 327.489 206.797 322.811 208.119C316.817 209.84 310.71 211.052 305.264 214.383C304.449 214.691 303.593 214.874 302.723 214.925C303.371 213.638 304.399 212.581 305.668 211.898C310.52 209.656 315.578 207.893 320.772 206.635C324.743 205.442 328.826 204.612 332.801 203.69C335.616 202.971 338.422 202.153 341.216 201.407C341.407 201.438 341.561 201.096 341.716 200.9L344.935 201.155L349.125 200.121L349.412 200.168L349.627 200.203L352.055 200.353C352.02 200.146 351.996 199.938 351.985 199.728L349.722 200.218L349.46 200.175L349.221 200.136C347.972 200.129 346.77 200.129 345.509 200.194C345.342 200.167 345.185 200.828 345.031 201.17C344.032 199.929 342.919 200.287 341.811 200.916C341.207 200.73 340.58 200.628 339.948 200.612C337.177 201.068 334.401 201.548 331.658 202.131C327.535 203.053 323.409 203.999 319.318 205.025C311.377 207.331 303.704 210.479 296.431 214.415C295.432 214.973 294.499 215.644 293.653 216.415C292.923 216.982 291.967 217.734 292.643 218.702C292.896 219.014 293.215 219.266 293.576 219.439C293.938 219.612 294.334 219.703 294.735 219.705C299.9 219.665 305.021 218.759 309.885 217.024C311.796 216.28 313.711 215.514 315.678 214.878C321.231 213.101 326.794 211.367 332.366 209.676C334.75 208.74 337.282 208.245 339.659 207.504ZM368.09 201.567C363.447 203.119 359.05 205.326 355.031 208.12C353.309 209.431 351.515 210.645 349.657 211.757C344.147 215.151 339 219.103 334.299 223.551C332.843 224.809 331.648 226.429 330.224 227.791C328.139 229.904 325.989 231.662 323.84 233.568L323.073 232.855C325.467 229.297 329.223 227.015 331.905 223.798C334.87 220.639 338.114 217.754 341.597 215.176C344.914 212.578 348.542 210.325 352.023 207.925C351.895 207.828 351.745 207.765 351.587 207.739C351.429 207.713 351.267 207.726 351.115 207.777C345.684 211.011 340.276 214.103 334.837 217.386C330.038 220.503 325.399 223.842 320.948 227.384C318.191 229.843 316.105 232.962 314.886 236.45C314.708 237.241 314.626 238.051 314.64 238.862C315.529 239.177 316.468 239.329 317.411 239.313C321.216 238.682 325.229 238.134 328.14 235.47C331.05 232.805 334.228 229.105 337.216 225.816C339.34 223.465 341.36 220.998 343.528 218.679C347.287 214.971 351.597 211.869 356.306 209.48C356.925 209.14 357.751 208.588 357.812 208.058C358.061 206.53 359.122 206.04 360.21 205.531C361.906 204.753 363.659 204.082 365.478 203.3C366.504 203 367.415 202.396 368.09 201.567ZM368.289 198.535L359.721 199.051L359.779 199.747C362.627 199.574 365.523 200.462 368.289 198.535ZM390.467 207.051C389.63 207.32 388.776 207.533 387.911 207.689C381.652 209.276 375.726 211.964 370.409 215.628C369.473 216.38 368.606 217.216 367.82 218.124C372.124 220.002 375.845 221.246 379.725 219.401C385.04 216.883 390.389 214.15 395.536 211.457L403.193 207.653C401.222 206.698 399.079 206.146 396.892 206.03C394.705 205.914 392.516 206.235 390.454 206.976L390.467 207.051ZM441.272 219.104L436.539 219.559C432.323 220 428.103 220.318 423.935 220.914C420.571 221.396 417.288 222.283 413.944 222.793C413.151 223.074 412.303 223.165 411.469 223.059C410.634 222.953 409.836 222.653 409.139 222.182L420.457 219.685C419.992 219.307 419.403 219.115 418.804 219.146C413.487 219.795 408.209 220.736 402.995 221.966C398.445 222.736 394.1 224.422 390.221 226.922C388.678 227.788 387.059 228.509 385.383 229.077C385.024 229.925 385.588 230.827 386.633 231.487C387.45 232.044 388.395 232.385 389.379 232.477C390.364 232.568 391.356 232.408 392.261 232.012C395.249 230.831 398.265 229.777 401.257 228.573C408.725 225.739 416.457 223.655 424.339 222.353C429.388 221.459 434.742 220.958 439.94 220.211C440.206 220.229 440.479 219.759 441.26 219.028L441.272 219.104ZM435.433 217.466L433.775 217.563C433.747 217.731 433.72 217.898 433.697 218.041L435.356 217.944C435.363 217.758 435.385 217.573 435.421 217.39L435.433 217.466ZM264.716 131.984L264.366 132.172L265.06 133.633L265.6 133.329L264.716 131.984ZM256.573 136.812C255.554 135.339 254.429 133.943 253.207 132.635C249.842 128.457 246.611 124.204 243.274 120.006C241.887 118.285 240.333 116.683 238.835 115.041C237.939 113.767 237.075 112.45 236.123 111.216C232.081 105.923 227.019 101.322 223.362 95.6259C223.187 95.4146 222.988 95.2256 222.767 95.0631C220.639 93.0735 218.3 91.0251 216.045 89.0639C214.532 87.7641 212.574 87.1023 210.583 87.2179C210.484 87.6096 210.419 88.0092 210.388 88.4122C210.354 91.542 211.52 94.566 213.646 96.8632C216.291 99.746 218.566 102.789 221.293 105.465C223.409 107.526 225.779 109.089 227.97 110.991C231.889 114.327 235.767 117.721 239.602 121.174C243.554 124.76 247.443 128.434 251.391 132.044C253.04 133.662 254.78 135.171 256.513 136.728L256.573 136.812ZM269.073 141.815C268.191 139.769 266.941 137.903 265.384 136.31C264.201 135.315 263.311 134.017 262.808 132.555C262.532 131.764 262.18 131 261.757 130.276C259.488 126.596 257.305 122.832 254.834 119.339C250.226 112.704 245.451 106.188 240.883 99.608C240.416 98.8391 239.997 98.042 239.629 97.2214C240.098 97.0525 240.372 96.8764 240.412 96.932C248.233 106.772 255.429 117.092 261.959 127.832L262.614 127.424L255.182 114.492C254.954 114.087 254.534 113.651 254.549 113.261C254.74 109.982 252.789 107.653 251.109 105.173C250.029 103.525 248.897 101.894 247.844 100.227C246.208 97.3779 244.148 94.7936 241.737 92.5624C240.757 91.7056 239.627 91.0391 238.403 90.5972C236.415 89.8565 235.601 90.3369 235.215 92.4073C235.059 93.2366 235.122 94.0922 235.399 94.8894C235.941 96.3589 236.594 97.785 237.352 99.1554C239.77 103.934 242.664 108.456 245.992 112.652C250.363 117.582 254.343 122.846 257.895 128.396C259.84 131.508 261.654 134.672 263.599 137.785C264.876 139.746 266.821 141.177 269.073 141.815ZM278.173 153.989C278.204 153.797 278.446 153.665 278.569 153.514L275.606 151.535L275.317 151.954L278.173 153.989ZM151.541 103.445L151.631 102.896L147.014 102.487C144.878 102.132 142.716 101.96 140.551 101.974C132.624 102.767 124.805 101.542 116.929 101.118C109.054 100.693 101.641 99.5344 93.9836 98.9736C88.9212 98.5904 83.832 98.5215 78.7951 98.5838C77.421 98.4569 76.0449 98.8035 74.8948 99.5662C73.7448 100.329 72.8901 101.462 72.4723 102.777C74.8634 103.593 77.2981 104.276 79.765 104.823C84.6618 105.621 89.6064 106.426 94.5772 106.77C100.261 107.254 106.007 107.504 111.729 107.602C116.325 107.689 120.927 107.433 125.495 107.392C126.583 107.217 127.66 106.984 128.723 106.692C125.407 105.073 121.627 106.149 118.591 103.865C124.081 103.729 129.518 104.37 134.961 104.226C140.403 104.083 146.016 103.796 151.55 103.545L151.541 103.445ZM101.242 143.681C102.914 143.806 104.538 144.218 106.187 144.486C108.384 144.844 110.558 145.198 113.376 145.51C111.711 143.841 110.588 142.604 108.639 142.826C107.55 142.921 106.453 142.882 105.372 142.711C103.509 142.407 101.7 141.769 99.8573 141.493C92.0462 140.221 84.4613 137.71 76.4446 137.851L76.0863 137.793L65.4776 136.384C63.6383 136.084 61.7512 135.776 59.9119 135.477C54.9528 135.061 49.9742 134.765 45.0151 134.35C43.2396 134.171 41.4766 133.884 39.7361 133.49C38.7806 133.334 37.7763 132.876 37.7158 131.592C43.706 132.15 49.5845 132.642 55.4713 133.233C58.7272 133.567 61.9797 134.073 65.2278 134.455C68.0459 134.767 70.8524 135.15 73.67 135.315C79.5704 135.884 85.4273 136.838 91.2031 138.171C95.24 138.829 99.183 139.912 103.185 140.785C100.971 138.923 98.3844 137.557 95.5985 136.778C91.2511 136.07 86.8753 135.235 82.6179 134.124C77.0031 132.527 71.2679 131.387 65.4687 130.718C62.7436 130.539 60.0334 130.18 57.356 129.641C48.8539 127.643 40.1683 127.675 31.5634 126.911C30.0643 126.91 28.5844 127.247 27.2341 127.898C26.9169 128.008 26.6262 128.182 26.3802 128.411C26.1342 128.639 25.9384 128.916 25.8052 129.224C25.672 129.532 25.6043 129.865 25.6064 130.2C25.6086 130.536 25.6806 130.867 25.8177 131.174C26.0268 131.947 26.3904 132.669 26.8864 133.298C27.3825 133.927 28.0007 134.448 28.7038 134.832C31.0983 136.348 33.7845 137.345 36.5886 137.759C43.7648 138.972 51.0076 139.751 58.2776 140.09C63.7967 140.229 69.3302 141.033 74.8465 141.49C83.5909 142.301 92.4381 142.933 101.242 143.681ZM116.562 147.476L118.431 148.197C119.047 148.395 119.646 148.64 120.224 148.931C121.173 149.447 122.248 149.686 123.326 149.619C124.404 149.551 125.441 149.181 126.318 148.55L116.562 147.476ZM112.969 150.716C114.278 150.512 115.619 150.559 116.955 150.482L117.072 149.766C114.521 148.629 111.864 147.744 109.141 147.125C105.216 146.645 101.257 146.517 97.3102 146.743C91.4066 147.007 85.5441 147.622 79.6372 148.057C75.8146 148.342 71.956 148.547 68.1212 148.756C64.2864 148.965 60.9966 149.14 57.4279 149.221C51.7943 149.333 46.1691 149.545 40.5583 149.366C33.5071 149.149 26.5093 148.304 19.4485 148.748C15.6059 149.004 11.7673 149.237 7.93301 149.594C4.96982 149.871 2.12132 153.208 2.73882 155.589C3.65896 159.123 7.66334 162.84 11.0676 162.414C17.4784 161.594 23.9503 161.153 30.3889 160.314C35.3998 159.658 40.218 158.531 45.1411 157.812C53.9612 156.503 62.7181 155.281 71.6382 154.11C74.422 153.73 77.2829 153.779 80.0344 153.296C82.2849 152.878 84.7892 153.31 87.1031 151.75C82.0051 151.434 77.0696 153.131 72.4401 151.446C73.2573 150.87 74.2106 150.518 75.2056 150.425C77.3655 150.262 79.5342 150.345 81.6741 150.154C84.7606 149.872 87.8305 149.392 90.9014 149.205C91.8339 149.221 92.7591 149.372 93.6485 149.653C94.8606 150.123 96.1352 150.413 97.4315 150.514C101.313 150.019 105.154 149.32 109.241 148.466C110.143 150.452 110.033 150.679 108.375 150.924C105.134 151.401 101.869 151.875 98.6723 152.531C96.4834 153.02 94.3221 153.626 92.1975 154.345C87.9015 155.73 83.5372 156.931 79.2501 158.562C73.843 160.747 68.6836 163.217 63.3614 165.783C58.0392 168.349 53.5987 170.47 48.7932 172.875C44.5038 174.971 40.0783 176.85 35.8611 179.105C32.295 180.976 28.0452 181.927 25.7438 185.819C24.2378 185.279 24.3735 184.296 25.1269 183.585C26.4245 182.238 27.9009 181.076 29.5147 180.131C33.8714 177.923 38.3963 176.036 42.7929 173.883C50.9945 169.898 59.1361 165.83 67.3016 161.766C67.8616 161.489 68.3616 161.129 69.3421 160.529C68.8343 160.447 68.3184 160.429 67.8061 160.475C56.8393 163.293 46.0855 166.884 35.6253 171.22C30.8265 173.425 26.3195 176.216 22.2074 179.529C21.022 180.572 19.998 181.786 19.1689 183.129C18.9392 183.438 18.7792 183.793 18.6999 184.17C18.6206 184.546 18.6239 184.936 18.7097 185.311C18.7954 185.686 18.9614 186.039 19.1964 186.343C19.4314 186.648 19.7297 186.899 20.0707 187.077C22.9593 188.161 25.9684 189.558 29.1 188.548C32.8781 187.438 36.5557 186.011 40.0937 184.282C45.7253 181.472 51.2125 178.345 56.6958 175.241C61.3653 172.618 65.9386 169.832 70.6119 167.184C74.2053 165.146 77.8425 163.139 81.548 161.315C85.2535 159.491 88.8978 158.344 92.3845 156.509C98.8875 153.477 105.84 151.52 112.969 150.716ZM117.576 172.113C118.992 169.891 120.288 167.356 121.915 165.194C123.543 163.031 125.461 161.186 127.288 159.154C127.121 159.127 126.93 159.096 126.834 159.08C122.381 161.723 118.325 164.984 114.786 168.765C110.774 172.87 107.23 177.408 104.221 182.296C101.358 187.361 98.1955 192.25 94.7491 196.937C91.6666 201.494 88.3104 205.861 84.699 210.012C84.4429 210.411 84.2335 210.837 84.075 211.284C84.5074 211.333 84.9442 211.33 85.376 211.275C91.2946 209.307 96.4125 205.467 99.9579 200.335C102.764 196.611 105.296 192.688 107.534 188.598C108.633 186.668 109.661 184.727 110.712 182.789C108.944 183.719 107.541 185.218 106.733 187.045C103.567 192.368 99.8238 197.326 95.5708 201.828C95.3052 202.103 94.8519 202.176 94.5064 202.341L94.107 201.933L97.5845 197.595C98.2934 196.705 99.0862 195.902 99.7274 194.977C101.912 191.802 103.985 188.559 106.19 185.412C107.231 183.848 108.375 182.355 109.615 180.943C112.044 178.225 114.621 175.653 117.117 172.97C117.299 172.7 117.452 172.413 117.576 172.113ZM134.297 157.672C128.831 159.776 124.157 163.532 120.924 168.416L121.292 168.868L134.297 157.672ZM215.108 164.362L210.007 165.566C205.865 166.324 201.776 167.345 197.764 168.623C193.154 170.524 188.659 172.69 184.299 175.111C181.615 176.537 178.895 178.178 176.192 179.724C174.568 180.661 172.936 181.646 171.28 182.479C167.738 184.354 164.234 185.991 160.632 187.635C155.827 190.064 152.045 194.125 149.963 199.089C149.652 199.846 149.519 200.663 149.574 201.478C149.652 203.404 151.108 204.401 152.441 205.403C154.444 206.955 155.24 207.036 157.196 205.417C159.151 203.798 160.427 202.29 162.076 200.744C166.7 196.446 171.316 192.195 175.919 187.869C177.715 186.176 179.412 184.343 181.144 182.59L180.891 182.034C180.133 182.078 179.381 182.202 178.648 182.404C178.156 182.569 177.796 183.124 177.287 183.384C170.775 186.59 165.161 191.363 160.95 197.275C160.261 198.192 159.653 199.515 157.567 199.372C158.247 198.538 158.88 197.667 159.464 196.763C162.348 191.999 166.286 187.96 170.975 184.955C174.796 182.565 178.779 180.444 182.896 178.609C184.897 177.611 186.987 176.823 188.977 175.75C191.363 174.496 193.586 172.896 196.048 171.777C198.511 170.658 200.809 170.1 203.169 169.308C205.037 168.68 206.909 168.029 208.76 167.35C210.612 166.67 213.067 165.599 215.205 164.819L215.108 164.362ZM233.235 160.106L236.747 160.678C231.44 158.931 226.06 157.49 220.711 156.006C215.113 154.715 209.665 152.841 204.457 150.416C202.691 149.515 200.921 148.638 199.112 147.853C192.389 144.87 185.662 141.91 178.919 139.047C177.082 138.094 175.09 137.479 173.036 137.23C171.56 137.132 170.145 136.603 168.968 135.709C165.574 133.513 162.338 131.245 158.806 129.15C154.67 126.686 150.457 124.406 146.231 122.197C143.165 120.545 140.075 118.889 136.927 117.445C135.149 116.616 134.395 117.032 133.418 118.663C133.223 118.944 133.086 119.26 133.013 119.594C132.941 119.927 132.935 120.272 132.997 120.608C133.058 120.944 133.186 121.264 133.372 121.551C133.558 121.837 133.798 122.084 134.08 122.277C135.154 123.212 136.231 124.124 137.368 124.971C143.912 129.96 151.443 132.952 158.464 136.965C163.691 139.95 169.341 142.145 174.837 144.536C177.583 145.744 180.36 146.907 183.217 147.888C187.678 149.399 192.191 150.747 196.697 152.143C197.979 152.548 199.301 152.862 201.229 153.372C196.97 150.765 192.571 150.221 188.748 148.102C183.251 145.269 177.489 143.007 171.786 140.386C168.458 138.838 165.063 137.402 161.837 135.676C156.444 132.811 151.121 129.81 145.862 126.722C143.388 125.563 141.209 123.858 139.489 121.736C141.249 121.018 142.208 122.057 143.169 122.63C145.988 124.291 148.689 126.226 151.539 127.843C155.686 130.235 159.924 132.519 164.162 134.804C167.666 136.625 171.202 138.402 174.757 140.061C177.28 141.281 179.811 142.453 182.393 143.609C184.976 144.766 187.231 145.673 189.67 146.658C194.958 148.819 200.316 150.845 205.62 153.057C207.091 153.665 208.589 154.252 210.012 154.999C210.37 155.057 210.549 155.92 210.522 156.382C210.496 156.843 209.856 156.861 209.442 156.99C209.029 157.119 208.893 156.901 208.63 156.858C206.242 156.469 203.587 156.208 201.079 155.947C196.593 155.486 192.1 155.073 187.634 154.639C185.573 154.564 183.523 154.296 181.512 153.838C176.015 152.207 170.51 150.477 165.223 148.463C160.999 146.843 156.965 144.666 152.88 142.799C149.675 141.247 146.569 139.539 143.376 137.916C141.539 137.003 139.653 136.083 137.745 135.306C134.871 134.127 131.943 133.135 129.039 132C123.624 129.868 118.291 127.528 112.794 125.602C107.296 123.677 102.623 121.052 96.8856 121.049C93.3304 119.391 89.8466 120.908 86.3507 121.295C85.0541 121.427 83.7907 121.957 83.9655 124.045C85.1984 124.378 86.4495 124.639 87.7125 124.827C96.3477 125.758 104.816 127.863 112.881 131.085C120.213 134.094 127.683 136.708 135.083 139.605C140.557 141.674 145.968 143.831 151.454 145.828C153.761 146.719 156.088 147.49 158.526 148.328C157.749 147.736 156.911 147.23 156.026 146.818C153.531 145.725 150.997 144.723 148.506 143.607C142.366 140.505 135.999 137.877 129.458 135.747C125.93 134.856 122.491 133.639 119.188 132.112C115.721 130.635 112.169 129.368 108.55 128.319L95.2555 123.53C94.4666 123.254 93.8762 122.815 94.6951 121.551L99.5597 123.299C102.034 124.217 104.441 125.247 106.951 126.097C110.942 127.483 115.132 128.411 118.942 130.159C122.752 131.908 127.463 133.092 131.667 134.684C133.981 135.527 136.386 135.821 138.669 136.855C142.85 138.737 146.873 140.987 151.002 143.032C152.772 143.909 154.68 144.539 156.359 145.523C160.103 147.887 164.169 149.697 168.431 150.898C169.744 151.112 169.99 152.01 169.278 152.924C167.988 152.714 166.936 152.248 165.892 152.029C162.679 151.285 159.453 150.613 156.236 149.892C155.495 149.772 154.725 149.23 154.065 149.367C149.986 150.174 145.524 148.663 141.75 151.358C141.75 151.358 141.32 151.288 140.949 151.007L142.005 150.247L143.256 149.495L132.81 149.043C132.494 150.978 131.178 151.23 129.277 151.312C125.697 151.083 122.142 152.048 119.169 154.055C112.729 158.416 106.579 163.188 100.756 168.343C95.347 173.396 89.2753 177.703 83.4752 182.3C82.0668 183.42 80.674 184.443 79.1179 185.416C75.3712 187.944 71.6245 190.473 67.8417 192.921C67.3495 193.234 66.5612 193.105 65.889 193.167L65.7119 192.599C66.3522 191.949 67.0402 191.348 67.7702 190.801C69.5803 189.625 71.5103 188.615 73.2325 187.375C75.4509 185.799 77.3932 183.811 79.7476 182.453C84.8971 179.442 89.0511 175.166 93.7729 171.619C96.1026 169.911 98.3342 168.072 100.457 166.112C102.193 164.302 104.102 162.667 106.157 161.229C108.5 159.573 110.747 157.786 112.889 155.877C108.512 156.94 104.454 159.037 101.055 161.992C96.1934 165.491 91.6321 169.407 86.8309 172.99C83.8636 175.4 80.5364 177.31 77.3697 179.589C70.5874 184.345 63.8651 189.184 57.0867 193.916C56.565 194.169 56.1345 194.577 55.8542 195.085C55.574 195.592 55.4577 196.174 55.5215 196.751C58.4998 197.735 61.6974 197.847 64.7376 197.075C73.4453 194.586 81.4043 189.987 87.9087 183.685C92.2866 179.69 96.4568 175.465 100.751 171.383C105.634 166.424 111.117 162.095 117.072 158.495C121.805 155.846 126.77 153.635 131.905 151.888C132.711 151.602 133.601 151.257 134.294 152.277C134.986 153.297 134.236 153.837 133.666 154.627C133.397 155.07 133.187 155.547 133.042 156.045L133.533 156.493C137.256 155.015 140.999 153.565 144.681 152.032C145.71 151.586 146.572 151.114 147.509 152.738L144.519 154.531C145.558 154.718 146.619 154.75 147.667 154.627C156.749 154.12 165.699 155.627 174.744 156.095C179.145 156.322 183.512 156.91 187.922 157.236C192.332 157.562 196.768 157.574 201.131 158.039C206.514 159.015 212.023 159.083 217.429 158.242C218.372 158.13 219.326 158.146 220.266 158.287C220.77 158.26 221.267 158.414 221.667 158.722C222.067 159.03 222.343 159.472 222.444 159.966C218.825 160.358 215.413 160.832 211.972 161.031C206.821 161.345 201.652 161.459 196.497 161.649C187.979 162.003 179.772 164.368 171.337 165.569C167.342 166.165 163.45 167.314 159.771 168.982C156.828 170.341 153.592 171.089 150.694 172.775C146.606 175.489 143.342 179.276 141.26 183.72C141.028 184.53 141.036 185.391 141.283 186.198C141.531 187.004 142.007 187.721 142.654 188.262C143.898 189.053 145.043 188.651 146.593 187.261C147.471 186.404 148.465 185.675 149.545 185.094C154.86 182.575 160.306 180.152 165.708 177.697C169.386 176.041 173.201 174.602 176.735 172.628C180.709 170.491 184.809 168.596 189.012 166.953C190.032 166.596 191.071 166.299 192.124 166.062C191.808 165.83 191.446 165.667 191.063 165.583C190.679 165.5 190.283 165.497 189.898 165.577C184.767 166.972 179.194 167.462 174.158 169.78C171.697 170.695 169.181 171.457 166.626 172.06C166.003 172.24 165.398 172.478 164.819 172.771C162.71 173.825 160.645 174.911 158.576 176.021L149.633 180.792C148.99 181.129 148.314 181.362 147.575 181.683C146.983 180.655 146.909 180.054 147.929 179.509C150.583 178.274 153.044 176.713 155.749 175.609C160.438 173.774 164.489 170.878 169.459 169.726C170.715 169.332 171.947 168.861 173.146 168.316C175.438 167.488 177.691 166.604 180.06 165.911C183.252 165.132 186.516 164.511 189.746 164.105C191.885 163.767 194.057 163.679 196.217 163.516C196.666 163.467 197.426 163.321 197.542 163.511C198.612 165.525 200.151 164.206 201.483 164.153C203.323 163.812 205.195 163.681 207.064 163.763C208.639 163.915 210.229 163.74 211.733 163.248C215.079 162.378 218.467 161.678 221.884 161.15C223.538 160.929 224.91 160.785 225.411 158.463L226.647 160.357C228.665 160.465 230.943 158.825 232.417 161.517C232.681 160.947 232.939 160.572 233.224 160.178L233.235 160.106ZM186.87 139.312L189.352 140.329C190.655 140.909 192.002 141.374 193.242 142.042C198.865 145.09 204.724 147.685 210.761 149.8C215.723 151.598 220.777 153.134 225.901 154.399C232.767 156.057 239.707 157.408 246.631 158.708C250.715 159.373 254.831 159.848 258.92 160.489C263.008 161.13 267.447 161.878 271.7 162.718C272.703 162.881 273.682 163.041 274.781 163.22C274.617 162.874 274.58 162.648 274.469 162.58L257.169 155.128C256.521 154.774 255.898 154.378 255.303 153.941C253.217 152.343 250.98 150.952 248.623 149.788C242.201 147.565 235.585 145.946 228.863 144.951C223.511 143.932 218.089 143.196 212.691 142.316C208.224 141.589 203.781 140.718 199.314 140.137C195.23 139.619 191.111 139.463 186.992 139.16L186.87 139.312ZM266.89 167.256C270.33 167.816 273.77 168.376 277.186 168.933C279.312 169.279 281.383 169.96 283.513 170.429C286.608 171.154 289.733 171.835 292.983 172.511C295.18 172.869 297.354 173.223 299.831 173.823C297.338 171.772 294.335 170.436 291.143 169.956C286.604 169.216 282.093 168.31 277.61 167.383C271.067 165.999 264.552 164.447 258.002 163.11C254.893 162.481 251.721 162.234 248.604 161.8L247.799 163.729C251.167 164.277 254.392 164.803 257.617 165.328C260.841 165.853 263.733 166.766 266.879 167.327L266.89 167.256ZM290.096 181.8C289.122 181.911 288.152 182.146 287.19 182.332L318.477 181.74C316.695 180.935 315.42 180.335 314.133 179.806C313.735 179.58 313.268 179.504 312.819 179.592C310.416 180.401 307.859 180.648 305.346 180.312C303.025 180.052 300.679 180.116 298.375 180.501C295.659 181.175 292.889 181.61 290.096 181.8ZM282.93 180.633C281.096 180.751 279.246 180.818 277.421 181.035C273.221 181.528 269.03 182.12 264.894 182.673C260.758 183.225 256.876 183.574 252.96 184.431C248.205 185.471 243.535 186.893 238.889 188.319C237.394 188.879 235.972 189.619 234.656 190.523C232.647 191.716 230.674 192.988 228.685 194.209C228.109 194.516 227.554 194.859 227.022 195.238C226.428 195.636 225.986 196.224 225.769 196.905C225.551 197.586 225.57 198.321 225.822 198.99C226.032 199.629 226.456 200.175 227.024 200.536C227.591 200.896 228.266 201.049 228.933 200.968C231.563 200.892 234.177 200.537 236.732 199.909C240.673 198.664 244.52 197.135 248.241 195.335C255.283 191.958 262.559 189.095 270.014 186.768C271.77 186.22 273.519 185.573 275.215 184.943L275.07 184.33C267.842 185.152 260.682 186.493 253.647 188.344C246.576 190.355 240.435 194.186 233.238 196.52C233.322 194.645 234.558 194.283 235.659 193.849C238.809 192.425 241.927 190.898 245.06 189.422C246.17 188.926 247.305 188.488 248.461 188.112C249.626 187.738 250.855 187.57 251.983 187.117C259.469 184.373 267.326 182.776 275.289 182.38C277.959 182.412 280.594 181.77 282.95 180.514L282.93 180.633ZM324.722 184.498C319.498 184.479 314.28 184.825 309.105 185.534C303.552 186.535 298.094 188.008 292.792 189.939C287.551 192.003 281.976 193.719 276.632 195.815C273.241 197.186 269.932 198.751 266.722 200.503C262.608 202.726 258.618 205.092 254.561 207.57C251.873 209.283 249.304 211.175 246.871 213.232C245.903 214.056 244.57 215.163 245.448 216.85C245.996 217.847 247.548 217.953 249.606 217.062C255.116 214.698 260.61 212.283 266.116 209.943C271.191 207.885 276.083 205.401 280.739 202.516C281.715 201.946 282.744 201.473 283.813 201.105L303.766 193.32C304.469 193.058 305.186 192.831 305.912 192.64C313.364 190.145 320.936 188.023 328.6 186.282C329.022 186.135 329.424 185.937 329.799 185.693C328.176 185.015 326.465 184.571 324.717 184.375L324.722 184.498ZM476.654 218.663C476.941 218.71 477.27 218.347 477.651 218.114C477.459 217.789 477.274 217.416 477.199 217.428C476.817 217.546 476.447 217.699 476.094 217.885C476.29 218.04 476.455 218.533 476.65 218.54L476.654 218.663ZM478.623 221.632C479.176 222.752 479.646 223.932 480.143 225.092C480.149 223.254 480.762 221.294 479.435 219.656C478.127 220.007 478.062 220.56 478.523 221.493L478.623 221.632ZM466.76 217.836C463.583 217.319 460.453 216.662 457.248 216.017C454.043 215.372 450.829 214.628 447.6 213.979C444.371 213.331 441.34 212.666 438.203 212.204C435.066 211.742 432.104 210.205 428.335 209.861C428.765 210.532 429.342 211.097 430.021 211.513C430.701 211.93 431.466 212.187 432.259 212.265C434.317 212.371 436.334 212.883 438.193 213.771C440.067 214.906 442.205 215.533 444.395 215.591C445.398 215.754 446.401 215.918 447.643 216.12C447.538 216.765 447.269 217.211 447.144 217.681L447.024 217.662L440.759 216.985L440.658 217.606C441.595 218.209 442.685 218.533 443.799 218.541C444.913 218.549 446.007 218.24 446.953 217.65L447.144 217.681C448.075 217.833 449.031 217.989 450.018 217.953C451.004 217.918 451.802 217.533 452.162 217.886C453.975 219.701 456.408 219.068 458.491 219.677C460.574 220.286 462.322 220.546 464.221 221.076C467.575 222.015 470.881 223.093 474.239 224.008C475.26 224.188 476.294 224.283 477.331 224.291L476.216 219.695C473.063 219.035 469.865 218.342 466.66 217.697L466.76 217.836ZM417.27 207.641L415.787 206.958L415.551 207.508L417.144 207.964L417.27 207.641ZM391.189 194.639C389.357 194.174 387.561 193.578 385.815 192.856C381.906 191.263 378.04 189.554 374.139 187.914C371.704 186.904 369.234 185.962 366.831 184.909C365.982 184.55 365.29 183.53 364.446 183.441C362.297 183.238 360.387 182.167 358.317 181.781C355.018 180.975 351.873 179.634 349.008 177.812C348.693 177.638 348.579 177.129 348.054 176.137C350.455 176.792 352.771 177.721 354.96 178.904C356.974 179.942 359.092 180.764 361.279 181.356C363.525 181.722 364.999 184.414 367.955 183.424C366.967 182.871 366.281 182.416 365.531 182.049C361.653 180.117 357.751 178.329 353.892 176.278C351.514 174.802 348.803 173.947 346.009 173.793L344.073 176.493C345.324 178.023 346.744 179.406 348.306 180.616C353.633 183.812 359.311 186.382 365.228 188.276C370.574 190.079 376.038 191.607 381.392 193.362C385.671 194.794 389.855 196.506 394.094 198.03C395.273 198.467 396.436 198.706 397.73 199.039C396.072 196.928 393.77 195.416 391.173 194.734L391.189 194.639ZM424.1 198.676C423.361 198.607 422.615 198.709 421.921 198.974C421.228 199.24 420.604 199.661 420.099 200.206L414.795 201.157L414.941 201.769C415.867 201.893 416.81 201.814 417.702 201.535C418.595 201.257 419.415 200.787 420.107 200.159C421.547 200.131 422.94 199.645 424.085 198.771L424.1 198.676ZM428.518 193.682C422.277 195.117 415.736 195.229 409.955 198.505C410.263 199.027 410.756 199.414 411.335 199.59C411.915 199.766 412.54 199.718 413.086 199.456L427.688 195.165C428.105 194.996 428.496 194.771 428.852 194.496L428.518 193.682ZM425.809 191.647L400.521 186.424C399.417 186.183 398.3 186.001 397.177 185.879C396.197 185.72 395.195 185.851 393.874 185.832C394.095 186.402 394.406 186.933 394.795 187.404C398.183 190.236 401.631 193.005 405.024 195.813C405.458 196.168 405.978 196.403 406.531 196.493C407.085 196.583 407.652 196.526 408.177 196.327C413.63 194.763 419.08 193.518 424.558 192.105C424.989 191.994 425.408 191.84 425.809 191.647ZM448.207 189.631C448.354 190.832 448.45 191.902 448.565 193L449.39 193.355C449.822 192.812 450.52 192.288 450.621 191.667C450.616 190.803 450.457 189.947 450.15 189.138L448.207 189.631ZM407.734 174.358L408.182 174.014C406.222 170.997 404.257 168.004 402.005 164.818C400.771 165.769 400.052 164.916 399.348 163.968C397.31 161.429 395.455 158.969 393.595 156.386C389.596 150.83 384.843 145.838 380.451 140.586C379.795 139.793 378.818 139.021 378.956 137.719C381.469 138.398 382.06 138.838 390.081 148.604C393.414 152.678 396.438 156.996 399.593 161.262C399.645 161.024 399.648 160.778 399.602 160.539C399.557 160.3 399.464 160.072 399.329 159.87C394.881 152.456 390.032 145.289 384.803 138.402C382.843 135.401 380.112 132.983 376.896 131.401C376.03 130.917 375.062 130.646 374.071 130.608C373.08 130.57 372.094 130.767 371.193 131.183C371.56 133.452 372.452 135.605 373.799 137.468C376.811 140.95 379.828 144.408 382.928 147.807C388.298 153.782 393.698 159.664 399.131 165.453C401.99 168.371 404.922 171.3 407.806 174.369L407.734 174.358ZM397.239 175.86C396.977 175.313 396.57 174.848 396.062 174.515C395.555 174.182 394.966 173.993 394.36 173.969C394.803 175.464 396.196 175.494 397.311 175.872L397.239 175.86ZM411.152 182.124C407.86 179.307 404.516 176.653 401.049 174.152C397.957 171.907 394.536 170.026 391.556 167.701C384.069 161.577 377.985 153.917 371.219 146.978C369.266 144.968 367.484 142.814 365.59 140.74C363.385 138.322 361.212 135.859 358.892 133.544C357.599 132.314 356.207 131.193 354.729 130.193C354.509 130.041 354.257 129.94 353.993 129.897C353.729 129.854 353.458 129.87 353.201 129.944C353.006 130.115 352.852 130.327 352.75 130.564C352.647 130.802 352.599 131.06 352.609 131.319C352.629 131.976 352.791 132.622 353.085 133.211C353.726 134.883 354.523 136.49 355.466 138.012C358.654 142.529 361.754 147.129 365.343 151.293C368.616 154.932 372.164 158.313 375.955 161.408C379.532 164.443 383.413 167.11 387.27 169.774C389.472 171.309 391.896 172.538 394.252 173.878C393.837 173.248 393.335 172.679 392.762 172.189C386.462 167.307 380.465 162.047 374.803 156.439C372.675 154.449 370.332 152.425 368.033 150.432C365.132 148.071 362.887 145.003 361.515 141.523C362.17 141.772 362.783 142.12 363.333 142.555C365.682 144.997 367.828 147.628 370.295 149.942C374.807 154.159 379.465 158.228 384.119 162.321C387.081 164.912 390.071 167.484 393.151 169.947C396.232 172.411 399.695 174.936 403.014 177.439C403.378 177.782 403.711 178.156 404.009 178.557L403.689 179.02L397.734 176.137C399.179 177.336 400.692 178.45 402.266 179.475C405.009 180.972 408.037 181.875 411.152 182.124ZM390.684 180.727C389.74 180.622 388.789 180.574 387.839 180.582C388.285 181.598 389.026 182.457 389.966 183.048C390.906 183.638 392.002 183.932 393.111 183.893C395.934 183.965 398.747 184.267 401.522 184.797C409.291 186.177 417.044 187.653 424.782 189.224C430.599 190.392 436.362 191.747 442.167 192.987C443.505 193.205 444.896 193.849 446.229 192.742C446.322 192.39 446.381 192.03 446.404 191.667C446.377 190.927 446.279 190.175 446.22 189.332C445.503 189.215 444.859 189.11 444.214 189.152C438.945 189.408 433.664 189.017 428.49 187.989C428.038 187.936 427.58 187.952 427.133 188.037C425.503 188.237 423.856 188.249 422.223 188.071C418.644 187.316 415.166 186.235 411.601 185.238C409.259 184.562 407.159 183.607 404.878 183.161C400.139 182.144 395.422 181.449 390.808 180.722L390.684 180.727ZM383.208 187.184C388.732 190.904 394.311 194.289 400.061 197.825C400.907 198.355 401.768 198.79 402.617 199.296C402.637 199.176 402.656 199.057 402.839 198.989L400.962 197.113L401.779 196.315L384.245 180.364C383.411 179.616 382.549 178.887 381.683 178.182C375.829 173.476 369.982 168.723 364.069 164.082C361.838 162.367 359.52 160.77 357.124 159.297C356.761 159.086 356.355 158.96 355.936 158.925C355.518 158.891 355.097 158.95 354.704 159.099C354.277 159.407 353.976 159.858 353.857 160.371C353.737 160.883 353.807 161.422 354.054 161.886C354.257 162.61 354.606 163.285 355.08 163.868C358.58 167.793 362.306 171.511 366.237 175.004C371.681 179.372 377.444 183.278 383.212 187.16L383.208 187.184ZM320.5 160.736C321.992 162.85 323.947 164.595 326.217 165.836C323.842 162.654 321.237 159.679 318.905 156.529C316.574 153.378 314.418 150.06 312.257 146.765C310.096 143.471 307.337 140.692 306.229 136.956L307.034 136.376C307.582 136.783 308.081 137.251 308.524 137.771C310.42 140.679 312.298 143.601 314.158 146.535C317.221 151.719 320.851 156.546 324.981 160.927C327.817 163.841 330.85 166.444 333.809 169.206L335.134 170.256C335.041 169.472 334.739 168.728 334.258 168.102C330.607 162.971 326.928 157.86 323.3 152.733C319.672 147.605 316.7 143.124 313.372 138.414C311.981 136.647 310.466 134.983 308.838 133.433C308.475 133.055 307.999 132.806 307.482 132.722C306.966 132.638 306.435 132.723 305.971 132.966C305.425 133.173 304.929 133.494 304.518 133.909C304.106 134.324 303.788 134.821 303.585 135.369C303.382 135.917 303.299 136.502 303.341 137.084C303.383 137.667 303.549 138.234 303.828 138.747C304.036 139.274 304.299 139.777 304.614 140.248C307.125 143.649 309.66 147.053 312.254 150.394C314.849 153.735 317.552 157.313 320.5 160.736ZM333.916 178.934C334.208 179.168 334.486 179.418 334.751 179.683L340.737 183.576L341.034 183.109L338.516 181.105C335.866 179.006 333.209 176.955 330.575 174.908C327.942 172.86 325.646 170.844 323.16 168.796C321.245 167.307 319.119 166.053 317.232 164.544C312.699 160.912 308.11 157.32 303.794 153.405C300.147 150.032 296.684 146.464 293.422 142.716C291.91 140.736 290.537 138.652 289.313 136.481C289.884 136.354 290.481 136.427 291.005 136.686C291.529 136.945 291.949 137.376 292.195 137.907C293.885 140.256 295.713 142.503 297.671 144.634C302.307 149.141 307.157 153.536 311.931 157.796C312.329 158.018 312.757 158.178 313.202 158.272C310.199 155.331 307.435 152.429 304.815 149.55C301.128 145.541 297.532 141.424 293.928 137.355C289.781 132.707 285.645 127.988 281.491 123.387C280.82 122.796 280.079 122.288 279.285 121.876L278.686 122.391C279.746 125.472 280.981 128.49 282.387 131.429C284.138 134.301 286.053 137.069 288.123 139.72C291.484 144.375 295.354 148.641 299.661 152.438C304.962 157.224 310.604 161.576 316.14 166.132C321.476 171.104 327.407 175.398 333.797 178.914L333.916 178.934ZM256.639 148.298C256.448 148.267 256.209 148.228 255.696 148.366L256.866 150.665L255.833 152.041C256.337 152.431 256.87 152.78 257.428 153.086C260.768 154.562 264.132 156.041 267.503 157.473C270.46 158.74 273.393 160.002 276.361 161.197C279.924 162.66 283.589 163.944 287.128 165.403C289.802 166.799 292.687 167.75 295.668 168.216C296.569 168.402 297.412 168.8 298.128 169.377C298.848 170.065 299.612 170.705 300.415 171.294C302.671 172.496 305.213 173.449 307.509 174.706C311.38 176.832 316.107 176.867 319.596 179.838C319.837 179.986 320.103 180.087 320.381 180.137C325.321 181.874 330.249 183.682 335.197 185.371C341.537 187.499 347.892 189.58 354.263 191.615C359.066 193.256 364.008 194.455 369.029 195.198C369.503 195.202 369.966 195.345 370.36 195.61C372.065 197.482 374.444 197.183 376.602 197.633C379.516 198.107 382.784 197.316 385.255 199.753C385.375 199.773 385.614 199.812 385.781 199.839C387.711 200.208 389.611 200.723 391.464 201.378C396.632 203.385 402.02 204.773 407.514 205.513C408.164 205.545 408.814 205.494 409.451 205.362C409.482 205.171 409.517 204.956 409.548 204.765C409.107 204.506 408.641 204.29 408.158 204.122C403.999 202.856 399.817 201.733 395.694 200.399C392.205 199.242 388.773 197.727 385.347 196.63C377.185 194.05 369.016 191.517 360.775 189.12C359.612 188.811 358.471 188.428 357.357 187.975C354.582 186.804 351.876 185.479 349.249 184.006C346.288 182.4 343.667 180.233 341.535 177.625C340.643 176.469 339.664 175.383 338.606 174.377C338.015 173.79 337.294 173.55 336.793 174.523C336.761 174.714 336.846 174.948 336.95 175.063C341.157 179.888 346.054 184.065 351.482 187.46C352.181 188.001 352.821 188.615 353.391 189.291C351.652 190.332 351.024 190.573 350.039 189.848C348.214 188.717 346.266 187.799 344.231 187.112C340.557 185.435 337.024 183.486 333.18 182.1C325.582 179.366 318.098 176.235 310.564 173.266C310.296 173.172 310.036 173.056 309.787 172.919C305.115 170.199 300.199 167.92 295.104 166.113C293.701 165.542 292.366 164.858 290.995 164.243L279.095 159.018C278.09 158.561 277.031 158.143 276.006 157.657L256.639 148.298ZM241.757 145.874L250.376 148.21L250.465 147.661C247.606 146.851 245.619 143.242 241.657 145.735L241.757 145.874ZM173.905 125.871C171.008 125.743 168.131 125.789 165.191 125.776C164.639 129.168 167.984 130.154 168.618 132.587C170.629 133.785 172.804 134.684 175.073 135.257C177.088 135.474 179.09 135.8 181.069 136.234C183.201 136.609 185.351 136.877 187.51 137.038C190.212 137.306 192.923 137.527 195.637 137.724C196.855 137.922 198.111 137.588 199.326 137.81C205.8 139.012 212.25 140.357 218.732 141.51C221.718 141.997 224.743 142.244 227.728 142.584C227.547 142.039 227.304 141.877 227.045 141.81C222.907 140.866 218.73 140.014 214.632 138.979C208.336 137.439 202.099 135.687 195.772 134.337C189.981 133.039 184.118 132.084 178.215 131.478C176.748 131.196 175.303 130.813 173.89 130.332C174.449 128.706 175.445 129.212 176.337 129.308C179.681 129.853 183.072 130.111 186.416 130.656C191.504 131.484 196.616 132.317 201.665 133.385C208.78 134.863 215.404 137.707 222.678 138.058C220.798 137.409 218.898 136.879 216.998 136.348C209.538 134.275 202.07 132.249 194.646 130.108C187.938 127.801 180.97 126.337 173.901 125.748L173.905 125.871ZM229.318 136.884C232.391 139.792 236.332 141.614 240.538 142.071C237.014 139.873 233.248 138.091 229.314 136.761L229.318 136.884ZM210.878 116.716C212.276 119.308 214.067 121.667 216.188 123.711C217.658 125.372 218.894 127.266 220.46 128.796C221.129 129.586 221.956 130.227 222.887 130.678C223.819 131.13 224.834 131.382 225.869 131.418L210.878 116.716ZM214.583 125.583C215.374 126.3 216.283 126.889 217.133 127.543L217.382 127.216C215.305 124.916 213.212 122.711 211.154 120.292C208.448 116.315 205.507 112.503 202.347 108.877C201.619 108.135 201.013 107.283 200.551 106.353C200.339 106 200.528 105.442 200.554 104.98L201.051 104.791L209.162 115.21C209.246 115.03 209.285 114.832 209.274 114.634C209.264 114.435 209.205 114.242 209.102 114.072C205.759 109.182 202.784 104.05 200.201 98.7189C198.738 96.0908 197.111 93.5573 195.331 91.1333C195.127 90.8513 194.866 90.6164 194.564 90.4445C194.262 90.2726 193.926 90.1677 193.58 90.1371C192.534 90.2364 192.526 91.1914 192.525 92.0985C192.392 96.3526 193.763 100.517 196.396 103.862C197.835 105.714 199.076 107.731 200.36 109.632C202.17 112.371 204.121 115.013 206.206 117.548C208.855 120.407 211.776 122.943 214.583 125.583ZM174.358 109.541C175.438 110.616 176.584 111.622 177.791 112.552C179 113.293 180.263 113.941 181.57 114.492C177.815 114.665 175.292 112.39 172.667 110.442C170.867 112.16 170.886 113.095 172.801 114.436C177.748 117.71 183.082 120.358 188.681 122.32C195.291 124.794 201.917 127.173 208.526 129.647C210.837 130.514 213.121 131.548 215.564 132.51C214.759 131.609 213.803 130.855 212.738 130.284C210.099 128.874 207.432 127.483 204.754 126.164C200.465 124.043 196.152 121.918 191.827 119.865C189.209 118.629 186.491 117.549 183.845 116.333C183.434 116.144 183.202 115.616 182.746 115.1C185.773 114.882 196.763 119.37 203.275 123.348L208.226 125.773C206.84 124.346 205.462 122.871 203.275 123.348C203.042 122.82 202.933 122.14 202.53 121.903C199.26 119.85 196.017 117.777 192.605 115.995C188.084 113.64 183.525 111.524 178.965 109.408C178.272 108.968 177.463 108.745 176.642 108.769C175.82 108.792 175.025 109.061 174.358 109.541ZM138.04 96.6116C138.008 96.7368 137.987 96.8648 137.978 96.9938L152.981 101.081C153 100.961 153.024 100.818 153.043 100.698L138.04 96.6116ZM131.228 92.2162C122.915 90.7149 114.457 89.8029 106.405 86.9956C100.095 84.7907 93.5874 83.1912 87.1352 81.4045C82.0296 80.0824 76.8611 78.9953 71.7043 77.8365C70.7066 77.5553 69.6609 77.4874 68.6352 77.6372C67.6095 77.787 66.6268 78.1511 65.7512 78.7059C63.9651 79.8862 63.7183 80.9494 65.5209 82.0767C67.8304 83.7176 70.3396 85.0574 72.9878 86.0639C79.1661 88.0267 85.5023 89.6228 91.7628 91.2311C93.7924 91.6718 95.8524 91.9582 97.9252 92.0878C104.648 92.8151 111.418 93.403 118.125 94.2258C122.6 94.7585 127.011 95.6733 131.502 96.2576C129.812 95.4502 128.036 94.8399 126.207 94.4388C123.205 93.7536 120.167 93.1361 117.16 92.4747C116.133 92.3074 115.149 91.8773 114.141 91.7378C108.839 91.0212 103.486 90.4679 98.2104 89.5841C93.433 88.8058 88.7139 87.6693 83.8555 86.4856C79.1013 85.6991 74.5697 83.9076 70.5629 81.2306C71.9013 79.487 73.1306 80.521 74.1866 80.9627C76.7454 82.1691 79.3747 83.2198 82.0603 84.1089C88.0742 85.726 94.1192 87.1521 100.239 88.4188C103.795 89.1697 107.429 89.4428 111.099 89.9426C113.034 90.2578 115.039 90.2902 116.963 90.677C124.217 92.2021 131.387 94.2527 138.806 95.069C141.26 95.5281 143.67 96.1995 146.007 97.0757L153.874 99.3625C154.161 99.4092 154.534 99.2248 155.4 99.0227C153.113 98.0125 151.399 97.0957 149.586 96.4817C143.582 94.603 137.445 93.1772 131.228 92.2162ZM161.923 89.5411L159.771 83.1829C159.054 80.9574 158.238 78.7403 157.705 76.4465C155.891 70.1727 155.566 63.5624 156.755 57.1409C156.999 55.6542 156.964 54.1349 156.651 52.6611C156.19 49.619 157.557 47.0954 158.369 43.9174C158.767 44.4216 159.028 45.02 159.127 45.6548C159.225 46.2895 159.158 46.9389 158.932 47.54C158.273 49.9902 158.106 52.5467 158.442 55.0617C158.56 56.3711 158.518 57.6899 158.317 58.9892C157.731 62.5209 157.732 66.1251 158.321 69.6564C158.656 71.2069 158.639 72.8223 158.847 74.4011C158.97 75.3039 159.24 76.2061 159.462 77.2477C159.716 76.8966 159.886 76.7528 159.91 76.6095C160.519 70.1616 161.179 63.6976 161.661 57.278C161.771 54.3177 162.216 51.3794 162.99 48.5198C163.31 47.0509 163.512 45.5586 163.594 44.0573C163.892 39.2346 162.992 34.413 160.976 30.0218C160.539 29.1384 160.009 28.3041 159.395 27.5329C158.004 28.0597 156.767 28.9257 155.796 30.0521C154.824 31.1785 154.149 32.5297 153.833 33.9831C153.441 35.8198 153.227 37.6899 153.193 39.5676C152.799 48.8718 152.919 58.1905 153.55 67.4816C153.936 75.5356 156.867 83.2594 161.923 89.5411ZM154.062 87.8193L154.781 87.3233C154.253 86.6488 153.721 85.9983 153.221 85.3038C151.398 82.7999 149.574 80.296 147.783 77.7482C146.863 76.4704 146.093 75.0209 145.166 73.7909C143.842 71.9814 142.269 70.3519 141.132 68.4503C139.418 65.5719 136.823 63.1385 136.269 59.6153C134.106 57.8407 133.805 55.0209 132.484 52.7459C131.535 51.0464 130.45 49.4231 129.366 47.7997C128.282 46.1764 127.047 44.5775 126.046 42.8941C125.523 42.2224 125.156 41.4421 124.973 40.6105C124.791 39.7788 124.796 38.9169 124.99 38.0876C125.621 38.8771 126.037 39.3371 126.349 39.8293C127.128 41.2218 127.98 42.572 128.902 43.8744C132.711 48.6389 134.956 54.2766 138.015 59.4338C140.206 63.142 142.416 66.8368 144.645 70.5183C144.923 70.8511 145.247 71.1432 145.607 71.3861C142.603 63.9329 139.449 56.6513 135.894 49.5742C133.156 44.1015 129.974 38.8014 126.871 33.6125C125.536 31.3604 123.492 29.6135 121.06 28.6445C119.122 32.8651 117.899 36.9081 120.656 41.0598C122.784 44.2509 124.925 47.5176 127.359 50.4888C130.402 54.1923 133.035 58.2141 135.213 62.4839C136.3 64.8521 137.568 67.1327 139.006 69.3055C142.657 74.2895 146.499 79.1574 150.344 84.0014C151.539 85.3975 152.844 86.5665 154.062 87.8193ZM119.252 71.5067C119.693 71.699 120.158 71.8324 120.634 71.9035C119.489 70.6484 118.22 69.5133 116.845 68.5156C112.409 65.0479 107.619 62.0569 102.557 59.5919C98.3123 57.3649 94.308 54.7077 90.6069 51.6622C89.2499 50.5094 87.7979 49.4882 86.362 48.5186C83.2785 46.3735 80.0722 44.3799 77.0837 42.1031C73.6603 39.4857 70.3397 36.6888 67.1263 33.8359C66.1842 32.9958 64.7616 32.3963 64.524 30.543C65.1486 30.7086 65.7518 30.9468 66.321 31.2526C68.7546 33.0222 71.1287 34.8557 73.5306 36.6692C76.3036 38.7638 79.0487 40.8784 81.8772 42.933C84.3147 44.6787 86.8866 46.2011 89.3163 47.9945C91.746 49.788 93.5374 51.1342 95.6321 52.726C98.7862 55.0695 102.158 57.105 105.701 58.8044C108.722 60.2774 111.68 61.8382 114.758 63.4184C113.669 61.8267 112.454 60.325 111.124 58.9278C108.741 56.7004 106.147 54.7086 103.589 52.649C98.2579 48.3476 92.8948 44.0901 87.5594 39.8126C85.5881 38.2164 83.6444 36.6002 81.6375 35.0717C76.4943 31.1198 71.2995 27.1839 66.1524 23.2559L58.2963 17.2926C57.1694 18.4159 56.3807 19.833 56.0199 21.3826C55.6591 22.9322 55.7407 24.552 56.2555 26.0575C58.3555 29.9666 61.1983 33.4282 64.6245 36.2483C67.4713 38.9434 70.8175 41.1314 73.8704 43.6149C77.8134 46.8105 82.0388 49.6409 86.4944 52.0712C87.1319 52.469 87.7398 52.9122 88.3136 53.3974C91.4493 55.6737 94.5494 58.0178 97.7207 60.2263C99.0855 61.0433 100.496 61.7808 101.946 62.435L119.252 71.5067ZM137.082 85.0289C135.996 84.3235 134.996 83.494 134.101 82.557C133.165 81.2276 131.775 81.7857 130.635 81.2568C130.444 81.2256 130.367 80.9434 130.208 80.8684C128.787 80.1854 127.33 79.5798 125.844 79.0542C123.51 78.3306 120.977 77.771 118.552 77.1552C116.198 76.5511 113.973 76.0659 111.73 75.3818C106.528 73.7497 101.337 72.046 96.1625 70.3939C94.6248 69.8982 93.0678 69.522 91.4979 68.9229C87.0828 67.1248 82.7622 65.0478 78.2404 63.453C74.5356 62.1475 70.8995 60.655 67.3459 58.9811C63.9129 57.4462 60.69 55.4791 57.7554 53.1277C59.1165 52.1479 59.9864 52.829 60.9991 53.3863C64.9661 55.7212 69.0583 57.8368 73.2572 59.7233C77.3295 61.3675 81.5441 62.7406 85.6248 64.4843C91.5625 67.0208 97.7331 69.0314 103.856 71.0341C108.891 72.6389 114.028 73.9172 119.122 75.3109C119.585 75.3566 120.051 75.3335 120.507 75.2422C120.538 75.0511 120.573 74.8361 120.604 74.645C118.754 74.0365 116.937 73.3313 115.161 72.5324C110.643 70.402 105.917 68.7446 101.058 67.5868C96.2852 66.4093 91.6207 64.8292 87.1149 62.8634C82.8343 60.842 78.7714 58.5373 74.5819 56.4081C69.1769 53.7621 63.6891 51.3234 58.292 48.6297C57.0142 47.9526 55.5894 47.6005 54.1433 47.6044C52.6972 47.6083 51.2743 47.9681 50.0002 48.6522C50.3282 49.5413 50.7872 50.3765 51.3621 51.1299C53.0353 52.6553 54.7913 54.0873 56.6219 55.4196C61.6622 59.059 67.2234 61.9159 73.1173 63.8936C81.7909 67.0965 90.5429 69.9689 99.3382 72.7257C105.242 74.5701 111.287 75.9962 117.288 77.5378C117.599 77.5884 118.023 77.2407 118.413 77.108C119.437 77.8359 120.523 78.4723 121.658 79.0099C126.404 80.7391 131.405 81.799 135.689 84.7037C135.996 84.9254 136.394 84.8921 137.011 85.0172L137.082 85.0289ZM140.183 85.2642L139.612 85.7596L141.194 87.4886L141.713 87.0092L140.183 85.2642ZM76.6977 3.07648C76.3553 5.17854 77.6929 6.45082 78.6444 7.68474C80.9784 10.517 83.5751 13.3921 85.9569 16.2322C90.3495 21.6312 94.4881 27.2341 98.9956 32.5292C103.503 37.8244 107.115 42.9 110.874 48.2695C111.862 49.8544 112.949 51.3747 114.13 52.8212C116.928 55.7359 119.256 59.0684 121.03 62.6991C122.12 65.3893 123.654 67.8772 125.569 70.0591C129.942 74.5232 133.859 79.3789 137.998 84.0746C138.195 83.891 138.403 83.7201 138.621 83.563C136.934 81.4246 135.132 79.3901 133.608 77.1556C130.347 72.3334 128.226 66.8385 124.7 62.1445C122.677 59.51 120.968 56.755 118.961 54.1722C115.987 50.3038 112.842 46.5792 109.788 42.7469C106.734 38.9146 103.907 35.1929 100.929 31.4956L88.0975 15.1341C87.0382 13.8091 86.0745 12.4997 84.9753 11.1191C84.4915 10.4763 84.266 9.75296 85.6277 8.92037C95.1071 20.2729 104.309 31.8254 113.233 43.5778C111.608 39.8077 109.447 36.2924 106.816 33.1411C102.01 26.8165 97.253 20.647 92.4195 14.3424C89.8345 10.8731 86.747 7.80821 83.2588 5.24868C81.3623 3.83774 79.0615 3.07597 76.6977 3.07648ZM392.704 190.006C392.603 189.72 392.562 189.37 392.391 189.219C383.3 182.001 374.192 174.795 365.064 167.603C364.775 167.372 364.447 167.194 364.096 167.078C364.096 167.078 363.758 167.194 363.21 167.399C363.718 168.148 364.293 168.849 364.928 169.494C367.794 171.971 370.763 174.417 373.836 176.83C379.478 181.329 385.18 185.764 390.851 190.243C391.617 190.81 392.154 190.824 392.704 190.006ZM373.702 216.336C373.364 216.452 373.3 217.3 372.898 218.412C380.535 216.689 386.521 212.907 393.089 210.519C393.713 210.302 394.188 209.644 395.065 208.928C394.205 208.788 394.021 208.562 393.866 208.61C387.077 211.15 380.331 213.729 373.627 216.348L373.702 216.336ZM310.129 187.074C307.657 187.622 305.214 188.296 302.811 189.095C300.386 189.782 298 190.605 295.667 191.56C289.362 194.285 282.584 195.706 276.484 198.979C274.681 199.96 272.71 200.62 270.908 201.602C267.413 203.485 264.014 205.383 260.592 207.277C259.21 208.082 257.868 208.943 256.483 209.771L256.688 210.32C257.183 210.44 257.698 210.457 258.2 210.37C260.988 209.394 263.662 208.12 266.175 206.569C271.529 203.087 277.267 200.236 283.277 198.075C290.32 195.029 297.656 192.742 304.888 190.193C306.564 189.639 308.274 189.196 310.008 188.869C314.322 187.978 318.652 187.138 322.962 186.271L323.074 185.578C322.252 185.333 321.401 185.195 320.542 185.166C317.071 185.851 313.552 186.381 310.053 187.087L310.129 187.074ZM230.843 107.805C226.312 104.316 222.326 100.171 219.017 95.5066C218.069 94.1879 217.006 92.9561 215.84 91.8259L215.133 92.1031C215.175 92.7475 214.884 93.6318 215.287 94.0163C218.711 97.9825 222.163 101.929 225.639 105.732C227.165 107.353 229.067 108.62 230.712 110.114C233.083 112.265 235.367 114.501 237.655 116.713C237.971 117.105 238.367 117.425 238.817 117.65C239.266 117.876 239.76 118.002 240.262 118.02L238.712 115.046C237.745 114.366 236.817 113.633 235.93 112.852C234.285 111.211 232.671 109.378 230.843 107.805ZM394.861 225.839C394.861 225.839 394.957 226.149 395.106 226.59C398.718 226.02 402.215 224.876 405.466 223.202C401.948 222.825 398.891 224.73 395.55 225.069C395.276 225.097 395.031 225.548 394.861 225.839Z" fill="#101A24"/>
</svg>
