<svg width="296" height="159" viewBox="0 0 296 159" fill="none" xmlns="http://www.w3.org/2000/svg">
<path d="M167.458 128.044L169.325 126.177C170.539 126.83 169.586 127.839 169.773 128.324C171.379 130.004 172.872 131.423 174.179 133.01C175.15 134.224 174.982 134.616 173.881 135.606L169.344 130.695C168.074 133.402 167.122 135.83 165.852 138.163C164.583 140.497 163.052 142.346 161.595 144.474C160.4 143.858 160.382 143.317 160.923 142.458C162.081 140.591 163.108 138.724 164.396 136.539C163.678 136.733 162.948 136.883 162.211 136.987C161.857 136.987 161.222 136.838 161.184 136.632C161.127 136.419 161.12 136.196 161.162 135.979C161.204 135.762 161.295 135.558 161.427 135.382C162.306 134.82 163.216 134.309 164.153 133.851C165.199 133.29 166.879 133.626 167.066 131.815C167.178 130.695 167.308 129.463 167.458 128.044ZM165.292 145.24C164.246 145.52 163.836 146.36 163.425 147.256C164.302 146.789 165.199 146.379 165.292 145.24ZM152.428 103.399C151.121 105.266 151.438 106.554 153.417 107.786C153.565 107.026 153.553 106.244 153.382 105.489C153.212 104.733 152.887 104.022 152.428 103.399ZM236.801 130.695C235.909 130.983 234.95 130.982 234.058 130.694C233.167 130.406 232.389 129.845 231.835 129.089C230.434 127.671 229.202 126.083 227.932 124.534C226.905 123.302 226.065 121.92 224.945 120.8C222.686 118.428 220.315 116.151 218 113.817C217.777 113.561 217.474 113.39 217.141 113.331C217.141 114.732 218.112 115.198 218.784 116.02C220.053 117.476 221.379 118.877 222.518 120.389C224.18 122.517 223.694 124.982 223.171 127.334C222.854 128.753 221.902 129.202 220.557 128.492C219.84 128.143 219.204 127.647 218.69 127.036C217.271 125.467 217.29 125.43 215.404 126.065C211.073 127.484 208.926 126.774 206.386 122.965C206.125 122.573 205.92 122.163 205.677 121.733C203.81 123.6 203.81 123.6 201.607 122.965C200.58 125.337 199.478 127.652 198.582 130.042C198.342 130.64 197.938 131.157 197.416 131.534C196.893 131.911 196.275 132.131 195.632 132.17C194.912 132.201 194.203 131.987 193.619 131.563C193.036 131.139 192.614 130.531 192.421 129.836C192.197 129.314 191.935 128.828 191.692 128.287C191.27 128.26 190.846 128.26 190.423 128.287C187.622 128.492 186.39 126.7 186.689 123.712C186.832 122.673 187.174 121.672 187.697 120.762C189.408 117.093 190.602 113.203 191.244 109.205C190.296 110.539 189.013 111.599 187.526 112.281C186.038 112.963 184.397 113.241 182.768 113.089C183.272 113.948 183.552 114.489 183.907 114.956C184.971 116.561 184.149 118.391 184.43 120.09C184.43 120.408 183.627 121.024 183.085 121.248C181.216 122.029 179.183 122.337 177.167 122.144C175.841 122.013 174.497 122.013 172.704 121.939C174.571 124.403 176.084 126.532 177.727 128.567C179.336 130.986 180.424 133.714 180.919 136.576C181.076 137.45 181.294 138.311 181.573 139.153C181.861 139.905 181.957 140.717 181.852 141.516C181.748 142.314 181.447 143.074 180.975 143.727C180.639 144.362 179.575 144.661 178.81 145.016C178.131 145.191 177.463 145.409 176.812 145.669C176.009 146.192 175.449 147.013 174.273 146.509C173.634 146.304 173.054 145.947 172.582 145.469C172.111 144.991 171.762 144.407 171.565 143.765C171.285 142.85 170.931 141.898 170.501 140.721C170.202 141.3 169.96 141.543 169.96 141.804C169.96 144.885 168.354 147.405 166.991 149.963C166.312 151.061 165.334 151.942 164.172 152.503C163.648 152.692 163.091 152.771 162.535 152.733C161.98 152.696 161.438 152.543 160.944 152.285C160.451 152.027 160.017 151.669 159.669 151.234C159.321 150.799 159.068 150.296 158.925 149.758C158.832 149.459 158.776 149.161 158.645 148.656C158.207 148.861 157.758 149.042 157.301 149.198C156.562 149.503 155.792 149.729 155.004 149.87C154.495 150.007 153.959 150.019 153.444 149.905C152.928 149.791 152.448 149.555 152.043 149.216C151.638 148.877 151.321 148.446 151.118 147.958C150.915 147.471 150.833 146.942 150.878 146.416C150.76 145.139 150.972 143.853 151.494 142.682C152.596 140.572 154.071 138.63 155.378 136.614C155.516 136.259 155.61 135.889 155.658 135.512C154.538 136.315 153.791 136.969 152.857 137.473C152.131 137.952 151.32 138.288 150.467 138.462C150.163 138.507 149.853 138.484 149.559 138.394C149.265 138.304 148.995 138.149 148.768 137.942C148.541 137.735 148.363 137.48 148.247 137.195C148.131 136.91 148.079 136.603 148.096 136.296C148.08 135.732 148.13 135.168 148.246 134.616C148.517 133.965 148.559 133.241 148.366 132.563C148.172 131.885 147.755 131.292 147.181 130.882C146.752 130.583 146.64 129.388 146.808 128.697C146.971 128.159 146.942 127.58 146.728 127.06C146.514 126.539 146.127 126.109 145.632 125.841C143.163 123.982 140.448 122.474 137.566 121.36C136.908 121.212 136.278 120.96 135.699 120.613C133.645 118.746 131.386 119.343 129.183 120.034C128.376 120.237 127.659 120.703 127.148 121.36C126.829 121.915 126.38 122.385 125.841 122.729C125.301 123.074 124.686 123.283 124.048 123.339C122.993 123.617 121.957 123.967 120.949 124.384C121.509 124.907 121.827 125.43 122.2 125.505C123.383 125.738 124.581 125.887 125.785 125.953C127.783 126.046 129.799 126.083 131.797 126.121C132.418 126.183 133.043 126.183 133.664 126.121C136.729 125.803 139.82 126.373 142.57 127.764C143.393 128.065 144.116 128.589 144.657 129.279C145.198 129.968 145.535 130.795 145.632 131.666C145.912 133.533 145.184 135.064 143.111 134.635C142.844 134.643 142.579 134.693 142.327 134.784C142.68 135.526 142.937 136.311 143.093 137.118C143.274 138.297 143.197 139.5 142.868 140.647C141.767 143.541 138.836 144.119 135.848 142.514C132.114 140.46 128.081 138.649 124.16 136.913C123.244 136.554 122.237 136.495 121.285 136.744C122.275 137.361 123.152 138.014 124.254 138.612C126.309 139.573 128.013 141.153 129.127 143.13C129.505 143.835 129.692 144.627 129.668 145.426C129.444 148.264 128.081 149.03 125.449 147.91L123.227 146.789L121.864 148.656C119.903 151.308 117.42 151.625 115.254 149.254C113.619 147.379 112.122 145.388 110.773 143.298C109.156 140.904 106.942 138.974 104.351 137.697C101.693 136.356 98.9185 135.262 96.0609 134.429C90.009 132.436 83.5429 132.05 77.2969 133.309C71.6588 134.662 66.1244 136.415 60.7359 138.556C59.6903 138.966 58.5701 139.19 57.5059 139.564C56.3544 139.881 55.2354 140.306 54.1638 140.833C52.59 141.672 51.0964 142.653 49.7015 143.765C46.9569 145.968 44.3243 148.358 41.6357 150.636C41.0943 151.121 40.4595 151.476 39.9367 151.98C39.1799 152.552 38.5451 153.269 38.0696 154.09C37.9172 154.448 37.6951 154.773 37.4163 155.046C37.1375 155.318 36.8075 155.533 36.4453 155.677C33.1779 157.301 30.9374 155.807 28.1928 153.156C28.0074 152.923 27.8448 152.673 27.7074 152.409C21.5366 155.245 15.0583 157.356 8.40183 158.701C6.36555 159.236 4.21091 159.099 2.25916 158.309C1.48066 157.858 0.726561 157.365 0 156.834C1.0829 154.967 2.03511 153.268 2.96865 151.588C3.16982 151.192 3.47726 150.86 3.85651 150.629C4.23576 150.398 4.67181 150.278 5.11578 150.281C10.5116 150.131 15.4967 148.302 20.5565 146.733C22.853 146.024 25.1868 145.445 27.4833 144.736C29.7798 144.026 32.3937 143.149 34.8022 142.234C37.5095 141.207 40.1794 140.049 42.8307 138.892C43.4045 138.614 43.9435 138.269 44.4364 137.865C46.0398 136.528 47.7166 135.281 49.4588 134.131C53.1929 131.871 57.0764 129.687 61.016 127.708C66.6904 124.902 72.5476 122.481 78.5478 120.464C86.2588 117.831 94.2686 116.412 102.166 114.545C107.319 113.313 112.566 112.454 117.794 111.52C119.997 111.128 122.256 111.016 124.478 110.736C125.337 110.643 126.177 110.493 127.222 110.325C126.905 109.915 126.812 109.616 126.644 109.579C123.94 108.725 121.072 108.533 118.279 109.018C114.302 109.952 110.437 111.371 106.479 112.398C104.479 112.982 102.4 113.246 100.318 113.182C95.9345 112.866 91.5286 113.213 87.2484 114.209C81.9771 115.381 76.793 116.916 71.733 118.802C65.558 121.109 59.6591 124.096 54.1451 127.708C53.2454 128.239 52.3166 128.719 51.3632 129.145C47.8718 131.013 44.343 132.73 40.8889 134.616C37.4348 136.502 33.7193 138.63 30.1906 140.721C28.1368 141.954 26.195 143.41 24.1413 144.68C22.8146 145.504 21.2539 145.87 19.699 145.722C18.144 145.573 16.6808 144.919 15.5341 143.858C15.2564 143.409 15.0545 142.917 14.9366 142.402C20.2391 139.732 24.5147 135.942 29.1637 132.674C32.039 130.639 35.157 128.94 38.1817 127.073C42.6602 124.684 47.3243 122.661 52.1287 121.024C56.8151 119.157 61.4641 117.01 66.1691 115.161C71.6419 112.783 77.2533 110.738 82.9727 109.037C86.0161 108.253 89.0968 107.618 92.1214 106.759C93.4248 106.33 94.6532 105.7 95.7622 104.892C96.519 104.423 97.1408 103.765 97.5663 102.982C97.9918 102.2 98.2066 101.32 98.1894 100.43C98.1956 99.3037 98.3335 98.182 98.6002 97.0878C98.9329 96.0983 98.9537 95.0305 98.6599 94.0287C98.366 93.027 97.7716 92.1396 96.9571 91.4866C96.3513 91.0096 95.8615 90.4013 95.5247 89.7076C95.188 89.0139 95.013 88.2529 95.013 87.4817C95.013 86.7106 95.188 85.9496 95.5247 85.2558C95.8615 84.5621 96.3513 83.9539 96.9571 83.4769C97.8236 82.6661 98.9252 82.1515 100.103 82.0072C101.281 81.8629 102.474 82.0964 103.511 82.674C103.999 82.2772 104.51 81.9093 105.042 81.5724C105.441 81.3407 105.887 81.2006 106.348 81.1623C106.808 81.1241 107.271 81.1885 107.703 81.3511C108.136 81.5137 108.527 81.7703 108.848 82.1024C109.169 82.4346 109.412 82.8339 109.56 83.2715C110.045 84.8585 110.251 86.5575 110.624 88.3686C111.174 87.2331 111.492 85.9993 111.56 84.7393C111.627 83.4794 111.442 82.2187 111.016 81.031C110.4 79.1639 109.747 77.2969 109.149 75.5231C108.835 74.8172 108.709 74.0417 108.784 73.2726C108.859 72.5035 109.133 71.7671 109.579 71.1355C110.056 70.4254 110.74 69.8796 111.539 69.5722C112.337 69.2649 113.211 69.211 114.041 69.4178C114.989 69.5384 115.87 69.9706 116.546 70.6465C117.222 71.3224 117.654 72.2037 117.775 73.152C117.775 73.4507 117.775 73.7681 117.868 74.1602C120.632 74.5149 123.731 74.3469 124.16 78.1557C123.888 83.0034 122.412 87.7068 119.866 91.8414C121.184 91.1291 122.434 90.2979 123.6 89.3582C124.198 88.8143 124.931 88.4408 125.723 88.2766C126.514 88.1124 127.335 88.1635 128.1 88.4246C128.5 88.4884 128.877 88.6545 129.194 88.9068C129.512 89.1591 129.758 89.4891 129.91 89.8647C130.062 90.2404 130.115 90.649 130.063 91.0509C130.011 91.4528 129.855 91.8344 129.612 92.1588C129.332 92.6629 129.033 93.1483 128.473 94.0258C130.471 93.7084 131.741 93.335 132.581 91.9534C133.459 90.7467 133.848 89.2529 133.672 87.7711C133.495 86.2893 132.766 84.9289 131.629 83.9623C130.891 83.2309 130.015 82.6533 129.052 82.2633C126.94 81.5333 125.176 80.0421 124.104 78.081C125.374 76.662 124.851 74.8323 125.131 73.1893C125.131 72.9279 124.702 72.5358 124.403 72.2931C123.712 71.733 122.947 71.2849 122.256 70.7248C121.556 70.233 121.047 69.516 120.812 68.6936C120.578 67.8712 120.633 66.9932 120.968 66.2064C121.22 65.4735 121.719 64.8511 122.38 64.4458C123.041 64.0404 123.822 63.8774 124.59 63.9846C126.98 64.1527 129.37 64.4887 131.797 64.7501C131.797 64.6194 131.797 64.2834 131.629 64.2273C128.175 62.7337 124.721 61.2587 121.248 59.8397C120.588 59.5335 119.865 59.3864 119.138 59.4103C117.266 59.5107 115.416 58.9707 113.891 57.8793C110.867 56.0122 110.699 52.8942 113.425 50.523C114.078 49.9442 114.769 49.4028 115.441 48.8427C115.296 48.2599 115.196 47.6669 115.142 47.0689C115.014 46.1505 115.161 45.2145 115.564 44.3794C115.968 43.5444 116.61 42.8479 117.41 42.3781C118.209 41.9083 119.13 41.6864 120.056 41.7403C120.982 41.7943 121.871 42.1218 122.611 42.6813C123.657 43.3267 124.661 44.0376 125.617 44.8098C126.532 45.5566 127.484 46.3408 128.847 47.5544C128.219 46.3517 128.049 44.962 128.368 43.6434C128.687 42.3248 129.474 41.1669 130.583 40.3848C132.058 39.3019 133.309 40.0487 134.448 40.8889C138.313 39.1525 139.321 39.526 140.703 43.9696C142.084 48.4132 143.298 52.7262 144.605 57.1698C144.605 57.1698 144.81 57.3192 144.941 57.3192C147.723 57.3192 149.646 56.479 150.15 53.2489C150.393 51.6619 151.532 51.5686 153.193 52.2594C154.049 52.5605 154.824 53.0562 155.455 53.7074C156.087 54.3587 156.559 55.1476 156.834 56.0122C157.139 53.5008 156.897 50.953 156.125 48.5439C155.541 46.5932 155.735 44.4921 156.666 42.6813C157.338 41.3183 158.234 40.1047 159.878 40.1794C161.521 40.2541 163.612 40.3661 164.713 42.2892C164.899 42.7311 165.111 43.1613 165.348 43.5775C165.945 44.399 166.655 44.7911 167.57 43.9696C167.813 43.7455 168.111 43.5962 168.335 43.3908C168.807 42.9423 169.417 42.6681 170.066 42.6138C170.714 42.5595 171.362 42.7282 171.901 43.0921C172.507 43.3574 173.007 43.8175 173.322 44.3993C173.636 44.9811 173.747 45.6512 173.638 46.3034C173.205 48.422 172.58 50.4968 171.771 52.5021C170.426 55.8629 168.839 59.1302 167.402 62.4349C167.196 63.0922 167.052 63.7673 166.972 64.4514C167.406 64.1841 167.781 63.8309 168.073 63.4135C168.365 62.9961 168.569 62.5233 168.671 62.0242C169.157 60.7795 169.661 59.5348 170.184 58.29C170.56 57.4835 171.119 56.7754 171.815 56.2214C172.512 55.6674 173.327 55.2826 174.198 55.0973C175.097 55.0362 176.001 55.1309 176.868 55.3774C177.695 53.6311 178.074 51.7058 177.969 49.7762C177.894 48.915 178.059 48.0497 178.448 47.2776C178.837 46.5054 179.433 45.857 180.17 45.4051C180.907 44.9532 181.756 44.7157 182.62 44.7194C183.485 44.7231 184.331 44.9677 185.064 45.4259C185.643 44.5857 186.259 43.7829 186.819 42.924C187.753 41.5051 189.452 40.3661 190.311 40.7956C190.888 41.1629 191.362 41.6709 191.689 42.2719C192.015 42.8728 192.184 43.547 192.178 44.231C192.179 45.3545 192.06 46.4748 191.823 47.573C191.823 48.3385 191.562 49.1227 191.356 50.3363C192.939 49.4734 194.187 48.1065 194.904 46.4528C195.931 43.6335 198.04 41.6171 199.572 39.1899C199.671 39.0055 199.753 38.8116 199.814 38.6111C197.934 36.5445 195.546 35.006 192.887 34.1488C190.031 33.1032 187.025 32.4311 184.205 31.2922C182.428 30.5882 180.795 29.5629 179.388 28.2675C176.868 25.8216 177.167 23.7492 179.949 21.602C180.247 21.378 180.583 21.1726 180.957 20.9299C180.807 20.5191 180.789 20.1271 180.583 19.959C179.999 19.393 179.623 18.6468 179.514 17.8408C179.406 17.0347 179.572 16.2156 179.986 15.5154C180.114 14.9524 180.371 14.4269 180.737 13.9801C181.103 13.5332 181.567 13.1773 182.094 12.9403C182.62 12.7033 183.195 12.5916 183.772 12.614C184.349 12.6364 184.913 12.7923 185.419 13.0695C187.174 13.9284 189.153 14.4325 190.18 16.5423C190.516 17.2518 191.711 17.5505 192.514 18.0173L192.925 17.7185C192.665 17.147 192.359 16.5975 192.01 16.0755C190.46 14.2084 188.836 12.2293 187.324 10.2502C186.828 9.59439 186.511 8.82153 186.403 8.00685C186.295 7.19217 186.4 6.36342 186.707 5.60122C186.802 5.14248 187.008 4.71442 187.309 4.35571C187.611 3.99699 187.996 3.71891 188.432 3.54658C188.867 3.37426 189.339 3.31312 189.804 3.36868C190.269 3.42425 190.712 3.59477 191.095 3.86484C192.029 4.33161 192.962 4.83572 193.84 5.30249C193.84 5.30249 194.008 5.30249 194.213 5.30249C194.476 5.04891 194.702 4.75983 194.885 4.44364C195.101 3.70374 195.562 3.05968 196.194 2.61823C196.826 2.17677 197.589 1.96444 198.358 2.01644C199.086 2.03827 199.796 2.2517 200.415 2.63521C201.035 3.01873 201.542 3.55877 201.887 4.20092C203.352 6.12996 204.308 8.39633 204.669 10.7917C205.029 12.4912 205.581 14.1446 206.312 15.7208C206.52 14.43 206.903 13.1738 207.451 11.9866C207.686 11.5326 208.053 11.1603 208.503 10.9183C208.954 10.6763 209.467 10.576 209.975 10.6305C210.484 10.685 210.964 10.8917 211.353 11.2236C211.742 11.5555 212.022 11.9972 212.156 12.4907C212.422 12.9877 212.584 13.5337 212.632 14.0955C212.681 14.6573 212.614 15.2231 212.436 15.7581C212.333 16.2175 212.29 16.688 212.305 17.1584C212.528 17.3005 212.775 17.4017 213.033 17.4571C215.535 17.4571 216.076 17.8119 216.114 20.2764C216.151 22.741 215.852 25.0748 215.684 27.4833C215.661 27.8057 215.536 28.1125 215.33 28.3608C212.996 30.2279 213.463 33.3086 212.342 35.6798C212.174 36.0159 212.492 36.7814 212.828 37.1548C213.6 37.8992 214.41 38.6034 215.255 39.2646C216.881 37.8348 217.88 35.8231 218.037 33.6633C218.186 31.6656 218.466 29.6678 218.784 27.6887C219.123 24.1699 218.985 20.6215 218.373 17.1397C218.373 16.5983 217.701 16.1128 217.29 15.6647C216.615 15.0169 216.208 14.1395 216.15 13.206C216.091 12.2725 216.385 11.351 216.973 10.6236C217.236 10.2115 217.626 9.89587 218.083 9.72417C218.541 9.55247 219.043 9.53396 219.512 9.67144C219.763 9.8094 220.044 9.88241 220.331 9.88384C220.617 9.88527 220.899 9.81506 221.152 9.67962C221.404 9.54417 221.618 9.34777 221.776 9.1083C221.933 8.86883 222.027 8.59389 222.051 8.30848C222.357 7.21628 222.908 6.20815 223.662 5.36057C224.415 4.51299 225.352 3.84823 226.401 3.41675C226.848 3.10152 227.366 2.90274 227.909 2.8384C228.452 2.77407 229.003 2.84621 229.511 3.0483C230.019 3.25039 230.468 3.57604 230.819 3.99574C231.169 4.41544 231.409 4.91593 231.517 5.45186C231.773 6.95599 231.861 8.48397 231.779 10.0075C231.779 12.248 231.61 14.5072 231.592 16.7477C231.635 17.5167 231.754 18.2796 231.947 19.0255L232.469 19.1748C232.899 18.6745 233.275 18.13 233.59 17.5505C234.729 14.8059 235.886 12.08 236.838 9.27936C237.385 7.51262 237.772 5.70057 237.996 3.86484C238.407 1.04556 240.404 0.130695 243.018 0C244.196 0.0738952 245.307 0.572615 246.145 1.40357C246.983 2.23453 247.49 3.34127 247.574 4.51832C247.574 4.98509 247.574 5.45186 247.723 6.2547C248.601 6.01198 249.348 5.84394 250.076 5.61989C250.692 5.43973 251.342 5.40592 251.974 5.52115C252.606 5.63638 253.202 5.89746 253.715 6.28362C254.228 6.66979 254.644 7.17037 254.929 7.74555C255.215 8.32072 255.362 8.95461 255.36 9.59676C255.34 10.9201 255.025 12.2223 254.437 13.408C253.849 14.5937 253.003 15.6327 251.962 16.4489C249.254 19.0815 246.547 21.7141 243.877 24.384C243.446 24.9699 243.071 25.595 242.757 26.2511C244.101 25.8963 244.904 25.6536 245.726 25.4856C247.036 25.13 248.372 24.8741 249.721 24.7201C250.86 24.6267 251.588 25.2055 251.775 26.5871C252.13 28.6036 252.298 30.4333 250.132 31.7776C250.617 32.1697 250.879 32.4497 251.196 32.6551C251.8 33.0465 252.289 33.5926 252.611 34.2367C252.933 34.8807 253.077 35.5992 253.027 36.3176C252.978 37.0359 252.737 37.7279 252.329 38.3216C251.922 38.9154 251.363 39.3892 250.711 39.694C248.535 40.7688 246.168 41.4033 243.746 41.5611L229.575 42.4199C228.698 42.4199 227.82 42.7186 226.943 42.7186C225.525 42.7519 224.145 43.1802 222.957 43.9553C221.77 44.7305 220.822 45.8218 220.221 47.1063C218.328 49.9749 215.765 52.3395 212.753 53.9958C211.224 54.7521 209.956 55.9485 209.112 57.4312L212.062 59.597C212.075 60.4295 212.006 61.2612 211.857 62.0802C211.558 63.2191 211.409 64.4701 209.99 64.8621C209.56 64.9742 209.299 65.7397 208.627 66.7292C211.129 66.2998 212.79 66.7292 213.855 68.8017L219.064 66.9346C219.57 66.7663 220.016 66.4542 220.348 66.0364C220.679 65.6186 220.882 65.1132 220.931 64.5821C222.088 58.5141 224.964 53.0436 227.167 47.3677C227.684 46.281 228.407 45.3046 229.295 44.4924C230.677 43.0547 231.517 43.1481 232.824 44.6977L233.403 45.3699C235.083 44.2496 236.894 43.1667 238.705 44.9965C239.919 46.2287 239.77 47.7597 238.799 49.5335C241.041 48.9561 243.151 47.9547 245.016 46.5835C247.394 44.9305 250.206 44.0148 253.1 43.9509C253.343 43.9509 253.586 43.9509 253.81 43.9509C257.544 44.0443 258.142 44.5857 258.571 48.5439C259.159 48.9459 259.784 49.2899 260.438 49.5708C261.442 49.8985 262.314 50.5399 262.925 51.4003C263.537 52.2608 263.856 53.2949 263.836 54.3505C263.831 55.5382 263.413 56.6871 262.653 57.6C261.893 58.513 260.84 59.1332 259.673 59.3543C257.712 59.7666 255.719 60.0103 253.717 60.0824C250.744 60.0244 247.777 60.3444 244.885 61.0346C243.728 61.3809 242.613 61.8569 241.562 62.4536C241.927 62.7996 242.373 63.0491 242.858 63.1795C243.344 63.3099 243.855 63.3171 244.344 63.2004C245.323 62.9338 246.362 62.9896 247.307 63.3595C248.252 63.7294 249.052 64.3938 249.59 65.2542C250.673 66.9346 250.636 67.5694 248.918 68.4283C248.369 68.6562 247.808 68.8557 247.238 69.0257L247.593 70.2206C248.601 73.6934 246.603 76.2886 243.018 75.8219C240.629 75.4659 238.26 74.9797 235.923 74.3656C232.041 73.3104 228.063 72.6413 224.049 72.3678C223.002 72.1881 221.928 72.2641 220.917 72.5892C219.906 72.9143 218.988 73.4789 218.242 74.2348C219.138 75.131 220.109 74.6643 221.136 74.5709C223.283 74.3469 225.43 74.1415 227.578 74.0108C228.138 73.99 228.696 74.1053 229.202 74.3469C230.64 74.9817 231.442 76.6994 229.613 77.913C229.221 78.193 228.81 78.4171 228.436 78.6411C228.405 78.8202 228.405 79.0035 228.436 79.1826C229.333 82.2446 227.466 84.0743 223.843 83.5702C222.388 83.1935 220.852 83.2651 219.437 83.7756C219.897 84.172 220.437 84.464 221.02 84.6316C221.604 84.7992 222.217 84.8384 222.817 84.7465C225.3 84.8772 227.802 84.7465 230.285 84.9332C231.608 85.1771 232.874 85.6646 234.019 86.3708C235.419 87.1177 236.708 88.0885 237.94 88.91C241.816 86.8688 245.428 84.3607 248.694 81.4418C252.428 78.5291 255.976 75.3551 260.625 73.8428C261.154 73.578 261.733 73.428 262.325 73.4027C262.916 73.3774 263.506 73.4773 264.056 73.6959C264.606 73.9145 265.103 74.2468 265.516 74.6711C265.929 75.0954 266.247 75.6021 266.45 76.1579C266.953 76.0091 267.464 75.8906 267.981 75.8032C269.317 75.6174 270.666 75.5425 272.014 75.5791C273.881 75.7472 274.385 76.4193 274.721 78.1184C274.886 78.7453 274.82 79.4105 274.535 79.9929C274.251 80.5754 273.767 81.0365 273.172 81.2924C271.062 82.6367 268.933 83.9436 266.824 85.2693C270.62 85.5112 274.431 85.1585 278.119 84.2237C283.339 83.0707 288.773 83.3612 293.84 85.0639C294.699 85.3813 295.52 85.736 295.707 86.7816C295.712 87.2713 295.57 87.7513 295.301 88.1604C295.032 88.5694 294.647 88.8889 294.195 89.0781C293.243 89.6569 292.216 90.105 290.946 90.7398C291.544 91.5613 292.01 92.2708 292.552 92.9243C294.157 94.7913 294.419 96.3783 293.56 97.9467C293.101 98.9017 292.327 99.6688 291.367 100.118C290.407 100.567 289.322 100.671 288.295 100.411C283.926 99.3843 279.594 98.1334 275.225 97.0132C272.145 96.2477 269.064 95.5755 265.89 94.8473L265.722 95.3328L268.933 96.5651C270.138 96.9104 271.236 97.5531 272.126 98.434C273.017 99.315 273.672 100.406 274.03 101.606C274.964 104.631 273.396 106.367 270.296 105.658C269.381 105.452 268.429 105.079 267.533 104.762C267.29 105.396 267.122 105.919 266.88 106.423C266.696 107.027 266.367 107.576 265.922 108.022C265.476 108.469 264.927 108.799 264.324 108.983C263.721 109.168 263.082 109.201 262.463 109.08C261.844 108.959 261.264 108.688 260.774 108.29C258.833 107.161 256.962 105.914 255.173 104.556C252.903 102.913 250.381 101.652 247.705 100.822C245.95 100.262 244.307 99.403 242.57 98.7682C240.255 97.9094 237.903 97.1439 235.009 96.1543C235.737 97.5359 236.26 98.3761 236.652 99.2536C237.697 101.569 237.23 102.876 234.785 103.865C233.518 104.39 232.187 104.741 230.826 104.911C229.239 105.098 227.615 105.023 226.009 105.079C225.545 105.172 225.089 105.303 224.646 105.471C229.685 106.8 234.562 108.678 239.191 111.072C242.281 112.505 244.828 114.894 246.454 117.887C246.924 118.904 247.154 120.016 247.126 121.136C247.126 122.256 246.006 123.003 244.437 123.003C243.01 122.906 241.589 122.732 240.18 122.48C239.97 123.633 239.851 124.8 239.826 125.971C239.826 126.868 240.012 127.839 239.284 128.436C238.596 129.33 237.755 130.094 236.801 130.695ZM33.4766 152.316C34.1782 152.443 34.8993 152.407 35.5852 152.213C36.2711 152.019 36.9037 151.671 37.4348 151.196L46.0607 144.101C42.6253 144.437 35.6984 149.123 33.4766 152.316ZM239.247 90.5904C238.164 91.3186 237.604 91.9907 237.903 93.3537C239.135 93.8018 240.348 94.2499 241.637 94.6606C247.252 96.3988 252.618 98.8591 257.6 101.98C259.056 102.988 260.494 104.015 262.025 104.874C263.892 105.938 264.396 105.695 265.218 103.679C265.871 102.11 266.394 101.812 268 102.26C268.616 102.428 269.176 102.801 269.867 102.913C270.558 103.025 271.491 103.1 272.481 103.212C272.459 102.302 272.176 101.417 271.666 100.662C271.157 99.9078 270.442 99.3153 269.605 98.9549C268.261 98.3948 266.954 97.7787 265.629 97.2372C265.124 97.1326 264.652 96.9095 264.25 96.5864C263.849 96.2633 263.531 95.8493 263.321 95.3788C263.111 94.9082 263.016 94.3945 263.044 93.8801C263.072 93.3657 263.222 92.8652 263.481 92.4202C264.62 92.5508 265.89 92.6255 267.104 92.8683C268.317 93.111 269.923 93.5591 271.323 93.9325C275.263 94.978 279.202 96.0796 283.179 97.0692C285.046 97.5359 287.119 97.7787 289.079 98.1334C290.181 98.3388 290.666 97.5359 291.226 96.8451C291.786 96.1543 291.544 95.3701 290.965 94.698C290.386 94.0258 289.77 93.1857 289.228 92.3828C288.917 92.0634 288.694 91.6687 288.581 91.2373C288.469 90.8059 288.469 90.3526 288.584 89.9217C288.699 89.4909 288.924 89.0971 289.236 88.7791C289.549 88.461 289.939 88.2295 290.367 88.1072L292.496 86.987C291.814 86.618 291.094 86.3238 290.349 86.1094C286.534 85.5249 282.656 85.4809 278.829 85.9787C276.532 86.2588 274.236 86.7256 271.939 86.9683C269.643 87.211 267.776 87.211 265.685 87.3044C265.177 87.3953 264.654 87.3023 264.209 87.0423C263.765 86.7822 263.427 86.372 263.257 85.8854C262.847 84.6158 263.967 84.2424 264.77 83.7569C266.823 82.506 268.915 81.2737 270.95 80.0228C271.475 79.7923 271.899 79.3807 272.146 78.8631C272.393 78.3456 272.445 77.7565 272.294 77.2035C271.211 77.2969 270.184 77.3155 269.213 77.4836C268.242 77.6516 267.514 78.0624 266.655 78.2304C266.191 78.3846 265.686 78.3611 265.237 78.1645C264.789 77.968 264.43 77.6123 264.228 77.1662C263.201 75.2057 263.183 75.2991 261.185 75.8219C256.76 77.0728 253.717 80.3028 249.982 82.8981C246.248 85.4933 242.888 88.1072 239.247 90.5904ZM222.182 67.1026C221.528 67.9241 220.203 68.2229 219.176 68.727C217.969 69.3689 216.722 69.9302 215.442 70.4073C213.821 70.9112 212.369 71.8472 211.241 73.1146C210.644 73.9448 209.927 74.6812 209.112 75.2991C205.247 77.5956 201.327 79.7987 197.443 82.0392C197.178 82.2108 196.928 82.4044 196.696 82.618C198.028 82.3023 199.314 81.8192 200.524 81.1804C201.506 80.5375 202.619 80.1233 203.783 79.9682C204.946 79.8131 206.129 79.9211 207.245 80.2842C207.748 80.4896 208.311 80.4896 208.814 80.2842C212.23 78.4171 216.002 78.6411 219.643 78.2117C220.371 78.2117 221.118 78.081 221.51 79.444C217.477 80.6576 212.865 79.7427 209.635 82.1512C209.392 83.8876 209.206 85.1759 209.019 86.4455L214.62 87.4164C216.656 87.4891 218.603 88.2681 220.128 89.6195C218.056 90.2543 216.394 89.3582 214.751 89.2275C213.108 89.0968 211.129 88.8167 209.523 88.6113C208.982 89.6569 208.627 90.4784 208.16 91.1692C206.834 93.167 204.669 93.3537 202.559 93.5404C200.977 93.6333 199.426 94.0195 197.984 94.6793C198.582 95.9863 198.582 96.0796 199.347 96.0609C202.727 96.0609 206.144 96.285 209.336 94.8287C209.938 94.4501 210.561 94.1072 211.203 93.8018C213.724 92.9803 216.226 92.0841 218.802 91.5053C221.3 90.9258 223.842 90.5573 226.401 90.4037C227.675 90.3675 228.927 90.7343 229.98 91.4518C231.033 92.1693 231.832 93.2008 232.264 94.3993C232.854 94.3067 233.431 94.1437 233.982 93.9138C235.606 93.0176 236.222 90.4037 234.953 89.4702C233.419 88.0394 231.443 87.1764 229.351 87.0243C226.961 87.0243 224.572 87.0243 222.182 86.8936C221.176 87.0171 220.155 86.8466 219.244 86.4026C218.333 85.9586 217.57 85.2602 217.047 84.3917C216.226 82.8607 216.506 82.0766 218.13 81.4044C219.905 80.8522 221.798 80.8005 223.601 81.2551C224.091 81.396 224.611 81.4046 225.106 81.28C225.601 81.1554 226.054 80.902 226.42 80.5456C226.065 79.5 225.729 78.5478 225.374 77.5582L227.055 76.1206C226.755 75.9966 226.442 75.9088 226.121 75.8592C221.752 76.4193 217.402 76.9981 213.052 77.5396C211.876 77.6889 210.606 77.8943 210.027 76.2326C210.593 75.9581 211.125 75.6198 211.614 75.2244C214.104 72.5024 217.358 70.5957 220.949 69.7539C224.535 69.2023 228.199 69.4704 231.667 70.538C235.251 71.4156 238.873 72.1251 242.458 73.0026C243.915 73.3573 244.736 72.8719 245.072 72.013C244.798 70.7137 244.611 69.3976 244.512 68.0735C244.512 66.5612 246.379 66.9533 247.406 65.721C246.155 65.4969 245.259 65.2916 244.344 65.1982C243.429 65.1049 242.085 65.1982 241.002 64.9368C239.919 64.6754 238.444 63.5925 238.444 62.6777C238.444 61.3707 239.284 60.6986 240.311 60.1571C242.482 59.1049 244.832 58.4715 247.238 58.29C250.337 57.954 253.474 57.7859 256.573 57.6179C257.381 57.5932 258.175 57.407 258.909 57.0703C259.644 56.7336 260.303 56.2532 260.849 55.6575C261.801 54.6679 261.932 53.9771 261.092 52.9129C260.519 52.2501 259.845 51.6828 259.094 51.2325C258.448 50.8953 257.781 50.6021 257.096 50.355C256.844 50.2767 256.611 50.1488 256.409 49.979C256.207 49.8091 256.041 49.6007 255.921 49.3658C255.801 49.131 255.73 48.8746 255.71 48.6116C255.69 48.3486 255.724 48.0844 255.808 47.8344C255.873 47.4513 255.917 47.0648 255.938 46.6768C254.295 46.1016 252.525 45.9918 250.823 46.3594C247.562 47.1042 244.48 48.4807 241.749 50.411C240.643 51.0595 239.473 51.5914 238.257 51.998C237.937 52.1719 237.562 52.2126 237.212 52.1112C236.863 52.0098 236.567 51.7746 236.39 51.4566C236.095 50.7491 235.992 49.9762 236.091 49.2161C236.091 48.7306 236.801 48.3385 236.988 47.8344C237.119 47.3352 237.176 46.8193 237.156 46.3034C236.574 46.2112 235.982 46.2112 235.401 46.3034C234.897 46.4528 234.542 47.0129 234.075 47.3116C232.619 48.2639 232.301 48.1892 231.162 46.7515C231.032 46.5835 230.789 46.5275 230.453 46.3594C229.928 46.972 229.465 47.6349 229.071 48.3385C227.932 50.8217 226.812 53.305 225.841 55.8068C224.87 58.3087 223.974 61.2587 223.041 64.0033C222.667 64.9555 222.798 66.3185 222.182 67.1026ZM208.571 60.0638C208.459 60.0638 208.328 60.2131 208.067 60.3812C208.44 60.8293 208.814 61.2774 209.355 61.8935C209.99 60.6052 209.448 60.2318 208.552 60.0638H208.571ZM197.592 65.9264C195.128 69.1938 192.831 72.5732 190.367 75.8405C189.738 76.6714 188.952 77.3695 188.052 77.8943C187.453 78.1392 186.783 78.1392 186.185 77.8943C185.792 77.7076 185.568 76.8488 185.568 76.2886C185.587 75.5698 185.759 74.8633 186.073 74.2162C186.857 72.5732 187.734 70.9675 188.63 69.2871C188.294 68.5776 187.94 67.8308 187.622 67.1213C186.897 67.6779 186.129 68.1773 185.326 68.615C184.336 69.0817 183.757 68.1482 183.011 67.7374C182.566 67.4846 182.074 67.3258 181.565 67.271C181.056 67.2161 180.542 67.2665 180.053 67.4188C179.565 67.5711 179.113 67.8222 178.726 68.1564C178.338 68.4906 178.024 68.9009 177.801 69.3618C177.403 70.1518 176.893 70.881 176.289 71.5276C175.913 71.8849 175.641 72.3378 175.503 72.8378C175.365 73.3377 175.366 73.8659 175.505 74.3656C175.968 77.2439 175.476 80.1948 174.105 82.7674C172.09 86.7696 168.694 89.9067 164.545 91.5986C162.694 92.3894 160.775 93.0142 158.813 93.4657C157.189 93.8391 155.49 93.7644 153.847 94.0445C152.939 94.361 152.074 94.7874 151.27 95.3141C151.884 95.4604 152.508 95.5541 153.137 95.5942C155.359 95.3141 157.6 95.0527 159.803 94.6233C161.502 94.2872 163.145 93.5217 164.844 93.279C166.916 92.9616 169.045 93.055 170.146 90.7958C170.24 90.6278 170.576 90.5904 170.781 90.4597C173.059 89.0221 175.374 87.6031 177.615 86.1094C178.048 85.7786 178.357 85.3117 178.492 84.7838C179.613 81.0193 180.32 77.1441 180.602 73.2266C180.602 73.0586 180.901 72.9092 181.087 72.7225C181.33 72.8532 181.666 72.9092 181.704 73.0586C182.73 76.6994 181.312 80.1348 180.733 83.8689C184.062 82.8123 187.16 81.1334 189.863 78.9212C193.41 75.6352 197.499 72.9466 200.3 68.8764C200.576 68.5499 200.882 68.2498 201.215 67.9802C201.513 68.1669 201.737 68.2229 201.775 68.3162C201.924 68.839 202.036 69.3805 202.148 69.8846C204.314 70.426 204.314 70.426 204.351 71.901L202.951 71.7703C202.394 71.6958 201.833 71.6584 201.271 71.6583C200.967 71.6506 200.665 71.7047 200.383 71.8174C200.101 71.9301 199.844 72.099 199.63 72.3138C199.415 72.5286 199.246 72.7848 199.133 73.0669C199.02 73.349 198.966 73.6511 198.974 73.9548C199.11 74.5432 199.344 75.1048 199.665 75.6165L198.003 76.1019C197.23 76.2011 196.48 76.4283 195.781 76.7741C193.784 78.2491 191.935 79.9108 189.956 81.4231C188.921 82.1868 187.836 82.8792 186.707 83.4955C185.568 84.1677 184.392 84.7838 183.216 85.3626C184.547 85.8336 185.934 86.1287 187.342 86.2401C188.612 86.4082 189.863 86.7069 191.076 86.9496C191.922 87.1592 192.784 87.2966 193.653 87.3604C195.819 87.3604 197.984 87.2297 200.15 87.3604C200.399 87.4068 200.632 87.5173 200.825 87.681C201.018 87.8447 201.165 88.056 201.252 88.2939C201.252 89.0407 200.804 89.3955 200.001 89.3208C198.395 89.1714 196.808 89.0407 195.203 88.9287L190.628 88.686C187.977 88.5553 185.344 88.3686 182.693 88.3499C181.48 88.3499 180.229 89.1901 179.108 87.9952C178.959 87.8458 178.268 87.9952 178.007 88.2006C176.494 89.4142 175.057 90.7024 173.302 92.2148C178.268 92.2148 182.805 92.2148 187.342 92.2148C190.161 92.2148 192.943 92.2148 195.781 91.916C198.619 91.6173 201.383 91.1505 204.258 90.7398C204.732 90.7282 205.193 90.5767 205.581 90.3043C205.97 90.0319 206.27 89.6508 206.442 89.2088L205.042 86.5762C205.565 86.1468 205.938 85.8667 206.274 85.5493C206.623 85.3388 206.879 85.0052 206.993 84.6145C207.107 84.2237 207.071 83.8044 206.89 83.4395C206.72 83.0678 206.432 82.7624 206.071 82.5701C205.71 82.3779 205.296 82.3094 204.893 82.3753C203.942 82.517 203.013 82.7806 202.129 83.1595C200.038 83.9996 197.947 84.8772 195.912 85.8481C195.449 86.0965 194.911 86.171 194.398 86.058C193.884 85.945 193.428 85.652 193.111 85.2319C192.913 85.0487 192.757 84.8246 192.654 84.5752C192.55 84.3257 192.502 84.0569 192.513 83.7871C192.524 83.5173 192.593 83.2531 192.715 83.0126C192.838 82.7721 193.011 82.561 193.223 82.394C194.205 81.4517 195.281 80.6133 196.435 79.8921C197.648 79.1266 199.011 78.5851 200.169 77.857C202.596 76.438 205.023 75.0377 207.357 73.488C208.938 72.543 210.15 71.0876 210.793 69.3618C207.058 69.3618 206.125 68.1669 206.89 64.8995V64.6754C207.563 61.9308 206.442 60.7546 203.754 61.4827C201.258 62.2368 199.083 63.8001 197.574 65.9264H197.592ZM177.465 104.668C178.348 104.902 179.162 105.342 179.84 105.952C180.519 106.562 181.042 107.326 181.368 108.178L182.637 104.295C179.911 102.857 178.492 101.513 181.629 98.6935C182.413 98.0027 183.496 97.4986 183.645 96.2103C178.754 94.5673 164.975 95.7996 157.712 98.4881C157.712 99.4403 157.861 100.225 159.205 100.019C159.926 99.9536 160.651 99.9536 161.371 100.019C162.097 99.9393 162.83 100.089 163.466 100.447C164.103 100.806 164.611 101.355 164.919 102.017C165.105 102.79 165.047 103.602 164.753 104.341C164.459 105.08 163.942 105.71 163.276 106.143L157.189 110.344L157.301 110.886C157.82 111.014 158.356 111.052 158.888 110.998C162.335 110.301 165.634 109.006 168.634 107.17C169.89 106.471 171.187 105.847 172.518 105.303C174.045 104.531 175.792 104.306 177.465 104.668ZM150.841 96.4904L150.598 96.117L144.063 98.4135L145.464 100.598L150.841 96.4904ZM163.07 81.2737C165.365 81.9102 167.781 81.9807 170.109 81.4791C169.012 80.9661 167.822 80.6832 166.611 80.6478C165.4 80.6125 164.195 80.8255 163.07 81.2737ZM171.248 79.4066C171.248 78.1744 171.379 77.2408 171.472 75.8219L167.29 78.4171L167.402 78.8465L171.248 79.4066ZM156.647 84.7278C158.664 87.267 158.664 87.267 158.515 90.1983C162.361 89.2088 166.562 86.1655 167.645 83.6449H166.674C165.119 83.7477 163.56 83.7477 162.006 83.6449C160.149 83.4056 158.266 83.7863 156.647 84.7278ZM191.039 67.6628C190.917 67.7584 190.819 67.8803 190.751 68.0193C190.683 68.1583 190.648 68.3109 190.647 68.4656C190.834 70.5194 189.415 71.845 188.518 73.4133C188.371 73.7594 188.271 74.1236 188.22 74.4962L188.574 74.683L194.979 65.945L194.605 65.5716C193.41 66.2251 192.197 66.9159 191.039 67.6628ZM204.967 57.0204C204.108 57.6366 203.1 57.898 203.38 59.0555C205.378 58.7568 205.378 58.7568 204.967 57.0204ZM196.958 59.3916C194.4 61.4267 192.234 63.1258 190.087 64.8995C189.956 65.0115 189.956 65.3289 189.844 65.777C192.008 64.8537 194.012 63.5933 195.781 62.0429C196.341 61.6134 196.453 60.5679 196.958 59.3916ZM219.362 38.5737C217.813 40.7209 216.039 42.7 214.433 44.8098C213.463 46.1167 212.566 47.4984 211.689 48.8427H211.577C210.531 48.3385 209.803 48.9733 209.075 49.6082C208.347 50.243 207.507 50.7471 206.666 49.7015C206.816 48.992 206.984 48.3199 207.133 47.6477L206.666 47.4423C204.856 50.7269 202.435 53.6356 199.534 56.0122C198.887 56.7699 198.306 57.582 197.798 58.4394C197.928 58.5701 198.04 58.7008 198.171 58.8128C200.124 57.9995 201.968 56.9458 203.66 55.6761C205.527 54.3318 207.395 52.9689 209.262 51.6619C210.307 50.9524 211.334 50.2616 211.483 48.8613V48.768C212.146 48.4732 212.772 48.1036 213.35 47.6664C215.834 45.5193 218.186 43.2228 220.688 41.113C221.523 40.3759 222.543 39.879 223.638 39.6753C226.117 39.2565 228.632 39.1 231.144 39.2085C236.361 39.3414 241.577 38.9474 246.715 38.0323C247.658 37.9168 248.547 37.5335 249.278 36.928C250.01 36.3224 250.552 35.5199 250.841 34.6156C250.169 34.2421 249.572 34.0181 249.068 33.6633C248.702 33.5073 248.387 33.2527 248.157 32.928C247.927 32.6033 247.793 32.2212 247.767 31.8243C247.742 31.4275 247.828 31.0314 248.015 30.6803C248.201 30.3292 248.482 30.0369 248.825 29.8358C249.045 29.6959 249.233 29.5115 249.377 29.2946C249.521 29.0777 249.618 28.833 249.662 28.5763C249.706 28.3195 249.696 28.0564 249.632 27.8039C249.568 27.5514 249.452 27.315 249.292 27.1099C248.022 27.4086 246.734 27.7447 245.408 28.0434C244.713 28.2303 244.009 28.3799 243.298 28.4915C242.841 28.5977 242.363 28.5681 241.923 28.4063C241.482 28.2445 241.099 27.9576 240.819 27.5808C240.54 27.204 240.376 26.7538 240.349 26.2854C240.322 25.8169 240.432 25.3508 240.666 24.9441C241.199 23.7778 241.918 22.7058 242.794 21.7701C244.288 20.2204 246.043 18.9135 247.593 17.4011C249.208 15.8574 250.735 14.2242 252.167 12.5094C252.747 11.7477 253.091 10.8323 253.157 9.87682C253.222 9.51663 253.198 9.14593 253.087 8.79713C252.976 8.44834 252.781 8.13207 252.519 7.87601C252.258 7.61994 251.937 7.43187 251.586 7.32825C251.235 7.22462 250.864 7.2086 250.505 7.28159C249.786 7.37073 249.074 7.51428 248.377 7.71101C246.416 8.08443 245.912 7.71101 245.464 5.69457C245.27 4.84117 244.976 4.01385 244.587 3.23004C244.383 2.89747 244.064 2.65155 243.69 2.53922C242.942 2.4676 242.191 2.64218 241.55 3.03643C240.91 3.43069 240.416 4.02309 240.143 4.7237C239.62 6.59077 239.284 8.32715 238.668 10.0449C237.66 12.8455 236.502 15.6461 235.382 18.3533C235.121 19.0133 234.782 19.6401 234.374 20.2204C234.175 20.6255 233.859 20.9616 233.467 21.1855C233.075 21.4094 232.625 21.5108 232.175 21.4767C231.725 21.4425 231.296 21.2744 230.942 20.9939C230.589 20.7134 230.327 20.3334 230.192 19.903C229.881 19.3272 229.702 18.6894 229.669 18.0359C229.669 15.7208 229.669 13.4056 229.669 11.0904C229.772 9.56737 229.772 8.03913 229.669 6.51609C229.482 5.15312 228.567 4.77971 227.372 5.4892C226.59 5.87665 225.893 6.41646 225.322 7.07694C224.752 7.73742 224.319 8.50525 224.049 9.33537C223.982 9.81705 223.817 10.2799 223.565 10.6952C223.312 11.1105 222.976 11.4694 222.579 11.7495C222.181 12.0297 221.73 12.2251 221.254 12.3237C220.778 12.4223 220.287 12.422 219.811 12.3227C220.083 14.1843 220.592 16.0037 221.323 17.7372C221.749 19.1144 222.012 20.5369 222.107 21.9755C222.107 24.8508 221.958 27.7447 221.846 30.6387C221.829 33.4695 220.971 36.2314 219.381 38.5737H219.362ZM211.39 38.8911C209.803 40.4035 210.214 42.3826 210.158 44.3057C211.315 43.0547 213.313 42.6626 213.649 40.6835L211.39 38.8911ZM206.778 45.0151C206.78 45.305 206.818 45.5934 206.89 45.874H207.376C207.6 44.9218 207.843 44.0069 208.067 43.0174C208.403 41.6171 208.664 40.1981 209.038 38.8165C209.411 37.4348 209.859 36.2026 210.307 34.9143C210.81 32.8979 211.536 30.944 212.473 29.089C214.34 26.0083 213.929 22.8343 213.817 19.5483L212.38 19.3429C210.513 19.0815 209.915 18.3533 210.176 16.4676C210.251 15.9865 210.363 15.512 210.513 15.0486C210.639 14.5897 210.627 14.1036 210.477 13.6517C210.328 13.1997 210.048 12.8022 209.672 12.5094C208.347 13.611 208.328 13.5923 208.253 14.6192C208.179 15.6461 208.253 16.2435 208.253 17.0464C208.302 17.6024 208.232 18.1625 208.048 18.6894C207.734 19.3002 207.229 19.7918 206.61 20.0897C206.214 20.186 205.796 20.1224 205.447 19.9127C205.097 19.7031 204.845 19.3642 204.743 18.9695C204.581 18.5974 204.437 18.2173 204.314 17.8306C204.03 16.4115 203.668 15.0091 203.231 13.6296C202.167 10.773 200.99 8.02842 199.74 5.17179C199.198 3.93953 198.489 3.84617 197.499 4.74237C196.937 5.30132 196.448 5.92858 196.043 6.60944C195.88 7.00407 195.625 7.35451 195.301 7.63213C194.976 7.90974 194.591 8.10666 194.176 8.2068C193.761 8.30694 193.328 8.30746 192.912 8.20831C192.497 8.10917 192.111 7.91317 191.786 7.63633C191.076 7.22558 190.329 6.90817 189.564 6.51609C188.705 8.62588 190.161 9.52208 191.002 10.605C192.085 11.9866 193.429 13.1815 194.512 14.5632C195.987 16.4303 196.715 19.2682 193.914 21.0979C193.13 20.6685 192.327 20.3138 191.58 19.847C189.713 18.6707 187.846 17.4385 185.979 16.2809C185.008 15.7021 183.832 15.0486 182.955 16.2809C182.077 17.5132 183.104 18.148 183.739 19.0255C184.784 20.4631 184.635 21.3407 183.347 22.5916C182.946 22.9897 182.522 23.3638 182.077 23.7118C180.658 24.8134 180.583 25.8776 182.077 26.8485C183.295 27.6076 184.59 28.2336 185.942 28.7156C188.929 29.8732 192.122 30.396 195.147 31.4975C197.681 32.4093 200.037 33.755 202.111 35.4744C205.135 37.9576 207.245 40.8889 206.797 45.0151H206.778ZM181.106 55.004C181.106 56.535 180.602 57.8419 178.903 58.1033C178.903 59.2423 178.903 60.1758 178.791 61.24C180.658 61.5387 180.957 62.883 180.751 64.6754C183.32 62.3402 184.963 59.1595 185.382 55.7135C185.382 53.7531 185.624 51.8113 185.774 49.8509H186.465C188.089 54.0705 186.931 58.1594 185.4 62.3229C186.177 62.0417 186.907 61.6452 187.566 61.1467C192.202 57.7513 196.571 54.0062 200.636 49.9442C201.714 48.885 202.377 47.4738 202.503 45.9674C202.679 45.1806 202.694 44.3661 202.547 43.5734C202.399 42.7807 202.092 42.0262 201.644 41.3557C200.199 42.1028 199.053 43.3216 198.395 44.8098C197.574 46.3781 196.958 48.0398 196.08 49.5708C195.187 51.1948 194.136 52.7269 192.943 54.1451C192.103 55.116 191.226 54.9293 190.199 54.1451C189.764 53.7777 189.44 53.297 189.262 52.7565C189.084 52.2161 189.059 51.6369 189.191 51.0831C189.433 49.3468 189.713 47.5917 189.919 45.8367C189.919 44.9965 190.143 44.0629 188.985 43.6148L186.595 47.6104C185.419 49.4775 184.598 49.4775 183.328 47.6104C183.117 47.3617 182.893 47.1248 182.656 46.9009C181.728 48.3074 181.241 49.9584 181.256 51.6433C181.106 52.7448 181.106 53.8651 181.106 55.004ZM152.092 56.1616C151.14 59.7277 150.916 59.8957 147.331 59.6903C147.2 59.6903 147.069 59.821 146.752 59.9891C147.069 61.2214 145.762 62.3043 146.547 63.7232C148.857 68.4757 149.336 73.9129 147.891 78.9959C147.891 79.444 147.891 79.9108 147.76 80.1908L153.361 81.8525C154.444 81.3857 156.069 80.7136 157.656 79.9854C160.27 78.7718 162.865 77.5022 165.46 76.2513C167.655 75.4056 169.587 73.995 171.061 72.1624C171.814 71.2477 172.68 70.4322 173.638 69.7352C174.161 69.3244 175.113 69.2871 175.505 68.783C176.476 67.252 177.241 65.5716 178.1 63.9286C177.899 63.6204 177.654 63.3436 177.372 63.1071C176.814 62.7715 176.386 62.2562 176.158 61.6456C175.931 61.0351 175.918 60.3654 176.121 59.7464C176.308 59.0929 175.654 58.2154 175.412 57.5059C173.078 57.7113 172.462 59.2609 171.789 60.8666C171.118 62.5795 170.319 64.2396 169.4 65.833C169.229 66.2063 168.959 66.5252 168.619 66.7544C168.279 66.9836 167.882 67.1141 167.472 67.1315C167.062 67.1489 166.656 67.0525 166.297 66.853C165.939 66.6534 165.643 66.3586 165.441 66.0011C165.059 65.5778 164.806 65.0547 164.71 64.4927C164.614 63.9307 164.68 63.353 164.9 62.827C165.74 60.6612 166.767 58.5328 167.57 56.367C168.877 53.0809 170.146 49.8135 171.304 46.5088C171.342 46.3234 171.335 46.1315 171.283 45.9494C171.231 45.7674 171.136 45.6006 171.005 45.4632C170.838 45.3727 170.654 45.3177 170.464 45.3016C170.275 45.2855 170.084 45.3088 169.904 45.3699C169.544 45.5406 169.205 45.7537 168.895 46.0047C166.319 47.6291 165.161 47.3677 163.294 44.7911C163.07 44.4737 162.921 44.0816 162.697 43.7455C162.553 43.4695 162.342 43.2337 162.084 43.0598C161.826 42.8858 161.529 42.7791 161.219 42.7494C160.909 42.7197 160.597 42.768 160.31 42.8898C160.024 43.0116 159.772 43.2031 159.579 43.4468C159.103 44.0271 158.774 44.714 158.622 45.4488C158.469 46.1836 158.496 46.9445 158.701 47.6664C159.429 51.6059 159.878 55.6015 160.344 59.597C160.37 60.4805 160.256 61.3625 160.008 62.2109C159.856 62.7397 159.592 63.2296 159.234 63.6475C158.876 64.0655 158.432 64.4017 157.933 64.6336C157.434 64.8654 156.891 64.9875 156.341 64.9915C155.79 64.9955 155.245 64.8813 154.743 64.6568C153.361 63.9846 153.623 62.6403 153.193 61.4827C155.06 61.4827 154.631 60.0264 154.743 58.9809C154.948 57.3192 155.229 55.5828 153.193 54.4439C152.876 54.7239 152.633 54.8546 152.54 55.0413C152.333 55.3935 152.17 55.7697 152.054 56.1616H152.092ZM137.062 91.4866C140.381 88.8072 143.033 85.3944 144.81 81.5164C145.569 79.8315 146.048 78.0342 146.229 76.1953C146.723 71.93 145.916 67.6152 143.914 63.8166C143.676 63.3043 143.5 62.7652 143.391 62.2109C142.962 60.4932 142.57 58.7942 142.14 57.0764C141.972 56.3856 141.767 55.6948 141.562 54.9853C140.553 51.4379 139.564 47.8718 138.518 44.3243C138.215 43.598 137.839 42.9037 137.398 42.2519C135.531 42.8493 133.813 44.399 132.133 42.2519C129.948 43.9883 129.762 45.2019 131.293 46.8262C132.17 47.7411 133.16 48.5066 134.131 49.4214C134.473 49.741 134.69 50.1715 134.745 50.6363C134.8 51.1012 134.688 51.5704 134.429 51.9607C134.201 52.4468 133.795 52.8266 133.294 53.0213C132.794 53.2159 132.237 53.2105 131.741 53.0062C131.039 52.6793 130.406 52.2233 129.874 51.6619C127.422 49.0109 124.741 46.5806 121.864 44.399C121.379 44.051 120.811 43.8381 120.217 43.7823C119.623 43.7265 119.025 43.8298 118.484 44.0816C118.055 44.5061 117.756 45.0448 117.624 45.6339C117.492 46.223 117.531 46.8377 117.738 47.405C118.597 50.1869 118.559 50.355 116.225 52.2594C115.254 53.0622 114.732 53.9211 115.254 54.9293L117.999 56.0122C118.407 56.2398 118.839 56.4214 119.287 56.5537C123.104 57.1481 126.807 58.3257 130.266 60.0451C131.659 60.6773 132.964 61.4869 134.149 62.4536C135.531 63.5739 135.587 64.6008 134.784 66.3371C134.588 67.0154 134.135 67.5902 133.521 67.939C132.907 68.2878 132.181 68.3829 131.498 68.2042C129.631 67.9241 127.764 67.4947 125.803 67.1773C125.095 67.1273 124.384 67.1273 123.675 67.1773C127.652 69.4925 128.884 72.4238 127.951 76.2886C127.689 77.3902 128.287 77.913 129.351 78.1557C130.278 78.2309 131.177 78.5152 131.979 78.9873C132.781 79.4594 133.465 80.1071 133.981 80.8816C135.678 83.133 136.614 85.8668 136.651 88.686C136.686 89.6317 136.824 90.5707 137.062 91.4866ZM106.666 107.394C109.221 106.477 111.716 105.398 114.134 104.164C118.186 102.073 122.144 99.7951 126.905 99.5897C127.596 99.5897 128.455 98.5255 128.772 97.7226C129.089 96.9198 128.361 96.3597 127.708 95.8556C125.561 94.1939 125.505 93.4657 127.185 91.3372C127.282 91.1668 127.357 90.9849 127.409 90.7958C125.953 90.049 125.094 90.9452 124.104 91.636C122.8 92.5558 121.433 93.3855 120.015 94.1192C119.618 94.3007 119.174 94.3532 118.746 94.2695C118.317 94.1858 117.925 93.97 117.626 93.6524C117.312 93.2747 117.117 92.8131 117.063 92.3251C117.01 91.837 117.102 91.3441 117.327 90.9078C117.595 90.42 117.888 89.9464 118.204 89.4888C119.009 88.2032 119.72 86.8617 120.333 85.4746C120.842 83.9479 121.248 82.3884 121.546 80.807C122.424 77.0728 121.995 76.6247 118.186 76.5874C116.319 76.5874 115.721 76.0272 115.516 74.2348C115.516 74.0668 115.516 73.9174 115.516 73.7494C115.329 72.2931 114.545 71.4716 113.462 71.5836C113.118 71.6016 112.781 71.6951 112.477 71.8575C112.173 72.0199 111.908 72.2472 111.701 72.5233C111.495 72.7995 111.351 73.1177 111.281 73.4554C111.211 73.7931 111.216 74.1421 111.296 74.4776C111.693 76.1985 112.211 77.8892 112.846 79.5373C113.961 82.4126 114.099 85.5752 113.238 88.5366C113.041 89.245 112.661 89.889 112.136 90.4037C110.568 91.9721 108.925 91.5613 108.402 89.4142C108.122 88.2566 108.104 87.043 107.898 85.8481C107.749 85.0452 107.487 84.261 107.095 82.8421C106.162 83.9436 105.564 84.5411 105.116 85.1946C103.641 87.3604 103.567 87.3791 101.382 85.8667C100.15 85.0079 99.3657 85.1386 98.5628 86.3335C98.2293 86.7456 98.0474 87.2597 98.0474 87.7898C98.0474 88.3199 98.2293 88.834 98.5628 89.2461C98.9624 89.7513 99.3926 90.2314 99.8511 90.6838C100.556 91.3513 101.093 92.1766 101.418 93.0918C101.742 94.0071 101.845 94.9862 101.718 95.9489C101.457 97.816 101.121 99.6831 100.841 101.55C100.51 103.641 99.4414 105.544 97.8279 106.914C96.2145 108.284 94.1634 109.031 92.0467 109.018C88.9235 109.033 85.8271 109.596 82.8981 110.68C77.8756 112.379 72.8719 114.19 67.9615 116.076C63.3125 117.943 58.6261 119.81 54.0891 121.677C49.2841 123.52 44.6008 125.665 40.0674 128.1C37.9949 129.314 35.7731 130.284 33.7567 131.61C29.7985 134.187 25.915 136.894 22.0501 139.601C20.9486 140.367 19.9964 141.3 18.9695 142.159L19.3989 142.794C19.7309 142.76 20.0538 142.665 20.3511 142.514C20.7976 142.091 21.2717 141.698 21.7701 141.337C23.4504 140.479 25.2242 139.769 26.9232 138.892C29.9105 137.323 32.8605 135.662 35.8291 134.056L46.9009 128.193C49.2534 126.961 51.6619 125.822 53.9771 124.459C59.6761 121.13 65.6398 118.276 71.8076 115.927C74.1366 115.004 76.5108 114.2 78.9212 113.518C82.6553 112.603 86.2775 111.875 90.0116 111.24C92.4388 110.811 94.978 110.904 97.3492 110.325C100.509 109.53 103.62 108.551 106.666 107.394ZM130.284 100.542C129.79 100.755 129.326 101.031 128.903 101.363C131.237 102.577 133.384 100.449 135.419 101.643C135.531 101.643 135.886 101.27 136.184 101.158C138.742 100.15 140.46 101.158 140.105 103.679C140.835 103.888 141.615 103.841 142.315 103.546C143.015 103.25 143.592 102.724 143.951 102.054C143.186 100.505 141.468 99.5337 141.674 97.2932C142.719 96.7144 143.858 96.0049 145.09 95.4261C147.368 94.3993 150.113 94.2312 151.55 91.692C151.7 91.4306 152.279 91.4493 152.596 91.2626C153.718 90.701 154.787 90.0385 155.789 89.2835C156.011 89.032 156.174 88.7333 156.264 88.41C156.355 88.0866 156.371 87.7469 156.311 87.4164C156.087 86.5762 155.229 86.6882 154.444 86.8563C153.832 86.9999 153.206 87.0812 152.577 87.099C150.393 87.099 149.907 86.4082 150.71 84.2797C150.776 84.0028 150.826 83.7223 150.86 83.4395C147.798 82.4686 146.64 82.9354 144.96 85.624C143.796 87.8767 142.19 89.8709 140.236 91.4866C137.865 93.1483 135.4 94.6793 132.954 96.1916C132.133 96.6958 131.255 97.0505 131.629 98.3948C133.702 97.6878 135.608 96.563 137.23 95.0901C139.436 93.2414 141.969 91.8228 144.698 90.9078C146.192 90.4597 147.63 89.7876 149.142 89.1901C150.355 90.2543 150.337 91.2066 149.03 91.7667C148.646 91.885 148.253 91.9663 147.854 92.0094C144.798 92.7 141.902 93.9674 139.321 95.7435C136.613 97.8597 133.554 99.4839 130.284 100.542ZM134.709 106.143C134.709 105.284 134.709 104.425 134.616 103.38C134.457 103.334 134.295 103.303 134.131 103.287C130.135 103.287 126.139 103.137 122.163 103.156C121.207 103.217 120.271 103.451 119.399 103.847C117.626 104.556 115.759 105.49 113.891 106.423C113.426 106.683 112.988 106.989 112.585 107.338C114.693 107.206 116.78 106.83 118.802 106.218C121.434 105.524 124.218 105.681 126.756 106.666C128.914 107.248 131.12 107.641 133.346 107.842C134.597 107.936 134.84 107.487 134.709 106.162V106.143ZM137.771 108.757C142.271 109.112 143.802 108.29 143.634 105.527L138.033 105.77C137.921 106.759 137.846 107.767 137.771 108.776V108.757ZM137.771 111.912C137.771 111.707 137.678 111.52 137.641 111.315L119.493 114.041L122.779 116.505C125.094 115.759 127.671 114.918 130.116 113.892C132.562 112.865 135.4 113.163 137.771 112.024V111.912ZM85.2879 125.094C90.2543 124.086 95.1461 122.723 100.056 121.49C100.836 121.289 101.594 121.007 102.316 120.65C104.407 119.623 106.498 118.541 108.57 117.458C109.01 117.179 109.422 116.86 109.803 116.505L109.579 116.057C92.7749 119.063 76.3446 123.358 61.2774 132.058C61.4942 132.087 61.7139 132.087 61.9308 132.058C62.939 131.759 63.9473 131.498 64.9368 131.125C71.5453 128.565 78.3516 126.548 85.2879 125.094ZM122.107 121.603C122.536 121.603 122.984 121.397 123.414 121.304C122.813 120.883 122.093 120.667 121.36 120.688C119.493 120.688 119.157 120.184 119.493 118.316C119.493 117.924 119.661 117.551 119.791 117.01C118.955 116.594 118.041 116.359 117.108 116.321C116.175 116.282 115.245 116.44 114.377 116.785C112.51 117.476 110.773 118.541 108.944 119.381C106.229 120.771 103.443 122.017 100.598 123.115C98.4321 123.88 95.9863 123.862 93.7831 124.534C89.7876 125.747 85.568 126.214 81.8338 128.268C81.4022 128.416 80.9417 128.461 80.4895 128.399C79.5674 128.322 78.6392 128.359 77.7263 128.511C74.851 129.37 72.1251 130.378 69.2311 131.311C63.4992 133.178 57.7486 135.045 52.0914 137.025C48.5439 138.294 45.1085 139.9 41.6357 141.375C34.4749 144.273 27.1569 146.766 19.7163 148.843C15.7208 150.019 11.6319 150.972 7.59899 152.036C5.73192 152.521 5.02243 153.417 4.63034 155.77C7.05754 155.266 9.39138 154.706 11.7626 154.295C20.7619 152.689 28.8276 148.694 37.0054 144.81C41.8785 142.532 46.9382 140.628 51.942 138.612C52.9689 138.201 54.1078 138.051 55.1534 137.659C57.8793 136.502 60.6986 135.4 63.4805 134.429C63.9242 134.234 64.3793 134.065 64.8435 133.925C67.196 133.234 69.5485 132.488 71.9197 131.871C76.1019 130.695 80.2842 129.556 84.5411 128.828C86.6743 128.483 88.8493 128.483 90.9825 128.828C92.3012 129.198 93.5591 129.758 94.7166 130.49L106.143 135.662C108.282 136.616 110.191 138.016 111.744 139.769C113.089 141.263 114.47 142.719 115.833 144.175L119.567 148.022C119.978 147.312 120.258 146.939 120.464 146.528C121.696 144.026 122.611 143.765 124.963 145.221C125.598 145.613 126.308 145.893 127.036 146.248C127.745 144.941 127.783 143.989 126.83 143.167C125.878 142.346 124.814 141.3 123.712 140.609C121.957 139.34 120.109 138.219 118.335 136.875C117.942 136.593 117.659 136.183 117.534 135.715C117.409 135.247 117.451 134.751 117.651 134.31C117.852 133.87 118.199 133.512 118.633 133.299C119.068 133.086 119.563 133.03 120.034 133.141C121.777 133.422 123.499 133.822 125.187 134.336C128.119 135.438 130.919 136.857 133.832 138.07C135.886 138.91 137.995 139.601 139.881 140.273C141.169 139.47 141.393 138.649 140.908 137.603L140.012 135.736C138.985 133.514 139.676 132.394 142.159 132.17L143.597 132.021C143.527 131.514 143.315 131.038 142.984 130.647C142.653 130.257 142.218 129.969 141.73 129.818C140.471 129.31 139.172 128.91 137.846 128.623C133.955 128.097 130.021 127.953 126.102 128.193C124.334 128.362 122.551 128.093 120.912 127.409C120.468 127.222 120.092 126.904 119.835 126.496C119.577 126.089 119.452 125.612 119.474 125.131C119.398 124.322 119.626 123.513 120.112 122.861C120.598 122.209 121.309 121.761 122.107 121.603ZM156.311 132.805L152.895 130.938C152.204 132.581 151.625 134 151.028 135.662C153.417 135.568 154.127 133.421 156.311 132.786V132.805ZM164.209 121.603L165.217 122.629C167.402 124.851 167.364 125.337 164.993 127.372C164.777 127.548 164.602 127.77 164.483 128.022C164.363 128.274 164.302 128.549 164.302 128.828C164.583 130.807 163.294 131.573 161.857 132.226C160.923 132.637 159.99 132.917 158.963 133.253C159.113 135.841 158.361 138.402 156.834 140.497C155.826 142.364 154.351 144.007 154.295 146.099C155.522 146.377 156.772 146.539 158.029 146.584C159.784 146.584 161.016 146.976 161.465 148.843L163.332 147.368C163.836 148.712 161.745 148.862 161.987 150.094C163.369 150.449 163.537 150.467 164.246 149.646C165.921 147.795 166.967 145.462 167.234 142.981C167.46 141.15 167.829 139.34 168.335 137.566C168.597 136.558 168.989 135.512 170.37 135.55C170.933 135.606 171.461 135.844 171.876 136.228C172.29 136.613 172.568 137.122 172.667 137.678C172.76 138.153 172.76 138.641 172.667 139.116C172.577 139.853 172.635 140.601 172.837 141.316C173.039 142.03 173.381 142.698 173.843 143.279L179.239 141.898C179.239 141.898 179.239 142.103 179.239 141.898C178.772 136.744 178.1 131.666 174.347 127.614C173.538 126.832 172.835 125.947 172.256 124.982C170.501 121.36 167.57 121.472 164.302 121.659L164.209 121.603ZM179.239 112.659C178.692 112.3 178.309 111.74 178.173 111.101C178.036 110.461 178.158 109.793 178.511 109.242C178.654 108.935 178.773 108.617 178.866 108.29C178.47 107.615 177.846 107.105 177.106 106.851C176.366 106.598 175.559 106.618 174.833 106.909C173.645 107.154 172.508 107.602 171.472 108.234C167.973 110.344 164.205 111.971 160.27 113.07C159.668 113.297 159.026 113.397 158.383 113.365C157.741 113.333 157.112 113.169 156.535 112.883C156.08 112.764 155.671 112.512 155.359 112.159C155.048 111.806 154.848 111.369 154.786 110.902C154.724 110.436 154.802 109.961 155.011 109.54C155.219 109.118 155.548 108.767 155.957 108.533C156.458 108.122 156.988 107.748 157.544 107.413C158.795 106.554 160.12 105.77 161.278 104.836C162.025 104.257 163.145 103.735 162.678 102.297C162.296 102.183 161.9 102.12 161.502 102.11C160.624 102.11 159.765 102.372 158.888 102.484C158.01 102.596 156.834 102.67 156.181 101.513C155.004 99.3657 153.716 99.0856 151.532 100.187C149.851 101.046 149.366 102.67 148.638 104.183C147.04 107.861 144.535 111.073 141.356 113.518C140.672 114.03 139.89 114.399 139.06 114.601C135.848 115.404 132.618 116.076 129.407 116.823C128.971 117.008 128.562 117.253 128.193 117.551C128.807 117.698 129.447 117.698 130.06 117.551C132.301 117.364 134.541 116.505 136.763 117.364C138.644 118.061 140.461 118.916 142.196 119.922C146.621 122.536 150.897 125.393 155.266 127.969C156.822 128.782 158.489 129.361 160.214 129.687C161.072 129.911 162.081 129.556 162.081 128.361C161.956 127.635 162.084 126.889 162.445 126.246C162.805 125.604 163.375 125.105 164.06 124.833C164.06 124.627 164.06 124.422 164.06 124.235L161.633 122.928C160.978 122.679 160.352 122.36 159.765 121.976C158.29 120.781 158.533 119.269 160.307 118.671C161.152 118.408 162.037 118.294 162.921 118.335C167.252 118.447 171.584 118.671 175.99 118.727C177.595 118.773 179.198 118.591 180.751 118.186C182.768 117.626 183.048 116.655 181.853 114.993C181.08 114.111 180.203 113.327 179.239 112.659ZM181.797 111.8L180.975 109.467C180.229 110.717 180.807 111.222 181.816 111.8H181.797ZM199.086 122.909C199.267 121.799 199.6 120.718 200.076 119.698C200.494 119.031 200.976 118.406 201.513 117.831L203.38 119.922C204.239 116.039 202.951 110.083 200.804 108.272C200.873 109.229 200.804 110.191 200.598 111.128C199.572 113.873 198.414 116.561 197.182 119.231C196.958 119.754 196.248 120.09 195.52 120.725C195.41 120.21 195.227 119.714 194.979 119.25C193.541 117.383 193.541 117.14 195.613 116.412C196.808 116.001 197.014 115.385 196.453 114.452C195.893 113.518 196.117 112.585 197.163 112.417C198.563 112.062 198.713 111.054 199.03 109.915C199.327 107.618 199.11 105.284 198.395 103.081C197.988 100.878 196.866 98.8696 195.203 97.3679C194.923 98.5255 195.987 99.8884 194.176 100.486L193.279 98.4508C190.927 98.4508 192.383 101.569 190.385 101.756C190.136 101.422 189.962 101.038 189.877 100.631C189.791 100.224 189.796 99.8024 189.89 99.3968C189.984 98.9913 190.166 98.6113 190.423 98.2834C190.679 97.9555 191.004 97.6877 191.375 97.4986C192.383 96.8264 193.447 96.229 194.493 95.6315L194.325 95.1274C192.178 95.2208 190.031 95.2581 187.902 95.4261C187.672 95.4788 187.454 95.5791 187.265 95.7206C187.075 95.862 186.917 96.0416 186.801 96.2477C185.849 97.7786 184.934 99.3657 183.925 101.27C184.264 101.33 184.595 101.424 184.915 101.55C186.39 102.241 186.651 102.894 186.035 104.351C185.885 104.635 185.717 104.91 185.531 105.172C184.374 107.189 184.448 107.973 185.793 108.626C187.137 109.28 187.66 108.738 188.63 106.89C189.098 105.876 189.667 104.913 190.329 104.015C191.058 103.1 192.607 103.044 193.018 103.884C193.687 105.148 194.129 106.519 194.325 107.936C194.331 109.209 194.11 110.474 193.672 111.67C192.813 114.657 191.804 117.644 190.908 120.632C190.408 121.814 190.329 123.132 190.684 124.366C190.902 124.437 191.128 124.48 191.356 124.496C193.578 124.198 194.474 124.87 194.698 126.961C194.703 127.435 194.798 127.904 194.979 128.343C195.165 128.735 195.613 129.351 195.837 129.314C196.087 129.254 196.323 129.144 196.528 128.99C196.734 128.836 196.906 128.641 197.032 128.417C198.051 126.722 198.753 124.856 199.105 122.909H199.086ZM214.713 113.257C214.383 112.789 214.233 112.217 214.292 111.648C214.35 111.078 214.613 110.549 215.031 110.157C215.964 109.242 216.898 109.691 217.925 110.157C218.952 110.624 219.792 111.259 220.781 111.856C220.912 111.585 220.985 111.289 220.995 110.988C221.004 110.687 220.952 110.388 220.839 110.108C220.727 109.829 220.557 109.576 220.342 109.366C220.126 109.156 219.869 108.993 219.587 108.888C218.765 108.373 217.91 107.911 217.029 107.506C214.811 106.323 212.461 105.408 210.027 104.78C210.027 105.714 209.84 106.479 209.747 107.245C210.699 107.655 211.876 107.767 211.446 109.317L210.55 109.186H209.672C209.672 111.408 209.672 111.688 210.606 112.342C212.697 113.686 212.193 115.889 212.697 117.738C212.697 117.98 212.361 118.354 212.174 118.69C211.782 118.447 211.129 118.26 211.091 117.98C211.07 117.265 211.139 116.55 211.297 115.852C210.681 115.142 210.046 114.414 209.43 113.667C208.524 112.723 207.893 111.549 207.607 110.272C207.32 108.995 207.389 107.664 207.805 106.423C208.421 104.724 208.16 104.22 206.629 103.268L204.762 102.166C203.772 101.569 203.735 100.859 204.594 99.9445L207.451 101.55L210.905 100.355L212.268 97.8347L213.985 99.4777C215.852 99.0296 217.719 98.9922 218.28 96.8078C218.28 96.5837 219.344 96.3783 219.699 96.5464C220.053 96.7144 220.539 97.4426 220.931 97.8907C222.518 97.8907 224.049 97.8907 224.777 96.0236L226.756 97.3866C226.065 98.0774 225.617 98.8616 225.001 99.0483C223.395 99.515 221.678 99.6271 220.072 100.056C217.188 100.559 214.402 101.517 211.82 102.894C213.671 104.421 215.931 105.369 218.317 105.62C218.521 104.841 218.996 104.16 219.656 103.699C220.316 103.237 221.118 103.025 221.92 103.1C223.582 103.1 225.262 103.1 226.924 103.1C229.078 102.96 231.223 102.699 233.347 102.316C233.683 102.228 233.993 102.059 234.25 101.825C234.507 101.591 234.703 101.298 234.822 100.971C234.822 100.505 234.206 99.8138 233.702 99.3843C233.104 98.9987 232.48 98.6556 231.835 98.3574C230.976 97.816 229.967 97.3866 229.407 96.4904C228.847 95.5942 229.183 94.6233 229.09 93.4284C228.436 93.1296 227.596 92.4202 226.849 92.4948C224.204 92.7133 221.581 93.1504 219.008 93.8018C216.394 94.5299 213.929 95.7809 211.371 96.7144C207.834 97.9011 204.098 98.3832 200.374 98.1334C201.236 101.223 202.328 104.244 203.642 107.17C205.874 111.185 207.462 115.526 208.347 120.034C208.583 121.309 209.289 122.448 210.326 123.227C210.592 123.472 210.906 123.66 211.248 123.779C211.59 123.897 211.953 123.944 212.314 123.916C212.675 123.888 213.026 123.786 213.346 123.616C213.666 123.446 213.947 123.212 214.172 122.928C215.927 121.061 216.487 121.173 218.224 123.04L221.323 126.364C221.696 124.96 221.666 123.481 221.236 122.094C220.807 120.707 219.996 119.469 218.896 118.522C218.037 117.663 217.234 116.767 216.469 115.852C215.808 115.041 215.22 114.172 214.713 113.257ZM237.847 126.326C237.975 125.461 238.019 124.586 237.977 123.712C238.089 120.296 238.985 119.623 242.327 120.389C242.701 120.537 243.102 120.607 243.504 120.594C244.088 120.441 244.656 120.234 245.203 119.978C243.435 116.496 240.492 113.751 236.894 112.23C231.632 109.868 226.218 107.86 220.688 106.218C220.52 106.218 220.277 106.349 220.072 106.423C219.867 106.498 220.072 106.647 220.072 106.685C220.52 107.133 220.968 107.581 221.435 108.01C224.497 110.792 227.764 113.163 232.133 113.331C232.563 113.331 233.384 113.742 233.366 113.873C233.123 115.348 234.542 115.74 235.065 116.785C235.245 117.393 235.351 118.02 235.382 118.653L231.648 116.449C231.648 117.383 231.797 118.036 231.891 118.895C229.445 118.597 229.687 116.561 229.127 115.273L224.348 112.603C224.198 113.126 224.03 113.63 223.825 114.321L221.958 113.014L221.659 113.406C222.217 114.09 222.842 114.715 223.526 115.273C225.522 116.642 227.213 118.41 228.492 120.464C229.501 121.92 230.36 123.414 231.554 124.795C232.372 125.89 233.34 126.864 234.43 127.689C234.717 127.906 235.055 128.045 235.411 128.093C235.768 128.141 236.131 128.096 236.465 127.963C236.799 127.83 237.093 127.612 237.319 127.332C237.545 127.052 237.694 126.718 237.753 126.364L237.847 126.326ZM156.834 116.356C158.496 116.169 160.251 115.329 161.483 116.561C163.873 116.057 165.983 115.74 168.037 115.161C170.09 114.582 172.051 113.798 173.787 113.182C173.582 112.211 173.376 111.315 173.078 109.971C172.2 110.568 171.36 110.886 170.968 111.502C170.584 112.054 170.088 112.519 169.512 112.867C168.936 113.214 168.293 113.436 167.626 113.518C166.375 113.817 165.199 114.358 163.892 113.518C163.668 113.387 163.276 113.518 162.977 113.518C159.672 114.097 156.386 114.788 153.081 115.273C151.686 115.308 150.291 115.201 148.918 114.956C150.187 113.63 151.14 112.771 151.905 111.782C152.671 110.792 153.978 110.045 153.455 108.048L150.411 111.016C150.038 110.325 149.702 109.747 149.086 108.664C148.787 109.672 148.432 110.195 148.544 110.531C148.795 111.346 148.769 112.222 148.472 113.022C148.175 113.821 147.623 114.501 146.901 114.956C145.352 114.844 143.783 114.676 142.196 114.657C141.941 114.678 141.694 114.765 141.482 114.909C141.269 115.053 141.097 115.249 140.983 115.479C140.871 115.833 141.281 116.487 141.655 116.785C142.963 117.714 144.555 118.156 146.155 118.036C148.23 118.055 150.24 118.764 151.868 120.053C153.38 121.266 155.042 122.293 156.629 123.414L157.021 123.021C156.255 120.296 153.492 119.287 151.924 117.252C153.548 117.028 155.172 116.561 156.834 116.356ZM231.162 65.3476C231.629 65.3476 232.376 65.3476 232.544 65.5903C233.814 67.6254 236.278 66.6172 237.921 67.8121C238.108 67.9428 238.705 67.5134 239.116 67.3267C238.965 66.9213 238.771 66.5333 238.537 66.1691C238.307 65.9433 238.025 65.7767 237.716 65.6837L230.826 63.1258C231.321 62.5601 231.878 62.0527 232.488 61.6134C234.56 60.4185 236.652 59.1862 238.836 58.1967C243.074 56.3296 247.387 54.4625 251.682 52.7262C252.522 52.3901 253.306 52.1287 253.549 50.8591C251.495 50.0562 250.001 51.83 247.947 52.0167C248.302 51.5126 248.451 51.2512 248.638 51.0271C249.124 50.4857 249.796 49.8322 249.049 49.1601C248.302 48.4879 247.499 49.2907 247.182 49.9069C246.623 50.9748 246.137 52.0788 245.726 53.2116L238.985 55.5081C238.668 54.7986 238.556 53.9584 238.145 53.7531C237.286 53.3423 236.614 53.8651 236.278 54.7613C236.091 55.2841 235.923 55.8255 235.699 56.3296C235.475 56.8337 235.27 57.4499 234.859 57.7299C233.459 58.7008 231.984 59.597 230.061 60.7172C230.64 58.7568 231.032 57.3005 231.498 55.8815C231.965 54.4625 232.488 53.3236 232.861 52.0167C233.141 51.0645 233.067 50.1496 231.816 49.8135C231.032 51.9047 230.285 53.8277 229.575 55.7882C229.334 56.296 229.17 56.8373 229.09 57.3938C228.897 58.9202 228.246 60.3522 227.223 61.5014C226.737 62.1549 226.215 62.771 225.785 63.3685C225.057 64.5634 225.561 65.4036 226.98 65.3662C228.399 65.3289 229.818 65.3476 231.162 65.3476ZM250.991 86.5949C250.9 87.1369 250.646 87.6383 250.263 88.0325C249.198 88.7932 248.044 89.4202 246.827 89.8996C246.434 90.0229 246.092 90.2728 245.856 90.6106C245.619 90.9483 245.501 91.3548 245.52 91.7667C245.52 92.7002 246.286 92.8869 247.051 92.9056C249.212 93.1532 251.248 94.0444 252.895 95.4635C254.277 96.4157 255.677 97.3306 257.115 98.2641C257.538 98.6223 258.069 98.8295 258.623 98.8532C259.178 98.8768 259.724 98.7156 260.177 98.3948L257.656 96.229C258.123 95.7249 258.496 95.2954 258.87 94.866C258.396 94.5242 257.889 94.2303 257.357 93.9885C256.811 93.8354 256.242 93.7847 255.677 93.8391C254.693 93.8331 253.72 93.6206 252.823 93.2154C251.926 92.8102 251.123 92.2212 250.468 91.4866L261.428 91.0385C261.867 90.7132 262.369 90.4842 262.903 90.3664C265.131 90.1612 267.37 90.105 269.605 90.1983C274.478 90.5531 279.333 91.0945 284.206 91.5426C284.716 91.4831 285.217 91.3641 285.7 91.1879C284.654 90.0116 283.272 89.3208 283.833 87.3417C282.558 87.3439 281.294 87.5714 280.098 88.0139C278.238 88.962 276.101 89.22 274.068 88.742C269.437 88.1538 264.751 88.1538 260.121 88.742C257.899 89.1154 255.64 89.2835 253.399 89.4888C252.762 89.4295 252.135 89.2915 251.532 89.0781C252.223 88.6113 252.54 88.4246 252.839 88.1819C255.668 85.5524 258.902 83.3962 262.417 81.7965C262.977 81.5911 263.313 80.8816 263.836 80.3215C263.302 79.9299 262.644 79.7462 261.984 79.8046C261.324 79.863 260.708 80.1596 260.251 80.6389C259.79 81.0614 259.187 81.2957 258.562 81.2957C257.936 81.2957 257.333 81.0614 256.872 80.6389C256.872 80.6389 256.592 80.7509 256.293 80.8816C256.293 81.5725 256.424 82.3193 256.499 83.0101L253.437 85.2506L251.439 83.5516C251.233 85.1572 251.177 85.8854 250.991 86.5202V86.5949ZM166.039 143.765L165.46 145.053L166.468 144.082L166.039 143.765ZM206.834 32.8232C206.306 31.8927 206.081 30.8203 206.191 29.7558C206.302 28.6912 206.742 27.6879 207.451 26.8859C208.025 25.7719 208.422 24.575 208.627 23.3384C208.732 22.8778 208.801 22.4096 208.832 21.9381C206.2 22.1435 206.778 25.3735 204.501 26.0083C203.604 23.4318 202.746 20.9112 201.831 18.428C201.65 17.7545 201.273 17.15 200.748 16.6916C199.525 15.885 198.667 14.6317 198.358 13.2002C197.891 11.7066 197.331 10.2316 196.808 8.7379H196.043C196.043 9.44739 195.595 10.2502 195.8 10.8664C196.331 13.545 197.405 16.0866 198.955 18.3347C199.784 19.3226 200.469 20.4226 200.99 21.602C201.725 22.892 202.099 24.356 202.073 25.8403L197.163 23.9732C196.827 23.133 197.723 21.6767 195.949 21.6394C195.557 22.3489 195.165 23.0023 194.81 23.6372C192.993 22.8834 191.046 22.4903 189.079 22.4796C189.265 24.0106 190.255 24.4587 191.356 24.7574C193.616 25.3549 195.893 25.8216 198.115 26.6245C200.822 27.5207 203.362 28.7156 204.146 31.9083C204.303 32.5317 204.618 33.1041 205.061 33.57C205.251 33.6954 205.467 33.7772 205.693 33.8095C205.919 33.8418 206.149 33.8237 206.368 33.7567C206.52 33.646 206.642 33.4993 206.723 33.3299C206.805 33.1605 206.843 32.9736 206.834 32.7858V32.8232ZM116.655 123.32C117.308 122.779 117.626 122.237 117.084 121.453C116.963 121.389 116.829 121.356 116.692 121.356C116.555 121.356 116.421 121.389 116.3 121.453C115.759 122.163 115.871 122.779 116.655 123.32ZM162.715 54.3692C162.417 55.6575 161.782 57.0951 163.686 58.1967C164.116 55.9375 164.527 53.9024 164.956 51.7366C162.734 51.6619 162.958 53.2489 162.715 54.3692ZM150.71 66.0384C151.7 67.196 152.839 68.2229 153.81 69.3991C155.938 71.9757 155.677 74.1228 153.249 76.27C152.872 76.5693 152.534 76.9142 152.241 77.2969C152.1 77.455 151.999 77.6448 151.946 77.8502C151.893 78.0556 151.89 78.2707 151.938 78.4774C151.985 78.6841 152.082 78.8764 152.219 79.0381C152.356 79.1998 152.53 79.3262 152.727 79.4066C154.403 78.4069 155.909 77.1463 157.189 75.6725C157.682 75.0703 158.276 74.5586 158.944 74.1602C160.68 73.3573 162.491 72.7039 164.284 71.9944C165.012 71.7143 166.039 71.6023 165.647 70.4634C165.255 69.3245 164.396 69.6792 163.593 69.9406C163.136 70.0839 162.687 70.2522 162.249 70.4447C161.39 70.8181 160.55 71.2289 159.597 71.6583C159.485 70.7248 159.411 70.0713 159.28 69.1191C158.664 69.6045 158.328 69.9219 157.936 70.1646C157.607 70.3644 157.264 70.5392 156.909 70.6874L150.579 62.715C150.363 62.9382 150.194 63.203 150.083 63.4935C149.971 63.7839 149.92 64.0939 149.933 64.4047C149.945 64.7155 150.02 65.0205 150.154 65.3014C150.287 65.5822 150.477 65.8329 150.71 66.0384ZM161.465 67.7188C162.286 65.553 162.921 63.8726 163.5 62.1175C163.5 61.9122 163.257 61.5761 163.033 61.1093C161.166 62.491 161.315 64.4327 160.68 66.0197C160.568 66.3558 161.016 66.8226 161.465 67.7188ZM116.991 100.523C117.85 99.3843 117.122 98.5255 116.636 97.4613L111.035 97.6666C112.043 96.4344 112.902 95.3888 113.817 94.2499C114.865 92.8612 115.825 91.4082 116.692 89.8996C117.076 89.3108 117.267 88.6176 117.241 87.9154C117.214 87.2133 116.97 86.5366 116.543 85.9787C115.029 90.5241 112.081 94.4552 108.141 97.1812C107.444 95.5777 106.87 93.9237 106.423 92.2334C106.143 90.7024 106.797 89.0034 105.695 87.3044C105.396 87.6457 105.122 88.0076 104.874 88.3873C104.718 88.668 104.587 88.9616 104.481 89.2648C103.679 89.4888 102.801 88.4993 102.465 89.7129C102.129 90.9265 103.025 90.9638 103.623 91.2812C104.055 91.4949 104.513 91.6517 104.986 91.748C105.266 93.1857 105.508 94.2872 105.676 95.4822C106.012 97.8907 106.199 100.299 103.996 102.11C103.805 102.349 103.659 102.621 103.567 102.913C104.724 103.697 105.434 102.913 105.9 102.241C107.119 101.014 108.733 100.26 110.456 100.112C111.035 100.803 111.483 101.382 112.192 102.222L112.771 99.9631C114.489 98.6935 115.572 100.598 116.991 100.523ZM117.626 79.2759C116.767 80.8412 116.477 82.6554 116.804 84.4104C118.597 82.1512 118.765 81.199 117.626 79.2759ZM140.777 78.2491C141.599 76.327 141.764 74.1873 141.244 72.1624L143.559 70.9488L140.908 69.2871C140.908 68.5776 140.908 67.8121 140.908 67.0653L142.775 66.6919C143.429 64.8248 141.356 65.2169 140.908 64.4887V60.0078C138.78 61.2774 139.806 63.2938 138.836 65.0862C138.148 62.2118 136.486 59.6648 134.131 57.8793C133.888 56.9831 135.12 55.8628 133.682 55.0227L132.394 55.5454C131.143 54.892 130.042 54.2385 128.884 53.6784C127.727 53.1182 127.278 52.6328 127.465 51.4566C127.577 50.7657 127.465 50.1309 126.457 50.0749L125.337 52.0353L122.293 50.9711C122.293 49.4775 122.816 47.8718 121.154 46.8449C119.959 48.1892 121.584 49.4028 121.154 50.411L119.679 51.3072C120.01 51.7885 120.399 52.2274 120.837 52.6141C121.353 52.8475 121.891 53.0288 122.443 53.1556C125.411 54.2945 128.679 54.8733 131.031 57.3005C131.983 58.2714 132.898 59.3169 133.832 60.2505C136.117 62.6423 137.778 65.5599 138.668 68.7457C138.925 69.773 139.124 70.814 139.265 71.8637C137.137 71.1729 135.942 69.1191 133.664 69.6792C133.701 70.1859 133.594 70.6928 133.356 71.1418C133.119 71.5909 132.759 71.964 132.32 72.2184C132.058 72.3678 132.095 73.0959 131.927 73.8614L136.408 72.5732L140.143 74.7763C139.862 75.5978 139.601 76.3447 139.321 77.1848C138.257 77.1848 137.323 77.1848 136.371 77.1848C135.419 77.1848 134.84 77.8383 135.344 78.9212L138.929 79.0146C138.447 79.9472 138.256 81.0035 138.383 82.0459C138.509 83.0882 138.947 84.0683 139.638 84.8585C139.909 84.0709 140.127 83.2663 140.292 82.45C140.3 81.0382 140.45 79.6308 140.74 78.2491H140.777ZM115.348 123.768C113.891 123.432 113.873 123.432 113.163 122.219C112.79 121.584 112.417 121.154 111.52 121.827L112.174 124.777C110.198 125.608 108.163 126.295 106.087 126.83C104.818 127.092 103.193 127.278 102.353 126.083C100.486 126.083 98.8055 126.364 97.1625 126.326C96.0609 126.326 95.7622 126.756 95.7435 127.839L97.704 128.063C99.0642 128.068 100.423 128.149 101.774 128.305C102.948 128.473 104.084 128.839 105.135 129.388C106.265 130.062 107.322 130.85 108.29 131.741C109.194 132.398 109.978 133.206 110.605 134.131C111.576 135.998 113.481 136.688 115.012 138.388C115.257 137.888 115.311 137.316 115.163 136.779C115.015 136.242 114.675 135.778 114.209 135.475C113.431 134.805 112.701 134.081 112.024 133.309C111.39 132.618 110.848 131.834 110.157 131.125C109.467 130.415 109.242 130.21 108.813 129.78L129.612 132.264L130.695 135.288C132.562 135.008 131.199 133.608 131.983 132.712C132.453 132.725 132.922 132.775 133.384 132.861C133.902 133.057 134.432 133.219 134.971 133.346C135.363 133.346 135.755 133.048 136.147 132.88C135.949 132.533 135.724 132.202 135.475 131.89C135.176 131.591 134.616 131.423 134.504 131.087C133.851 129.314 133.477 129.015 131.871 129.836C130.867 130.315 129.739 130.472 128.641 130.284C123.936 129.762 119.306 129.332 114.508 128.791C113.249 128.56 112.003 128.267 110.773 127.913C112.024 125.859 114.993 126.326 115.348 123.768ZM165.292 145.184C165.292 145.184 165.292 145.053 165.292 144.978V145.184ZM238.985 35.045C240.873 35.0273 242.752 34.7956 244.587 34.3542C244.923 34.3542 245.147 33.7007 245.408 33.3646C245.102 33.0662 244.749 32.8202 244.363 32.6364C243.886 32.561 243.401 32.561 242.925 32.6364L237.734 33.0099C237.734 32.0016 239.209 31.5909 238.164 30.2653C237.212 30.8441 236.297 31.4602 235.251 32.039C234.785 32.3004 234.28 32.7485 233.814 32.7298C231.947 32.7298 230.079 32.4871 227.764 32.319C229.258 31.0494 230.434 30.2093 231.498 29.201C232.071 28.3757 232.836 27.7026 233.727 27.2405C234.619 26.7785 235.61 26.5413 236.614 26.5498C237.044 26.5498 237.51 26.0644 237.959 25.803L237.249 24.664C237.118 24.4773 236.969 24.328 236.801 24.0853C237.977 22.6476 239.191 21.266 240.292 19.8283C241.991 17.6065 243.69 15.3847 245.259 13.0695C245.569 12.548 245.757 11.9629 245.809 11.3581C245.861 10.7534 245.775 10.1448 245.558 9.57809L243.69 11.8559L242.589 10.773C242.362 10.8357 242.154 10.9516 241.981 11.1113C241.808 11.2709 241.676 11.4696 241.595 11.6907C241.515 11.9118 241.489 12.1489 241.519 12.3823C241.548 12.6157 241.634 12.8385 241.767 13.0322C241.988 13.5095 242.053 14.0442 241.952 14.5604C241.852 15.0765 241.591 15.5479 241.207 15.9075C240.626 16.6753 240.002 17.4108 239.34 18.1106C237.753 19.791 236.147 21.4713 234.523 23.1144C232.656 25.1121 230.584 27.1099 228.567 29.0517C227.836 29.5935 227.062 30.0743 226.252 30.4893C226.383 28.3795 226.495 26.7552 226.607 25.2055L228.138 23.6932L225.916 22.1435C225.524 20.6685 224.665 19.0628 226.849 18.0733C227.003 17.92 227.112 17.7278 227.165 17.5173C227.217 17.3067 227.212 17.0859 227.148 16.8783C227.006 16.7112 226.823 16.5838 226.617 16.5085C226.411 16.4333 226.188 16.4127 225.972 16.4489C225.209 16.7506 224.478 17.1258 223.787 17.5692C223.787 18.6147 223.787 19.4362 223.787 20.2391C223.955 23.5811 224.161 26.9045 224.292 30.2466C224.41 30.8827 224.334 31.5396 224.074 32.1321C223.814 32.7247 223.383 33.2256 222.835 33.57C222.593 33.7007 222.48 34.0554 222.312 34.2795C223.47 35.5304 223.507 35.5304 224.646 34.8583C225.225 34.5222 225.879 33.9994 226.513 34.0368C230.752 34.3168 234.878 34.8396 238.985 35.045ZM246.099 13.7977C246.641 13.6825 247.164 13.4874 247.649 13.2189C248.003 12.9388 248.115 12.3787 248.339 11.9493C247.835 11.8372 247.257 11.5012 246.864 11.6505C246.645 11.7044 246.443 11.8126 246.276 11.9654C246.11 12.1181 245.984 12.3104 245.912 12.5244C245.839 12.7384 245.822 12.9673 245.861 13.1898C245.9 13.4124 245.995 13.6214 246.136 13.7977H246.099Z" fill="#101A24"/>
</svg>
