<svg width="77" height="78" viewBox="0 0 77 78" fill="none" xmlns="http://www.w3.org/2000/svg">
<path d="M76.66 51.28C76.096 50.034 75.3175 48.8967 74.36 47.92C73.9767 47.5983 73.6189 47.2472 73.29 46.87C73.0016 46.4627 72.6344 46.1174 72.2101 45.8546C71.7858 45.5918 71.3131 45.4168 70.82 45.34C70.2686 45.2964 69.7227 45.1992 69.19 45.05C68.8973 44.9182 68.5727 44.8735 68.2552 44.9214C67.9378 44.9693 67.6408 45.1077 67.4 45.32C66.94 45.67 66.4 45.99 65.96 46.32C65.52 46.65 65.27 46.56 65.04 46.15C64.81 45.74 64.65 45.86 64.35 46.02C64.1303 46.0994 63.8897 46.0994 63.67 46.02C62.58 45.62 61.52 45.13 60.42 44.77C58.9204 44.1861 57.4805 43.4594 56.12 42.6C55.37 42.19 54.76 41.6 54.04 41.09C52.75 40.27 51.58 39.28 50.26 38.49C48.1 37.2 46.08 35.66 44.01 34.23C42.1883 32.9974 40.211 32.0121 38.13 31.3C37.29 31 36.48 30.64 35.65 30.3C34.18 29.71 32.73 29.09 31.25 28.53C30.25 28.15 29.25 27.86 28.25 27.53C27.08 27.1 25.92 26.63 24.76 26.17C23 25.45 21.23 24.81 19.53 24C17.0349 22.7031 14.7355 21.0602 12.7 19.12C12.5145 18.9539 12.3677 18.7491 12.27 18.52C11.6833 16.96 11.1067 15.3933 10.54 13.82C10.3628 13.172 10.0179 12.5822 9.54001 12.11C8.54001 11.26 7.59001 10.38 6.60001 9.54C6.11319 9.14256 5.76055 8.60487 5.59001 8C5.4524 7.54498 5.34878 7.08037 5.28001 6.61C5.28001 6.21 5.28001 5.79 5.28001 5.39C5.17369 4.83574 4.88077 4.33461 4.45001 3.97C4.05394 3.66965 3.7152 3.30042 3.45001 2.88C3.00339 1.9981 2.34338 1.24184 1.53001 0.68C1.11546 0.41305 0.676889 0.185395 0.220007 0C7.46548e-06 0.73 -0.129993 1.23 0.190007 1.77C0.510007 2.31 0.910007 3.14 1.29001 3.82C1.80048 4.64048 2.14056 5.55531 2.29001 6.51C2.43137 7.61405 2.4882 8.72729 2.46001 9.84C2.41935 10.3111 2.49489 10.7849 2.68001 11.22C3.0429 11.9159 3.48591 12.567 4.00001 13.16C4.60224 13.7822 5.03889 14.5455 5.27001 15.38C5.47871 16.2171 5.57953 17.0774 5.57001 17.94C5.57001 19.94 5.40001 21.94 5.25001 23.94C5.01691 26.0112 5.03369 28.1028 5.30001 30.17C5.52001 31.46 5.65001 32.76 5.87001 34.04C6.00587 35.3163 6.30498 36.5699 6.76001 37.77C6.84181 38.0356 6.88229 38.3121 6.88001 38.59C7.00001 39.74 7.00001 40.88 7.21001 42C7.41001 43.28 7.75001 44.55 7.99001 45.83C8.38912 47.5073 9.00779 49.1246 9.83001 50.64C10.77 52.56 11.83 54.43 12.83 56.32C13.1644 57.0496 13.5556 57.7517 14 58.42C15.06 59.85 16.12 61.28 17.26 62.62C18.4 63.96 19.34 65.62 20.96 66.53C21.0377 66.5635 21.1038 66.6191 21.15 66.69C21.4896 67.2488 21.9777 67.7024 22.56 68C22.7013 68.0852 22.8351 68.1822 22.96 68.29C24.1216 69.2784 25.3587 70.1745 26.66 70.97C28.4207 72.1911 30.2504 73.3096 32.14 74.32C33.6415 75.1659 35.249 75.8083 36.92 76.23C37.92 76.41 38.86 76.7 39.84 76.91C41.17 77.19 42.51 77.52 43.84 77.69C45.7465 77.9689 47.6876 77.9011 49.57 77.49C50.57 77.24 51.7 77.13 52.76 76.91C53.42 76.78 54.04 76.51 54.7 76.4C56.1974 76.0437 57.6427 75.4958 59 74.77C60.46 74.1 61.9 73.37 63.39 72.77C64.3123 72.4521 65.1407 71.9091 65.8 71.19C66.041 70.9175 66.3053 70.6665 66.59 70.44C68.1574 69.2843 69.5312 67.8869 70.66 66.3C71.25 65.3 72.14 64.54 72.35 63.36C72.3563 63.3194 72.3711 63.2805 72.3935 63.246C72.4159 63.2115 72.4454 63.1822 72.48 63.16C73.29 62.73 73.59 61.85 74.19 61.25C74.3061 61.1272 74.3767 60.9684 74.39 60.8C74.5611 59.9852 74.6183 59.1506 74.56 58.32C74.4916 57.7527 74.6497 57.1814 75 56.73C75.3831 56.1137 75.7175 55.4684 76 54.8C76.2642 54.1277 76.4749 53.4355 76.63 52.73C76.7849 52.2606 76.7953 51.7554 76.66 51.28ZM75.21 51.44L73.74 52.44C73.74 51.69 74.4 51.51 74.51 50.9C73.69 50.56 73.7 51.7 73.02 51.61C72.73 51.22 73.11 50.98 73.3 50.72C73.5409 50.4417 73.798 50.1779 74.07 49.93L75.21 51.44ZM65 50C65.343 49.8603 65.6237 49.6009 65.79 49.27C66.08 48.8 66.27 48.27 66.9 48.09C66.97 48.09 67.07 48 67.08 47.94C67.18 47.29 67.77 47.08 68.2 46.76C68.588 46.4914 69.0451 46.3402 69.5168 46.3242C69.9884 46.3082 70.4547 46.4283 70.86 46.67C70.6227 46.7379 70.3891 46.818 70.16 46.91C69.9776 46.9735 69.813 47.0798 69.68 47.22C69.61 47.28 69.68 47.47 69.68 47.59L70.02 47.53L71.35 47C71.8613 47.4014 72.2693 47.9191 72.54 48.51C72.54 48.3 72.68 48.17 72.85 48.37C73.21 48.78 73.54 49.22 73.85 49.62C73.44 49.95 73.11 50.24 72.74 50.49C72.5919 50.5581 72.4326 50.5987 72.27 50.61C72.2846 50.4404 72.3286 50.2746 72.4 50.12C72.5957 49.8492 72.8095 49.5919 73.04 49.35L72.51 48.48C72.61 49.31 72.08 49.84 71.11 49.73C71.48 49.38 71.78 49.09 72.11 48.79C72.11 48.17 71.51 48.79 71.33 48.43C71.1491 48.1563 70.945 47.8987 70.72 47.66L70 47.52C69.9943 47.6859 69.9298 47.8443 69.818 47.967C69.7063 48.0897 69.5546 48.1688 69.39 48.19C68.19 48.35 67.56 49.31 66.68 49.92C66.5098 50.0533 66.3254 50.1674 66.13 50.26C65.9751 50.3138 65.833 50.3991 65.7126 50.5105C65.5922 50.6218 65.4962 50.7568 65.4305 50.9071C65.3647 51.0573 65.3308 51.2195 65.3307 51.3835C65.3306 51.5475 65.3644 51.7097 65.43 51.86C65.4493 51.5185 65.57 51.1906 65.7766 50.9181C65.9833 50.6455 66.2664 50.4408 66.59 50.33C66.28 50.92 66.06 51.33 65.79 51.79C65.79 51.86 65.57 51.85 65.43 51.86C65.4051 52.3263 65.4051 52.7937 65.43 53.26C65.4998 53.7417 65.5966 54.2191 65.72 54.69L64.35 55.69C64.26 55.41 64.19 55.2 64.11 54.93C64.78 54.79 65.27 54.54 65.28 53.82C64.81 53.82 64.81 53.82 64.19 54.19C64 54 63.83 53.86 64.19 53.62C64.5881 53.2749 64.9261 52.866 65.19 52.41H64.19C64.35 52.2 64.45 52.06 64.6 51.88C64.49 51.78 64.42 51.66 64.31 51.61C64.2422 51.5872 64.1807 51.5489 64.1303 51.4981C64.0799 51.4474 64.042 51.3856 64.0197 51.3176C63.9974 51.2497 63.9912 51.1774 64.0017 51.1067C64.0121 51.0359 64.039 50.9686 64.08 50.91C64.2924 50.5242 64.6119 50.2081 65 50ZM69.66 57.75C68.8456 56.9513 68.1426 56.0465 67.57 55.06C67.4064 54.7498 67.3077 54.4096 67.28 54.06C68.1785 55.3017 69.2727 56.3892 70.52 57.28C70.52 56.98 70.62 56.78 70.52 56.69C70.3067 56.303 70.0176 55.9629 69.67 55.69C68.7439 54.9726 67.9947 54.0523 67.48 53C67.2578 52.6455 67.0703 52.2705 66.92 51.88C66.84 51.69 66.76 51.44 67.14 51.32L68.93 53.97C68.9625 54.0456 69.0101 54.1136 69.07 54.17L71 55.32C70.9499 55.1297 70.8795 54.9453 70.79 54.77C70.48 54.42 70.16 54.07 69.79 53.77C69.1679 53.1095 68.6457 52.3616 68.24 51.55C68.1 51.28 68.13 50.92 67.71 50.69C67.29 50.46 67.86 50.16 68.08 49.9C69.58 51.49 70.54 53.54 72.49 54.78C72.21 55.44 72.04 56.2 71.26 56.61C71.0789 56.7387 70.9286 56.9061 70.82 57.1C70.44 57.67 70.07 58.25 69.65 58.9L69.02 58.31L69.76 58.24C69.7418 58.0667 69.6945 57.8976 69.62 57.74L69.66 57.75ZM61.46 69.66H60.6C60.6 69.66 60.6 69.59 60.6 69.55L61.21 69.22L61.49 69.66L62.08 70.2C61.38 70.71 61.38 70.71 60.99 70.31C61.15 70.09 61.32 69.87 61.49 69.66H61.46ZM58.25 65.05C58.25 65.47 58.25 65.84 58.25 66.28L56.83 66.68C56.83 66.19 56.9 65.79 56.94 65.31L58.25 65.05ZM57 64.42C57.22 63.98 57.31 63.95 58.26 64.07C57.8 64.42 57.8 64.42 57 64.42ZM50.44 59C50.44 58.68 50.44 58.4 50.44 57.91L49.73 58.84L48.83 58.77L49.45 57C48.74 57.35 48.64 58.11 48.15 58.61L47 58.54C47.37 57.73 47.7 56.98 48.08 56.13L52.16 57.13C51.91 57.74 51.71 58.28 51.45 58.79C51.19 59.3 50.85 59.13 50.44 59ZM49.73 60.4L50.1 59.56L50.92 59.62C50.89 60.63 50.69 60.76 49.73 60.4ZM49.33 59.47C49.12 60.47 49.12 60.47 48.15 60.31L48.55 59.31L49.33 59.47ZM47.84 59.33C47.72 59.66 47.63 59.91 47.51 60.22L46.43 60C46.56 59.66 46.68 59.39 46.81 59.06L47.84 59.33ZM53.08 59.81C53.02 60.5 52.95 60.59 52.37 60.65C52.02 60.65 51.66 60.65 51.2 60.65C51.84 59.58 51.84 59.58 53.08 59.81ZM52.15 59C52.32 58.26 52.46 58.22 53.75 58.49C53.69 58.72 53.62 58.94 53.54 59.23L52.15 59ZM52.6 57.68C52.54 57.36 52.6 57.17 52.9 57.17H57.9C57.64 57.72 57.3 57.63 57.02 57.66C56.4678 57.6677 55.9166 57.7111 55.37 57.79C54.87 57.9 54.45 57.56 53.93 57.71C53.4896 57.7815 53.0405 57.7815 52.6 57.71V57.68ZM54.09 59.81C54.56 59.73 54.57 60.15 54.76 60.51L53.66 60.56C53.71 60.22 53.69 59.9 54.09 59.84V59.81ZM54.21 59.06C54.35 58.35 54.64 58.18 55.5 58.33C55.16 59.31 55.14 59.32 54.21 59.09V59.06ZM56.65 59.66C56.34 60.55 56.32 60.55 55.23 60.34C55.4 59.49 56.24 60.08 56.65 59.69V59.66ZM55.87 59.09C55.87 58.38 55.93 58.28 56.52 58.3C56.82 58.3 57.11 58.3 57.47 58.37C57 59.27 57.06 59.31 55.87 59.12V59.09ZM58.06 59.63C58.06 60.13 57.8 60.21 57.31 60.23C57.42 59.79 57.55 59.5 58.06 59.66V59.63ZM57.77 59C57.88 58.7 57.96 58.48 58.05 58.25L58.81 58.31C58.64 59 58.64 59 57.77 59ZM59.65 59.92L58.65 60.08C59.09 59.45 59.09 59.45 59.65 59.9V59.92ZM59.24 59.12C59.2581 58.9415 59.2882 58.7645 59.33 58.59C59.3703 58.4872 59.4171 58.387 59.47 58.29C59.6098 58.2804 59.7502 58.2804 59.89 58.29C60.04 58.29 60.2 58.35 60.39 58.39C60.29 59 59.77 58.94 59.24 59.1V59.12ZM58.37 57.63V57.46H60.99C60.1511 57.7698 59.2388 57.822 58.37 57.61V57.63ZM63.46 58.01C63.46 58.08 63.46 58.15 63.46 58.21C62.6175 58.5241 61.7288 58.6964 60.83 58.72C60.95 58.51 61 58.31 61.08 58.29C61.89 58.16 62.67 58.08 63.46 58V58.01ZM61.24 57.58C61.37 57.36 61.41 57.2 61.48 57.19C62.2529 57.0715 63.0418 57.1089 63.8 57.3C62.9961 57.6571 62.0993 57.7482 61.24 57.56V57.58ZM62.78 59.11C62.1022 59.4935 61.3271 59.6707 60.55 59.62C61.2185 59.2117 61.9993 59.0262 62.78 59.09V59.11ZM63.4 60.89C63.62 61.44 63.4 61.7 62.92 61.83L62.6 61.29C62.5 61.4 62.42 61.45 62.41 61.51C62.426 61.6611 62.3859 61.8128 62.2975 61.9363C62.209 62.0598 62.0782 62.1465 61.93 62.18C60.93 62.49 59.93 62.82 58.75 63.18C58.65 62.81 58.58 62.51 58.51 62.18L63.4 60.89ZM66.16 55.8L64.66 56.58L64.55 56.44C64.98 56.07 65.41 55.69 65.91 55.27L66.16 55.8ZM65.76 52.07C65.9622 52.357 66.0953 52.6868 66.1491 53.0337C66.2029 53.3806 66.1758 53.7353 66.07 54.07C65.8312 53.7978 65.6752 53.4631 65.6203 53.1052C65.5654 52.7474 65.6138 52.3812 65.76 52.05V52.07ZM64.23 60.5C64.6 60.36 64.98 60.13 65.47 60.58C65 60.86 64.59 61.11 64.2 61.36C63.78 60.75 63.78 60.67 64.23 60.48V60.5ZM64.05 63.76C64.25 64.22 63.9 64.36 63.44 64.59C63.44 64.17 63.08 63.85 63.58 63.67C63.71 63.6 64 63.65 64.05 63.74V63.76ZM63.05 62.82C63.05 62.42 63.38 62.39 63.68 62.33C63.68 62.88 63.68 62.88 63 62.8L63.05 62.82ZM62.3 66.52C62.3 65.97 62.66 65.95 62.85 65.76L62.14 65.9C62.05 65.37 61.96 64.9 61.86 64.32L62.76 64.03C62.76 64.49 63.14 64.83 62.76 65.24C62.69 65.31 62.82 65.58 62.86 65.76L63.05 66.08L62.3 66.52ZM62.96 66.93C62.77 67.27 62.78 67.28 62.32 67.58C62.47 67.08 62.47 67.08 62.93 66.91L62.96 66.93ZM60.56 64.82L61.27 64.49C61.89 65.83 61.77 66.34 60.79 66.67C60.48 66.17 61.07 66.19 61.24 65.87C61.1207 65.8514 61.0065 65.8081 60.9048 65.7429C60.8031 65.6777 60.716 65.5921 60.6493 65.4914C60.5825 65.3908 60.5374 65.2773 60.5168 65.1583C60.4963 65.0392 60.5008 64.9172 60.53 64.8L60.56 64.82ZM60.44 63.82C60.44 63.7 60.38 63.5 60.44 63.47C60.64 63.3529 60.851 63.2558 61.07 63.18C61.31 63.39 61.29 63.56 61.07 63.66C60.8566 63.7399 60.6354 63.7968 60.41 63.83L60.44 63.82ZM61.74 62.98C61.9868 62.8753 62.2408 62.7884 62.5 62.72C62.5 63.2 61.95 63.57 61.72 63.38C61.63 63.33 61.64 63 61.71 63L61.74 62.98ZM61.69 67.59C61.69 68.14 61.69 68.15 60.89 68.23C60.8 67.61 60.8 67.61 61.66 67.6L61.69 67.59ZM59.94 63.59C59.9036 63.7036 59.8399 63.8065 59.7545 63.8898C59.6691 63.973 59.5646 64.0341 59.4502 64.0677C59.3357 64.1012 59.2148 64.1062 59.098 64.0822C58.9811 64.0582 58.872 64.006 58.78 63.93C59.103 63.6857 59.5075 63.5747 59.91 63.62L59.94 63.59ZM58.19 66.9C58.65 67.62 58.51 68.04 56.99 68.36C56.66 67.42 56.79 67.25 58.16 66.93L58.19 66.9ZM57.3 69.13C57.59 69.05 57.86 68.91 58.24 68.76C58.32 69.01 58.38 69.18 58.45 69.39C58.0358 69.7292 57.5321 69.9411 57 70C56.78 69.58 56.79 69.3 57.27 69.16L57.3 69.13ZM58.74 65L60 64.81C60.05 65.14 60.1 65.45 60.16 65.81L58.94 66.1C58.86 65.72 58.8 65.39 58.74 65ZM60.08 66.41C60.1584 66.5468 60.1843 66.7075 60.1531 66.862C60.1218 67.0165 60.0354 67.1544 59.91 67.25C59.53 67.6 59.49 67.64 58.91 67.56C58.91 67.34 58.91 67.12 58.84 66.85L60.08 66.41ZM58.9 68.41L60.11 67.95C60.32 68.89 60.01 69.22 58.83 69.28C58.86 68.94 58.88 68.69 58.9 68.39V68.41ZM60.6 70.93C59.83 71.58 59.7 71.57 59.46 70.93C60.32 70.39 60.32 70.39 60.6 70.91V70.93ZM61.87 69.07C62.45 68.5 62.87 68.71 63.19 69.71C62.51 70 62.51 70 61.87 69.05V69.07ZM63 68.24C63.37 68.24 63.66 68.16 63.77 68.24C63.88 68.32 64.29 68.78 63.77 69.24L63 68.24ZM63.86 66.16C63.51 65.41 63.54 65.32 64.24 64.89C64.37 65.12 64.48 65.35 64.63 65.62L63.86 66.16ZM64.66 67.69C64.8165 67.9219 64.9601 68.1623 65.09 68.41C64.86 68.41 64.58 68.56 64.55 68.5C64.3688 68.2762 64.2544 68.0059 64.22 67.72C64.21 67.51 64.49 67.5 64.64 67.69H64.66ZM65.38 62.88C65.89 62.77 66.12 62.02 66.8 62.46C66.21 63.12 65.89 63.23 65.36 62.88H65.38ZM66.71 63.65L65.19 65.14H65.01C65.01 64.95 64.93 64.68 65.01 64.58C65.4896 64.1741 66.0051 63.8127 66.55 63.5C66.6 63.52 66.64 63.59 66.69 63.65H66.71ZM65 61.65L65.87 61.27C65.55 62 65.41 62.08 65 61.64V61.65ZM65.23 57.85C64.97 57.66 64.83 57.45 65.09 57.23C65.35 57.01 65.91 56.59 66.35 56.23C66.44 56.36 66.57 56.49 66.55 56.53C66.2134 57.0666 65.7541 57.5156 65.21 57.84L65.23 57.85ZM66.47 54.61C66.58 54.99 66.7 55.37 66.82 55.75C66.7111 55.7093 66.6129 55.6445 66.5326 55.5604C66.4524 55.4764 66.3922 55.3752 66.3566 55.2646C66.321 55.1539 66.3109 55.0367 66.3271 54.9216C66.3433 54.8065 66.3853 54.6965 66.45 54.6L66.47 54.61ZM68.87 49.39C69.71 49.18 70.14 49.34 70.45 49.93C70.76 50.52 71 51.14 71.31 51.72C71.4983 52.0267 71.7019 52.3237 71.92 52.61C72.1775 52.9663 72.4145 53.3369 72.63 53.72C72.7103 53.9258 72.7103 54.1542 72.63 54.36C71.1341 52.893 69.8606 51.2153 68.85 49.38L68.87 49.39ZM10.72 16.08C11.1261 16.7013 11.3606 17.4188 11.4 18.16C11.12 17.49 10.84 16.81 10.57 16.16L10.72 16.08ZM6.27001 23.93L7.12001 23.52L7.79001 25L6.62001 27.13C6.17568 26.1251 6.05342 25.0072 6.27001 23.93ZM7.64001 18.87L7.11001 19.51L7.00001 19.46C7.00001 19.05 7.06001 18.64 7.11001 18.02L7.64001 18.87ZM7.19001 17.07L7.25001 16.55H7.41001C7.41001 16.72 7.41001 16.89 7.41001 17.07H7.19001ZM14.8 35L14.45 35.64C13.63 34.8 13.45 34.73 14.65 33.64L15.17 34.36L14.8 35ZM15.54 35L16.15 35.82L15.48 37C14.61 36.21 14.62 35.89 15.54 35ZM14.21 33C14.04 33.39 13.82 33.76 13.61 34.16C13.1 33.74 13.1 33.74 13.93 32.55C14.06 32.78 14.24 33 14.21 33ZM9.91001 25.78C11.05 27.19 10.69 27.25 10.04 28.18L9.21001 26.76L9.91001 25.78ZM9.00001 26.08C8.32001 25.32 8.31001 25.08 9.00001 24.08C9.76001 25 9.76001 25 9.00001 26.11V26.08ZM11.15 30.08L10.37 28.82L10.98 27.94L11.75 29C11.59 29.3 11.42 29.6 11.15 30.07V30.08ZM12.05 29.76C12.7 30.57 12.7 30.57 11.94 31.53C11.78 31.23 11.62 30.95 11.43 30.61L12.05 29.76ZM10.05 29.46C10.65 30.12 10.78 30.46 10.77 30.97L11.61 32.15C11.49 32.41 11.4 32.6 11.27 32.9L11.9 32.83L12.48 33.93L12.05 34.57C10.9679 33.141 10.0268 31.6105 9.24001 30L10.05 29.46ZM12.93 31.26C13.71 32.1 13.71 32.26 12.93 33.04C12.07 32.61 12.09 31.93 12.89 31.25L12.93 31.26ZM13.93 31.26C13.33 30.66 13.33 30.66 13.67 29.96L14.42 28.42H14.65L15.21 29.31L13.93 31.26ZM12.93 29.88L12.47 29.14C12.77 28.56 13.12 27.89 13.53 27.08C13.74 27.44 13.89 27.73 14.08 28.08C13.39 28.39 13.4 29.25 12.88 29.86L12.93 29.88ZM12.17 28.52L11.42 27.24L12.21 25.59L13.08 26.44C12.73 27.12 12.46 27.74 12.12 28.5L12.17 28.52ZM11 26.13C10.17 24.83 10.08 25.23 11 23.75C11.74 24.69 11.74 25.35 11 26.13ZM9.85001 24.31C9.66001 23.99 9.50001 23.73 9.33001 23.43C9.53001 23.05 9.75001 22.67 9.96001 22.3C10.82 22.79 10.8 23.27 9.85001 24.31ZM9.94001 21.1L9.00001 22.88C8.70001 22.48 8.48001 22.21 8.28001 21.88C8.25798 21.8295 8.24661 21.7751 8.24661 21.72C8.24661 21.6649 8.25798 21.6105 8.28001 21.56C8.71001 20.8 9.14001 20.04 9.58001 19.28C9.58001 19.28 9.67001 19.23 9.79001 19.17L10.59 20.42L9.94001 21.1ZM8.08001 24.27C8.08001 23.6 7.28001 23.06 7.86001 22.27C8.72001 23.38 8.81001 23.67 8.08001 24.27ZM8.83001 19C8.38001 18.63 8.39001 18.6 9.14001 17.87C9.33001 18.36 9.24001 18.71 8.83001 19ZM8.44001 17.56C8.30001 17.04 8.30001 17.04 8.82001 16.85L8.44001 17.56ZM7.72001 21C7.55001 20.78 7.39001 20.56 7.19001 20.27L8.12001 19.2C8.50001 19.93 8.42001 20.26 7.72001 21ZM6.38001 23.17C6.38001 22.69 6.38001 22.34 6.38001 21.94C7.12001 22.62 7.12001 22.72 6.38001 23.17ZM7.12001 33.63C6.60601 31.9958 6.34301 30.2931 6.34001 28.58C6.68001 29.58 6.97001 30.58 7.34001 31.58C7.51223 31.9046 7.58332 32.2733 7.54411 32.6387C7.5049 33.0041 7.35719 33.3493 7.12001 33.63ZM7.71001 36.29C7.67387 36.1723 7.64712 36.0519 7.63001 35.93H7.79001L7.85001 36.29H7.71001ZM8.00001 33.41C8.14507 33.521 8.26591 33.6604 8.35511 33.8198C8.44431 33.9792 8.49998 34.1552 8.51871 34.3368C8.53744 34.5185 8.51883 34.7021 8.46403 34.8763C8.40922 35.0506 8.31938 35.2118 8.20001 35.35C7.65001 34.75 7.32001 34.16 8.00001 33.41ZM8.00001 37.57C7.94001 37.41 8.17001 37.15 8.30001 36.86C8.83001 37.5 9.20001 38.06 8.66001 38.86C8.31127 38.5091 8.08058 38.0581 8.00001 37.57ZM15 47.34C14.17 46.87 14.12 46.75 14.44 46.02C14.53 45.79 14.65 45.58 14.79 45.29L15.23 45.68C15.36 45.79 15.47 45.91 15.63 46.07L15 47.34ZM16 46.53L16.68 47.14C16.58 47.43 16.5 47.66 16.41 47.88C16.32 48.1 16.26 48.28 16.15 48.55C15.14 47.87 15.14 47.87 16 46.53ZM14.1 49.19C13.44 48.71 13.42 48.46 13.95 47.54C14.61 48.16 14.63 48.31 14.07 49.19H14.1ZM14.62 44.4C13.79 43.63 13.78 43.59 14.24 42.7C15.06 43.3 15.11 43.5 14.59 44.4H14.62ZM14.42 44.76C14.23 45.21 14.05 45.63 13.87 46.07C13.12 45.5 12.93 45.29 13.79 44.07L14.42 44.76ZM13.63 46.76C13.56 46.98 13.52 47.16 13.46 47.35L13.27 47.91C12.54 47.05 12.45 47.01 12.98 46.15L13.63 46.76ZM12.82 44.9C11.98 43.9 11.98 43.9 12.6 43.06L13.35 43.66L12.82 44.9ZM12.27 46.41C12.05 45.99 11.87 45.68 11.72 45.35C11.72 45.26 11.77 45.11 11.81 44.97C12.53 45.55 12.53 45.55 12.24 46.4L12.27 46.41ZM11.8 43.35C11.1 42.82 11.1 42.82 11.56 41.99C12.23 42.52 12.25 42.64 11.77 43.34L11.8 43.35ZM11.5 40.45C10.57 39.69 10.5 39.57 11.12 38.21L12 39.47L11.5 40.45ZM11.25 41.45L10.87 42.31C10.07 41.71 10.04 41.56 10.52 40.48L11.25 41.45ZM10.25 38.82C9.41001 38.22 9.66001 37.45 9.87001 36.6C10.78 37.39 10.79 37.72 10.22 38.77L10.25 38.82ZM9.81001 40.82C8.70001 39.7 8.81001 39.73 9.36001 38.71C9.80001 39.27 10.44 39.85 9.78001 40.74L9.81001 40.82ZM9.17001 36.77C8.62001 36.49 8.62001 36.49 8.98001 35.09C9.50001 35.59 9.30001 36.13 9.14001 36.69L9.17001 36.77ZM8.41001 40.2C8.98001 40.93 9.54001 41.55 10 42.2C10.2371 42.6565 10.428 43.1356 10.57 43.63L11.04 43.54C11.24 43.81 11.61 44.01 11.4 44.54L10.84 44C10.9202 44.6037 11.1209 45.1852 11.43 45.71C11.7157 46.1913 11.9663 46.6926 12.18 47.21C10.71 46.25 8.00001 41.86 8.41001 40.2ZM11.51 51.28C11.0176 50.3253 10.6319 49.3192 10.36 48.28C10.86 48.96 11.36 49.62 11.86 50.28C12.11 50.72 11.77 50.9 11.51 51.28ZM11.99 51.92C12.2239 51.1905 12.5937 50.5119 13.08 49.92C12.82 49.37 12.51 49.81 12.27 49.86C9.92001 47.19 8.32001 44.2 8.53001 42.8C8.60693 42.8915 8.67712 42.9884 8.74001 43.09C9.64801 45.0058 10.8604 46.7619 12.33 48.29C12.75 48.75 12.96 49.39 13.59 49.69C13.647 49.7181 13.6949 49.7615 13.7284 49.8154C13.762 49.8693 13.7798 49.9315 13.7798 49.995C13.7798 50.0585 13.762 50.1207 13.7284 50.1746C13.6949 50.2285 13.647 50.2719 13.59 50.3C13 50.48 12.81 50.96 12.53 51.39C12.3916 51.6012 12.2112 51.7816 12 51.92H11.99ZM15.35 54.66C15.62 54.9 15.81 54.99 15.82 55.1C15.82 55.64 15.49 55.99 15.13 56.5C14.52 55.69 15.39 55.37 15.35 54.66ZM15.71 58.07C15.31 57.92 15.1 57.73 15.25 57.19C15.59 57.48 15.84 57.64 15.71 58.07ZM16.41 59.07C16.3 58.89 16.2 58.72 16.04 58.43C16.55 58.6 16.55 58.6 16.41 59.06V59.07ZM17.53 60.34C16.85 59.78 16.85 59.78 17.26 59.34C17.46 59.62 17.93 59.79 17.53 60.33V60.34ZM18.53 61.74C17.82 61 17.82 61 18.3 60.5C19 61 19 61 18.51 61.73L18.53 61.74ZM19.53 62.84C18.94 62.37 18.94 62.37 19.35 61.56C20 62.08 20 62.08 19.51 62.83L19.53 62.84ZM20.7 64.18C19.97 63.8 19.93 63.66 20.36 62.73C21.17 63.1 20.62 63.67 20.68 64.17L20.7 64.18ZM21.35 64.86L21 64.62L21.41 63.62C21.4709 64.031 21.4436 64.4503 21.33 64.85L21.35 64.86ZM22.35 65.66C21.82 65.23 21.82 65.01 22.29 63.33L22.91 63.6C22.64 64.31 22.46 65 22.28 65.65L22.35 65.66ZM23.64 66.89C22.75 66.24 22.72 66.14 23.09 65.09C23.15 64.91 23.22 64.74 23.35 64.4C23.5 65.12 22.95 65.73 23.53 66.3C23.98 65.94 23.77 65.37 23.98 64.95C24.1662 64.5119 24.32 64.0607 24.44 63.6L23.77 63.33C23.77 63.01 23.77 62.71 23.72 62.2L23 62.99C22.39 62.67 22.36 61.99 21.9 61.44L21.08 62.38C20.68 62.17 20.6 61.87 20.84 61.44C20.9672 61.1522 21.0709 60.8546 21.15 60.55C20.22 60.16 20.65 61.32 20.03 61.37C19.76 61.23 19.53 61.04 19.82 60.59C19.9746 60.2985 20.1115 59.998 20.23 59.69C19.74 59.49 19.74 59.49 19.15 60.37C18.48 60.16 18.54 59.83 18.81 59.37C19.08 58.91 19.32 58.46 19.57 58.01C19.4927 57.9683 19.4075 57.9431 19.3199 57.9363C19.2323 57.9294 19.1442 57.941 19.0614 57.9701C18.9785 57.9993 18.9026 58.0455 18.8387 58.1058C18.7747 58.166 18.7241 58.239 18.69 58.32C18.5 58.65 18.34 58.99 18.16 59.32C17.39 58.96 17.35 58.85 17.8 58.19C17.9286 58.0449 18.0424 57.8875 18.14 57.72C18.1697 57.5513 18.1697 57.3787 18.14 57.21C17.97 57.21 17.74 57.21 17.64 57.36C17.4071 57.6561 17.1934 57.9667 17 58.29L16.56 58L17.69 56.31C17.19 56.01 16.94 56.25 16.69 56.57C16.44 56.89 16.36 57.2 16.15 57.57L15.52 56.95C15.78 56.3 16.06 55.76 16.93 55.71C16.77 55.45 16.68 55.15 16.48 55.03C16.3386 54.9658 16.2128 54.8718 16.111 54.7545C16.0092 54.6372 15.934 54.4994 15.8903 54.3504C15.8466 54.2014 15.8356 54.0447 15.858 53.891C15.8804 53.7374 15.9357 53.5904 16.02 53.46L15.08 53.75C14.9612 54.5391 14.5851 55.2668 14.01 55.82C13.75 55.6 13.69 55.41 13.9 55.16C14.3 54.7 14.69 54.22 15.08 53.75C15.0751 53.7001 15.0751 53.6499 15.08 53.6C15.08 53.39 15.26 53.13 14.94 53.04C14.62 52.95 14.62 53.22 14.49 53.4C14.17 53.89 13.81 54.34 13.49 54.78C13.04 54.63 13.04 54.42 13.22 54.11C13.56 53.54 13.9 52.97 14.22 52.38C14.3203 52.1622 14.4072 51.9385 14.48 51.71C13.89 51.5 13.74 51.87 13.58 52.18C13.32 52.69 13.09 53.18 12.75 53.94L12.22 52.84C12.6541 51.9727 13.3009 51.2296 14.1 50.68C14.64 51.29 15.17 51.92 15.73 52.53C16.0434 52.8576 16.3774 53.1649 16.73 53.45C16.98 53.66 17 53.64 17.47 53.37C17.3676 53.2495 17.2574 53.1359 17.14 53.03C16.1287 52.2375 15.2538 51.285 14.55 50.21C14.4557 50.1076 14.3962 49.9779 14.38 49.8396C14.3639 49.7013 14.3919 49.5614 14.46 49.44C14.63 49.13 14.75 48.8 14.91 48.44C15.39 48.71 15.72 49.05 15.71 49.51C15.644 49.8973 15.5263 50.274 15.36 50.63L15.52 50.71C15.71 50.45 15.91 50.2 16.14 49.9C16.41 50.03 16.66 50.44 17.14 50.03L16.37 49.03C16.57 48.55 16.79 48.03 17.02 47.52C17.65 48.1 18.24 48.65 18.83 49.18C18.9596 49.2675 19.05 49.4023 19.0817 49.5554C19.1135 49.7086 19.0842 49.8681 19 50C18.79 50.45 18.57 50.89 18.34 51.37C17.78 50.89 17.49 50.46 17.81 49.8C17.9049 49.6786 17.9564 49.529 17.9564 49.375C17.9564 49.221 17.9049 49.0714 17.81 48.95C17.5159 49.4873 17.2876 50.0581 17.13 50.65C17.04 51.18 16.47 51.65 16.79 52.27C17.29 52.04 17.08 51.47 17.45 51.19C17.8 51.54 18.21 51.85 17.83 52.45C17.67 52.69 17.75 52.92 18.07 53.09L18.46 52.46C19.3045 52.9323 20.1015 53.4849 20.84 54.11C21.03 54.32 21.31 54.63 21.75 54.37C21.66 54.2 21.61 53.99 21.47 53.89C20.8758 53.2747 20.2034 52.7402 19.47 52.3C18.83 52.04 18.75 51.76 19.05 51.13C19.21 50.79 19.4 50.46 19.58 50.13C20.28 50.72 20.88 51.25 21.51 51.73C21.71 51.89 22.02 52.16 22.28 51.63C21.69 51.15 21.07 50.63 20.5 50.17C19.5 49.27 18.5 48.35 17.5 47.41C17.3551 47.226 17.2403 47.0201 17.16 46.8C16.9198 46.7034 16.6916 46.5793 16.48 46.43C16.1 46.1 15.76 45.74 15.41 45.37C15.06 45 14.92 44.86 15.41 44.1C15.6485 44.3935 15.9165 44.6615 16.21 44.9C16.48 45.08 16.73 45.56 17.21 45.12C16.84 44.77 16.49 44.47 16.16 44.12C15.83 43.77 15.61 43.71 15.66 43.31C15.66 43.25 15.59 43.13 15.55 43.13C14.88 43.13 14.86 42.41 14.44 42.13L14.76 41.13C13.76 41.48 14.01 42.48 13.52 43.04C13.1 42.92 13.02 42.49 12.78 42.24C13.0483 41.5484 13.246 40.8314 13.37 40.1C12.76 40.46 12.76 41.17 12.37 41.68C12.2784 41.6512 12.1942 41.6028 12.1232 41.5382C12.0522 41.4735 11.9962 41.3941 11.9591 41.3055C11.9219 41.217 11.9046 41.1214 11.9082 41.0255C11.9118 40.9295 11.9363 40.8355 11.98 40.75C12.0897 40.4674 12.22 40.1934 12.37 39.93C12.4954 39.7447 12.5436 39.5177 12.5044 39.2974C12.4652 39.0771 12.3417 38.8807 12.16 38.75C12.007 38.6302 11.8722 38.4887 11.76 38.33C10.92 36.99 10.06 35.66 9.25001 34.33C8.36594 32.9114 7.69226 31.372 7.25001 29.76C7.25001 29.68 7.25001 29.59 7.25001 29.51C7.07001 28.99 6.68001 28.44 6.75001 27.95C6.94275 27.3723 7.2374 26.8338 7.62001 26.36C7.77001 26.11 7.93001 25.86 8.10001 25.6C8.68001 26.4 8.70001 26.71 8.24001 27.39C8.06142 27.6042 7.89451 27.8278 7.74001 28.06C7.67001 28.19 7.56001 28.45 7.92001 28.41C8.04884 28.3441 8.16964 28.2636 8.28001 28.17C8.49001 27.93 8.68001 27.66 8.92001 27.33C9.21001 27.85 9.44001 28.28 9.69001 28.75L9.12001 29.62C8.63001 29.26 8.59001 28.51 7.92001 28.41C8.59059 30.0563 9.40718 31.6393 10.36 33.14C10.93 34.05 11.54 34.95 12.15 35.84C12.3323 36.0663 12.5367 36.274 12.76 36.46C12.97 35.95 12.65 35.68 12.49 35.39C12.33 35.1 12.35 34.77 12.74 34.52C13.18 35.16 13.61 35.8 14.05 36.47C14.05 36.81 13.37 37.18 14.05 37.59L14.52 36.99L15.11 37.63C14.96 37.99 14.84 38.28 14.69 38.63L14.11 38.17C14.1091 38.3702 14.1394 38.5692 14.2 38.76C14.9666 40.1141 15.908 41.3615 17 42.47C17.3 42.76 17.53 43.11 17.8 43.47C17.9161 43.5756 18.0397 43.6725 18.17 43.76C18.1719 43.5925 18.1381 43.4264 18.0709 43.273C18.0036 43.1195 17.9045 42.9822 17.78 42.87C17.08 41.93 16.4 40.98 15.66 40.08C15.4464 39.8516 15.3147 39.5587 15.2858 39.2474C15.2568 38.936 15.3322 38.6239 15.5 38.36L16.92 40C17.42 40.56 17.92 41.11 18.44 41.65C18.71 41.92 18.78 41.92 19.26 41.85C19.26 41.41 18.91 41.19 18.66 40.91C17.83 39.98 16.99 39.07 16.15 38.14C16.0079 37.9412 15.8777 37.7342 15.76 37.52C15.99 37.17 16.22 36.8 16.48 36.39C17.4566 37.1169 18.3079 37.9985 19 39C19.6654 40.0555 20.4844 41.0059 21.43 41.82C21.5257 41.9151 21.6421 41.987 21.77 42.03C21.8328 42.0386 21.8968 42.0332 21.9573 42.0142C22.0178 41.9952 22.0734 41.963 22.12 41.92C22.1498 41.8647 22.1653 41.8028 22.1653 41.74C22.1653 41.6772 22.1498 41.6153 22.12 41.56C21.7303 41.2667 21.3564 40.953 21 40.62C20 39.42 18.92 38.19 17.89 37C17.17 36.13 16.48 35.23 15.77 34.34L16.92 32.62C15.92 32.55 15.92 33.48 15.47 33.77C14.95 33.19 14.95 33.02 15.35 32.44C15.56 32.13 15.71 31.78 15.91 31.44C15.41 31.44 15.41 31.44 14.67 32.38C14.35 32.29 14.2 32.06 14.34 31.77C14.63 31.15 14.98 30.57 15.34 29.89C16.02 30.64 16.66 31.32 17.29 32.02C17.92 32.72 18.77 33.76 19.56 34.57C19.9605 34.9149 20.3962 35.2166 20.86 35.47C20.9226 35.4994 20.9909 35.5147 21.06 35.5147C21.1291 35.5147 21.1974 35.4994 21.26 35.47C19.1187 33.4683 17.164 31.2759 15.42 28.92C13.6171 26.6071 11.9477 24.1932 10.42 21.69L10.79 21.07C11.09 21.55 11.35 21.97 11.63 22.38C11.91 22.79 12.1 23.06 12.36 23.38C12.62 23.7 13.03 24.2 13.36 24.59C13.562 24.7435 13.7761 24.8806 14 25L14.14 24.88C14.1012 24.7413 14.0476 24.6072 13.98 24.48C13.22 23.48 12.35 22.48 11.69 21.31C10.86 19.91 10.19 18.41 9.47001 16.94C9.40941 16.7271 9.36594 16.5098 9.34001 16.29C9.18001 15.74 9.00001 15.2 8.79001 14.54C8.09001 15.11 8.55001 15.66 8.52001 16.2H7.97001C7.76001 15.46 7.56001 14.78 7.40001 14.2C6.9829 13.8997 6.59155 13.5653 6.23001 13.2C5.74001 12.64 5.31001 12.01 4.86001 11.42C4.79001 11.33 4.75001 11.2 4.66001 11.15C3.57001 10.58 3.59001 9.45 3.43001 8.48C3.35989 7.54131 3.35989 6.59869 3.43001 5.66C3.69001 7.2 3.94001 8.74 4.19001 10.31C4.71001 10.18 4.64001 9.9 4.58001 9.58C4.36001 8.29 4.17001 7 3.95001 5.71C3.8873 5.46904 3.81051 5.23196 3.72001 5C3.58001 5.16 3.50001 5.21 3.48001 5.27C3.46973 5.40647 3.46973 5.54353 3.48001 5.68C3.47632 5.3427 3.43269 5.00703 3.35001 4.68C3.16886 4.29663 2.95118 3.93161 2.70001 3.59C2.31569 3.16903 2.04696 2.6557 1.92001 2.1C2.09724 2.24503 2.2643 2.40207 2.42001 2.57C3.07001 3.37 3.71001 4.17 4.34001 4.98C4.47958 5.14997 4.57261 5.35327 4.61001 5.57C4.79032 6.32944 4.79032 7.12056 4.61001 7.88C4.42001 8.42 4.80001 8.88 4.86001 9.32C4.86001 9.32 4.86001 9.43 4.95001 9.43C5.80001 9.61 6.27001 10.34 6.87001 10.85C7.51113 11.3893 8.12206 11.9635 8.70001 12.57C8.98331 12.9341 9.23427 13.3222 9.45001 13.73C9.32001 14.02 9.19001 14.29 9.12001 14.44C9.28819 14.8814 9.50272 15.3038 9.76001 15.7C10.2104 16.4567 10.5474 17.2754 10.76 18.13C11.1062 18.949 11.4933 19.75 11.92 20.53C12.2422 21.009 12.6035 21.4605 13 21.88C13.3514 22.3807 13.7427 22.8522 14.17 23.29C15.17 24.17 16.17 24.99 17.17 25.83C17.52 25.6 17.37 25.4 17.22 25.24C16.66 24.66 16.09 24.09 15.51 23.54C14.93 22.99 14.43 22.59 13.89 22.11L13.99 21.96C14.1685 22.0408 14.3392 22.1379 14.5 22.25C15.04 22.69 15.56 23.15 16.09 23.59C17.2769 24.4588 18.5667 25.1776 19.93 25.73C20.9303 26.2277 21.9549 26.6749 23 27.07C24.8 27.73 26.63 28.29 28.43 28.95C30.01 29.54 31.56 30.22 33.13 30.85C34.05 31.23 34.99 31.58 35.9 31.98C37.2975 32.5371 38.6659 33.1646 40 33.86C42.18 35.08 44.26 36.48 46.44 37.7C48.44 38.84 50.32 40.2 52.3 41.37C54.28 42.54 56.07 43.61 57.99 44.68C58.99 45.25 60.09 45.68 61.15 46.19C62.03 46.59 62.93 46.97 63.83 47.35C64.15 47.48 64.49 47.58 64.83 47.7C64.83 48.04 64.63 48.13 64.38 48.02C63.26 47.54 62.15 47.02 61.03 46.55L60.66 46.38L58.05 45.28L55.31 44.1C54.5784 43.7835 53.87 43.4159 53.19 43C52.1 42.35 50.95 41.81 49.8 41.2C49.7522 41.2684 49.7215 41.3473 49.7105 41.43C49.6996 41.5127 49.7088 41.5969 49.7372 41.6753C49.7656 41.7538 49.8125 41.8242 49.874 41.8808C49.9354 41.9373 50.0095 41.9782 50.09 42C51.26 42.55 52.26 43.48 53.59 43.72C53.7018 43.7354 53.8064 43.7842 53.89 43.86C54.6981 44.5376 55.6097 45.0812 56.59 45.47C57.4033 45.8907 58.2415 46.2614 59.1 46.58C60.67 47.22 62.25 47.82 63.82 48.44C63.91 48.44 63.97 48.57 64.2 48.78C62.14 48.5 60.59 47.42 58.85 46.87C57.11 46.32 55.41 45.67 53.63 45.04C53.63 45.19 53.63 45.35 53.72 45.42C53.9887 45.7439 54.332 45.9978 54.7204 46.1598C55.1088 46.3218 55.5308 46.387 55.95 46.35C56.0968 46.3241 56.2474 46.3313 56.391 46.3711C56.5346 46.4109 56.6675 46.4822 56.78 46.58C57.7627 47.3143 58.897 47.82 60.1 48.06C60.63 48.2 61.1 48.54 61.7 48.38H61.78L63.43 49.38C63.33 49.45 63.2 49.61 63.11 49.59C62.6123 49.5485 62.127 49.4128 61.68 49.19C61.4312 49.0497 61.1609 48.9517 60.88 48.9C59.9692 48.6519 59.0714 48.3582 58.19 48.02C55.91 47.14 53.64 46.24 51.38 45.3C50.33 44.87 49.32 44.3 48.3 43.83L44.77 42.13C45.0138 42.6804 45.4516 43.1218 46 43.37C47.5959 44.2712 49.2495 45.0663 50.95 45.75C52.62 46.35 54.23 47.13 55.87 47.83C56.21 47.96 56.57 48.04 56.87 48.17C57.1507 48.2801 57.4245 48.407 57.69 48.55C57.36 49.42 56.55 49.7 56.04 50.32L55.04 50.1L56.34 48.44L56.25 48.31C56.0925 48.3444 55.943 48.4089 55.81 48.5C55.56 48.75 55.36 49.06 55.1 49.31C54.45 49.97 54.27 49.98 53.36 49.55C53.75 48.91 53.75 48.91 54.5 48.92C54.5 48.58 54.41 48.23 54.36 47.8C53.89 48.42 53.36 48.16 52.9 47.91C52.44 47.66 52.13 47.61 51.63 47.42C51.97 48.19 51.4 48.54 51.03 48.95C50.42 49.6 49.77 50.21 49.11 50.82C48.8522 51.0196 48.5779 51.1969 48.29 51.35C48.04 51.53 47.89 51.35 47.66 51.2C48.66 50.1 49.6 49.03 50.55 47.95L50.47 47.83C50.39 47.83 50.27 47.83 50.23 47.89C49.71 48.59 49.08 48.55 48.32 48.14L48.83 47.47C48.34 47.35 48.25 47.81 47.83 47.96L47.14 47.71L46.43 47.44L46.54 46.85C45.59 47.53 44.88 46.94 44.07 46.61L44.68 45.81C44.1886 45.9337 43.7439 46.1978 43.4 46.57C42.5745 47.2179 41.7865 47.9124 41.04 48.65C40.8958 48.8337 40.6858 48.9541 40.4544 48.9858C40.223 49.0176 39.9884 48.9581 39.8 48.82L39.37 48.58C40.2671 47.5085 41.2432 46.5057 42.29 45.58L41 45.12L41.51 45.75C41.4995 45.8064 41.4792 45.8606 41.45 45.91L38.83 48.08C38.51 48.34 38.27 48.21 37.97 47.87L40.57 45.27L40.46 45.14C39.2975 45.9039 38.1759 46.7283 37.1 47.61L36.63 47.24L39.2 44.51C38.45 44.62 38.1 45.25 37.57 45.64C37.04 46.03 36.57 46.55 36.02 47C29.17 43.48 22.77 39.48 17.39 33.94C17.4706 34.1529 17.5781 34.3545 17.71 34.54C18.1946 35.151 18.712 35.7352 19.26 36.29C20.26 37.29 21.26 38.2 22.37 39.07C23.62 40.07 24.95 40.99 26.27 41.91C27.59 42.83 28.72 43.64 30 44.41C31.28 45.18 32.91 46.04 34.37 46.85C35.17 47.3 35.95 47.79 36.77 48.2C37.59 48.61 38.24 48.84 38.98 49.14C40.06 49.59 41.12 50.08 42.22 50.46C43.32 50.84 44.32 51.02 45.37 51.3C46.92 51.73 48.47 52.21 50.04 52.58C51.94 53.02 53.86 53.41 55.78 53.72C56.9923 53.9013 58.2146 54.0082 59.44 54.04C60.44 54.04 61.44 54.04 62.53 53.97L62.09 54.52L63.01 54.33C63.11 54.57 63.2 54.81 63.31 55.1C62.45 55.24 61.66 55.4 60.86 55.49C59.5007 55.5449 58.1392 55.4847 56.79 55.31C55.31 55.22 53.85 55.01 52.37 54.86C52.11 54.86 51.83 54.71 51.59 55.03C52.1247 55.3349 52.725 55.5064 53.34 55.53C54.98 55.66 56.63 55.69 58.26 55.89C59.6958 55.9969 61.1384 55.9734 62.57 55.82C62.8396 55.7998 63.1104 55.7998 63.38 55.82C63.44 56.24 63.17 56.22 62.96 56.23L61.13 56.32C60.8231 56.3448 60.5187 56.3949 60.22 56.47C59.5663 56.6557 58.8737 56.6557 58.22 56.47C57.7253 56.3796 57.2203 56.3594 56.72 56.41L53.54 56.49C53.21 56.49 52.82 56.49 52.86 55.96C52.6612 56.1179 52.4384 56.2428 52.2 56.33C51.9788 56.3409 51.7577 56.3069 51.55 56.23C49.62 55.78 47.67 55.39 45.77 54.85C44.62 54.53 43.44 54.33 42.28 54.06C40.9 53.73 39.58 53.18 38.28 52.73L37.28 52.39C37.3496 52.5627 37.4594 52.7163 37.6003 52.8381C37.7411 52.9598 37.909 53.0462 38.09 53.09C39.8059 53.8269 41.5963 54.3767 43.43 54.73C44.3839 54.9327 45.3254 55.1898 46.25 55.5C46.73 55.64 47.25 55.79 47.71 55.96C47.6563 56.1204 47.5928 56.2773 47.52 56.43L45.96 59.37C45.7 59.86 45.71 59.86 44.96 59.68C45.3985 58.4997 45.9164 57.3504 46.51 56.24C46.01 56.43 46.01 56.43 45.21 57.75C44.88 58.3 44.58 58.86 44.21 59.46L43.39 59.4C43.64 58.08 44.71 57.15 44.72 55.79C44.1 56.79 43.47 57.85 42.88 58.9C42.8485 58.9977 42.7939 59.0864 42.7209 59.1585C42.6478 59.2307 42.5585 59.2842 42.4605 59.3146C42.3624 59.345 42.2585 59.3514 42.1575 59.3332C42.0564 59.315 41.9613 59.2727 41.88 59.21L42.78 57.04C42.282 57.3071 41.8799 57.7231 41.63 58.23C41.54 58.37 41.51 58.55 41.43 58.69C41.16 59.16 41.14 59.17 40.43 58.93L41.54 56.72C41.06 56.78 40.79 57.09 39.71 58.72C39.6105 58.7342 39.5095 58.7342 39.41 58.72C39.32 58.72 39.23 58.61 39.14 58.56C39.3 57.85 40 57.44 40.06 56.56C39.5642 56.9506 39.1323 57.4162 38.78 57.94C38.47 58.39 38.46 58.38 37.78 58.15L39 56.13C38.74 56.24 38.57 56.26 38.5 56.35C38.13 56.84 37.78 57.35 37.44 57.84C37.23 58.13 37.02 58.29 36.66 57.94L37.3 56.94L37.12 56.79L36.01 57.79L35.31 57.74L35.66 58.74C36.0848 58.5803 36.5448 58.5378 36.9917 58.617C37.4386 58.6961 37.8559 58.8941 38.2 59.19C38.26 59.19 38.35 59.32 38.41 59.3C39.47 59.05 40.41 59.66 41.41 59.74C42.41 59.82 43.17 59.96 44.05 60.09C44.2719 60.1139 44.4901 60.1643 44.7 60.24C45.7386 60.62 46.8264 60.849 47.93 60.92C48.8563 61.0814 49.7912 61.1883 50.73 61.24C51.9239 61.2833 53.1193 61.2566 54.31 61.16C56.16 61 58 60.8 59.8 60.6C60.4 60.53 60.99 60.4 61.61 60.29C61.61 60.73 61.35 60.8 61.13 60.85C59.38 61.2 57.64 61.53 55.89 61.85C55.81 61.85 55.72 61.85 55.64 61.85C54.3933 62.1283 53.1256 62.3022 51.85 62.37C51.6756 62.3652 51.5026 62.4027 51.3459 62.4793C51.1892 62.556 51.0533 62.6694 50.95 62.81C51.5774 62.9895 52.2426 62.9895 52.87 62.81C54.48 62.62 56.08 62.4 57.68 62.19C57.81 62.19 57.95 62.19 58.16 62.19C58.16 62.55 58.16 62.86 58.16 63.19C56.9778 63.3718 55.8247 63.708 54.73 64.19V64.37H56.49C55.322 64.9752 54.0492 65.3519 52.74 65.48C52.12 64.99 52.98 64.4 52.62 63.81C52.08 64.35 52.35 65.05 52.1 65.65L47.1 66.73C47.05 66.39 47.01 66.13 46.96 65.87H46.81C46.74 66.1 46.66 66.33 46.56 66.64H45.16C45.16 66.28 45.16 65.98 45.16 65.64C44.48 65.75 44.85 66.34 44.55 66.64L43.67 66.47C43.62 67.14 44.26 66.9 44.48 67.2C44.48 67.87 44.48 68.55 44.48 69.29L43.01 69.18C43.07 68.44 43.12 67.76 43.18 66.96C42.7 67.27 42.77 67.65 42.73 67.96C42.69 68.27 42.67 68.67 42.63 69.13L41.37 68.92C41.37 68.51 41.43 68.14 41.47 67.66C40.93 67.92 41.17 68.42 40.93 68.66C40.33 68.87 39.87 68.52 39.34 68.21C39.34 68.02 39.34 67.8 39.34 67.58H39.21L38.76 68.29L36.32 67.74C36.4 67.25 36.48 66.74 36.56 66.3C36.16 66.65 35.93 67.24 35.61 68.66C34.25 68.5693 32.918 68.2303 31.68 67.66C30.098 67.053 28.5968 66.2536 27.21 65.28C26.5723 64.8916 25.9033 64.5572 25.21 64.28C24.76 65.28 24.98 66.47 24.21 67.38L23.64 66.89ZM49.35 51.47C50.24 50.4 51.14 49.35 52.1 48.21L53.2 48.64C52.91 49.45 52.33 49.4 51.58 49.23L52.02 49.86L49.93 51.86L49.31 51.69C49.33 51.61 49.31 51.52 49.35 51.47ZM52.61 50L53.71 50.37C53.4276 50.8313 52.9977 51.1837 52.49 51.37C52.3921 51.4161 52.3065 51.4847 52.24 51.57C52.08 51.75 51.96 52.05 51.78 52.08C51.4236 52.1005 51.0663 52.0667 50.72 51.98C51.41 51.3 52 50.67 52.61 50ZM54.27 51.87C53.81 52.61 53.78 52.62 52.92 52.4C53.22 51.64 53.3 51.61 54.27 51.89V51.87ZM53.97 51.22C54.41 50.56 54.41 50.56 55.34 50.85C55 51.65 54.47 51.23 54 51.24L53.97 51.22ZM56.4 52.16C56.3218 52.3167 56.2129 52.4561 56.0799 52.57C55.9468 52.6839 55.7923 52.77 55.6254 52.8231C55.4585 52.8763 55.2827 52.8954 55.1083 52.8794C54.9339 52.8634 54.7644 52.8126 54.61 52.73C54.6679 52.5562 54.7664 52.3987 54.8975 52.2707C55.0285 52.1427 55.1882 52.0478 55.3634 51.994C55.5385 51.9402 55.7239 51.929 55.9042 51.9613C56.0845 51.9937 56.2545 52.0687 56.4 52.18V52.16ZM55.88 51.57C55.88 50.91 56.53 51.02 56.72 50.67C56.9114 50.3446 57.1218 50.0307 57.35 49.73L58.3 50.28C58 50.83 57.45 50.56 57.04 50.79L57.34 51.2C57 51.91 56.39 51.45 55.88 51.59V51.57ZM58.33 49.52C58.1282 49.458 57.9337 49.3741 57.75 49.27C58.01 49.09 58.2 48.85 58.33 48.89C59.1374 49.0248 59.9094 49.3206 60.6 49.76C60.33 49.84 60.17 49.94 60.07 49.9C59.5038 49.7211 58.9208 49.6004 58.33 49.54V49.52ZM59.67 50.52C59.3 50.88 59.09 50.7 58.88 50.46L59.67 50.52ZM57.86 52.21C57.35 53.06 57.35 53.06 56.68 52.92C57 52.45 57.22 52 57.86 52.25V52.21ZM57.78 51.57C58.18 51.24 58.45 51.44 58.87 51.46C58.43 51.88 58.18 51.69 57.78 51.61V51.57ZM60.02 52.57C59.66 53.42 59.02 53.1 58.43 53.1C58.78 52.32 58.84 52.3 60 52.65L60.02 52.57ZM59.33 51.7C59.87 51.21 60.33 51.58 60.88 51.62C60.35 52.1 60.32 52.1 59.33 51.78V51.7ZM60.14 50.7C60.78 50.36 61.14 50.78 61.54 50.77L61.48 51.05L60.14 50.7ZM60.9 50C61.07 49.9 61.13 49.84 61.16 49.85L62.27 50.2C61.65 50.45 61.36 50.13 60.9 50ZM61.83 53H60.83C61.22 52.76 61.22 52.76 61.83 53.05V53ZM61.51 51.82L62.73 51.91C62.07 52.4 62 52.39 61.51 51.87V51.82ZM62.29 51.25C62.2948 51.1767 62.2948 51.1033 62.29 51.03L63.22 51.11C62.89 51.57 62.58 51.24 62.29 51.3V51.25ZM45.45 48.18C45.5347 48.0677 45.6546 47.987 45.7905 47.9508C45.9265 47.9145 46.0706 47.9248 46.2 47.98C46.52 48.09 46.84 48.17 47.39 48.33C46.8 48.86 46.39 49.26 45.92 49.65C45.6825 49.8693 45.4285 50.0699 45.16 50.25C44.69 50.59 44.28 50.31 43.76 50.07L45.45 48.18ZM42.7 49.87L41.29 49.52L43.78 46.73C44.08 46.98 44.28 47.16 44.5 47.33L45.14 47.78C44.4425 48.6015 43.6189 49.307 42.7 49.87ZM46.27 50.19C46.43 49.96 46.63 49.76 46.78 49.54C47.32 48.76 47.93 48.31 48.93 49.05L47.23 50.7C46.86 51.05 46.46 50.89 45.97 50.7C46.0611 50.5249 46.1612 50.3547 46.27 50.19ZM56.27 67.82C56.33 68.89 56.27 69 54.84 69.41C54.84 68.2 54.84 67.02 54.84 65.76L56.22 65.44C56.3286 65.6028 56.4014 65.7867 56.4335 65.9798C56.4656 66.1728 56.4562 66.3704 56.4061 66.5595C56.356 66.7487 56.2662 66.925 56.1428 67.0768C56.0193 67.2286 55.865 67.3524 55.69 67.44L56.27 67.82ZM56.18 69.46L56.32 70.01C55.84 70.3 55.4 70.55 54.84 70.87C54.84 70.49 54.84 70.21 54.84 69.95L56.18 69.46ZM55.52 71.28C55.88 70.87 56.14 70.91 56.43 71.19C56.13 71.39 56.13 71.39 55.57 71.28H55.52ZM56 72.74C55.16 73 55.16 73 55 72.39C55.41 72.28 55.8 72.06 56 72.74ZM52.65 69.52V66.18L54.53 65.87C54.53 67.17 54.53 68.4 54.53 69.69C54.2262 69.8307 53.8907 69.889 53.5573 69.8592C53.2238 69.8293 52.904 69.7124 52.63 69.52H52.65ZM53.55 71.4L52.78 71.5C52.78 71.3 52.78 71.15 52.78 70.99C52.78 70.27 52.84 70.24 53.6 70.26C53.87 70.26 54.14 70.21 54.47 70.18C54.5 71.22 54.44 71.29 53.53 71.4H53.55ZM50.55 69.65C50.55 69.45 50.83 69.24 51.01 68.98C50.64 68.83 50.59 68.46 50.65 67.98C50.71 67.5 50.73 66.98 50.77 66.46L52.08 66.12C52.2791 66.7265 52.317 67.3744 52.19 68C52.19 68.58 52.1 69.16 52.06 69.76L51.29 70.12V70.29L52.04 70.42C52.04 70.5 52.13 70.55 52.13 70.59C52.13 71.78 52.02 71.83 50.55 71.65C50.49 70.98 50.49 70.98 50.88 70.59C50.7184 70.2972 50.6068 69.9795 50.55 69.65ZM48.75 70.45C48.75 70.03 48.67 69.68 48.62 69.25L50.14 69.36C50.14 69.72 50.14 70 50.06 70.36L48.75 70.45ZM49.99 71.09L49.81 71.76H48.65V71L49.99 71.09ZM48.76 67.51C48.81 67.11 48.95 66.83 49.44 66.83C49.7497 66.786 50.0544 66.7123 50.35 66.61C50.29 67.36 50.24 68.02 50.19 68.67C50.1027 68.7026 50.0122 68.7261 49.92 68.74C48.71 68.78 48.62 68.67 48.76 67.51ZM48.21 69.63C48.11 70.31 48.09 71 48.03 71.74H46.66C46.77 71.06 46.89 70.4 47.03 69.57C46.8186 68.7662 46.8465 67.9182 47.11 67.13L48.37 67C48.5 68.09 48.37 68.4 47.71 68.68C47.8899 68.7567 48.0379 68.893 48.129 69.0661C48.22 69.2391 48.2487 69.4383 48.21 69.63ZM45.21 70.45C45.16 70.45 45.13 70.25 45.16 70.16C45.1831 70.1152 45.2156 70.0759 45.2553 70.0449C45.295 70.0138 45.341 69.9917 45.39 69.98C45.72 69.98 46.04 69.98 46.39 69.98L46.53 70.16C46.41 70.32 46.3 70.61 46.18 70.62C45.8464 70.6153 45.5157 70.5579 45.2 70.45H45.21ZM46.08 71.45C45.57 71.83 45.52 71.83 45.08 71.37L46.08 71.45ZM45.08 69.36C45.08 68.64 45.08 67.96 45.13 67.22H46.61C46.55 68 46.49 68.73 46.43 69.49L45.08 69.36ZM43.52 70.45C43.25 70.45 43.04 70.31 43.22 69.89L44.63 70.11C44.28 70.7 43.84 70.42 43.48 70.41L43.52 70.45ZM44.21 71.28C44 71.85 43.53 71.51 43.11 71.68C43.22 71 43.22 71 44.17 71.24L44.21 71.28ZM42.43 71.59L41.15 71.25C41.24 70.64 41.31 70.11 41.4 69.53C41.74 69.6 42.01 69.63 42.27 69.71C42.53 69.79 42.63 69.89 42.62 69.97C42.5749 70.1399 42.481 70.2928 42.35 70.41C42.29 70.48 42.16 70.5 42.03 70.56C42.08 70.89 42.78 70.94 42.39 71.55L42.43 71.59ZM40.65 70.2L39.15 69.72C39.15 69.47 39.15 69.26 39.2 68.99C40.73 68.78 41 69 40.65 70.2ZM37 69.85C36.9 70.15 36.84 70.33 36.76 70.55C36.32 70.41 35.89 70.35 36.05 69.65L37 69.85ZM36.25 68.54C36.2873 68.4903 36.3356 68.45 36.3911 68.4222C36.4467 68.3945 36.5079 68.38 36.57 68.38C37.04 68.38 37.15 68.57 37.01 69.23C36.7666 69.1388 36.5322 69.025 36.31 68.89C36.2763 68.8389 36.2552 68.7806 36.2482 68.7198C36.2413 68.659 36.2487 68.5974 36.27 68.54H36.25ZM25.37 68.18C24.88 67.96 24.72 67.82 24.91 67.41C25.188 66.81 25.4252 66.1919 25.62 65.56C25.72 65.27 25.85 65.31 26.02 65.4C25.82 66.31 25.62 67.2 25.39 68.18H25.37ZM26.47 68.92C25.82 68.52 25.78 68.24 26.26 67.36C27 67.75 27 68 26.49 68.92H26.47ZM28.07 69.16C28.07 69.35 27.98 69.54 27.94 69.72C27.911 69.7759 27.8776 69.8294 27.84 69.88L27.15 69.47C27.24 69.03 27.31 68.63 27.4 68.15C28.24 68.53 28.24 68.53 28.09 69.16H28.07ZM29.33 71L28.33 70.34C28.5 69.82 28.63 69.43 28.75 69.04C29.81 69.36 29.88 69.58 29.33 71ZM30.67 71.75L29.89 71.22C30.02 70.75 30.15 70.32 30.29 69.83L31.13 70.23C31.134 70.7622 30.9734 71.2827 30.67 71.72V71.75ZM32.4 72.59C32.04 72.42 31.69 72.26 31.31 72.1C31.38 71.77 31.42 71.53 31.49 71.29C31.5464 71.0757 31.6166 70.8653 31.7 70.66C32.88 71 33 71.22 32.4 72.56V72.59ZM33.87 73.3L33 73L33.16 72.23C33.16 72.02 33.26 71.81 33.32 71.6C34.17 71.75 34.31 72.18 33.87 73.27V73.3ZM35.7 74L34.58 73.54C34.66 73.07 34.74 72.65 34.83 72.15C35.28 72.34 35.58 72.47 35.97 72.62C35.88 73 35.8 73.44 35.7 74ZM36.93 74.42L36.12 74C36.64 73.82 36.8 74.11 37.04 74.2L36.93 74.42ZM39.51 75.22C39.51 74.73 39.58 74.29 39.62 73.85C39.6613 73.5452 39.678 73.2375 39.67 72.93C39.6429 72.6954 39.5717 72.4681 39.46 72.26C39.46 72.26 39.2 72.26 39.17 72.31C39.04 72.57 38.78 72.95 38.87 73.11C39.25 73.74 38.99 74.32 38.87 74.93C38.11 74.93 38.11 74.93 37.65 74.48C37.92 74.09 38.4 74.48 38.71 74.18C38.71 73.6 38.14 73.78 37.86 73.48C37.86 73.2 37.86 72.87 37.86 72.54C37.86 72.21 37.78 72.03 37.49 72.12C37.4008 72.1668 37.3226 72.232 37.2605 72.3113C37.1984 72.3906 37.154 72.4822 37.13 72.58C37.0954 72.8522 37.0954 73.1278 37.13 73.4C36.42 73.4 36.41 73.4 36.45 72.88C36.49 72.36 36.52 71.88 36.56 71.4C36.05 71.45 36.05 71.45 35.68 71.9C35.49 71.83 35.22 71.82 35.1 71.67C34.9593 71.4865 34.7717 71.3441 34.5571 71.2579C34.3425 71.1717 34.1086 71.1448 33.88 71.18C33.71 71.18 33.46 70.87 33.33 70.66C33.2489 70.4736 33.2047 70.2732 33.2 70.07C32.67 69.81 32.69 70.3 32.48 70.5C32.27 70.38 32.05 70.27 31.85 70.17C31.85 69.8 31.91 69.48 31.93 69.17C31.9097 69.0629 31.8761 68.9588 31.83 68.86L31.12 68.96C31.12 69.26 31.21 69.47 31.26 69.76C31.0872 69.7503 30.9183 69.7053 30.7635 69.6279C30.6088 69.5506 30.4715 69.4424 30.36 69.31C30.42 68.99 30.76 68.56 30.28 68.31C29.8 68.06 29.77 68.58 29.55 68.88C29.12 68.66 28.86 68.41 28.95 67.94C28.9752 67.8314 28.9752 67.7186 28.95 67.61C28.9369 67.5398 28.9043 67.4747 28.8559 67.4222C28.8075 67.3697 28.7453 67.3319 28.6764 67.3131C28.6075 67.2943 28.5348 67.2953 28.4664 67.316C28.3981 67.3367 28.3369 67.3762 28.29 67.43C28.251 67.4702 28.2204 67.5178 28.2 67.57C28.2 67.7 28.13 67.83 28.09 67.98C27.61 67.89 27.45 67.67 27.59 67.17C27.73 66.67 27.71 66.61 27.08 66.55C27.03 66.77 26.97 67 26.91 67.28C25.91 66.9 26.68 66.28 26.52 65.56C26.7752 65.6376 27.0229 65.738 27.26 65.86C28.1 66.36 28.88 66.94 29.75 67.37C30.95 67.95 32.19 68.43 33.43 68.93C33.7011 68.982 33.9748 69.0188 34.25 69.04C34.5933 69.117 34.9283 69.2275 35.25 69.37C35.52 69.49 35.47 69.71 35.25 69.97C34.62 69.97 34.13 69.57 33.52 69.37C33.52 69.57 33.52 69.76 33.52 69.93C34.0433 70.3218 34.6326 70.6165 35.26 70.8C35.8728 70.885 36.4914 70.9218 37.11 70.91L37.73 69.57C37.73 69.41 37.59 69.14 37.46 68.71L38.76 68.89C38.5 69.89 38.26 70.73 38.02 71.63C38.61 71.63 38.61 71.63 39.02 70.38L40.49 70.64C40.59 71.04 40.42 71.19 40.03 71.15C39.64 71.11 39.27 70.92 38.9 71.21C39.13 71.82 39.72 71.57 40.07 71.72C40.3766 72.942 40.5112 74.2008 40.47 75.46L39.51 75.22ZM42.13 75.66L41 75.55C41.06 75.29 41.11 75.09 41.17 74.87L42.17 74.94C42.17 75.21 42.15 75.41 42.13 75.64V75.66ZM42.71 75.77C42.71 75.5 42.71 75.27 42.71 75.03C43.48 75.12 43.48 75.12 43.54 75.83L42.71 75.77ZM42.81 74.06C42.81 73.94 42.99 73.72 43.08 73.73C43.47 73.73 43.44 74.06 43.4 74.44C43.05 74.45 42.77 74.46 42.81 74V74.06ZM42.9 73.12C42.74 72.81 42.63 72.6 42.45 72.27L41.45 73.12C41.37 73.68 42.45 73.45 42.13 74.21L41.23 74.14C41.13 73.39 41.03 72.66 40.94 71.92C41.05 71.92 41.14 71.84 41.2 71.87C42.6857 72.338 44.2567 72.4712 45.8 72.26C46.0498 72.245 46.3002 72.245 46.55 72.26L50.29 72.52C50.502 72.5285 50.7083 72.5904 50.89 72.7C49.89 72.77 49.04 73.28 48.01 72.98C47.4719 72.8907 46.9198 72.9459 46.41 73.14C46.2524 73.214 46.0809 73.254 45.9067 73.2574C45.7326 73.2607 45.5597 73.2273 45.3993 73.1594C45.2389 73.0915 45.0947 72.9905 44.9759 72.8631C44.8571 72.7357 44.7665 72.5847 44.71 72.42C44.57 72.68 44.53 72.87 44.41 72.96C44.29 73.05 44 73.09 44 73C43.59 72.64 43.24 72.74 42.9 73.1V73.12ZM48.33 74.47C47.18 74.75 47.12 74.72 47.1 73.82C48 73.66 48 73.66 48.33 74.45V74.47ZM44.2 75.94C44.12 75.2 44.05 74.52 43.97 73.73H44.84L45.38 75.92L44.2 75.94ZM45.44 73.88C46.28 73.51 46.44 73.57 46.54 74.61H45.72L45.44 73.88ZM45.86 76.06C45.86 75.76 45.86 75.55 45.77 75.18C46.5998 75.3312 47.4502 75.3312 48.28 75.18C48.73 75.18 48.73 75.18 48.85 75.85L45.86 76.06ZM48.64 73.67L49.74 73.41L50.21 74.25C49.94 74.31 49.75 74.37 49.56 74.4C49.37 74.43 49.24 74.4 49.04 74.4L48.64 73.67ZM49.92 75.74C49.44 75.8 49.4 75.45 49.32 75.05C49.5684 74.9664 49.8319 74.9374 50.0925 74.965C50.3531 74.9926 50.6047 75.0762 50.83 75.21L51.17 74.47L50.43 73.47L51.53 73.31L52.47 75.41L49.92 75.74ZM52.92 75.27C52.63 74.53 52.36 73.85 52.07 73.09L53 72.94L53.3 73.63L52.7 73.96L53.55 74.17C53.61 74.4 53.68 74.64 53.76 74.96L52.92 75.27ZM53.85 72.69C54.21 72.48 54.4 72.69 54.54 73.11L53.94 73.48C53.78 73.15 53.53 72.9 53.89 72.69H53.85ZM55.39 74.69L54.26 74.81C54.2 74.53 54.13 74.25 54.06 73.95C54.14 73.8869 54.2338 73.8439 54.3337 73.8244C54.4337 73.8049 54.5368 73.8095 54.6346 73.8379C54.7324 73.8662 54.822 73.9175 54.896 73.9874C54.97 74.0574 55.0262 74.144 55.06 74.24C55.1621 74.4008 55.2793 74.5515 55.41 74.69C55.41 74.34 55.41 73.98 55.41 73.59C55.72 73.5 56.01 73.43 56.34 73.35L56.6 73.98L55.43 74.69H55.39ZM58.17 73.69C56.92 73.69 56.77 73.52 56.45 71.97L57.3 71.59C57.4232 71.9624 57.5702 72.3265 57.74 72.68C58 73 58.28 73.24 58.21 73.67L58.17 73.69ZM57.4 70.63H58V71.07C58.4 71.14 58.94 70.97 59.05 71.69L58.31 72.07L57.4 70.63ZM58.78 73.42L58.4 72.67C58.6464 72.5384 58.9136 72.4504 59.19 72.41C59.38 72.41 59.56 72.63 59.89 72.84L58.78 73.42ZM60.24 72.68L59.93 72L60.87 71.4C61.57 72.15 61.52 72.25 60.28 72.66L60.24 72.68ZM61.92 72L61.44 71.24L62.37 70.73L62.95 71.53L61.92 72ZM63.92 71.31C63.47 71.31 63.16 71.08 63.1 70.71C63.1 70.52 63.3 70.28 63.41 70.06C64.06 70.31 64 70.75 63.92 71.29V71.31ZM64.63 70.31L64 69.69L64.08 69.51C64.24 69.51 64.44 69.51 64.54 69.51C64.6204 69.5411 64.6906 69.5937 64.7431 69.6621C64.7956 69.7305 64.8282 69.8119 64.8375 69.8976C64.8468 69.9833 64.8324 70.0699 64.7958 70.1479C64.7592 70.2259 64.7018 70.2924 64.63 70.34V70.31ZM65.29 69.73L64.89 69.19C65.13 68.85 65.37 68.83 65.59 69.11C65.81 69.39 65.61 69.59 65.29 69.76V69.73ZM70.94 63.79C69.789 65.4491 68.4686 66.9841 67 68.37C67 68.37 66.92 68.47 66.88 68.47H66.37C66.37 68.3 66.37 68.05 66.44 67.97C66.85 67.59 67.31 67.27 67.74 66.97C67.8942 66.8906 68.0115 66.7546 68.0675 66.5905C68.1234 66.4264 68.1136 66.247 68.04 66.09C67.0986 66.7117 66.203 67.4002 65.36 68.15C65.16 67.81 64.99 67.52 64.79 67.15C65.59 66.61 66.39 66.1 67.15 65.55C67.4224 65.3125 67.6734 65.0515 67.9 64.77C68.36 64.27 68.9 63.77 69.29 63.25C69.3938 63.1118 69.5439 63.0155 69.7128 62.9788C69.8817 62.9421 70.0582 62.9673 70.21 63.05L68.32 65.84C68.5175 65.8657 68.7182 65.8319 68.8964 65.7428C69.0746 65.6537 69.2221 65.5135 69.32 65.34C69.86 64.62 70.42 63.91 70.97 63.19L71.15 63.3C71.0889 63.4768 71.0188 63.6503 70.94 63.82V63.79ZM71.32 61C71.254 61.0516 71.1772 61.0877 71.0953 61.1056C71.0135 61.1236 70.9286 61.1229 70.8471 61.1038C70.7655 61.0846 70.6893 61.0473 70.624 60.9947C70.5588 60.9422 70.5061 60.8756 70.47 60.8C69.93 60.8 69.64 61.5 69.04 61.28L68.69 60.64C68.35 60.92 68.34 60.44 68.24 60.43C67.9907 60.4659 67.75 60.5473 67.53 60.67C66.98 60.24 68.06 59.99 67.62 59.5L66.89 59.86L66.39 59.47L67.21 58.05C66.9 57.86 66.75 58.11 66.56 58.29C66.37 58.47 66.17 58.41 66.03 58.07L67.03 57.32L67.24 58.05C67.3664 58.0586 67.4858 58.1114 67.5772 58.1992C67.6686 58.2869 67.7262 58.404 67.74 58.53C67.86 59.22 68.47 59.53 68.85 60.05C68.9928 60.1773 69.1788 60.2453 69.37 60.24C69.8395 60.27 70.3105 60.27 70.78 60.24C70.9843 60.1864 71.1707 60.0794 71.32 59.93C71.82 59.51 72.32 59.07 72.83 58.6C72.8674 59.1088 72.7411 59.6163 72.4694 60.0481C72.1977 60.48 71.7949 60.8135 71.32 61ZM73.1 56.52C73.1 57.14 72.55 57.45 72.2 57.86C71.8553 58.2606 71.4881 58.6412 71.1 59L70.94 58.88C71.1001 58.2506 71.4491 57.6852 71.94 57.26C72.4676 56.8959 72.8943 56.4039 73.18 55.83C73.3 55.6 73.48 55.41 73.69 55.1C74 55.88 73.13 56 73.1 56.55V56.52ZM74.86 53.73C74.7997 53.8039 74.7202 53.8598 74.6302 53.8915C74.5403 53.9233 74.4433 53.9297 74.35 53.91C74.274 53.8454 74.2144 53.7636 74.1762 53.6715C74.1379 53.5794 74.1221 53.4795 74.13 53.38C74.13 53.25 74.31 53.12 74.42 52.99C74.67 52.68 74.94 52.37 75.34 51.9C75.16 52.66 75.05 53.23 74.86 53.76V53.73ZM25.08 29.19C24.4272 28.9283 23.8065 28.5928 23.23 28.19L23.29 28.03C23.436 28.0102 23.584 28.0102 23.73 28.03C25.47 28.68 27.2 29.35 28.95 30.03C29.78 30.33 30.64 30.55 31.48 30.81C31.8242 30.8931 32.1591 31.0103 32.48 31.16C33.71 31.88 35.15 32.16 36.3 33C37.2233 33.2088 38.0879 33.6223 38.83 34.21C40.13 35.02 41.6 35.44 42.83 36.31C44.55 37.48 46.32 38.57 48.07 39.69C48.35 39.87 48.61 40.06 48.64 40.41C48.41 40.71 48.22 40.54 48.04 40.41C46.58 39.41 45.13 38.41 43.65 37.41C42.95 36.97 42.19 36.64 41.46 36.25C41.15 36.08 40.86 35.86 40.55 35.68C38.98 34.76 37.3 34.06 35.69 33.22C34.0521 32.3975 32.3578 31.6924 30.62 31.11L25.08 29.19ZM30.4 63.19C28.4702 62.475 26.685 61.4181 25.13 60.07C24.95 59.91 24.79 59.72 24.62 59.55L24.74 59.35C24.99 59.49 25.25 59.61 25.5 59.76C26.63 60.4 27.73 61.11 28.9 61.69C30.41 62.45 31.98 63.1 33.51 63.81C34.4083 64.2591 35.3589 64.595 36.34 64.81C37.0621 65.009 37.7623 65.2804 38.43 65.62C39.0234 65.999 39.7333 66.1516 40.43 66.05C40.43 66.57 40.05 66.56 39.77 66.49C39.208 66.3348 38.6595 66.1342 38.13 65.89C37.3826 65.511 36.558 65.3091 35.72 65.3C35.3741 65.2718 35.0358 65.1839 34.72 65.04C33.25 64.42 31.84 63.78 30.4 63.2V63.19ZM46.48 40.43C45.82 40.68 45.48 40.28 45.02 40.07C44.15 39.65 43.3 39.18 42.46 38.69C41.62 38.2 40.78 37.63 39.9 37.17C38.4 36.38 37.08 35.26 35.4 34.83C35.4 34.83 35.28 34.83 35.25 34.77C34.19 33.71 32.68 33.67 31.41 33.08C31.3343 33.0524 31.2659 33.008 31.21 32.95C31.21 32.95 31.21 32.85 31.14 32.68C31.8358 32.6639 32.5242 32.8257 33.14 33.15C34.47 33.71 35.8 34.26 37.08 34.92C38.36 35.58 39.37 36.29 40.52 36.92C41.45 37.45 42.41 37.92 43.34 38.47C44.27 39.02 45.16 39.54 46.07 40.08C46.25 40.21 46.41 40.28 46.48 40.43ZM24.7 41.93C24.89 41.9673 25.0747 42.0278 25.25 42.11C26.53 42.94 27.78 43.82 29.08 44.62C30.38 45.42 31.58 46.06 32.82 46.79C33.82 47.36 34.82 47.97 35.74 48.55C35.95 48.68 36.18 48.79 36.4 48.9L37.49 49.45L37.4 49.72C37.0012 49.6533 36.6095 49.5496 36.23 49.41C35.7 49.17 35.23 48.83 34.7 48.56C34.17 48.29 33.76 48.1 33.3 47.85C32.84 47.6 32.14 47.19 31.58 46.85C31.02 46.51 30.25 46.04 29.63 45.57C29.5751 45.5144 29.5097 45.4702 29.4376 45.44C29.3655 45.4099 29.2882 45.3944 29.21 45.3944C29.1319 45.3944 29.0545 45.4099 28.9824 45.44C28.9103 45.4702 28.8449 45.5144 28.79 45.57C28.58 44.74 27.86 44.5 27.27 44.13C26.68 43.76 26.21 43.52 25.69 43.2C25.446 43.0685 25.232 42.8877 25.0615 42.669C24.8911 42.4504 24.768 42.1987 24.7 41.93ZM27 40.46C29.92 42.2 33.09 43.46 35.92 45.36C35.92 45.45 35.92 45.48 35.86 45.5C35.8369 45.5046 35.8131 45.5046 35.79 45.5C35.7371 45.5091 35.6829 45.5091 35.63 45.5C34.9491 45.2552 34.2815 44.9749 33.63 44.66C31.2298 43.5025 28.9316 42.1443 26.76 40.6C26.7 40.55 26.68 40.46 26.62 40.33C26.7537 40.349 26.8827 40.3931 27 40.46ZM34.61 51.72C34 51.34 33.41 50.94 32.78 50.58C32.45 50.39 32.06 50.33 31.73 50.13C30.6946 49.6039 29.7133 48.9775 28.8 48.26C27.97 47.51 27 46.97 26.16 46.26C25.9834 46.1001 25.8164 45.9298 25.66 45.75L25.82 45.57C26.96 46.35 28.07 47.15 29.23 47.89C30.39 48.63 31.68 49.39 32.92 50.11C33.59 50.49 34.29 50.82 34.92 51.18C35.0454 51.2408 35.1575 51.3258 35.25 51.43C35.31 51.5 35.36 51.67 35.32 51.73C35.28 51.79 35.1 51.94 35 51.93C34.8595 51.8816 34.7278 51.8107 34.61 51.72ZM22.69 50.55C21.11 49.25 19.62 47.85 18.09 46.48C17.9762 46.3432 17.8757 46.1959 17.79 46.04C18.07 45.7 18.3 45.56 18.59 45.89C18.88 46.22 19.47 46.81 19.85 47.31C21.1149 48.905 22.6561 50.2598 24.4 51.31C25.54 52.03 26.76 52.61 28.14 53.31C27.72 53.21 27.47 53.16 27.24 53.09C25.5725 52.5476 24.0269 51.6848 22.69 50.55ZM31.93 61.55C32.9537 61.9791 34.0023 62.3465 35.07 62.65C35.239 62.6739 35.3949 62.754 35.5129 62.8773C35.6308 63.0007 35.7037 63.1601 35.72 63.33C35.2505 63.2911 34.7854 63.2108 34.33 63.09C33.56 62.79 32.83 62.38 32.07 62.09C31.51 61.85 30.91 61.72 30.37 61.45C29.42 60.99 28.51 60.45 27.59 59.96C27.3669 59.8446 27.1559 59.7073 26.96 59.55C26.72 59.36 26.5 59.13 26.27 58.91L26.37 58.77C26.5104 58.7961 26.6477 58.8363 26.78 58.89C28.49 59.76 30.18 60.71 31.93 61.55ZM23.86 47.38C24.7 48.02 25.5 48.54 26.22 49.16C27.5944 50.2763 29.071 51.2606 30.63 52.1L31.29 52.53C31.2675 52.5918 31.2408 52.6519 31.21 52.71C30.7667 52.5926 30.3349 52.4353 29.92 52.24C28.3896 51.4664 26.9591 50.5093 25.66 49.39C25.5091 49.2678 25.3747 49.1267 25.26 48.97C25.1772 48.7957 25.0588 48.6406 24.9124 48.5149C24.766 48.3891 24.5949 48.2955 24.41 48.24C24.3173 48.2199 24.2295 48.1816 24.1516 48.1274C24.0738 48.0733 24.0074 48.0042 23.9563 47.9243C23.9051 47.8444 23.8703 47.7552 23.8538 47.6618C23.8373 47.5684 23.8394 47.4726 23.86 47.38ZM19.86 58.25C19.745 58.1521 19.6211 58.0651 19.49 57.99C18.9365 57.0052 18.1502 56.1709 17.2 55.56C17.31 55.12 17.61 55.08 17.88 55.28C18.29 55.5477 18.6489 55.8863 18.94 56.28C20.0278 58.0269 21.4238 59.5618 23.06 60.81C22.51 60.95 22.46 60.95 22.06 60.51C21.35 59.78 20.63 59 19.9 58.25H19.86ZM34.31 36.8L41.31 40.7C41.081 40.7308 40.849 40.7308 40.62 40.7C39.62 40.26 38.62 39.8 37.62 39.33C37.22 39.14 36.86 38.86 36.47 38.66C35.56 38.24 35.05 37.4 34.31 36.82V36.8ZM18.76 54.05L22.76 57.76C22.54 57.93 22.31 57.86 22.05 57.7L20.77 56.93C20.6455 56.8724 20.536 56.7869 20.45 56.68C20.0186 55.9003 19.4294 55.2192 18.72 54.68C18.48 54.51 18.34 54.27 18.76 54.05ZM44.15 64.75V64.56C44.4395 64.4955 44.7338 64.4554 45.03 64.44C46.5837 64.4805 48.1377 64.37 49.67 64.11C49.67 64.11 49.76 64.17 49.86 64.24C49.75 64.79 49.19 64.87 48.86 64.88C47.2904 65.0224 45.7094 64.9788 44.15 64.75ZM35.44 61.41L36.95 61.82L40.95 62.93C40.8201 63.0936 40.6423 63.2125 40.4414 63.2699C40.2405 63.3273 40.0267 63.3203 39.83 63.25C38.4304 62.9096 37.0622 62.4513 35.74 61.88C35.6583 61.8288 35.5889 61.7601 35.5371 61.6788C35.4852 61.5975 35.452 61.5057 35.44 61.41ZM24.61 46.46C25.23 46.93 25.82 47.46 26.42 47.93C26.539 48.0043 26.644 48.0991 26.73 48.21C26.82 48.35 26.95 48.6 26.89 48.68C26.83 48.76 26.5 48.77 26.33 48.6C26.16 48.43 25.92 48.23 25.71 48.05L22.57 45.21C22.39 45.05 22.19 44.92 22 44.78L22.13 44.58C23 45.2 23.79 45.82 24.61 46.46ZM24.46 53.84C24 53.4 23.29 53.21 23 52.4L29.42 57C28.8117 56.886 28.2393 56.629 27.75 56.25C27.21 55.86 26.64 55.51 26.11 55.12C25.5346 54.7272 24.9836 54.2997 24.46 53.84ZM18.34 44C18.47 44 18.61 44 18.65 44.05C19.7213 45.3645 20.9059 46.5825 22.19 47.69C22.19 47.69 22.19 47.79 22.27 47.92C21.18 47.65 19.41 45.88 18.34 44ZM28.07 58.26C26.6273 57.931 25.3419 57.1153 24.43 55.95C25.7536 56.5222 26.9813 57.2945 28.07 58.24V58.26ZM36.65 63.49C37.9691 63.6632 39.2729 63.9373 40.55 64.31C40.48 64.76 40.29 64.85 40.04 64.79C39.61 64.68 39.19 64.56 38.77 64.43C38.35 64.3 37.71 64.11 37.19 63.93C36.9674 63.8351 36.7791 63.6747 36.65 63.47V63.49ZM30 59.41C31.257 59.696 32.4708 60.1466 33.61 60.75C33.03 61.22 32.61 60.9 32.18 60.75C31.3467 60.5061 30.5939 60.0434 30 59.41ZM31.9 66.29L33.97 67.29V67.48C33.7577 67.5101 33.5423 67.5101 33.33 67.48C32.72 67.29 32.1 67.11 31.91 66.29H31.9ZM18.74 43C19.5613 43.4525 20.2192 44.1523 20.62 45C19.77 44.54 19.37 43.71 18.74 43ZM22.07 42.86C22.7368 43.1065 23.2889 43.5909 23.62 44.22C22.9858 43.9074 22.4496 43.4266 22.07 42.83V42.86ZM24.81 57.7L24.71 57.84L23.29 56.84C23.93 56.89 23.93 56.89 24.81 57.7ZM67.32 48.34C67.32 48.34 67.32 48.25 67.32 48.21L67.64 48.09C67.64 48.09 67.64 48.18 67.64 48.22C67.5357 48.266 67.4289 48.3061 67.32 48.34ZM10 21C10.0086 21.0429 10.0086 21.0871 10 21.13C10 21.13 9.89001 21.13 9.86001 21.13C9.83001 21.13 9.60001 20.85 9.46001 20.71C9.55001 20.66 9.64001 20.55 9.71001 20.56C9.75811 20.5695 9.80383 20.5885 9.84453 20.6159C9.88522 20.6432 9.92007 20.6784 9.94705 20.7193C9.97404 20.7603 9.99261 20.8062 10.0017 20.8544C10.0108 20.9025 10.0102 20.952 10 21Z" fill="#101A24"/>
</svg>
