<svg width="273" height="389" viewBox="0 0 273 389" fill="none" xmlns="http://www.w3.org/2000/svg">
<path d="M271.449 195.881C269.663 197.522 267.78 199.053 265.81 200.466C257.909 205.912 249.988 211.229 241.959 216.611C239.768 218.017 237.411 219.145 234.941 219.969C230.901 221.473 227.067 223.484 223.532 225.953C218.302 229.419 213.135 232.97 207.883 236.415C204.643 238.376 201.041 239.665 197.292 240.203C191.862 241.418 186.53 243.037 181.342 245.046C178.306 246.123 175.207 247.048 172.15 248.082C166.798 249.793 161.832 252.535 157.534 256.154C152.669 260.459 149.462 265.754 145.738 270.77C145.608 270.964 145.738 271.265 145.522 272.083C146.685 271.158 147.503 270.533 148.299 269.931C152.518 266.035 157.195 262.666 162.226 259.899C165.843 258.091 169.567 256.541 173.205 254.798C176.111 253.42 178.952 251.892 181.815 250.493C186.181 248.004 190.981 246.368 195.958 245.671C199.313 245.066 202.616 244.202 205.838 243.088C212.791 241.387 219.744 239.643 226.761 238.158C228.901 237.822 231.08 237.822 233.219 238.158C234.166 238.158 235.027 239.105 236.125 239.708C235.609 240.548 235.393 241.301 234.877 241.688C230.27 245.648 225.212 249.051 219.808 251.827C215.998 253.614 212.49 256.003 208.787 258.048C206.441 259.34 203.987 260.459 201.641 261.729C198.562 263.365 195.527 265.109 192.47 266.788C190.737 267.427 189.122 268.351 187.692 269.522C186.461 270.802 185.001 271.839 183.387 272.578C181.694 273.521 180.209 274.797 179.022 276.329C177.834 277.86 176.968 279.616 176.477 281.49C176.142 282.598 175.687 283.666 175.121 284.676C172.892 288.676 170.236 292.421 167.199 295.848C165.046 298.28 163.324 301.014 161.301 303.511C159.908 305.269 158.398 306.93 156.78 308.484C152.841 312.143 148.773 315.652 144.855 319.247C142.128 321.83 139.481 324.499 136.912 327.254C133.952 330.623 130.655 333.681 127.075 336.381C122.64 339.567 118.335 342.968 113.771 346.003C111.244 347.696 108.509 349.056 105.635 350.05C102.567 351.144 100.033 353.37 98.5526 356.271C95.9264 360.77 93.1495 365.183 90.6956 369.768C88.543 374.073 86.6272 378.378 84.453 382.684C83.5333 384.318 82.4898 385.88 81.3318 387.355C81.0311 387.813 80.5859 388.157 80.0671 388.332C79.5483 388.508 78.9857 388.505 78.4688 388.323C77.6078 388.087 76.7252 387.871 75.8642 387.613C72.1402 386.494 71.559 383.308 73.1304 380.079C76.3808 373.621 80.0617 367.508 83.4413 361.179C84.5093 359.013 85.4649 356.793 86.3043 354.528C86.455 354.205 86.455 353.796 86.6487 353.538C89.0811 350.05 89.7484 345.982 90.9539 342.021C91.5682 339.329 91.5682 336.533 90.9539 333.841C90.3081 329.773 89.6623 325.704 89.2533 321.614C88.57 316.396 88.1962 311.142 88.134 305.879C88.2177 295.269 89.9906 284.74 93.3863 274.688C95.0223 270.146 97.3041 265.841 99.1983 261.385C100.641 258.005 101.954 254.561 103.267 251.117C104.58 247.673 105.85 244.207 107.228 240.806C107.529 240.096 108.282 239.579 109.165 238.653C109.531 239.444 109.806 240.275 109.983 241.129C110.112 243.884 110.177 246.661 110.177 249.416C110.177 255.314 110.306 261.234 109.961 267.111C109.509 274.968 108.605 282.803 107.981 290.66C107.809 292.705 107.981 294.772 107.981 296.838C107.929 298.446 107.69 300.042 107.271 301.595C106.11 305.467 105.31 309.437 104.881 313.456C104.352 317.079 103.633 320.671 102.729 324.219C102.729 324.65 102.599 325.08 102.492 325.877C103.691 325.161 104.569 324.013 104.946 322.669C106.153 318.046 108.415 313.765 111.554 310.163C112.835 308.447 113.677 306.444 114.008 304.329C114.717 301.443 115.623 298.609 116.72 295.848C118.507 291.263 120.488 286.742 122.425 282.222C123.2 280.414 124.147 278.692 124.943 276.883C126.486 273.725 127.295 270.259 127.311 266.745C127.354 263.494 128.035 260.284 129.313 257.295C132.585 248.684 135.771 240.203 139.452 231.765C141.217 227.589 143.757 223.671 145.738 219.603C147.718 215.534 149.784 211.186 152.045 207.096C154.649 202.403 157.469 197.818 160.311 193.255C162.463 189.66 164.874 186.194 167.22 182.686C167.545 182.312 167.914 181.98 168.318 181.695C168.588 181.836 168.826 182.029 169.021 182.262C169.216 182.495 169.362 182.764 169.452 183.055C169.542 183.345 169.574 183.65 169.546 183.952C169.517 184.255 169.429 184.548 169.287 184.817C168.512 187.292 167.78 189.789 167.027 192.308C164.874 199.368 162.915 206.45 160.784 213.489C157.771 223.37 154.649 233.207 151.593 243.066C150.632 246.085 149.834 249.153 149.203 252.258C150.258 251.031 151.356 249.847 152.346 248.534C155.726 243.927 158.955 239.213 162.399 234.649C165.283 230.796 168.426 227.115 171.397 223.305C172.277 222.011 173 220.616 173.549 219.151C175.63 213.983 177.209 208.627 178.263 203.157C178.963 199.263 178.963 195.276 178.263 191.382C177.79 187.594 176.886 183.827 176.67 180.016C176.232 175.456 176.421 170.857 177.23 166.347C177.23 165.831 177.424 165.293 177.488 164.755C177.876 161.396 178.048 157.995 178.672 154.659C179.416 150.666 179.225 146.554 178.113 142.647C177.132 138.444 177.176 134.066 178.242 129.882C178.278 129.613 178.358 129.351 178.479 129.107C180.631 125.061 181.858 120.605 184.463 116.795C185.022 115.998 185.41 115.094 185.905 114.255C186.4 113.415 187.261 113.071 188.058 113.975C188.611 114.631 189.008 115.403 189.22 116.235C189.823 118.84 190.404 121.466 190.791 124.113C191.179 126.761 191.287 129.624 191.545 132.358C191.545 133.606 191.954 134.833 191.997 136.082C192.249 138.227 192.249 140.395 191.997 142.54C191.424 145.817 191.344 149.162 191.76 152.463C192.105 155.671 192.47 158.921 192.987 162.042C193.245 163.721 193.913 165.314 194.257 166.993C194.752 169.34 195.118 171.729 195.549 174.118C195.549 174.441 195.678 174.764 195.807 175.496C197.227 173.667 198.393 171.654 199.273 169.512C201.296 165.508 203.255 161.483 205.386 157.522C207.302 153.97 209.39 150.504 211.392 147.017C211.65 146.443 211.975 145.901 212.36 145.403C214.549 142.569 216.453 139.526 218.043 136.319C220.799 131.82 223.619 127.364 226.417 122.886C229.215 118.409 231.842 114.276 234.554 109.971C237.869 109.971 238.601 110.897 237.761 113.975C237.223 115.977 236.47 117.914 235.975 119.916C235.135 123.403 234.231 126.869 233.65 130.421C232.898 135.492 231.289 140.398 228.892 144.929C226.309 149.643 224.221 154.637 221.832 159.459C220.024 163.076 218.043 166.606 216.192 170.222C215.266 172.052 214.427 173.946 213.587 175.819C212.098 178.937 210.839 182.16 209.82 185.463C210.518 185.026 211.187 184.544 211.822 184.02C215.826 180.296 219.765 176.529 223.748 172.805C225.19 171.449 226.761 170.244 228.053 168.844C231.562 165.379 235.006 161.87 238.428 158.34C244.585 152.054 250.677 145.726 256.876 139.483C257.809 138.807 258.84 138.277 259.933 137.912C260.542 138.901 260.92 140.014 261.039 141.17C261.158 142.325 261.016 143.492 260.622 144.585C259.149 150.801 256.195 156.568 252.011 161.396C248.567 165.702 245.403 170.308 242.152 174.807C237.632 181.028 233.8 187.723 228.268 193.212C227.624 193.922 226.902 194.558 226.116 195.106C221.204 198.557 216.647 202.487 212.511 206.838C211.515 207.732 210.381 208.459 209.153 208.99C205.414 210.668 201.917 212.84 198.756 215.448C196.071 217.527 193.275 219.46 190.382 221.239C185.993 223.706 182.207 227.118 179.297 231.227C179.017 231.679 178.5 232.023 178.392 232.82C179.964 231.894 181.578 231.012 183.107 229.978C188.66 226.233 194.2 222.459 199.725 218.656C202.48 216.985 205.068 215.053 207.453 212.887C209.008 211.37 210.928 210.28 213.028 209.722C216.429 208.646 219.486 206.709 222.887 205.546C228.008 203.642 233.242 202.054 238.558 200.789C243.305 199.852 247.898 198.258 252.205 196.053C255.276 194.579 258.525 193.508 261.87 192.867C264.023 192.372 266.175 191.791 268.328 191.49C269.379 191.392 270.436 191.609 271.363 192.114C271.704 192.292 271.991 192.559 272.194 192.886C272.397 193.212 272.509 193.588 272.517 193.972C272.526 194.357 272.432 194.737 272.244 195.072C272.056 195.408 271.782 195.687 271.449 195.881ZM117.84 225.565C121.087 222.607 124.016 219.317 126.579 215.75C127.677 214.114 128.732 212.413 129.916 210.885C133.124 206.815 136.003 202.496 138.526 197.969C142.986 190.573 146.425 182.608 148.751 174.291C149.009 173.352 149.075 172.371 148.945 171.406C148.719 170.687 148.361 170.015 147.89 169.426C147.244 169.813 146.405 170.028 145.996 170.588C143.133 174.377 140.184 178.122 137.644 182.126C136.458 184.133 135.026 185.984 133.382 187.637C130.411 190.327 128.323 193.729 124.771 195.881C124.556 196.01 124.427 196.29 124.255 196.484C121.908 199.304 119.648 202.21 117.151 204.901C113.728 208.56 110.09 212.026 106.582 215.663C104.881 217.386 103.138 219.086 101.609 220.937C99.7167 223.438 97.5507 225.72 95.1515 227.74C93.403 229.143 91.7423 230.653 90.179 232.26C87.5097 234.886 84.8836 237.577 82.2574 240.289C80.6112 241.929 79.052 243.653 77.5863 245.455C75.2184 248.469 73.0227 251.59 70.7195 254.647C70.7195 254.647 70.3966 254.647 70.0306 254.647C70.0541 254.125 70.1262 253.606 70.2459 253.097C71.8173 248.039 73.4317 242.98 75.0247 238.029C76.7618 231.96 80.2512 226.539 85.0558 222.444C88.3492 219.689 91.4059 216.632 94.7425 213.834C98.079 211.035 102.061 208.474 105.505 205.525C108.95 202.576 112.566 198.938 116.053 195.601C117.797 193.944 119.433 192.136 121.284 190.607C125.654 186.982 129.702 182.985 133.382 178.66C134.45 177.309 135.401 175.869 136.223 174.355C137.321 172.525 138.203 170.567 139.301 168.715C142.078 164.001 144.898 159.308 147.718 154.637C148.557 153.26 149.483 151.925 150.236 150.504C151.98 147.168 153.659 143.788 155.338 140.43C157.017 137.072 158.653 133.843 160.225 130.507C160.763 129.344 161.408 128.053 160.483 126.783C157.878 126.524 157.857 126.503 156.501 128.182C155.704 129.151 155.015 130.205 154.348 131.174C152.195 133.843 150.193 136.555 148.019 139.16C146.289 141.331 144.412 143.381 142.401 145.295C137.816 149.45 132.994 153.324 128.409 157.457C123.028 162.322 117.775 167.338 112.501 172.31C109.961 174.7 107.4 177.067 105.032 179.651C101.329 183.683 97.7418 187.802 94.2689 192.006C91.6427 195.192 89.2533 198.464 86.7994 201.865C85.637 203.415 84.5391 205.051 83.4198 206.644L82.8601 206.407C83.14 205.245 83.4844 204.104 83.6996 202.92C84.9913 195.837 87.3196 188.983 90.6095 182.578C91.0856 181.611 91.5096 180.62 91.8795 179.607C93.7738 174.743 95.582 169.878 97.4978 165.034C99.306 160.535 101.2 156.08 103.116 151.624C103.805 150.031 104.063 148.136 106.022 147.318C106.345 147.168 106.496 146.587 106.711 146.199C107.55 144.219 108.562 142.281 109.703 140.323C110.473 138.793 111.404 137.35 112.48 136.017C116.763 131.172 122.082 127.353 128.043 124.845C130.971 123.554 133.769 121.918 136.654 120.54C138.089 119.626 139.691 119.004 141.368 118.71C144.295 118.388 147.201 117.806 150.107 117.225C153.471 116.23 156.982 115.829 160.483 116.041C160.83 116.117 161.19 116.117 161.538 116.041C165.606 114.922 169.717 113.889 173.7 112.597C179.533 110.617 185.324 108.421 191.114 106.268C195.721 104.546 200.306 102.717 204.891 100.952C205.817 100.607 206.764 100.327 207.668 99.9183C211.607 98.1746 215.439 96.2158 219.464 94.7305C221.746 93.891 223.941 92.2981 226.654 93.0299C227.02 93.0299 227.515 92.7932 227.924 92.6209C229.969 91.7384 232.035 90.8558 234.059 89.8871C234.811 89.6427 235.481 89.1959 235.996 88.5956C236.569 87.6893 237.447 87.0176 238.472 86.7013C239.01 86.443 239.354 85.7757 239.806 85.3021C239.338 84.8059 238.801 84.3784 238.213 84.0321C237.687 83.933 237.147 83.933 236.62 84.0321C233.025 84.0321 229.452 84.0321 225.857 84.0321C224.004 83.7412 222.135 83.5544 220.261 83.4724C216.694 83.7295 213.177 84.4532 209.799 85.625C202.314 88.1503 194.508 89.5999 186.615 89.9302C186.163 89.9302 185.711 89.9302 185.259 89.801C181.342 89.6504 177.381 89.2414 173.463 89.392C163.695 89.994 154.128 92.4332 145.264 96.5817L144.511 96.8831C138.954 99.1857 133.657 102.072 128.71 105.493C128.215 105.816 127.72 106.096 126.838 106.613C126.935 106.051 127.071 105.497 127.247 104.955C129.055 101.145 130.842 97.3136 132.714 93.5466C134.587 89.7795 137.02 85.6465 138.72 81.492C140.624 76.5689 141.729 71.3729 141.992 66.1009C142.034 65.029 142.208 63.9663 142.509 62.9366C143.951 58.4807 145.35 54.0033 147.008 49.6335C148.784 44.751 149.807 39.6266 150.043 34.4362C150.034 33.3596 150.135 32.285 150.344 31.2288C151.836 25.3119 153.875 19.5467 156.436 14.008C158.115 10.3701 159.299 6.47393 160.741 2.66383C160.845 2.42598 160.898 2.16938 160.899 1.90993C160.899 1.65049 160.846 1.39373 160.743 1.15558C160.64 0.917422 160.49 0.702951 160.3 0.52546C160.111 0.34797 159.888 0.211243 159.643 0.123759C158.61 -0.328287 158.05 0.554279 157.491 1.22158C156.307 2.57772 155.144 3.93386 153.874 5.18237C150.882 8.15295 147.61 10.8652 144.876 14.0295C141.669 17.7535 138.892 21.8435 135.965 25.8258C133.367 29.143 131.063 32.6794 129.076 36.3951C127.268 40.2042 125.868 44.1945 124.9 48.2989C122.748 56.4788 120.38 64.5941 118.034 72.7094C117.237 75.4863 116.204 78.177 115.235 81.1045C114.912 79.6838 114.632 78.3923 114.353 77.1222C112.97 72.2907 112.246 67.2946 112.2 62.2693C112.231 59.6573 112.015 57.0482 111.554 54.4769C111.475 54.0607 111.307 53.6665 111.062 53.3211C110.817 52.9756 110.5 52.687 110.134 52.475C109.165 52.0875 108.562 53.0562 108.153 53.8742C107.802 54.5094 107.521 55.1806 107.314 55.8761C106.216 60.8701 105.032 65.8426 104.106 70.9443C103.59 73.7642 103.676 76.6917 103.288 79.5547C102.707 83.8599 101.932 88.0359 101.136 92.2765C101.136 92.5994 100.985 92.9008 100.813 93.6327L99.9087 92.2765C98.5083 89.5679 96.8272 87.0138 94.8931 84.6563C94.4494 84.1024 94.1202 83.4658 93.9245 82.7836C93.4724 81.6212 93.2356 80.3511 92.6975 79.2533C90.7574 74.8025 89.2787 70.1645 88.2847 65.4121C87.4093 61.9679 86.4621 58.5309 85.4432 55.1011C83.7005 48.8683 82.881 42.4136 83.0108 35.943C83.0108 33.7904 82.7525 31.4441 84.41 29.6789C83.1184 27.6555 82.4296 27.2896 81.6331 28.3659C79.4169 31.2028 77.7522 34.43 76.7252 37.8803C75.6877 42.3441 75.4183 46.952 75.9287 51.5063C76.1377 54.3818 75.7191 57.2684 74.7018 59.966C73.0097 64.2373 72.5257 68.8917 73.3026 73.4198C74.3789 78.586 75.4552 83.7522 76.9405 88.8324C78.0813 93.0084 79.6527 97.0553 81.095 101.425C77.8015 99.1003 74.7879 97.1199 71.8603 94.9673C66.199 90.7697 59.5259 89.3059 52.8314 87.9498C47.2388 87.0753 41.75 85.6328 36.4501 83.6446C33.049 82.2454 29.5187 81.1476 26.0315 80.0067C25.3427 79.7699 24.0296 79.7269 23.8789 80.0067C23.529 80.8656 23.4319 81.8067 23.5991 82.719C23.7597 83.419 24.0761 84.0739 24.5247 84.6348C25.7119 86.3296 27.2926 87.7109 29.1312 88.6602C32.5539 90.619 36.0841 92.5564 39.4637 94.709C45.3105 98.5435 51.5354 101.768 58.0406 104.331C64.1124 106.645 69.7246 110.02 74.6157 114.298C79.1694 118.485 83.2546 123.155 86.7994 128.225C88.7739 130.553 90.4116 133.147 91.6642 135.931C92.1163 137.18 92.9558 138.278 93.5155 139.505C93.8552 140.218 94.0387 140.996 94.0536 141.786C93.8384 150.117 90.5449 157.565 87.2084 165.659C86.8424 164.453 86.6272 163.807 86.4765 163.162C85.5724 159.244 84.7113 155.305 83.7642 151.387C82.731 147.082 81.6116 142.777 80.5568 138.622C80.32 137.653 80.2124 136.663 79.8895 135.738C79.3083 134.015 78.4473 133.843 77.1988 135.092C76.7898 135.501 76.2516 135.759 75.8426 136.19C75.4336 136.62 74.7448 137.201 74.6587 137.782C74.3143 139.935 74.1421 142.217 73.9914 144.456C73.8407 146.694 73.9914 148.373 73.7116 150.311C72.5922 158.684 71.3868 167.015 70.2028 175.367C70.2028 176.12 69.7938 176.831 69.4494 178.144L68.9113 176.637C67.0816 171.234 66.9309 165.551 65.8331 160.019C65.2552 156.377 64.4207 152.78 63.336 149.256C62.3097 146.394 61.5037 143.458 60.9251 140.473C60.4945 137.35 59.4482 134.342 57.8469 131.626C56.1894 129.172 54.575 126.697 52.8959 124.286C50.1406 120.282 47.3853 116.3 44.5654 112.36C42.1025 108.694 38.6865 105.769 34.685 103.901C33.856 103.58 33.1173 103.063 32.5323 102.394C31.8877 101.637 31.0539 101.065 30.116 100.736C29.1782 100.407 28.1699 100.333 27.1939 100.521C25.3642 100.521 24.5677 102.157 25.5795 103.771C26.3696 104.958 27.2863 106.055 28.3133 107.043C30.0902 108.543 31.5533 110.379 32.6185 112.446C33.4149 114.255 34.2114 116.063 34.7711 117.936C35.483 119.802 36.0656 121.715 36.5147 123.661C37.5264 128.957 38.3444 134.274 39.3776 139.548C40.4109 144.821 41.5302 149.514 42.5419 154.616C44.0726 162.655 46.9859 170.368 51.1523 177.412C52.5515 179.823 53.8216 182.298 55.2423 184.688C56.0603 186.065 57.1366 187.292 58.0406 188.605C60.0397 191.028 61.5066 193.844 62.3458 196.871C62.7207 198.906 63.2828 200.902 64.0249 202.834C65.066 205.219 65.72 207.755 65.9622 210.347C66.3636 212.707 66.5438 215.099 66.5004 217.493C66.0479 222.502 65.8969 227.534 66.0483 232.561C65.9395 233.972 65.6723 235.365 65.2519 236.716C65.0581 237.577 64.6276 238.395 64.3693 239.256C63.0993 243.561 61.8723 247.866 60.6238 252.172C60.4794 252.477 60.3139 252.772 60.1287 253.054C59.7715 252.5 59.4619 251.917 59.2031 251.311C57.933 247.694 56.5769 244.078 55.4791 240.397C53.6278 234.197 51.9703 227.955 50.2052 221.755C49.8409 220.461 49.3656 219.201 48.7845 217.988C46.4812 213.123 43.855 208.409 41.8746 203.415C40.594 199.845 38.7875 196.486 36.5147 193.449C31.7574 187.508 26.7849 181.739 21.8985 175.905C20.9298 174.743 20.0688 173.451 18.9925 172.396C15.8497 169.34 12.5347 166.347 9.41343 163.377C7.43304 161.547 5.4096 159.782 3.38616 158.038C2.46054 157.242 1.40577 157.35 1.23356 158.318C0.803039 160.665 -0.59615 162.86 0.286415 165.4C0.551207 166.629 0.738138 167.872 0.846091 169.124C1.45003 173.075 2.32023 176.98 3.45074 180.813C5.14085 185.044 7.11126 189.157 9.34886 193.126C11.3077 196.85 13.6541 200.337 15.5914 204.104C18.7342 210.562 21.7263 217.02 24.5462 223.671C26.1448 227.983 27.9846 232.202 30.0569 236.307C31.5637 238.955 32.7261 241.796 34.1898 244.444C35.5824 247.36 37.2857 250.116 39.27 252.667C43.1096 257.185 46.5116 262.057 49.4303 267.218C52.9656 273.016 54.288 279.896 53.1543 286.592C52.9674 287.652 52.8452 288.723 52.7883 289.799C52.5946 296.773 52.4654 303.769 52.2502 310.744C52.121 315.501 51.8412 320.237 51.669 324.994C51.6374 326.118 52.0049 327.217 52.7063 328.095C53.4077 328.974 54.3977 329.576 55.5006 329.794C60.1932 329.794 64.8429 326.393 64.111 321.399C63.7881 319.247 63.5728 316.943 63.3791 314.705C63.0885 312.565 62.9805 310.405 63.0562 308.247C63.3791 304.329 64.0679 300.433 64.563 296.537C64.7783 294.836 64.929 293.157 65.1227 291.457C65.8115 285.601 65.8115 279.596 69.4279 274.408C70.8565 271.628 72.5353 268.984 74.4435 266.508C78.6997 262.169 83.2294 258.106 88.0048 254.346C92.8266 250.471 97.505 246.417 102.04 242.184C106.479 238.404 110.585 234.248 114.31 229.763C115.373 228.273 116.554 226.869 117.84 225.565Z" fill="white"/>
<path d="M271.363 192.114C270.436 191.609 269.379 191.392 268.328 191.49C266.175 191.791 264.023 192.372 261.87 192.867C258.525 193.508 255.276 194.579 252.205 196.053C247.898 198.258 243.305 199.852 238.558 200.789C233.242 202.054 228.008 203.642 222.887 205.546C219.529 206.709 216.429 208.646 213.028 209.722C210.936 210.284 209.024 211.373 207.474 212.887C205.09 215.053 202.502 216.985 199.746 218.656C194.207 222.459 188.668 226.233 183.128 229.978C181.6 231.012 179.985 231.894 178.414 232.82C178.414 232.023 179.038 231.679 179.318 231.227C182.228 227.118 186.015 223.706 190.404 221.239C193.297 219.46 196.092 217.527 198.778 215.448C201.939 212.84 205.436 210.668 209.175 208.99C210.403 208.459 211.537 207.732 212.533 206.838C216.603 202.467 221.095 198.508 225.943 195.02C226.73 194.472 227.452 193.836 228.096 193.126C233.628 187.68 237.46 180.942 241.98 174.721C245.231 170.222 248.438 165.659 251.839 161.31C256.022 156.482 258.976 150.715 260.45 144.499C260.844 143.406 260.986 142.239 260.867 141.083C260.748 139.928 260.37 138.815 259.761 137.826C258.668 138.191 257.637 138.721 256.704 139.397C250.505 145.639 244.413 151.968 238.256 158.254C234.834 161.784 231.389 165.293 227.881 168.758C226.503 170.158 224.932 171.363 223.576 172.719C219.593 176.443 215.654 180.21 211.65 183.934C211.015 184.458 210.346 184.94 209.648 185.376C210.666 182.074 211.925 178.851 213.415 175.733C214.255 173.86 215.094 171.966 216.02 170.136C217.871 166.563 219.852 163.032 221.66 159.373C224.049 154.551 226.137 149.557 228.72 144.843C231.117 140.312 232.726 135.405 233.477 130.334C234.059 126.783 234.963 123.317 235.802 119.83C236.297 117.828 237.051 115.891 237.589 113.889C238.428 110.81 237.589 109.971 234.382 109.885C231.669 114.19 228.957 118.495 226.245 122.8C223.532 127.106 220.626 131.734 217.871 136.233C216.28 139.44 214.377 142.483 212.188 145.317C211.803 145.815 211.478 146.357 211.22 146.931C209.218 150.418 207.13 153.884 205.214 157.436C203.061 161.396 201.124 165.422 199.1 169.426C198.283 171.596 197.175 173.645 195.807 175.518C195.678 174.786 195.613 174.463 195.549 174.14C195.118 171.75 194.752 169.361 194.257 167.015C193.913 165.336 193.245 163.743 192.987 162.064C192.47 158.878 192.105 155.606 191.76 152.485C191.344 149.184 191.424 145.839 191.997 142.561C192.249 140.416 192.249 138.249 191.997 136.103C191.997 134.855 191.652 133.628 191.545 132.379C191.287 129.646 191.179 126.869 190.791 124.135C190.404 121.401 189.823 118.861 189.22 116.256C188.984 115.452 188.572 114.709 188.015 114.082C187.24 113.178 186.486 113.329 185.862 114.362C185.238 115.395 184.979 116.106 184.42 116.902C181.837 120.54 180.567 125.061 178.457 129.151C178.336 129.394 178.256 129.656 178.22 129.925C177.155 134.109 177.11 138.487 178.091 142.69C179.175 146.589 179.345 150.684 178.586 154.659C177.962 157.995 177.79 161.396 177.402 164.755C177.402 165.293 177.252 165.831 177.144 166.347C176.335 170.857 176.146 175.456 176.584 180.016C176.8 183.827 177.704 187.594 178.177 191.382C178.877 195.276 178.877 199.263 178.177 203.157C177.123 208.627 175.544 213.983 173.463 219.151C172.913 220.616 172.191 222.011 171.31 223.305C168.34 227.115 165.197 230.796 162.313 234.649C158.868 239.213 155.639 243.927 152.26 248.534C151.313 249.847 150.107 251.031 149.117 252.258C149.748 249.153 150.546 246.085 151.507 243.066C154.563 233.207 157.684 223.37 160.698 213.489C162.851 206.45 164.853 199.368 166.941 192.308C167.694 189.789 168.426 187.292 169.201 184.817C169.343 184.548 169.431 184.255 169.459 183.952C169.488 183.65 169.456 183.345 169.366 183.055C169.276 182.764 169.129 182.495 168.935 182.262C168.74 182.029 168.501 181.836 168.232 181.695C167.827 181.98 167.459 182.312 167.134 182.686C164.788 186.194 162.42 189.66 160.225 193.255C157.383 197.818 154.563 202.403 151.959 207.096C149.806 211.186 147.783 215.448 145.651 219.603C143.52 223.757 141.131 227.589 139.366 231.765C135.793 240.203 132.499 248.749 129.227 257.295C127.948 260.284 127.268 263.494 127.225 266.745C127.209 270.259 126.399 273.725 124.857 276.883C124.061 278.692 123.114 280.414 122.339 282.222C120.401 286.742 118.421 291.263 116.634 295.848C115.566 298.612 114.689 301.445 114.008 304.329C113.61 306.439 112.701 308.42 111.361 310.098C108.221 313.701 105.959 317.981 104.752 322.605C104.375 323.949 103.497 325.097 102.298 325.812C102.298 325.016 102.449 324.585 102.535 324.155C103.439 320.607 104.158 317.014 104.687 313.392C105.116 309.373 105.916 305.402 107.077 301.531C107.496 299.978 107.735 298.381 107.787 296.773C107.916 294.621 107.658 292.64 107.787 290.595C108.411 282.738 109.316 274.903 109.768 267.046C110.112 261.169 109.961 255.25 109.983 249.352C109.983 246.596 109.983 243.819 109.789 241.064C109.612 240.21 109.338 239.38 108.971 238.589C108.089 239.579 107.335 240.095 107.034 240.741C105.656 244.142 104.408 247.608 103.073 251.052C101.738 254.496 100.447 257.941 99.0046 261.32C97.1103 265.776 94.8286 270.081 93.1926 274.623C89.8774 284.689 88.1843 295.217 88.177 305.814C88.2393 311.077 88.613 316.331 89.2964 321.55C89.7054 325.64 90.3512 329.708 90.9969 333.777C91.6113 336.469 91.6113 339.264 90.9969 341.957C89.8561 345.917 89.1888 349.986 86.6917 353.473C86.498 353.731 86.498 354.14 86.3473 354.463C85.5079 356.728 84.5523 358.948 83.4844 361.115C80.1048 367.443 76.4238 373.621 73.1734 380.014C71.5159 383.265 72.1832 386.472 75.9072 387.549C76.7683 387.807 77.6508 388.022 78.5119 388.259C79.0287 388.44 79.5914 388.443 80.1102 388.268C80.629 388.092 81.0742 387.748 81.3748 387.29C82.5329 385.815 83.5763 384.253 84.4961 382.619C86.6487 378.314 88.4999 374.009 90.7386 369.704C93.1926 365.118 95.9694 360.706 98.5956 356.207C100.076 353.305 102.61 351.08 105.678 349.986C108.552 348.991 111.287 347.631 113.814 345.939C118.378 342.904 122.683 339.481 127.118 336.317C130.706 333.618 134.009 330.56 136.976 327.19C139.531 324.434 142.179 321.765 144.92 319.182C148.837 315.501 152.906 311.992 156.845 308.419C158.46 306.887 159.971 305.247 161.365 303.511C163.389 301.014 165.132 298.28 167.264 295.848C170.301 292.421 172.957 288.676 175.185 284.676C175.752 283.666 176.206 282.598 176.541 281.49C177.033 279.616 177.899 277.86 179.086 276.329C180.274 274.797 181.758 273.521 183.451 272.578C185.065 271.839 186.526 270.802 187.756 269.522C189.186 268.351 190.801 267.427 192.535 266.788C195.592 265.109 198.627 263.365 201.705 261.729C204.051 260.459 206.505 259.34 208.852 258.048C212.554 256.003 216.063 253.614 219.873 251.827C225.277 249.051 230.334 245.648 234.941 241.688C235.458 241.301 235.673 240.548 236.19 239.708C235.092 239.105 234.231 238.244 233.284 238.158C231.144 237.822 228.965 237.822 226.826 238.158C219.808 239.643 212.856 241.387 205.903 243.088C202.681 244.202 199.377 245.066 196.022 245.671C191.045 246.368 186.246 248.004 181.88 250.493C178.995 251.892 176.154 253.42 173.269 254.798C169.631 256.541 165.907 258.091 162.291 259.899C157.259 262.666 152.582 266.035 148.364 269.931C147.567 270.598 146.749 271.222 145.587 272.083C145.716 271.265 145.587 270.964 145.802 270.77C149.462 265.841 152.755 260.459 157.534 256.154C161.819 252.507 166.777 249.735 172.128 247.996C175.185 246.962 178.285 246.037 181.32 244.96C186.509 242.951 191.841 241.332 197.271 240.117C201.02 239.579 204.622 238.29 207.862 236.328C213.114 232.884 218.28 229.333 223.511 225.867C227.046 223.398 230.879 221.387 234.92 219.883C237.389 219.059 239.746 217.931 241.937 216.525C249.966 211.251 257.888 205.762 265.788 200.38C267.763 198.995 269.654 197.493 271.449 195.881C271.782 195.687 272.056 195.408 272.244 195.072C272.432 194.737 272.526 194.357 272.517 193.972C272.509 193.588 272.397 193.212 272.194 192.886C271.991 192.559 271.704 192.292 271.363 192.114ZM214.018 212.133C214.642 211.208 216.3 211.014 217.484 210.476C215.756 213.976 213.407 217.134 210.552 219.796L210.057 219.495C211.236 216.968 212.558 214.51 214.018 212.133ZM206.764 217.881C207.689 215.986 208.615 214.049 211.263 213.575C209.648 216.525 208.141 219.387 206.484 222.186C206.199 222.524 205.847 222.799 205.451 222.995C205.054 223.192 204.622 223.304 204.181 223.327C205.042 221.54 205.881 219.71 206.764 217.881ZM204.417 218.053C203.473 220.496 202.358 222.87 201.081 225.156C200.37 226.297 198.713 226.857 197.486 227.675C197.797 225.637 198.588 223.702 199.793 222.029C200.998 220.356 202.583 218.994 204.417 218.053ZM224.975 174.764L225.513 175.022C224.846 176.486 224.286 177.993 223.511 179.328C222.736 180.662 222.93 182.621 220.282 183.439C222.176 180.382 223.037 177.283 224.975 174.764ZM221.1 185.764C224.931 182.637 228.529 179.234 231.863 175.582C233.65 173.839 235.372 172.009 237.115 170.201C237.697 169.576 238.235 168.909 239.268 167.833C238.235 167.833 237.61 167.833 237.331 167.962C235.797 169.202 234.358 170.555 233.025 172.009C231.194 174.212 229.055 176.14 226.675 177.735C227.515 175.69 228.333 173.645 229.215 171.621C229.485 171.16 229.853 170.764 230.292 170.459C233.696 167.539 236.83 164.319 239.655 160.837C242.97 157.22 246.436 153.712 249.859 150.074C251.71 148.136 253.583 146.242 255.477 144.348C255.908 143.917 256.403 143.573 257.285 142.82C256.773 145.658 255.625 148.344 253.927 150.677C251.387 154.982 248.632 159.287 245.833 163.355C244.413 165.508 242.691 167.273 241.098 169.232C240.773 169.539 240.464 169.862 240.172 170.201C237.051 174.506 233.93 178.811 230.894 183.116C228.758 186.21 226.233 189.017 223.382 191.468C218.775 195.451 214.492 199.777 209.971 203.846C208.939 204.662 207.812 205.349 206.613 205.891C205.064 206.572 203.554 207.341 202.093 208.194C199.208 210.174 196.453 212.348 193.633 214.415C192.578 215.19 191.48 215.9 190.404 216.568L189.866 215.986C191.007 214.307 192.018 212.542 193.288 210.928C196.578 206.34 200.686 202.399 205.408 199.304C210.102 196.136 214.433 192.462 218.323 188.347C219.178 187.413 220.107 186.549 221.1 185.764ZM219.163 181.093C217.441 184.106 217.505 188.304 213.351 189.703C214.901 186.625 215.525 182.836 219.163 181.093ZM211.09 188.347C210.509 190.091 210.036 191.533 209.541 192.954C209.411 193.363 209.347 193.922 209.045 194.138C206.732 196.148 204.197 197.888 201.49 199.325C204.03 194.697 206.57 190.823 211.09 188.347ZM190.167 162.516H190.748C191.502 166.175 192.277 169.813 192.901 173.473C193.266 175.183 193.518 176.916 193.654 178.66C193.86 180.099 193.765 181.565 193.375 182.966C192.132 186.235 190.62 189.396 188.854 192.415C188.757 191.413 188.757 190.404 188.854 189.402C189.27 187.273 189.314 185.088 188.983 182.944C188.639 179.844 188.574 176.701 188.359 173.58C188.363 172.964 188.291 172.349 188.144 171.75C187.197 168.242 189.026 165.529 190.167 162.623V162.516ZM189.349 158.081C189.866 160.234 188.424 161.246 187.67 162.602C187.751 160.958 188.337 159.379 189.349 158.081ZM188.746 152.399C189.414 154.271 188.746 155.584 186.831 156.704L188.746 152.399ZM182.891 188.584C182.289 183.439 181.729 178.273 181.492 173.107C181.341 166.485 181.73 159.862 182.655 153.303C182.796 150.275 182.746 147.241 182.504 144.219C182.504 140.538 182.504 136.857 182.655 133.197C182.697 132.754 182.697 132.307 182.655 131.863C181.987 128.612 183.408 125.9 184.807 123.145C185.539 121.681 186.163 120.153 186.831 118.646H187.39C187.864 121.939 188.359 125.233 188.768 128.548C189.318 131.904 189.677 135.289 189.844 138.687C190.157 142.338 189.657 146.014 188.381 149.45C188.305 149.71 188.189 149.957 188.036 150.181C184.829 153.712 184.807 157.931 185.281 162.322C185.539 164.819 185.41 167.338 185.561 169.835C185.711 172.332 185.991 174.635 186.206 177.024C186.422 179.414 186.701 181.631 186.788 183.956C186.788 185.915 186.615 187.873 186.658 189.854C186.658 192.523 186.938 195.192 187.024 197.883C187.079 198.665 186.969 199.45 186.701 200.186C185.044 203.76 183.279 207.29 181.535 210.82C181.437 211.01 181.297 211.174 181.125 211.301C180.953 211.428 180.755 211.514 180.545 211.552C180.67 210.824 180.843 210.105 181.062 209.399C183.315 202.705 183.943 195.569 182.891 188.584ZM148.321 221.712C150 217.945 151.614 214.157 153.358 210.411C154.348 208.259 155.51 206.278 156.608 204.255C158.761 200.531 160.913 196.828 163.066 193.126C163.639 191.98 164.363 190.915 165.219 189.961C165.12 190.687 164.977 191.406 164.788 192.114C161.365 203.458 157.857 214.759 154.391 226.018C152.992 230.559 151.894 235.231 150.409 239.751C148.536 245.455 146.405 251.074 144.338 256.735C143.219 259.77 142.014 262.762 140.851 265.776C140.703 266.302 140.462 266.798 140.141 267.24C137.622 270.124 136.89 273.934 135.061 277.185C133.231 280.435 131.638 283.643 129.894 286.915C129.371 287.866 128.634 288.684 127.742 289.304C128.313 287.211 129.033 285.161 129.894 283.169C131.107 280.875 132.109 278.476 132.887 276.001C133.726 273.267 135.039 270.662 136.072 267.993C137.321 264.915 138.591 261.858 139.839 258.78C141.056 255.263 142.494 251.826 144.145 248.491C144.699 246.997 145.074 245.444 145.264 243.863C146.103 240.655 146.878 237.405 147.826 234.262C149.117 229.957 150.495 225.522 151.959 221.196C152.626 219.194 153.573 217.278 154.391 215.319L153.487 214.953L148.665 226.039C148.24 225.409 147.984 224.679 147.924 223.921C147.864 223.163 148 222.402 148.321 221.712ZM135.793 280.263L138.268 275.829C138.01 278.562 137.687 279.144 135.793 280.306V280.263ZM145.953 226.663C146.168 229.419 147.524 231.765 145.587 234.327C145.393 231.743 143.757 229.419 145.953 226.706V226.663ZM143.241 232.475C144.209 234.434 143.241 236.285 143.477 238.051C143.897 239.989 143.747 242.007 143.047 243.863C142.358 241.592 141.868 239.265 141.583 236.91C141.87 235.345 142.431 233.844 143.241 232.475ZM121.564 291.241C124.147 285.623 127.031 280.134 129.378 274.429C130.433 271.477 131.155 268.416 131.53 265.302C132.744 259.689 134.429 254.187 136.567 248.857C137.385 246.489 138.397 244.185 139.366 241.861C139.652 241.317 139.983 240.799 140.356 240.311C140.98 243.045 141.562 245.434 142.078 247.823C142.055 248.269 141.929 248.703 141.712 249.093C139.323 255.271 137.02 261.492 134.544 267.649C132.994 271.545 131.207 275.355 129.572 279.23C128.56 281.619 127.613 284.052 126.666 286.462C124.772 291.499 122.075 296.195 118.679 300.368C118.644 299.646 118.701 298.923 118.852 298.216C119.691 295.805 120.466 293.437 121.564 291.155V291.241ZM102.922 289.842C101.846 287.689 102.922 285.537 105.914 283.191C106.711 286.29 104.128 287.625 102.922 289.756V289.842ZM106.539 277.228C106.539 278.218 106.539 279.208 106.539 280.263L103.374 282.05L103.008 281.727L105.914 277.12L106.539 277.228ZM77.9737 385.31L75.8211 382.425C76.9405 380.66 78.3827 380.488 80.4923 380.897L77.9737 385.31ZM174.044 259.598C176.129 256.147 179.395 253.57 183.236 252.344C184.307 251.893 185.35 251.375 186.357 250.794C188.928 249.495 191.702 248.644 194.558 248.275C197.981 247.673 201.382 246.919 204.74 246.123C211.844 244.228 218.904 242.162 226.029 240.311C227.221 240.215 228.42 240.309 229.581 240.591L229.71 241.366C229.247 241.737 228.758 242.075 228.247 242.377C220.734 246.252 213.178 250.084 205.73 254.001C204.396 254.712 203.233 255.766 201.963 256.563C199.596 258.027 197.228 259.426 194.838 260.868C192.923 262.009 190.878 263.021 189.048 264.269C182.013 269.079 174.478 273.114 166.575 276.302C164.105 277.34 161.697 278.518 159.363 279.832C154.778 282.459 150.387 285.429 145.716 287.905C141.045 290.38 136.503 292.21 131.38 294.556C131.767 293.695 131.875 292.963 132.305 292.619C136.611 289.153 141.109 285.645 145.673 282.394C147.976 280.737 150.645 279.596 153.099 278.089L168.168 269.263C169.33 268.596 170.535 267.993 171.719 267.347C176.139 264.951 180.545 262.554 184.936 260.158C185.518 259.795 186.079 259.4 186.615 258.974L186.357 258.479L171.16 265.13C172.258 262.935 173.162 261.277 174.044 259.598ZM132.09 311.734C128.904 314.984 125.245 317.783 121.844 320.84C119.39 322.992 116.957 325.295 114.611 327.62C112.846 329.364 111.188 331.237 109.488 333.066C109.251 333.346 109.057 333.691 108.842 333.992C108.627 333.712 108.433 333.411 108.239 333.131C111.38 326.794 114.978 320.693 119.002 314.877C119.293 314.54 119.566 314.188 119.82 313.822C121.96 309.884 124.891 306.432 128.431 303.683C134.007 298.915 139.953 294.597 146.211 290.768C149.872 288.907 153.638 287.261 157.491 285.838C160.612 284.461 163.69 283.018 166.768 281.533C168.254 280.844 169.739 280.091 171.224 279.38L171.504 279.854L163.755 285.795L144.963 300.196C140.399 303.726 136.097 307.582 132.09 311.734ZM131.703 318.945C131.487 317.955 131.294 317.137 131.057 316.018L136.783 310.421C136.976 314.683 133.877 316.427 131.703 318.945ZM129.292 318.278C128.022 320.71 127.44 323.616 124.664 325.08C126.192 322.884 126.213 319.526 129.292 318.278ZM161.365 265.647C161.688 265.216 162.248 264.85 162.356 264.398C162.872 261.751 165.089 261.083 167.113 260.093C169.136 259.103 170.88 258.5 172.774 257.704L173.162 258.091C170.277 261.621 168.146 265.733 164.551 268.725C165.369 265.819 167.716 263.645 168.577 260.803C168.434 260.678 168.283 260.563 168.125 260.459C167.786 260.637 167.474 260.861 167.199 261.126C165.197 263.753 163.195 266.4 161.236 269.048C160.801 269.618 160.453 270.249 160.203 270.921C159.751 272.105 158.847 272.449 157.469 272.772C158.369 270.2 159.686 267.793 161.365 265.647ZM153.401 272.729C154.238 271.44 154.958 270.078 155.553 268.66C156.328 266.034 158.438 265.066 160.827 264.205L152.647 276.001L152.066 275.678C152.454 274.688 152.906 273.698 153.401 272.729ZM154.068 269.069L150.215 274.817C149.72 275.57 149.268 276.345 148.751 276.97C148.458 277.513 148.055 277.989 147.567 278.369C140.928 282.453 134.893 287.445 129.636 293.2C128.969 293.911 128.538 294.815 127.957 295.568C126.752 297.118 125.525 298.668 124.276 300.175C123.028 301.681 121.844 302.22 122.124 304.2C122.124 304.889 121.241 305.685 120.767 306.353L118.809 309.237C117.194 311.712 115.752 314.296 113.944 316.62C112.091 319.266 110.511 322.094 109.229 325.059C106.767 330.214 103.887 335.16 100.619 339.847C100.233 340.352 99.9209 340.91 99.6934 341.504C99.5643 341.849 99.6934 342.538 99.8441 342.667C100.286 342.924 100.805 343.016 101.308 342.925C101.695 342.925 101.997 342.387 102.341 342.064C104.218 340.305 105.973 338.421 107.593 336.424C110.132 333.52 112.896 330.821 115.859 328.352C118.356 326.092 121.047 324.047 124.147 321.485C124.09 322.092 123.968 322.691 123.781 323.272C122.822 324.762 121.994 326.332 121.306 327.965C120.683 329.848 119.486 331.489 117.883 332.657C114.374 335.413 110.822 338.103 107.292 340.837C107.052 341.082 106.836 341.348 106.646 341.634C108.239 341.849 109.1 340.88 110.047 340.213C113.944 337.522 117.797 334.745 121.65 332.012C121.801 332.012 122.016 331.861 122.102 331.732C124.255 328.029 127.849 325.898 130.712 322.928C132.865 320.775 135.018 318.386 137.299 316.276C139.581 314.166 141.605 312.767 143.757 310.916C146.556 308.397 149.246 305.771 151.894 303.124C152.695 302.22 153.415 301.247 154.047 300.218C152.432 299.809 151.894 300.734 151.227 301.38L139.603 312.595C139.344 312.853 139.064 313.09 138.591 313.499C138.591 311.82 138.591 310.615 138.419 309C149.605 299.174 161.287 289.927 173.42 281.296C172.572 283.696 171.083 285.818 169.115 287.431C166.334 289.987 163.992 292.984 162.183 296.3C160.375 298.969 158.336 301.476 156.092 303.791C154.068 305.944 151.786 307.73 149.634 309.775C146.233 312.961 142.939 316.233 139.495 319.419C134.372 324.025 129.335 328.761 123.932 333.023C119.598 336.785 114.739 339.896 109.509 342.258C108.35 342.762 107.252 343.398 106.237 344.152C102.685 346.43 98.896 348.313 94.9362 349.77C94.355 350.524 93.7738 351.277 93.085 352.224L94.0536 354.011C89.9206 361.89 85.8307 369.725 81.5901 377.84H77.8446C78.0467 377.222 78.2913 376.617 78.5764 376.032C81.504 371.426 84.6037 366.927 87.3375 362.212C88.6344 359.551 89.7841 356.82 90.7817 354.033C91.0755 353.033 91.6069 352.12 92.3303 351.37C93.0537 350.62 93.9478 350.057 94.9362 349.727C94.6855 349.748 94.4335 349.748 94.1828 349.727C93.9031 349.606 93.63 349.469 93.3648 349.318C93.6877 348.07 94.0967 346.735 94.398 345.401C94.6827 344.21 94.8912 343.002 95.0223 341.784C95.2591 339.137 95.4528 336.467 95.582 333.798C95.582 332.205 95.582 330.591 95.582 328.998C95.6604 328.491 95.7902 327.993 95.9694 327.513V327.34C94.2474 325.188 94.7209 322.475 94.5272 320.022C94.2689 316.556 94.3765 313.047 94.5272 309.56C94.5272 303.296 94.5272 297.032 95.0223 290.789C95.2216 286.931 95.8718 283.109 96.9596 279.402C100.167 269.113 103.74 258.931 107.271 248.448C108.027 250.065 108.289 251.87 108.024 253.635C107.83 260.093 107.507 266.336 107.249 272.686C107.249 273.891 107.077 274.838 105.699 275.506C105.075 275.764 104.687 276.604 104.192 277.185L103.676 276.991C103.934 275.57 104.257 274.15 104.451 272.686C104.644 271.222 104.709 269.866 104.838 268.381C103.439 268.036 103.095 268.833 102.965 269.801C102.492 273.202 101.932 276.561 101.588 279.962C100.856 286.828 100.339 293.717 99.5428 300.562C99.0261 305.018 98.1651 309.409 97.5408 313.844C96.6604 318.255 96.1634 322.735 96.0555 327.233V327.34L98.2081 325.382C97.967 321.259 98.4255 317.125 99.5643 313.155C100.849 307.196 101.634 301.141 101.911 295.051C101.911 292.49 103.547 291.521 105.656 290.079C105.624 291.856 105.501 293.631 105.29 295.396C104.86 297.957 104.106 300.454 103.697 303.016C103.051 306.998 102.643 311.002 102.018 314.984C101.674 317.137 101.05 319.29 100.576 321.442C100.232 323.014 99.9302 324.585 99.6073 326.156C98.9831 329.321 98.2512 332.464 97.7346 335.649C97.4547 337.393 97.9283 337.673 99.4351 337.522C101.416 333.669 103.224 329.967 105.226 326.372C107.615 322.066 110.177 317.761 112.674 313.456C113.403 311.8 114.61 310.398 116.139 309.431C116.401 309.268 116.625 309.052 116.796 308.796C116.966 308.539 117.08 308.249 117.129 307.945C117.517 303.64 119.799 300.067 122.274 296.171C123.028 298.065 121.284 299.098 121.736 300.863C130.554 288.442 141.5 277.678 154.068 269.069ZM155.618 250.772C155.618 251.138 155.876 251.612 155.618 251.827C154.614 253.332 153.514 254.77 152.325 256.132C148.373 260.625 144.909 265.525 141.992 270.749C141.243 271.93 140.378 273.033 139.409 274.042C142.766 266.537 147 259.455 152.023 252.947C153.444 253.205 153.81 252.064 154.369 251.181H152.217L155.144 247.78C155.588 247.345 155.998 246.878 156.371 246.381C160.677 239.923 165.305 233.874 169.911 227.74C170.729 226.642 172.064 225.91 172.968 224.877C173.86 223.779 174.687 222.628 175.443 221.432C174.928 223.604 173.911 225.624 172.473 227.331C171.027 229.059 169.724 230.902 168.577 232.841C169.825 233.616 170.729 233.315 171.224 232.54C172.367 230.514 174.042 228.84 176.068 227.697C176.284 227.536 176.443 227.309 176.52 227.051C177.292 225.547 177.905 223.967 178.349 222.337C179.038 218.677 181.406 215.879 182.978 212.693C184.549 209.507 186.766 206.795 187.649 203.329C187.864 202.511 188.768 201.865 189.285 201.177C189.294 199.792 189.46 198.413 189.78 197.065C190.899 194.073 192.277 191.145 193.59 188.218C193.684 188.033 193.817 187.872 193.981 187.746C194.145 187.619 194.335 187.53 194.537 187.486C195.936 187.486 196.302 186.56 196.259 185.549C196.001 180.253 198.562 175.819 200.801 171.385C204.568 163.85 208.658 156.467 212.64 149.041C212.955 148.394 213.322 147.775 213.738 147.189C217.906 141.254 221.723 135.08 225.168 128.699C227.095 125.263 229.534 122.142 232.401 119.442C231.992 121.035 231.648 122.628 231.196 124.2C230.744 125.771 230.206 126.718 229.947 128.01C228.779 132.81 227.12 137.477 224.996 141.937C223.131 145.526 221.686 149.318 220.691 153.238C220.283 154.799 219.668 156.297 218.861 157.694C216.214 163.291 213.523 168.844 210.854 174.441C208.014 180.842 204.742 187.041 201.059 192.997C197.701 198.184 194.193 203.265 190.619 208.302C189.607 209.744 187.67 210.626 186.981 212.133C186.438 213.765 185.761 215.349 184.958 216.869C182.396 220.658 180.05 224.618 177.187 228.17C173.355 232.949 169.825 238.094 164.487 241.43C164.161 241.59 163.886 241.835 163.69 242.14C161.893 245.739 159.089 248.738 155.618 250.772ZM265.53 195.881C260.902 199.239 256.23 202.554 251.559 205.891C246.253 209.415 240.658 212.483 234.834 215.061C232.832 216.029 230.916 217.213 228.936 218.225C222.932 221.651 217.139 225.432 211.586 229.548C207.279 232.471 202.584 234.775 197.637 236.393C194.666 237.362 191.502 237.728 188.445 238.395C183.635 239.492 178.958 241.109 174.496 243.217C170.815 244.874 167.242 246.769 163.733 248.534C163.281 248.749 162.808 248.921 161.796 249.33C162.113 248.722 162.465 248.132 162.851 247.565C163.195 247.135 163.755 246.876 163.992 246.424C166.402 241.947 170.988 240.182 174.927 237.598C179.576 234.563 184.183 231.442 188.79 228.321C191.717 226.319 194.602 224.274 197.96 221.863C197.777 222.533 197.524 223.183 197.206 223.8C196.26 224.983 195.404 226.235 194.645 227.546C193.332 230.026 191.158 231.94 188.531 232.927C184.226 235.08 179.921 236.974 175.616 238.998C175.357 239.127 175.185 239.493 174.69 240.074C175.275 240.157 175.87 240.157 176.455 240.074C179.77 238.739 183.085 237.362 186.4 235.984C187.864 235.381 189.349 234.779 190.856 234.219C194.903 232.712 197.852 229.397 201.619 227.481C204.677 225.801 207.644 223.961 210.509 221.971C211.056 221.683 211.625 221.438 212.21 221.239C212.683 221.023 213.351 220.959 213.587 220.593C215.18 218.182 217.893 217.364 220.196 216.288C222.93 214.953 225.599 213.489 228.333 212.155C229.753 211.466 231.239 210.971 232.746 210.347C232.251 208.646 232.1 208.431 230.464 209.163C227.859 210.304 225.341 211.724 222.801 213.037L217.333 215.62C217.36 214.888 217.491 214.164 217.72 213.468C218.673 211.097 220.488 209.174 222.801 208.086C226.891 206.45 230.98 204.857 235.178 203.544C237.869 202.705 240.753 202.339 243.509 201.586C245.484 201.057 247.419 200.388 249.299 199.584C251.688 198.572 253.992 197.431 256.36 196.29C257.286 195.945 258.236 195.665 259.201 195.451C261.181 194.92 263.162 194.403 265.142 193.901C265.704 193.801 266.272 193.743 266.843 193.729L267.036 194.138C266.583 194.759 266.079 195.342 265.53 195.881ZM188.854 139.655C189.005 140.193 189.328 140.667 189.199 140.947C188.51 142.669 187.756 144.348 187.046 146.027C186.68 146.759 186.486 148.007 185.238 147.383C183.989 146.759 184.441 145.812 184.915 145.015C185.991 143.186 186.529 140.904 188.854 139.655ZM117.818 225.565C121.065 222.607 123.994 219.317 126.558 215.75C127.656 214.114 128.71 212.413 129.894 210.885C133.103 206.815 135.982 202.496 138.505 197.969C142.964 190.573 146.403 182.608 148.73 174.291C148.987 173.352 149.053 172.371 148.923 171.406C148.697 170.687 148.339 170.015 147.869 169.426C147.223 169.813 146.383 170.028 145.974 170.588C143.111 174.377 140.162 178.122 137.622 182.126C136.443 184.132 135.019 185.983 133.382 187.637C130.411 190.327 128.323 193.729 124.771 195.881C124.556 196.01 124.427 196.29 124.255 196.484C121.908 199.304 119.648 202.21 117.151 204.901C113.728 208.56 110.09 212.026 106.582 215.663C104.881 217.386 103.138 219.086 101.609 220.937C99.7167 223.438 97.5507 225.72 95.1515 227.74C93.403 229.143 91.7423 230.653 90.179 232.26C87.5097 234.886 84.8836 237.577 82.2574 240.289C80.6112 241.929 79.052 243.653 77.5863 245.455C75.2184 248.469 73.0227 251.59 70.7195 254.647C70.7195 254.647 70.3966 254.647 70.0306 254.647C70.0541 254.125 70.1262 253.606 70.2459 253.097C71.8173 248.039 73.4317 242.98 75.0247 238.029C76.7618 231.96 80.2512 226.539 85.0558 222.444C88.3492 219.689 91.4059 216.632 94.7425 213.834C98.079 211.035 102.061 208.474 105.505 205.525C108.95 202.576 112.566 198.938 116.053 195.601C117.797 193.944 119.433 192.136 121.284 190.607C125.654 186.982 129.702 182.985 133.382 178.66C134.45 177.309 135.401 175.869 136.223 174.355C137.321 172.525 138.203 170.567 139.301 168.715C142.078 164.001 144.898 159.308 147.718 154.637C148.557 153.26 149.483 151.925 150.236 150.504C151.98 147.168 153.659 143.788 155.338 140.43C157.017 137.072 158.653 133.843 160.225 130.507C160.763 129.344 161.408 128.053 160.483 126.783C157.878 126.524 157.857 126.503 156.501 128.182C155.704 129.151 155.015 130.205 154.348 131.174C152.195 133.843 150.193 136.555 148.019 139.16C146.289 141.331 144.412 143.381 142.401 145.295C137.816 149.45 132.994 153.324 128.409 157.457C123.028 162.322 117.775 167.338 112.501 172.31C109.961 174.7 107.4 177.067 105.032 179.651C101.329 183.683 97.7418 187.802 94.2689 192.006C91.6427 195.192 89.2533 198.464 86.7994 201.865C85.637 203.415 84.5391 205.051 83.4198 206.644L82.8601 206.407C83.14 205.245 83.4844 204.104 83.6996 202.92C84.9913 195.837 87.3196 188.983 90.6095 182.578C91.0856 181.611 91.5096 180.62 91.8795 179.607C93.7738 174.743 95.582 169.878 97.4978 165.034C99.306 160.535 101.2 156.08 103.116 151.624C103.805 150.031 104.063 148.136 106.022 147.318C106.345 147.168 106.496 146.587 106.711 146.199C107.55 144.219 108.562 142.281 109.703 140.323C110.473 138.793 111.404 137.35 112.48 136.017C116.763 131.172 122.082 127.353 128.043 124.845C130.971 123.554 133.769 121.918 136.654 120.54C138.089 119.626 139.691 119.004 141.368 118.71C144.295 118.388 147.201 117.806 150.107 117.225C153.471 116.23 156.982 115.829 160.483 116.041C160.83 116.117 161.19 116.117 161.538 116.041C165.606 114.922 169.717 113.889 173.7 112.597C179.533 110.617 185.324 108.421 191.114 106.268C195.721 104.546 200.306 102.717 204.891 100.952C205.817 100.607 206.764 100.327 207.668 99.9183C211.607 98.1746 215.439 96.2158 219.464 94.7305C221.746 93.891 223.941 92.2981 226.654 93.0299C227.02 93.0299 227.515 92.7932 227.924 92.6209C229.969 91.7384 232.035 90.8558 234.059 89.8871C234.811 89.6427 235.481 89.1959 235.996 88.5956C236.569 87.6893 237.447 87.0176 238.472 86.7013C239.01 86.443 239.354 85.7757 239.806 85.3021C239.338 84.8059 238.801 84.3784 238.213 84.0321C237.687 83.933 237.147 83.933 236.62 84.0321C233.025 84.0321 229.452 84.0321 225.857 84.0321C224.004 83.7412 222.135 83.5544 220.261 83.4724C216.694 83.7295 213.177 84.4532 209.799 85.625C202.314 88.1503 194.508 89.5999 186.615 89.9302C186.163 89.9302 185.711 89.9302 185.259 89.801C181.342 89.6504 177.381 89.2414 173.463 89.392C163.695 89.994 154.128 92.4332 145.264 96.5817L144.511 96.8831C138.954 99.1857 133.657 102.072 128.71 105.493C128.215 105.816 127.72 106.096 126.838 106.613C126.935 106.051 127.071 105.497 127.247 104.955C129.055 101.145 130.842 97.3136 132.714 93.5466C134.587 89.7795 137.02 85.6465 138.72 81.492C140.624 76.5689 141.729 71.3729 141.992 66.1009C142.034 65.029 142.208 63.9663 142.509 62.9366C143.951 58.4807 145.35 54.0033 147.008 49.6335C148.784 44.751 149.807 39.6266 150.043 34.4362C150.034 33.3596 150.135 32.285 150.344 31.2288C151.836 25.3119 153.875 19.5467 156.436 14.008C158.115 10.3701 159.299 6.47393 160.741 2.66383C160.845 2.42598 160.898 2.16938 160.899 1.90993C160.899 1.65049 160.846 1.39373 160.743 1.15558C160.64 0.917422 160.49 0.702951 160.3 0.52546C160.111 0.34797 159.888 0.211243 159.643 0.123759C158.61 -0.328287 158.05 0.554279 157.491 1.22158C156.307 2.57772 155.144 3.93386 153.874 5.18237C150.882 8.15295 147.61 10.8652 144.876 14.0295C141.669 17.7535 138.892 21.8435 135.965 25.8258C133.367 29.143 131.063 32.6794 129.076 36.3951C127.268 40.2042 125.868 44.1945 124.9 48.2989C122.748 56.4788 120.38 64.5941 118.034 72.7094C117.237 75.4863 116.204 78.177 115.235 81.1045C114.912 79.6838 114.632 78.3923 114.353 77.1222C112.97 72.2907 112.246 67.2946 112.2 62.2693C112.231 59.6573 112.015 57.0482 111.554 54.4769C111.475 54.0607 111.307 53.6665 111.062 53.3211C110.817 52.9756 110.5 52.687 110.134 52.475C109.165 52.0875 108.562 53.0562 108.153 53.8742C107.802 54.5094 107.521 55.1806 107.314 55.8761C106.216 60.8701 105.032 65.8426 104.106 70.9443C103.59 73.7642 103.676 76.6917 103.288 79.5547C102.707 83.8599 101.932 88.0359 101.136 92.2765C101.136 92.5994 100.985 92.9008 100.813 93.6327L99.9087 92.2765C98.5083 89.5679 96.8272 87.0138 94.8931 84.6563C94.4494 84.1024 94.1202 83.4658 93.9245 82.7836C93.4724 81.6212 93.2356 80.3511 92.6975 79.2533C90.7574 74.8025 89.2787 70.1645 88.2847 65.4121C87.4093 61.9679 86.4621 58.5309 85.4432 55.1011C83.7005 48.8683 82.881 42.4136 83.0108 35.943C83.0108 33.7904 82.7525 31.4441 84.41 29.6789C83.1184 27.6555 82.4296 27.2896 81.6331 28.3659C79.4169 31.2028 77.7522 34.43 76.7252 37.8803C75.6877 42.3441 75.4183 46.952 75.9287 51.5063C76.1377 54.3818 75.7191 57.2684 74.7018 59.966C73.0097 64.2373 72.5257 68.8917 73.3026 73.4198C74.3789 78.586 75.4552 83.7522 76.9405 88.8324C78.0813 93.0084 79.6527 97.0553 81.095 101.425C77.8015 99.1003 74.7879 97.1199 71.8603 94.9673C66.199 90.7697 59.5259 89.3059 52.8314 87.9498C47.2388 87.0753 41.75 85.6328 36.4501 83.6446C33.049 82.2454 29.5187 81.1476 26.0315 80.0067C25.3427 79.7699 24.0296 79.7269 23.8789 80.0067C23.529 80.8656 23.4319 81.8067 23.5991 82.719C23.7597 83.419 24.0761 84.0739 24.5247 84.6348C25.7119 86.3296 27.2926 87.7109 29.1312 88.6602C32.5539 90.619 36.0841 92.5564 39.4637 94.709C45.3105 98.5435 51.5354 101.768 58.0406 104.331C64.1124 106.645 69.7246 110.02 74.6157 114.298C79.1694 118.485 83.2546 123.155 86.7994 128.225C88.7739 130.553 90.4116 133.147 91.6642 135.931C92.1163 137.18 92.9558 138.278 93.5155 139.505C93.8552 140.218 94.0387 140.996 94.0536 141.786C93.8384 150.117 90.5449 157.565 87.2084 165.659C86.8424 164.453 86.6272 163.807 86.4765 163.162C85.5724 159.244 84.7113 155.305 83.7642 151.387C82.731 147.082 81.6116 142.777 80.5568 138.622C80.32 137.653 80.2124 136.663 79.8895 135.738C79.3083 134.015 78.4473 133.843 77.1988 135.092C76.7898 135.501 76.2516 135.759 75.8426 136.19C75.4336 136.62 74.7448 137.201 74.6587 137.782C74.3143 139.935 74.1421 142.217 73.9914 144.456C73.8407 146.694 73.9914 148.373 73.7116 150.311C72.5922 158.684 71.3868 167.015 70.2028 175.367C70.2028 176.12 69.7938 176.831 69.4494 178.144L68.9113 176.637C67.0816 171.234 66.9309 165.551 65.8331 160.019C65.2552 156.377 64.4207 152.78 63.336 149.256C62.3097 146.394 61.5037 143.458 60.9251 140.473C60.4945 137.35 59.4482 134.342 57.8469 131.626C56.1894 129.172 54.575 126.697 52.8959 124.286C50.1406 120.282 47.3853 116.3 44.5654 112.36C42.1025 108.694 38.6865 105.769 34.685 103.901C33.856 103.58 33.1173 103.063 32.5323 102.394C31.8877 101.637 31.0539 101.065 30.116 100.736C29.1782 100.407 28.1699 100.333 27.1939 100.521C25.3642 100.521 24.5677 102.157 25.5795 103.771C26.3696 104.958 27.2863 106.055 28.3133 107.043C30.0902 108.543 31.5533 110.379 32.6185 112.446C33.4149 114.255 34.2114 116.063 34.7711 117.936C35.483 119.802 36.0656 121.715 36.5147 123.661C37.5264 128.957 38.3444 134.274 39.3776 139.548C40.4109 144.821 41.5302 149.514 42.5419 154.616C44.0726 162.655 46.9859 170.368 51.1523 177.412C52.5515 179.823 53.8216 182.298 55.2423 184.688C56.0603 186.065 57.1366 187.292 58.0406 188.605C60.0397 191.028 61.5066 193.844 62.3458 196.871C62.7207 198.906 63.2828 200.902 64.0249 202.834C65.066 205.219 65.72 207.755 65.9622 210.347C66.3636 212.707 66.5438 215.099 66.5004 217.493C66.0479 222.502 65.8969 227.534 66.0483 232.561C65.9395 233.972 65.6723 235.365 65.2519 236.716C65.0581 237.577 64.6276 238.395 64.3693 239.256C63.0993 243.561 61.8723 247.866 60.6238 252.172C60.4794 252.477 60.3139 252.772 60.1287 253.054C59.7715 252.5 59.4619 251.917 59.2031 251.311C57.933 247.694 56.5769 244.078 55.4791 240.397C53.6278 234.197 51.9703 227.955 50.2052 221.755C49.8409 220.461 49.3656 219.201 48.7845 217.988C46.4812 213.123 43.855 208.409 41.8746 203.415C40.594 199.845 38.7875 196.486 36.5147 193.449C31.7574 187.508 26.7849 181.739 21.8985 175.905C20.9298 174.743 20.0688 173.451 18.9925 172.396C15.8497 169.34 12.5347 166.347 9.41343 163.377C7.43304 161.547 5.4096 159.782 3.38616 158.038C2.46054 157.242 1.40577 157.35 1.23356 158.318C0.803039 160.665 -0.59615 162.86 0.286415 165.4C0.551207 166.629 0.738138 167.872 0.846091 169.124C1.45003 173.075 2.32023 176.98 3.45074 180.813C5.14085 185.044 7.11126 189.157 9.34886 193.126C11.3077 196.85 13.6541 200.337 15.5914 204.104C18.7342 210.562 21.7263 217.02 24.5462 223.671C26.1448 227.983 27.9846 232.202 30.0569 236.307C31.5637 238.955 32.7261 241.796 34.1898 244.444C35.5824 247.36 37.2857 250.116 39.27 252.667C43.1096 257.185 46.5116 262.057 49.4303 267.218C52.9656 273.016 54.288 279.896 53.1543 286.592C52.9674 287.652 52.8452 288.723 52.7883 289.799C52.5946 296.773 52.4654 303.769 52.2502 310.744C52.121 315.501 51.8412 320.237 51.669 324.994C51.6374 326.118 52.0049 327.217 52.7063 328.095C53.4077 328.974 54.3977 329.576 55.5006 329.794C60.1932 329.794 64.8429 326.393 64.111 321.399C63.7881 319.247 63.5728 316.943 63.3791 314.705C63.0885 312.565 62.9805 310.405 63.0562 308.247C63.3791 304.329 64.0679 300.433 64.563 296.537C64.7783 294.836 64.929 293.157 65.1227 291.457C65.8115 285.601 65.8115 279.596 69.4279 274.408C70.8565 271.628 72.5353 268.984 74.4435 266.508C78.6997 262.169 83.2294 258.106 88.0048 254.346C92.8266 250.471 97.505 246.417 102.04 242.184C106.479 238.404 110.585 234.248 114.31 229.763C115.373 228.273 116.554 226.869 117.84 225.565H117.818ZM104.601 220.464L104.731 220.141C107.228 217.579 109.768 215.082 112.179 212.478C116.764 207.484 121.865 202.985 126.127 197.689C128.517 194.719 131.466 192.222 134.135 189.509L134.695 189.961C132.865 192.523 131.078 195.106 129.249 197.646C127.419 200.186 126.106 202.339 124.384 204.492C122.231 207.075 120.079 209.507 117.926 212.047C115.773 214.587 114.008 216.89 112.028 219.301C111.188 220.335 110.327 221.454 108.691 220.27C108.153 221.691 106.259 222.423 107.314 224.123C106.41 224.984 105.914 226.426 104.042 226.426C104.601 225.307 105.032 224.274 105.549 223.413C105.714 223.165 105.825 222.885 105.877 222.592C105.928 222.299 105.918 221.998 105.847 221.708C105.777 221.419 105.647 221.148 105.465 220.911C105.284 220.675 105.056 220.478 104.795 220.335L104.623 220.528C103.826 222.487 103.03 224.425 102.212 226.362C102.212 226.513 101.76 226.513 101.523 226.599L101.416 226.814C101.157 227.847 100.899 228.967 100.662 229.935L100.016 229.677C100.49 228.73 100.942 227.761 101.416 226.814C101.416 226.814 101.416 226.599 101.416 226.513C101.093 223.714 103.008 222.186 104.623 220.464H104.601ZM97.0242 228.816C97.3686 228.041 98.2727 227.503 98.9185 226.879L99.4782 227.266L95.9479 234.628L95.1299 234.37C95.7542 232.475 96.2708 230.581 97.0457 228.816H97.0242ZM94.0106 230.968C93.653 234.145 92.4404 237.166 90.5018 239.708C90.7817 238.869 91.04 238.007 91.3629 237.168C91.6858 236.328 92.1163 235.317 90.9108 234.456L94.0106 230.968ZM121.327 166.692C127.613 161.655 133.36 155.929 139.56 150.827C143.259 147.726 146.714 144.344 149.892 140.71C151.162 139.268 152.26 137.653 153.616 136.254C152.673 139.387 150.964 142.235 148.644 144.542C146.491 146.694 144.102 148.847 141.863 150.999C140.571 152.248 139.323 153.518 138.096 154.81C132.887 160.32 127.699 165.874 122.511 171.385C122.165 171.683 121.798 171.956 121.413 172.203C121.413 171.191 121.413 170.545 121.413 169.404C118.313 171.88 118.313 176.034 115.063 178.66C116.398 173.86 117.474 169.77 121.327 166.692ZM106.603 180.619C107.451 179.834 108.358 179.114 109.316 178.467C109.316 178.467 109.316 178.316 109.316 178.23C110.628 176.409 112.28 174.859 114.18 173.666C113.538 178.103 111.414 182.192 108.153 185.269C108.713 183.568 109.251 182.018 109.768 180.447C110.026 179.607 110.392 178.725 109.316 178.294L109.186 178.402C107.766 181.911 106.366 185.398 104.881 188.907C104.394 190.177 103.511 191.256 102.363 191.985C102.385 190.47 102.801 188.986 103.568 187.68C103.956 186.883 104.709 185.915 104.494 185.247C104.02 182.966 105.398 181.868 106.603 180.619ZM104.451 193.965C107.357 191.016 109.875 187.787 112.544 184.666C113.836 183.181 114.589 181.028 117.237 181.33C117.56 181.33 118.163 180.533 118.335 179.995C118.86 178.353 119.793 176.872 121.047 175.69C124.599 172.009 128.151 168.328 131.595 164.561C135.039 160.794 138.333 156.833 141.992 153.044C143.736 151.172 145.781 149.579 147.976 147.577C147.847 148.266 147.976 148.589 147.739 148.739C143.563 153.669 141.153 159.653 137.924 165.12C134.819 170.891 131.024 176.261 126.622 181.114C124.771 182.966 122.619 184.602 120.746 186.367C116.161 190.672 111.662 194.977 107.012 199.282C104.149 201.779 101.093 204.104 98.1005 206.644C94.2689 209.851 90.4803 213.102 86.4119 216.137C88.9735 212.521 91.7504 209.034 94.0752 205.374C96.7874 200.768 100.813 197.582 104.365 193.965H104.451ZM79.2868 216.998C80.9443 214.049 83.0538 211.358 84.9697 208.538C88.2586 203.527 91.808 198.691 95.6035 194.051C97.7561 191.533 99.9087 189.057 102.061 186.56L102.363 186.819C101.308 189.66 100.21 192.502 99.1983 195.429C99.0076 195.825 98.7276 196.171 98.3804 196.441C94.8501 199.132 92.8266 202.985 90.3296 206.493C87.6658 210.939 84.7102 215.203 81.4825 219.258C79.6312 221.411 78.0598 223.564 76.4023 225.867C73.9146 229.189 72.4687 233.174 72.2478 237.319C72.1506 238.05 71.9848 238.771 71.7527 239.471C70.2889 245.219 68.8036 250.966 67.4475 256.692C66.5819 260.327 65.2354 263.831 63.4437 267.111C63.2938 266.621 63.1999 266.115 63.1638 265.604C63.6159 261.514 64.0679 257.424 64.6061 253.334C64.7998 251.827 65.2734 250.363 65.5963 248.857C66.3497 245.348 67.0385 241.839 67.7489 238.33C68.0933 236.824 68.0072 235.08 69.9015 234.262C70.375 234.068 70.6549 233.293 70.9347 232.734C73.7116 227.46 76.3162 222.143 79.2007 216.998H79.2868ZM149.117 103.319C150.28 101.167 151.507 99.0142 152.712 96.8616C153.358 95.6776 154.456 95.5915 155.812 95.4839C153.659 98.842 151.507 101.942 149.354 105.171L148.794 104.912C148.834 104.37 148.943 103.835 149.117 103.319ZM130.002 108.959C131.767 107.625 133.726 106.591 135.534 105.472L136.115 104.632L140.313 102.717L140.442 102.523H140.571C143.791 100.223 147.34 98.4237 151.098 97.1845C150.495 98.3038 150.172 99.0572 149.72 99.7245C147.627 102.184 145.761 104.828 144.145 107.625C144.037 107.904 143.434 107.969 142.788 108.249C143.176 105.278 145.996 103.728 146.039 100.908C142.724 103.449 141.153 107.366 138.483 110.38L137.945 110.1C138.526 108.981 139.064 107.947 139.646 106.742C140.227 105.537 140.787 104.74 141.282 103.685C141.777 102.631 141.174 102.631 140.593 102.394H140.421C139.452 103.987 138.462 105.58 137.472 107.151C136.481 108.722 135.534 110.401 134.522 111.93C134.307 112.253 133.898 112.425 133.145 112.382C134.006 110.853 134.781 109.304 135.706 107.84C136.088 107.404 136.335 106.867 136.415 106.293C136.495 105.719 136.406 105.135 136.158 104.611C136.158 104.848 136.008 105.171 135.836 105.278L135.534 105.472C134.329 107.173 133.123 108.852 131.961 110.595C131.207 111.693 130.605 112.898 129.808 113.996C129.415 114.346 128.973 114.637 128.495 114.857L128.108 114.47C128.603 113.415 129.119 112.317 129.615 111.327C129.511 111.202 129.395 111.086 129.27 110.983C128.78 111.205 128.324 111.495 127.914 111.844C127.01 112.92 126.192 113.996 125.331 115.245C124.733 115.956 123.989 116.53 123.15 116.927C122.31 117.325 121.395 117.537 120.466 117.548C120.703 116.988 120.724 116.579 120.961 116.407C123.867 113.91 126.924 111.37 130.002 109.002V108.959ZM129.076 41.3245C131.992 34.7666 135.89 28.6912 140.636 23.3073C142.788 20.595 144.941 17.7105 147.094 15.1058C149.806 12.0276 152.755 9.20773 155.704 6.25867L156.35 6.64613C155.827 8.55911 155.18 10.4359 154.413 12.2644C150.618 20.1124 147.729 28.367 145.802 36.8686C145.479 38.2678 145.522 39.7531 145.135 41.1738C144.231 44.4458 143.284 47.6316 142.1 50.9036C140.027 56.5583 138.527 62.4068 137.622 68.3611C137.072 70.9807 136.353 73.562 135.47 76.089C135.256 76.7728 134.997 77.4417 134.695 78.0909C133.468 80.9754 132.155 83.8383 130.992 86.7013C129.83 89.5642 128.517 92.5564 127.57 95.5485C126.446 99.2548 124.778 102.773 122.619 105.989C121.198 108.034 120.143 110.294 118.873 112.446C118.507 112.995 118.096 113.514 117.646 113.996C117.399 113.376 117.285 112.71 117.311 112.043C117.337 111.376 117.502 110.721 117.797 110.122C119.734 103.319 121.887 96.5602 123.609 89.6934C124.836 84.7424 125.331 79.6192 126.45 74.6252C127.096 71.7623 128.301 69.0285 129.227 66.2301C130.07 63.9749 130.788 61.6754 131.38 59.3418C132.68 53.7207 134.585 48.257 137.063 43.0466C138.462 40.119 139.839 37.213 141.368 34.4362C142.896 31.6593 144.145 29.3776 145.436 26.859C145.996 25.8258 146.491 24.7064 147.008 23.7162C148.105 21.5636 149.16 19.2388 150.301 16.9786C150.583 16.2768 150.82 15.5579 151.011 14.826C150.37 14.8622 149.753 15.0853 149.237 15.4678C148.72 15.8502 148.327 16.3754 148.105 16.9786C145.953 21.2838 143.8 25.589 141.648 29.8942C139.258 34.9098 137.106 40.0545 134.695 45.07C130.39 53.8526 128.237 63.3886 124.943 72.4726C124.147 75.2319 123.593 78.0553 123.286 80.9108C122.619 84.4195 122.037 87.9498 121.262 91.4585C120.358 95.57 119.261 99.6599 118.227 103.75C118.097 104.141 117.939 104.522 117.754 104.891L117.345 104.719C117.62 102.7 117.757 100.664 117.754 98.6267C117.61 96.3986 117.271 94.1874 116.742 92.0182C116.269 89.8263 116.269 87.5586 116.742 85.3667C119.301 73.7839 122.448 62.3388 126.17 51.0758C126.924 47.8469 127.699 44.4888 129.076 41.3245ZM109.186 123.123C109.186 122.348 110.779 121.423 111.748 120.691C112.894 119.856 114.087 119.087 115.321 118.388C116.294 117.87 117.292 117.403 118.313 116.988C118.021 118.379 117.441 119.693 116.611 120.846C115.781 121.999 114.718 122.965 113.492 123.683L112.243 122.822C110.629 123.36 110.241 124.845 109.445 126.008C108.648 127.17 108.498 128.548 106.539 128.957C106.84 128.246 107.077 127.859 107.206 127.428C107.701 125.965 109.165 125.039 109.079 123.166L109.186 123.123ZM105.096 80.3081C105.656 75.8953 105.936 71.4394 106.345 67.005C106.521 63.2463 107.521 59.5721 109.273 56.242C109.456 56.7083 109.592 57.1913 109.682 57.6843C109.897 60.9993 110.047 64.2927 110.263 67.6077C110.297 68.9447 110.441 70.2766 110.693 71.59C112.358 79.2899 113.266 87.1339 113.405 95.0103C113.35 95.367 113.35 95.73 113.405 96.0866C115.063 100.908 114.288 105.773 113.922 110.681C113.914 112.338 113.578 113.977 112.932 115.503C112.5 116.142 111.986 116.721 111.404 117.225L110.973 116.924C110.973 116.041 111.102 115.18 111.231 114.319C111.554 110.211 111.146 106.079 110.026 102.114C109.574 99.9613 109.725 97.658 109.402 95.4408C108.775 90.7389 108.48 85.9986 108.519 81.2552C108.519 81.1045 108.347 80.9754 108.067 80.5879C107.865 81.0355 107.693 81.4957 107.55 81.9656C106.216 87.304 107.55 92.7286 107.55 98.0024C107.671 101.129 108.097 104.236 108.82 107.28C109.368 109.076 109.368 110.995 108.82 112.791C108.218 110.466 107.701 108.12 106.948 105.838C106.407 104.061 105.685 102.345 104.795 100.715C103.361 98.4101 102.782 95.675 103.159 92.9869C103.676 88.7893 104.558 84.5702 105.096 80.3081ZM93.7092 88.4449C96.4861 93.6327 99.2199 98.8635 102.061 104.051C105.009 108.754 106.381 114.273 105.979 119.808L102.922 122.564C102.405 120.056 101.758 117.578 100.985 115.137C99.8872 112.123 98.4665 109.217 97.1534 106.268C95.7183 102.91 94.2187 99.5667 92.6544 96.2373C92.3077 95.5119 92.1135 94.7231 92.0839 93.9196C92.0543 93.1161 92.1899 92.3151 92.4822 91.5662C92.784 90.4798 92.9999 89.3714 93.128 88.2512C93.3863 88.2512 93.6446 88.2512 93.7092 88.4449ZM91.5566 83.0634C91.9871 84.0536 92.31 84.7855 92.4177 85.0868L90.2651 91.5446C88.7152 89.6934 90.0713 88.4018 90.2651 87.0888C90.2625 85.6273 90.7558 84.2082 91.6642 83.0634H91.5566ZM89.3825 77.4882C89.9422 78.6075 90.5234 79.6408 91.083 80.8678C88.1555 82.1593 89.5977 85.4743 87.5313 87.3255C87.6122 84.0873 88.0088 80.8647 88.7152 77.7034L89.3825 77.4882ZM82.2359 91.3294C80.6425 87.3308 79.6627 83.1143 79.3298 78.8228C79.2007 76.5195 78.5549 74.2377 78.232 71.9345C77.8453 69.7269 77.5865 67.4988 77.4571 65.2614C77.3954 63.5768 77.5914 61.8927 78.0383 60.2674C79.5557 54.3529 80.0076 48.2154 79.3729 42.1425C79.1304 40.1269 79.482 38.0844 80.3846 36.2659L80.9228 36.3735C81.0582 37.2492 81.1086 38.1359 81.0735 39.0212C80.4707 44.5103 82.0206 49.7842 83.2261 54.972C84.4315 60.1597 85.9168 65.735 87.316 71.0949C87.7035 72.5802 88.2416 74.001 88.6937 75.4001C86.5411 77.5527 86.8855 80.3511 85.8092 82.9988C85.0558 82.2669 84.6468 81.7503 84.9266 80.674C85.5078 78.5214 85.8737 76.3688 86.3258 74.2162C86.3503 73.7573 86.3503 73.2975 86.3258 72.8386C85.8953 72.8386 85.5078 72.8386 85.4432 73.0753C83.6996 76.7348 82.0421 80.3511 84.0225 84.5487C85.3428 87.4877 86.9203 90.3042 88.7367 92.9654C90.2775 95.3509 91.5962 97.8729 92.676 100.499C94.8286 105.429 96.9812 110.38 98.897 115.374C99.4868 117.04 99.9898 118.736 100.404 120.454L99.9733 120.82C99.4997 120.583 98.8109 120.476 98.5741 120.088C97.6431 118.549 96.7952 116.961 96.034 115.331C94.4198 112.24 92.4474 109.35 90.1574 106.72C88.7011 104.783 87.4394 102.706 86.3904 100.521C84.8237 97.5721 83.4364 94.5314 82.2359 91.4155V91.3294ZM65.4671 97.7872C63.8527 96.6678 64.6061 95.0103 64.0464 93.2237C66.1775 94.2785 66.2636 94.709 65.4671 97.8302V97.7872ZM96.034 135.393C95.4575 133.338 94.9904 131.255 94.6348 129.151C94.398 129.28 93.8814 129.495 93.0634 129.861C91.1907 127.708 89.2103 125.319 87.316 122.951C85.1634 120.217 83.1615 117.333 80.8582 114.685C77.5156 111.161 73.5441 108.292 69.1481 106.225C62.066 102.372 54.8763 98.7128 47.6221 95.0103C46.4166 94.3861 45.1251 93.9986 43.8765 93.482C37.9865 90.839 32.43 87.508 27.3231 83.5585C27.0931 83.3925 26.9039 83.1764 26.7696 82.9266C26.6354 82.6767 26.5597 82.3997 26.5481 82.1163C28.3994 82.8697 30.2936 83.5585 32.1449 84.2689C39.1793 87.0404 46.4892 89.0537 53.9507 90.2746L55.5436 90.576C58.3205 91.1787 58.2129 91.2002 58.4712 93.9986C58.5788 95.161 58.2344 96.797 60.4516 97.4428C60.4516 95.6346 60.4516 94.0417 60.4516 92.5133C61.5063 92.0182 62.2813 92.3411 62.1091 93.2237C61.4418 96.797 63.8096 98.3899 66.4143 99.9183C70.4733 102.359 74.2931 105.177 77.823 108.335C78.1227 108.533 78.4102 108.748 78.6841 108.981C84.0656 114.857 89.9852 120.26 94.4411 126.933C95.2344 128.144 95.9533 129.402 96.5937 130.7C97.0242 131.54 97.4978 131.755 98.3373 130.916C96.4489 126.031 93.5093 121.622 89.7269 118C87.2729 115.503 84.9481 112.898 82.3865 110.531C79.416 107.84 76.2301 105.343 73.1304 102.781C72.231 102.032 71.2737 101.356 70.2674 100.758C69.3375 100.293 68.6072 99.507 68.2115 98.5455C67.8159 97.584 67.7815 96.5118 68.1148 95.527C70.1223 96.5146 72.0767 97.6067 73.9699 98.7989C76.5961 100.65 79.0931 102.695 81.5686 104.762C82.5232 105.558 83.3762 106.469 84.1086 107.474C84.9697 108.615 86.2612 108.895 87.316 109.626C89.112 110.963 90.7068 112.551 92.0517 114.341C94.5057 117.527 96.7874 120.798 99.0261 124.2C99.4467 125.088 99.7436 126.029 99.9087 126.998C99.0692 127.902 97.9714 128.742 98.9616 130.184C99.9518 131.626 100.576 131.497 101.674 130.593C102.17 130.084 102.617 129.529 103.008 128.935C104.055 127.503 105.294 126.221 106.689 125.125C105.967 126.083 105.42 127.162 105.075 128.311C104.764 130.567 103.702 132.652 102.061 134.231C101.416 134.963 101.05 135.781 102.492 136.383C104.063 134.79 105.635 133.133 107.292 131.561C109.113 129.758 111.024 128.048 113.018 126.438C116.015 124.031 119.141 121.789 122.382 119.722C125.157 118.105 128.033 116.667 130.992 115.417C135.879 113.264 140.83 111.112 145.694 108.852C148.988 107.302 152.152 105.472 155.446 103.814C156.974 103.04 158.567 102.437 160.074 101.662C163.733 99.7891 167.457 100.844 171.16 101.36C172.753 101.576 174.324 102.157 175.659 100.586L177.811 102.523C178.22 102.286 178.629 102.178 178.801 101.92C179.158 101.235 179.718 100.678 180.404 100.323C181.09 99.9686 181.868 99.8347 182.633 99.9398C182.804 99.9729 182.979 99.9729 183.15 99.9398C189.608 97.7872 196.474 97.0338 202.76 94.2139C206.01 92.7501 209.433 91.6092 212.726 90.2531C213.805 89.7438 214.848 89.1612 215.848 88.5095C215.848 88.3373 215.848 88.1435 215.675 87.9498C215.223 87.9498 214.685 87.5839 214.298 87.713C209.002 89.6288 203.535 90.9204 198.498 93.6972C197.275 94.2645 195.977 94.6559 194.645 94.8596C191.215 95.5915 187.792 96.3091 184.377 97.0122C183.882 97.1199 183.365 97.0123 182.525 97.1845L184.958 93.2452C184.807 93.0945 184.678 92.9223 184.527 92.7501C184.014 92.8931 183.527 93.1184 183.085 93.4174C181.923 94.5368 180.933 95.8068 179.749 96.9261C179.017 97.5179 178.24 98.0506 177.424 98.5191C177.424 96.022 180.33 95.4839 179.835 92.9869C179.282 93.1015 178.756 93.3207 178.285 93.6327C177.015 94.8812 175.831 96.2373 174.582 97.5289C173.721 98.433 172.86 99.4447 171.095 98.476L173.829 94.9027C172.989 93.9771 172.387 94.3861 171.849 94.9027C170.856 95.8008 169.948 96.788 169.136 97.8518C168.577 98.6482 168.038 99.0787 167.156 98.8204C163.626 97.7657 160.698 99.294 157.728 100.973C156.393 101.683 155.101 102.437 153.788 103.126L153.422 102.674L158.072 94.2569C160.223 93.5529 162.415 92.9849 164.637 92.5564C170.317 91.5241 176.114 91.2923 181.858 91.8675C185.501 92.3012 189.175 92.402 192.836 92.1689C193.008 92.1896 193.181 92.1896 193.353 92.1689C199.014 90.7267 204.697 89.4351 210.272 87.8637C214.578 86.6152 218.581 85.216 223.188 85.9264C225.9 86.3569 228.677 86.3569 231.583 86.9811C230.961 87.357 230.305 87.674 229.624 87.9283C224.597 89.5616 219.692 91.5469 214.944 93.8695C210.638 95.7637 206.118 97.3997 201.684 99.1218C201.189 99.3371 200.65 99.4447 200.177 99.703C196.115 101.889 191.735 103.422 187.197 104.245C184.046 105.267 180.955 106.467 177.94 107.84C172.344 109.713 166.725 111.585 161.021 113.049C158.362 113.435 155.679 113.637 152.992 113.652C150.839 113.889 148.687 114.448 146.685 114.857L139.603 116.235C133.647 117.602 127.925 119.836 122.619 122.865C118.982 124.799 115.587 127.154 112.501 129.882C110.62 131.369 109.017 133.176 107.766 135.221C107.176 136.197 106.849 137.31 106.819 138.45C106.867 139.423 106.628 140.389 106.13 141.227C102.36 147.461 99.2304 154.06 96.7874 160.923C95.5596 163.892 94.1209 166.77 92.4822 169.533C91.9366 170.662 91.4691 171.827 91.083 173.021C89.6286 177.75 87.673 182.311 85.2495 186.625C84.5207 183.181 85.0556 179.59 86.7563 176.508C87.2952 175.835 87.7707 175.115 88.177 174.355C88.5215 173.516 88.6291 172.633 89.8776 172.633C90.7817 172.633 91.1907 172.009 91.2768 170.997C91.448 169.668 91.7361 168.357 92.1378 167.079C93.085 163.441 94.0536 159.804 94.9792 156.166C94.9792 155.671 94.8501 155.089 94.9792 154.573C94.9265 153.048 95.3476 151.544 96.1847 150.268C96.659 149.414 96.8829 148.444 96.8305 147.469C96.7469 146.172 96.7326 144.872 96.7874 143.573C97.2296 140.841 96.9703 138.041 96.034 135.436V135.393ZM61.8292 152.829C62.9701 158.447 63.9818 164.087 65.0151 169.706C65.0151 170.244 65.0151 170.782 65.2303 171.298L68.9113 187.508C68.9841 187.763 68.9968 188.032 68.9482 188.294C68.8997 188.555 68.7912 188.802 68.6314 189.014C67.3614 185.635 66.1344 182.234 64.8429 178.833C64.1325 177.003 63.3791 175.195 62.5611 173.408C61.3987 170.889 60.1717 168.392 58.9663 165.895C58.7275 165.417 58.6032 164.891 58.6032 164.356C58.6032 163.822 58.7275 163.295 58.9663 162.817C59.5044 161.44 59.8488 159.997 60.3655 158.34C58.2129 158.34 58.5357 160.772 56.706 161.224C56.4477 160.32 55.8019 159.373 55.9742 158.598C56.8998 154.616 58.0191 150.698 59.2031 146.242C60.5172 148.236 61.4107 150.478 61.8292 152.829ZM57.524 139.268L58.2559 139.397C58.9232 144.477 56.1033 148.782 54.8763 153.841C54.3063 153.514 53.8756 152.99 53.6654 152.367C53.4553 151.745 53.4802 151.067 53.7355 150.461C55.027 146.744 56.2899 143.006 57.524 139.246V139.268ZM69.3418 218.182C69.288 217.2 69.288 216.215 69.3418 215.233C69.3558 211.917 68.9581 208.613 68.1579 205.396C67.5396 202.072 66.5876 198.82 65.3164 195.687C63.8957 192.566 62.3459 189.423 60.796 186.496C57.6532 180.878 54.2306 175.41 51.1308 169.749C47.6629 163.457 45.3724 156.585 44.3716 149.471C43.8765 145.833 42.8218 142.303 42.219 138.708C41.358 134.209 40.6477 129.71 39.8081 125.211C38.6512 118.181 36.065 111.463 32.2095 105.472C32.0058 105.037 31.8471 104.583 31.7359 104.116C34.9932 105.438 37.8972 107.502 40.2171 110.143C43.0801 113.824 45.6847 117.72 48.2678 121.595C50.851 125.47 53.2188 129.28 55.6513 133.133C56.197 133.956 56.6654 134.828 57.0505 135.738C57.2374 136.23 57.2374 136.774 57.0505 137.266C55.4575 140.775 53.7355 144.219 52.121 147.792C51.767 147.485 51.523 147.071 51.4258 146.612C51.3287 146.154 51.3838 145.676 51.5829 145.252C52.2286 143.401 52.7883 141.485 53.3049 139.591C53.3937 138.775 53.3937 137.952 53.3049 137.137C51.1523 138.622 51.6474 141.076 49.7101 142.281L47.127 135.824C45.8139 136.835 46.3951 137.976 46.6534 138.687C47.4283 141.184 48.354 143.616 49.258 146.048C50.3774 149.062 51.7335 152.011 52.6161 155.089C54.0462 159.812 55.9351 164.383 58.2559 168.737C61.4202 175.195 63.702 181.803 66.2421 188.433C67.2107 191.016 67.6412 193.793 68.3947 196.484C68.8467 198.206 69.3848 199.906 69.8154 201.65C70.0405 202.509 70.1704 203.389 70.2028 204.276C70.0733 206.305 70.0733 208.34 70.2028 210.368C70.7131 213.917 70.5081 217.533 69.6001 221.002C69.5355 220.055 69.4064 219.108 69.3418 218.161V218.182ZM76.7467 200.445C77.0266 198.055 77.5001 195.687 77.78 193.276C78.2105 189.552 78.5549 185.828 78.9639 182.104C79.0513 181.313 79.1952 180.529 79.3944 179.758C80.3597 175.176 80.323 170.44 79.2868 165.874C79.0371 166.24 78.8548 166.649 78.7486 167.079C78.5334 169.856 78.4042 172.612 78.2535 175.388C78.2535 176.379 78.2536 177.369 78.1029 178.337C77.0696 184.795 75.9503 191.425 74.9816 197.969C74.7233 199.691 74.6157 201.435 74.4435 203.178C74.4435 204.427 74.4435 205.675 74.2928 206.902H73.5609C73.4551 206.264 73.4787 205.612 73.6303 204.983C73.7819 204.354 74.0585 203.763 74.4435 203.243V203.092C74.2712 202.877 73.9484 202.662 73.9699 202.468C74.508 195.601 75.1753 188.756 75.6059 181.889C75.8857 177.864 75.735 173.839 75.9072 169.813C76.0794 166.154 76.4454 162.494 76.7252 158.813C76.8759 156.661 77.0696 154.745 77.1773 152.7C77.371 149.299 77.4571 145.876 77.6508 142.497C77.7252 141.808 78.0284 141.163 78.5119 140.667C79.1361 143.035 79.8034 145.381 80.3846 147.771C81.7623 153.496 83.14 159.222 84.41 164.991C85.4535 168.924 85.3263 173.076 84.044 176.938C82.6879 180.555 82.9677 184.322 82.5157 188.046C82.5157 188.928 82.322 189.811 82.1498 190.693C81.4609 194.482 80.7936 198.271 79.9972 202.038C79.5021 204.405 78.7917 206.73 78.1459 209.249C80.0187 210.39 79.3729 212.004 78.5334 213.554C76.8328 216.589 75.0462 219.603 73.0873 223.004C72.7465 220.238 73.14 217.432 74.2282 214.867C75.1383 212.623 75.7603 210.272 76.0794 207.871C76.4884 205.439 76.4669 202.899 76.7467 200.423V200.445ZM33.501 193.729C33.8108 194.297 34.015 194.917 34.1037 195.558C33.8183 198.591 32.8861 201.527 31.3699 204.169C30.8318 200.509 32.7907 197.366 32.8552 193.836L33.501 193.729ZM31.5852 192.867C30.8318 195.451 30.0353 198.012 29.2389 200.574C29.2389 200.854 28.7868 201.047 28.4209 201.435C28.1841 200.961 27.8612 200.638 27.9043 200.402C28.55 196.893 29.2173 193.427 29.9492 189.639C31.3054 190.5 32.0157 191.404 31.5852 192.803V192.867ZM41.8531 247.027C38.6242 241.775 36.1057 236.07 33.2427 230.559C32.7444 229.316 32.1618 228.108 31.4991 226.943C27.9904 221.949 26.5696 216.051 24.2879 210.519C22.2257 205.769 19.7251 201.221 16.8184 196.936C14.4505 193.104 11.9535 189.423 9.58564 185.57C8.81119 184.197 8.16276 182.756 7.6483 181.265C6.46437 178.079 5.49571 174.807 4.20415 171.664C3.15878 168.179 2.76473 164.53 3.04174 160.901C13.8047 168.414 20.9298 178.574 28.8729 187.83L25.9023 198.034C25.516 196.153 25.6123 194.206 26.1822 192.372C26.3974 190.629 26.6342 188.885 26.8925 187.012C25.7517 186.733 25.4072 187.228 25.2135 188.175C24.8895 190.068 24.3923 191.927 23.7282 193.729C23.1443 191.952 23.1899 190.029 23.8574 188.282C24.2018 187.378 24.3955 186.582 23.0179 185.958C22.4797 187.529 22.0061 188.971 21.3173 191.038C19.2939 188.153 17.744 185.85 16.0004 183.418C14.9887 183.977 15.1393 185.01 15.699 185.936C16.5816 187.378 17.6579 188.691 18.6266 190.091C19.9827 192.071 21.3173 194.094 22.6734 196.075C24.0296 198.055 25.235 199.928 26.6773 201.715C28.1195 203.501 30.2936 205.611 31.9511 207.677C32.7861 208.724 33.4409 209.903 33.8885 211.165C35.6536 215.771 37.3111 220.421 38.9686 225.049C40.2819 228.287 41.0948 231.705 41.3795 235.188C41.7227 237.833 42.5471 240.394 43.812 242.743C45.7708 247.048 47.9665 251.483 50.1406 255.809C51.1682 257.409 51.8975 259.181 52.2932 261.04C48.5477 256.154 44.8022 251.849 41.8531 246.962V247.027ZM60.387 324.305C60.1381 325.058 59.634 325.7 58.9619 326.121C58.2898 326.541 57.4919 326.714 56.706 326.608C56.4044 326.521 56.1255 326.369 55.889 326.162C55.6524 325.956 55.4639 325.7 55.3368 325.413C55.2096 325.125 55.1468 324.814 55.1528 324.5C55.1588 324.186 55.2334 323.877 55.3714 323.595C55.6457 322.926 56.1593 322.383 56.812 322.073C57.4648 321.763 58.2098 321.707 58.9017 321.916C60.1932 322.325 60.7529 323.229 60.387 324.241V324.305ZM61.5063 296.042C60.8821 300.476 60.1717 304.932 59.8273 309.388C59.5905 312.66 59.8273 315.953 59.9565 319.397L55.6513 319.849C55.5533 319.216 55.5101 318.575 55.5221 317.934C55.7804 315.243 56.1679 312.574 56.4262 309.883C57.0289 303.726 57.6317 297.57 58.1268 291.413C58.2559 290.014 57.8039 288.551 57.89 287.108C58.0407 284.396 58.4066 281.684 58.6219 278.95C58.7235 278.08 58.6725 277.198 58.4712 276.345C57.9976 274.645 57.3088 272.966 56.7706 271.287C55.9406 269.301 55.5021 267.174 55.4791 265.023C55.442 263.591 55.1505 262.176 54.618 260.847C54.0065 258.872 53.2879 256.931 52.4654 255.035C51.3891 252.602 50.1406 250.256 48.9352 247.866L45.3403 240.87L47.7512 233.659C45.5986 233.53 45.9646 235.683 44.9098 236.436C43.6182 234.456 43.4891 234.283 44.7806 230.839C45.4695 229.096 45.4479 226.9 47.4929 225.587L46.5458 223.8C43.8981 224.834 44.9313 227.912 43.037 229.505C42.733 229.144 42.526 228.711 42.4356 228.248C42.3452 227.785 42.3744 227.306 42.5204 226.857C43.2308 224.834 44.0488 222.875 44.673 220.851C44.8893 220.304 44.949 219.708 44.8452 219.129C44.6009 218.274 44.2915 217.44 43.9196 216.632C43.0801 219.043 42.2406 221.454 41.4226 223.865L40.6692 223.671C38.7534 220.378 41.4441 217.73 42.2406 214.738C41.8746 214.006 41.2719 214.006 40.8199 214.63C39.9588 215.857 39.2269 217.192 38.2152 218.935C37.0313 215.728 36.0626 212.779 34.8572 209.744C36.4939 207.602 37.3108 204.945 37.1604 202.253C35.0078 201.521 35.7828 203.932 34.6419 204.405C34.4381 202.232 34.7784 200.043 35.6321 198.034C37.3972 198.852 37.6771 200.595 38.1937 201.951C39.7298 206.243 41.6086 210.403 43.812 214.393C44.0306 214.962 44.1823 215.555 44.264 216.159C45.9784 217.72 47.1855 219.759 47.7297 222.014C48.3572 223.963 48.8746 225.947 49.2796 227.955L51.0878 235.123C53.2404 241.172 55.393 247.199 57.2011 253.334C57.6859 255.706 57.9097 258.124 57.8684 260.545C58 265.194 58.6424 269.814 59.7843 274.322C60.021 275.161 60.7099 275.893 60.839 276.733C61.1619 279.144 62.5826 281.598 62.2597 283.793C61.6785 287.819 62.066 291.93 61.5063 295.977V296.042ZM75.0462 258.522C72.2263 262.009 69.5786 265.625 66.8878 269.285C66.2636 270.124 65.747 271.071 64.8859 272.428C64.8066 271.835 64.8066 271.234 64.8859 270.641C65.8816 266.727 67.6773 263.063 70.1598 259.878C71.6147 258.013 72.9382 256.05 74.1206 254.001C78.7017 247.69 83.6921 241.685 89.0596 236.027C89.3018 235.767 89.5607 235.522 89.8345 235.295L90.3727 235.467C90.2965 236.029 90.1741 236.583 90.0067 237.125C88.8874 239.557 87.8541 241.99 86.5626 244.379C86.1568 245.154 85.6581 245.877 85.0773 246.532C81.7192 250.536 78.3181 254.432 75.0462 258.457V258.522ZM86.7133 250.385C85.0986 251.58 83.401 252.659 81.6331 253.614L81.2457 253.119C81.8699 252.559 82.4296 251.956 83.0754 251.44C83.7212 250.923 84.3024 250.858 84.6037 250.385C88.9089 243.281 95.3667 238.029 101.071 232.195C103.826 229.397 106.948 226.965 109.682 224.231C112.415 221.497 115.02 218.699 117.668 215.922C118.83 214.695 120.035 213.468 121.112 212.176C121.563 211.499 121.945 210.777 122.253 210.024C122.532 209.244 122.939 208.517 123.458 207.871C125.361 205.899 126.931 203.63 128.108 201.155C129.421 199.355 130.86 197.65 132.413 196.053C133.573 194.686 134.617 193.224 135.534 191.684C135.903 190.744 135.971 189.714 135.728 188.734C138.986 183.97 142.243 179.227 145.501 174.506L145.953 174.786C144.618 177.39 143.284 179.995 141.927 182.578L132.951 199.799C130.801 203.73 128.224 207.412 125.266 210.777C119.992 216.998 114.762 223.219 109.359 229.333C102.311 236.851 94.7443 243.864 86.7133 250.32V250.385ZM185.733 211.208C185.87 210.778 186.042 210.36 186.249 209.959C187.735 207.807 189.285 205.525 190.705 203.221C191.631 201.715 192.341 200.057 193.159 198.464L194.817 195.408C195.178 194.867 195.508 194.306 195.807 193.729C199.983 184.279 205.106 175.259 208.4 165.422C209.256 163.353 210.241 161.34 211.349 159.395C213.501 155.089 215.374 150.956 217.462 146.802C218.261 145.228 219.283 143.778 220.497 142.497L221.337 142.97C221.122 143.594 220.971 144.219 220.713 144.8C219.005 148.373 217.297 151.961 215.589 155.563C214.513 157.716 213.308 160.04 212.296 162.344C211.026 165.207 209.993 168.177 208.701 170.954C207.001 174.721 205.192 178.424 203.363 182.104C200.909 187.055 198.175 191.899 195.915 196.936C193.728 201.742 190.88 206.22 187.455 210.239C187.243 210.503 186.979 210.719 186.678 210.875C186.378 211.03 186.049 211.122 185.711 211.143L185.733 211.208ZM50.1191 234.047L51.1308 235.058C51.0017 235.381 50.851 235.704 50.4635 236.608C50.1406 235.446 49.9469 234.843 49.7747 234.219L50.1191 234.047Z" fill="#101A24"/>
</svg>
