<svg width="111" height="115" viewBox="0 0 111 115" fill="none" xmlns="http://www.w3.org/2000/svg">
<path fill-rule="evenodd" clip-rule="evenodd" d="M8.3229 79.5396C8.8785 80.5928 9.50596 81.6063 10.2008 82.5732C10.8453 83.5066 11.6898 84.3178 12.2677 85.2957C13.3224 87.1258 14.653 88.7824 16.2124 90.2072C17.857 91.6851 19.2015 93.463 21.2128 94.5631C22.6558 95.3763 23.9733 96.3944 25.1242 97.5855C27.7683 100.008 30.6931 102.104 33.836 103.83C36.3768 105.379 39.0244 106.746 41.7589 107.92C45.637 109.586 49.604 111.031 53.5598 112.509C54.3823 112.736 55.2293 112.863 56.0822 112.887C57.4379 113.02 58.8047 113.098 60.1604 113.231C61.0049 113.32 61.8383 113.509 62.6939 113.565C65.9275 113.809 69.1722 113.953 72.4058 114.242C75.3781 114.469 78.3672 114.301 81.2954 113.742C82.1344 113.584 82.9861 113.502 83.84 113.498C87.486 113.52 91.0977 112.793 94.452 111.364C95.8743 110.787 97.3744 110.42 98.8968 109.964C99.6208 109.808 100.331 109.593 101.019 109.32C103.242 108.209 105.464 107.186 107.52 105.897C108.578 105.424 109.474 104.652 110.098 103.675C110.616 102.476 110.815 101.163 110.675 99.8635C110.692 99.3751 110.601 98.8891 110.409 98.4397C110.217 97.9904 109.929 97.5888 109.564 97.2633C108.896 96.5562 108.265 95.8143 107.675 95.0409C106.431 93.5519 105.286 91.974 103.93 90.5961C101.018 87.7811 98.3696 84.7051 96.0188 81.4065C94.8298 79.6397 93.5963 77.784 92.2296 76.006C90.0072 73.0391 87.6736 70.15 85.429 67.1831C85.1062 66.5813 84.8669 65.9383 84.7178 65.2719C84.1067 65.2719 83.6067 64.8496 83.0288 64.1607C81.2183 62.1398 79.5335 60.0097 77.984 57.7824C75.3282 53.8598 72.428 50.1373 69.5944 46.3148C68.8944 45.348 68.3166 44.3035 67.5943 43.3479C64.6865 39.5847 62.11 35.5768 59.8937 31.3692C59.1603 29.9579 58.2491 28.6356 57.3824 27.2911C56.3823 25.702 55.3377 24.1352 54.3154 22.5573C53.3832 20.984 52.3707 19.4596 51.2819 17.9903C49.0901 15.1945 47.1351 12.2211 45.437 9.10072C43.6813 6.03381 42.1034 2.78911 38.6253 1.18898C38.5198 1.15357 38.427 1.08787 38.3586 1.00008C37.7808 -0.300028 36.6696 -4.32786e-06 35.6917 0.0888916C34.6055 0.190568 33.5372 0.433373 32.5137 0.811171C28.5965 2.12718 24.9353 4.10816 21.6906 6.66719C19.0793 8.78958 16.668 11.112 14.2011 13.4455C12.5479 14.7449 11.0557 16.2371 9.75635 17.8903C7.57627 21.177 5.64838 24.6242 3.98923 28.2022C2.07653 31.9739 0.835651 36.05 0.322269 40.2476C0.107437 42.5293 2.08262e-05 44.811 2.08262e-05 47.0926C-0.0614745 48.6865 0.0278185 50.2826 0.266709 51.8597C0.744524 54.7155 1.44458 57.549 2.03352 60.4048C2.26687 61.516 2.37799 62.7716 2.67801 63.9273C3.1336 65.6385 3.78921 67.2609 4.21147 69.0055C5.14004 72.6737 6.52111 76.2122 8.3229 79.5396ZM19.346 23.4796C19.0646 24.4033 18.8748 25.3524 18.7793 26.3132C18.7446 26.8212 18.5693 27.3095 18.273 27.7236C17.9767 28.1376 17.571 28.4611 17.1014 28.6578C16.6569 28.8912 16.2346 29.169 15.7346 29.469C15.2123 27.8689 16.1346 26.6132 16.4013 25.2687C16.7458 23.7756 17.2065 22.3118 17.7792 20.8905C18.3348 19.4015 18.8904 17.8792 20.5128 17.1791C20.7445 17.11 20.9829 17.0653 21.2239 17.0458C20.5461 19.3349 19.9127 21.4017 19.346 23.4796ZM22.3907 17.5681C22.8352 16.3568 23.3019 15.0679 25.002 14.6678C24.802 15.2568 24.6686 15.779 24.4797 16.1902C23.4908 18.6793 22.4796 21.1572 21.5017 23.6463C21.2944 24.1113 21.1631 24.6065 21.1128 25.1131C21.1128 26.0021 20.5461 26.2243 19.5127 26.4688C19.8683 25.3576 20.1572 24.4575 20.4461 23.5685C21.1128 21.5573 21.6684 19.5349 22.3907 17.5681ZM19.9016 28.58L19.4349 30.2135C18.8904 29.1468 18.8904 29.1468 19.9016 28.58ZM35.4584 92.9296C34.7671 92.7343 34.1347 92.3715 33.6172 91.8734C33.0997 91.3752 32.713 90.7571 32.4915 90.0738C32.2804 90.0738 32.0026 90.2294 31.8692 90.1405C30.7342 89.4618 29.7749 88.5253 29.069 87.4069C29.7135 87.1514 29.9802 87.5069 30.2802 87.8181L32.5026 90.0405L35.4584 92.9296ZM36.9252 96.0298L36.5474 96.8521C36.3362 96.8521 36.214 96.941 36.1251 96.8521C33.1249 95.3854 30.6691 93.1407 28.0467 91.1295C27.9308 90.9867 27.8487 90.8196 27.8064 90.6407C27.764 90.4618 27.7626 90.2756 27.8022 90.096C27.9895 89.5135 28.2352 88.9513 28.5356 88.4181L36.9252 96.0298ZM38.0364 96.5854L46.437 102.386L44.2146 102.908C42.3812 101.641 40.4477 100.352 38.5697 98.9856C37.4808 98.2522 37.4363 97.8633 38.0141 96.5854H38.0364ZM27.5355 88.1403C23.9241 85.2845 21.5462 81.6287 18.8015 78.1951L19.6794 76.206C22.4462 79.8397 24.8909 83.3955 28.3912 86.2068L27.5355 88.1403ZM12.8455 48.6039C13.0677 51.5374 13.2566 54.2265 13.49 56.9156C13.4607 58.0458 13.6223 59.1728 13.9678 60.2492C14.7123 61.8605 13.7233 62.4716 12.7677 63.4273C12.5297 63.0316 12.3465 62.6054 12.2232 62.1605C11.7898 58.7158 11.3787 55.2711 11.012 51.8152C10.951 51.1565 11.0943 50.4949 11.4223 49.9204C11.7503 49.3458 12.2472 48.8862 12.8455 48.6039ZM10.1008 49.3484C10.2231 46.8815 10.2897 44.9036 10.4342 42.8367C10.5786 40.7699 10.812 38.6586 11.012 36.5696C11.018 35.7991 11.2657 35.0501 11.7203 34.428C12.1749 33.8059 12.8133 33.3424 13.5455 33.1026C13.3789 35.0583 13.2455 36.8474 13.0566 38.6586C12.6513 41.1221 12.495 43.62 12.5899 46.1148C12.6293 46.5128 12.5139 46.9108 12.2677 47.226C11.7009 47.8371 11.0342 48.4261 10.1008 49.3484ZM14.9345 62.8605C15.479 64.3495 15.9346 65.6941 16.468 67.0053C17.2014 68.7943 17.8792 70.6167 18.7682 72.328C19.6571 74.0392 18.9682 75.4393 18.0459 77.1728C17.2885 76.1856 16.6263 75.129 16.068 74.017C15.079 71.3501 14.2234 68.6277 13.39 65.9052C13.0677 64.8607 13.3344 64.5718 14.9345 62.8605ZM21.1128 74.8059C22.3129 76.895 23.513 78.9618 24.7131 81.0286L24.4909 81.1842C24.1908 80.762 23.9019 80.3175 23.5686 79.9063C22.6907 78.7952 21.7906 77.6839 20.9017 76.5727C20.2572 75.7393 20.2794 75.6282 21.1128 74.8059ZM17.5903 64.5051C17.9899 67.1106 18.804 69.6353 20.0016 71.9835C20.1905 72.3835 20.6794 72.8391 20.1016 73.4392C19.4682 72.0613 18.7793 70.7723 18.257 69.4166C17.4347 67.2831 16.7458 65.1052 15.968 62.9494C15.8104 62.6118 15.773 62.2305 15.8619 61.8688C15.9509 61.507 16.1608 61.1865 16.4569 60.9604C16.968 62.0982 17.359 63.2862 17.6236 64.5051H17.5903ZM14.879 60.5159C14.6567 58.6269 14.4123 57.0156 14.29 55.3933C14.1234 53.2376 14.0678 51.0707 13.9122 48.915C13.8462 48.1152 14.0047 47.3129 14.3698 46.5984C14.735 45.8838 15.2923 45.2853 15.9791 44.8702C15.9791 46.3926 15.9235 47.726 15.9791 49.0483C16.0569 52.3819 16.1569 55.6266 16.2569 58.9158C16.2791 59.5714 16.3013 59.5714 14.9123 60.5159H14.879ZM15.4457 43.8479C14.8123 44.4702 14.2123 45.1147 13.59 45.7481L13.3344 45.5592C13.3344 44.448 13.3344 43.3368 13.5011 42.2256C13.8345 39.4031 14.3012 36.6029 14.6123 33.7805C14.7036 32.8967 15.0273 32.0528 15.5503 31.3346C16.0734 30.6164 16.7772 30.0494 17.5903 29.6912C17.4125 30.8024 17.2458 31.7914 17.1014 32.747C16.7902 34.7583 16.4458 36.7696 16.1902 38.792C16.1313 39.4737 16.1838 40.1606 16.3458 40.8255C16.4945 41.3567 16.4922 41.9189 16.3391 42.4488C16.186 42.9788 15.8881 43.4556 15.479 43.8257L15.4457 43.8479ZM18.6682 30.7247L19.0904 30.858C18.8126 31.6358 18.5348 32.4137 18.2681 33.1804C18.1489 32.7614 18.1259 32.3209 18.201 31.8918C18.276 31.4627 18.4471 31.0561 18.7015 30.7024L18.6682 30.7247ZM16.0235 22.9463C15.5568 24.9464 15.0679 26.9355 14.5901 28.9356C14.4881 29.6751 14.1797 30.3708 13.7 30.9428C13.2204 31.5149 12.5891 31.9399 11.8787 32.1692C12.1232 30.958 12.2788 29.8579 12.5677 28.8356C13.1677 26.691 13.8122 24.5686 14.4678 22.4462C14.6316 21.9685 14.9017 21.5342 15.2578 21.1762C15.6139 20.8182 16.0467 20.5457 16.5236 20.3794C16.3791 21.2572 16.2458 22.0795 16.0569 22.8907L16.0235 22.9463ZM11.5787 29.3468C11.5192 30.0741 11.419 30.7975 11.2787 31.5136C11.0414 32.4279 10.6668 33.3009 10.1675 34.1027C9.37618 35.1465 8.5305 36.148 7.63396 37.1029C7.28949 36.1473 7.75619 33.1137 8.74516 29.869C9.38497 27.3961 10.7606 25.1758 12.6899 23.5019C12.3232 25.5576 11.9454 27.3911 11.6121 29.2912L11.5787 29.3468ZM8.64515 38.2364C8.8592 37.5887 9.19068 36.986 9.62301 36.4585L10.023 36.5918C10.0008 37.3363 10.0008 38.103 10.0008 38.892C9.78598 41.8552 9.56745 44.8184 9.34521 47.7816C9.34521 48.0149 9.18964 48.2816 9.27853 48.4594C10.2342 50.5818 8.51181 51.6485 7.5784 53.0153L7.2117 52.9264C7.17284 52.3863 7.17284 51.8442 7.2117 51.3041C7.63396 46.8926 8.11178 42.5478 8.67849 38.2141L8.64515 38.2364ZM10.0897 52.293C10.1897 53.4042 10.2897 54.5154 10.3786 55.6266C10.463 58.4204 10.9075 61.1917 11.7009 63.8717C11.757 64.078 11.7711 64.2935 11.7424 64.5053C11.7138 64.7172 11.643 64.9211 11.5343 65.1052C11.012 65.8497 10.6231 66.8942 9.2452 66.6053C8.92295 64.3829 8.57848 62.1605 8.25623 59.9381C8.21063 59.0886 8.11416 58.2425 7.96732 57.4046C7.36727 55.2377 8.36735 53.6931 10.0897 52.293ZM16.7569 77.3617C17.0659 77.7529 17.2265 78.2409 17.2102 78.7392C17.1939 79.2374 17.0019 79.7139 16.668 80.0841C15.7136 79.2035 14.9856 78.1057 14.5456 76.8839C13.7233 74.8059 12.7677 72.7947 11.8787 70.7501C11.6232 70.1722 11.4565 69.5611 11.1787 69.0055C10.6453 67.8943 10.9787 67.1609 12.1121 66.5053C12.4833 67.1671 12.7992 67.8584 13.0566 68.5721C13.8529 71.6746 15.1155 74.6382 16.8014 77.3617H16.7569ZM17.6125 83.6955C18.0459 84.14 18.4348 84.4956 18.7793 84.8845C20.4461 86.8291 22.1129 88.7848 23.7908 90.7183C24.0741 91.0026 24.4206 91.2158 24.802 91.3406C25.3465 91.5517 25.6798 91.3406 25.7021 90.7183C22.7587 88.6565 20.3198 85.9556 18.5682 82.8177C18.4842 82.6696 18.3836 82.5317 18.2681 82.4065C17.2458 81.2953 17.2458 81.0398 18.457 79.6174L26.791 89.1071C26.4688 90.4072 26.1688 91.5962 25.8465 92.9296C25.516 92.7972 25.2027 92.6256 24.9131 92.4184C22.6907 90.3961 20.5572 88.3848 18.4459 86.2957C18.036 86.0187 17.7338 85.6091 17.5902 85.1356C17.4465 84.6621 17.4701 84.1537 17.657 83.6955H17.6125ZM35.0361 101.341C32.8137 100.063 30.6913 98.9079 28.6467 97.5744C28.1529 97.3425 27.7368 96.9725 27.4488 96.509C27.1609 96.0456 27.0135 95.5086 27.0244 94.9631C27.1931 95.1432 27.3751 95.3104 27.5689 95.4631C29.7913 96.9521 32.0137 98.4189 34.2361 99.9079C34.6917 100.208 35.3584 100.408 35.0361 101.341ZM35.3139 99.2968C33.8207 98.7092 32.4091 97.9324 31.1136 96.9855C30.0024 96.3854 29.1357 95.5631 28.1578 94.8964C26.6466 93.7852 26.6355 93.8519 27.3466 91.7962L33.0026 96.1299C33.7249 96.6855 34.4583 97.2411 35.225 97.7411C35.9918 98.2411 35.7918 98.6412 35.3139 99.2968ZM46.5704 106.797C43.5019 105.538 40.5896 103.927 37.8919 101.997C37.3585 101.608 36.7807 101.208 37.0363 100.319C37.1141 100.008 36.7252 99.5746 36.3807 98.8301C37.3919 99.3857 38.0919 99.719 38.7253 100.13C40.6366 101.364 42.5256 102.63 44.4147 103.886C44.9623 104.188 45.4384 104.604 45.8104 105.106C46.1825 105.609 46.4417 106.186 46.5704 106.797ZM56.5712 109.664C54.2377 109.02 51.9264 108.32 49.5928 107.731C49.1456 107.631 48.7288 107.425 48.377 107.131C48.0252 106.838 47.7487 106.464 47.5705 106.042C47.923 106.058 48.2729 106.111 48.615 106.197C50.8374 107.042 53.0598 107.886 55.2822 108.775C55.7377 109.027 56.1659 109.325 56.5601 109.664H56.6156C57.4046 109.253 57.4157 109.253 58.3046 109.831L56.5712 109.664ZM49.6151 105.764C50.5485 105.475 50.5485 105.475 51.6263 106.375L49.6151 105.764ZM53.5043 107.264L53.6821 106.864L57.1045 108.153C55.76 108.364 54.671 107.686 53.5154 107.264H53.5043ZM60.427 110.52L59.5714 110.231L59.7381 109.875L60.527 110.264L60.427 110.52ZM57.0934 107.286L48.7039 103.953C48.3555 103.807 48.066 103.549 47.8816 103.219C48.1666 103.203 48.4523 103.203 48.7372 103.219C51.5263 103.375 53.9821 104.586 56.5156 105.586C57.6091 105.957 58.722 106.269 59.8492 106.52C60.1937 106.631 60.527 106.797 61.1827 107.075C59.5603 107.486 58.3602 107.786 57.0823 107.286H57.0934ZM60.6048 108.975C61.716 108.52 65.8386 109.62 68.761 111.198C67.3218 111.525 65.8241 111.494 64.3998 111.106C62.9756 110.719 61.6685 109.987 60.5937 108.975H60.6048ZM69.4055 110.087L62.2272 107.886C62.0827 107.886 61.9827 107.675 61.8494 107.564C61.9605 106.864 62.305 106.775 62.9606 106.942C64.7607 107.453 66.5942 107.864 68.4054 108.342C69.3833 108.598 70.35 108.898 71.4724 109.22C71.2702 109.571 70.9528 109.841 70.5741 109.985C70.1954 110.129 69.7786 110.137 69.3944 110.009L69.4055 110.087ZM73.8503 111.409C73.7907 111.063 73.6663 110.731 73.4836 110.431C73.2947 110.242 72.8947 110.242 72.3058 110.087C72.7947 109.82 73.0725 109.531 73.3281 109.553C75.6949 109.742 78.0729 109.975 80.4509 110.22C80.5842 110.22 80.7175 110.364 81.0287 110.531C79.5952 111.409 76.9839 111.698 73.8614 111.353L73.8503 111.409ZM82.051 111.064C83.9067 109.553 86.0735 110.431 88.2292 110.231C87.3847 110.875 85.1734 111.209 82.0621 111.009L82.051 111.064ZM103.164 104.397C101.069 105.142 98.8886 105.619 96.6744 105.82C95.8254 105.901 94.9827 106.038 94.1519 106.231C92.374 106.786 90.5405 106.386 88.7404 106.553C87.5532 106.517 86.3654 106.602 85.1957 106.808C84.4572 106.958 83.6932 106.919 82.9733 106.697C81.2732 106.301 79.5286 106.129 77.784 106.186C74.8309 106.234 71.8861 105.86 69.0388 105.075C65.7608 104.331 62.4828 103.642 59.2158 102.853C56.9934 102.341 54.771 101.841 52.5486 101.175C51.3136 100.715 50.1108 100.173 48.9483 99.5523C49.0039 99.0856 49.0595 98.6967 49.1039 98.2856C49.2844 98.2583 49.4679 98.2583 49.6484 98.2856C50.5253 98.5413 51.3862 98.8493 52.2264 99.2079C55.089 100.484 58.0653 101.489 61.116 102.208C62.6717 102.641 64.3162 102.797 65.9164 103.086C67.1498 103.297 68.3943 103.475 69.6055 103.753C75.0716 104.993 80.7119 105.271 86.2735 104.575C88.4959 104.301 90.7591 104.042 93.063 103.797C94.3408 103.664 95.6298 103.519 96.9188 103.442C99.9479 103.106 102.93 102.431 105.808 101.43C106.664 101.197 107.553 100.73 108.353 101.664C106.788 102.828 105.053 103.742 103.208 104.375L103.164 104.397ZM105.564 94.9186C106.097 95.652 106.575 96.4076 106.964 96.9744L106.164 98.6745C105.897 99.2079 105.553 99.4746 104.986 99.019C104.653 98.7634 104.308 98.53 103.964 98.2856C103.797 98.7412 103.642 99.1857 103.464 99.6301C103.414 99.7335 103.359 99.8336 103.297 99.9302C103.184 100.014 103.054 100.075 102.917 100.107C102.78 100.14 102.637 100.145 102.498 100.121C102.359 100.097 102.226 100.045 102.107 99.9684C101.989 99.8917 101.887 99.7917 101.808 99.6746C101.734 99.5453 101.621 99.4426 101.485 99.3811C101.349 99.3196 101.197 99.3023 101.051 99.3318C100.905 99.3613 100.771 99.436 100.67 99.5454C100.569 99.6548 100.504 99.7933 100.486 99.9413C100.446 100.216 100.315 100.468 100.113 100.658C99.9111 100.848 99.6508 100.963 99.3746 100.986L97.5855 99.9413C97.4189 100.364 97.2522 100.786 96.9855 101.43L96.0632 101.686C96.0271 101.448 95.948 101.218 95.8298 101.008C95.6187 100.775 95.2742 100.408 95.0965 100.464C94.9187 100.519 94.3297 100.908 94.3075 101.175C94.2519 101.964 94.0075 102.364 93.4852 102.286L91.8851 100.83L90.7739 102.564L89.896 102.719C87.907 101.808 87.907 101.808 87.8848 102.897C87.5136 102.949 87.1359 102.926 86.7736 102.83C85.2068 101.997 85.2179 101.975 83.8956 102.397C83.5733 101.841 83.14 101.197 82.3621 101.441C82.0621 101.541 81.8954 102.064 81.5509 102.553C80.7064 102.475 79.5286 102.93 78.7396 101.686C78.6285 101.519 78.0951 101.475 77.8284 101.575C77.3874 101.794 76.9703 102.058 76.5839 102.364C76.3394 101.83 76.1172 101.341 75.9172 100.93C74.7171 100.641 74.3281 101.475 73.7948 102.364L72.228 101.175C70.6278 101.664 70.6278 101.664 69.7611 100.497C68.8055 101.508 67.8943 101.186 66.9387 100.63C66.5676 100.432 66.1455 100.351 65.7275 100.397C64.8607 100.497 64.0495 100.564 63.4384 99.7524C63.2445 99.5811 62.9969 99.4828 62.7383 99.4746C62.0827 99.3968 61.416 99.3746 60.7937 99.3301C60.7271 98.819 60.6715 98.4634 60.6048 97.8967C59.8825 98.3522 59.327 98.6856 58.6491 99.0968L57.3935 98.5967L58.5047 96.3743C57.4351 96.7092 56.4576 97.2873 55.6489 98.0633L54.0488 97.4966L54.9155 95.7743L54.6821 95.5631L52.582 96.9633L51.1152 96.4632L51.6486 95.1409C51.3374 95.0742 51.0374 94.9298 50.9485 95.0187C49.6706 96.241 48.7261 95.4076 47.6816 94.6186C47.8149 94.0186 47.9372 93.4519 48.1149 92.6296C47.7794 92.7641 47.4528 92.92 47.1371 93.0963C46.889 93.3025 46.6551 93.5253 46.437 93.763L44.9703 93.0074C44.6258 92.1073 45.837 91.5184 44.9703 90.6739C44.4924 91.0072 44.0035 91.3295 43.4035 91.7851L42.0589 91.0072C42.4478 90.285 42.7701 89.6516 43.1701 88.9959C42.1256 88.2292 41.9589 89.6071 41.1588 89.6182C39.5698 89.1626 40.8255 87.8514 40.5477 86.8624L38.8253 87.5625C38.392 85.8846 36.6029 85.6068 35.7029 84.4067C35.0695 83.6066 34.5139 83.051 35.2695 82.0843C35.3362 81.9954 35.2695 81.7732 35.1695 81.462L33.5805 81.762C32.0692 80.862 33.2471 79.6285 33.2804 78.4285L31.3914 79.3063C29.469 78.0951 31.1136 76.7172 31.2692 75.4282C30.2469 74.8615 30.058 76.1616 29.0468 76.1616C28.6612 75.5973 28.3895 74.9632 28.2467 74.2948C28.2467 73.6614 28.8023 73.0391 29.2801 72.0724L27.4578 72.4502C26.1354 70.55 26.1354 70.55 27.4578 68.3276C26.691 67.1387 26.1354 68.6388 25.4576 68.4943C24.0353 67.3831 25.891 66.8053 25.8354 65.683H24.3131C23.6352 64.7274 23.3352 63.7717 24.5798 62.8494C23.9797 62.6716 23.4019 62.6716 23.1352 62.3827C22.8881 61.9928 22.7184 61.5589 22.6352 61.1049C22.7352 60.0937 24.1242 59.9936 23.8686 58.7713L22.224 58.8936C21.7129 57.2823 24.1797 57.4823 23.9908 55.8822L22.224 56.2045C21.7573 55.2599 22.3685 54.7155 23.013 54.2265C23.4501 53.952 23.8729 53.6553 24.2797 53.3376C24.4575 53.1598 24.402 52.7486 24.4464 52.4375C24.1797 52.4375 23.8797 52.2486 23.6575 52.3264C23.166 52.5526 22.6908 52.8125 22.2351 53.1042C22.0994 52.5058 22.164 51.8794 22.419 51.3213C22.6739 50.7632 23.1052 50.3042 23.6463 50.0151C24.3908 49.4706 24.402 49.4817 24.5131 48.4705L22.7352 48.8817C22.1462 46.9482 24.6131 46.9148 24.8242 45.348L23.3352 44.9925C22.913 43.1368 25.2242 43.0812 25.5576 41.7255C24.8131 41.2366 24.8131 41.2366 22.8241 42.1589C23.1019 40.681 24.9353 40.6143 25.3243 39.1253L23.6019 38.9586C24.1797 37.4141 25.502 36.7362 26.7799 35.9584C26.4355 35.0583 25.8132 35.2139 25.2242 35.4473C24.6353 35.6806 24.1686 35.9584 23.6686 35.2584C24.4686 33.7249 26.3132 33.1804 27.4133 31.9248L27.1133 31.4469L24.8909 31.8692C24.8909 29.8468 27.4911 29.969 27.8689 28.1022L26.2021 28.2578C26.0132 26.291 28.1911 26.1354 29.2468 24.3908L27.6689 24.2353C27.6689 24.113 27.6022 23.9575 27.6689 23.9019C27.9753 23.6226 28.2144 23.2776 28.3684 22.8927C28.5224 22.5078 28.5871 22.093 28.5578 21.6795C28.5578 20.935 29.2357 20.146 29.669 19.3904C31.3729 16.0939 33.073 12.7566 34.7694 9.37852C35.3695 8.26732 35.9918 7.05611 36.7363 5.63378C36.9585 7.42281 36.014 8.60068 35.6251 9.91189C34.7806 13.0455 33.4805 16.0679 32.8471 19.2349C31.8137 24.3686 30.0469 29.3468 29.7135 34.6472C29.3634 37.8024 29.3188 40.9841 29.5801 44.1479C29.8231 46.5846 29.9159 49.0338 29.8579 51.4819C30.0022 54.7327 30.5777 57.95 31.5692 61.0493C32.0581 62.8161 32.5693 64.5718 33.1804 66.283C33.7916 67.9943 34.5028 69.6166 35.1361 71.2279C35.3806 71.8835 35.514 72.5835 35.7584 73.4503C37.4585 73.8948 37.5586 75.9171 38.5364 77.2506C39.1253 78.0506 39.4698 79.0618 40.1254 79.7952C41.87 81.9054 43.8879 83.7738 46.1259 85.3512C46.6593 85.6957 47.2371 85.9179 47.2371 86.6847C48.3483 87.118 48.4816 88.9071 50.0484 88.7515C50.3296 88.7877 50.5891 88.9214 50.7818 89.1293C53.51 91.2826 56.5582 92.996 59.8159 94.2075C61.4049 94.852 62.9606 95.5742 64.5496 96.1854C65.3849 96.3701 66.2086 96.6039 67.0164 96.8855C68.5175 97.4811 70.097 97.8554 71.7057 97.9967C74.455 98.4866 77.2497 98.6729 80.0397 98.5523C82.9382 98.5637 85.8352 98.419 88.7182 98.1189C91.5295 97.7633 94.4075 97.6744 97.1077 96.5188C99.1412 95.652 101.286 95.0409 103.375 94.2964C104.542 93.8519 104.886 93.9297 105.564 94.9186ZM102.908 92.3962L103.275 92.3073L103.542 93.1407C103.407 93.174 103.269 93.1963 103.13 93.2074C103.051 92.9412 102.988 92.6703 102.942 92.3962H102.908ZM90.685 77.0283C91.2295 77.7728 90.8517 78.1395 90.0405 78.3173C90.0405 77.7951 90.0405 77.3617 90.0405 76.7283C90.385 76.8728 90.6405 76.895 90.7406 77.0283H90.685ZM81.1287 65.0718C81.1287 65.0718 81.1287 65.3385 81.1287 65.6274C80.9037 65.565 80.6899 65.4675 80.4953 65.3385C80.4953 65.3385 80.562 65.0496 80.6064 64.894C80.8062 64.9267 81.0006 64.9865 81.1842 65.0718H81.1287ZM57.3712 31.1136C59.2714 33.9582 61.1493 36.8251 62.9272 39.7254C63.8273 41.1699 64.6163 42.7034 65.4274 44.1702C67.2165 47.5038 69.8722 50.1262 72.1946 52.9931C73.7837 54.9377 75.2838 56.949 76.7839 58.9491C77.5506 59.9603 78.2507 61.0048 79.0063 62.0383C79.3123 62.3802 79.5197 62.7988 79.6063 63.2495C79.606 63.4767 79.5573 63.7012 79.4634 63.9082C79.3695 64.1151 79.2326 64.2997 79.0619 64.4496C78.9342 64.5103 78.794 64.54 78.6526 64.5364C78.5113 64.5328 78.3728 64.496 78.2483 64.4289C78.1239 64.3618 78.017 64.2663 77.9363 64.1502C77.8556 64.0341 77.8034 63.9007 77.784 63.7606C77.6931 63.3819 77.5743 63.0105 77.4284 62.6494L76.0061 63.1272L74.4504 61.5493C74.1157 61.5991 73.7775 61.6214 73.4392 61.616C72.328 61.5382 72.1169 61.1604 72.2613 59.9714C72.27 59.7494 72.2399 59.5275 72.1724 59.3158C72.1724 59.2158 72.0168 59.1603 71.8279 58.9825C71.539 59.1158 71.2057 59.3047 70.8612 59.4269C70.2056 59.6381 69.65 59.238 69.8611 58.638C70.0722 58.0379 70.2278 57.5268 69.6278 57.3379C69.2166 57.1934 68.661 57.4935 67.9499 57.649C67.6605 57.5132 67.4345 57.2713 67.3186 56.9734C67.2028 56.6755 67.206 56.3445 67.3276 56.0489C67.5276 55.3599 67.0831 55.071 66.2942 55.2044C65.183 55.3933 64.9052 55.071 65.183 53.9376C65.4608 52.8042 65.3163 52.7153 64.1496 52.8264C63.7077 52.8188 63.268 52.7629 62.8383 52.6597C63.1976 52.169 63.5207 51.6528 63.8051 51.1152C63.8516 50.9635 63.8617 50.8029 63.8347 50.6466C63.8077 50.4902 63.7442 50.3424 63.6495 50.2151C63.4939 50.0817 63.0384 50.2151 62.7717 50.2818C62.4413 50.5056 62.0583 50.6396 61.6605 50.6707C61.8915 50.316 62.0958 49.9446 62.2716 49.5595C62.5383 48.9039 62.1605 48.4483 61.4493 48.5261C60.9826 48.5927 60.5048 49.1039 60.0937 48.2149C60.2807 47.9977 60.4411 47.759 60.5715 47.5038C60.6933 47.1428 60.7789 46.7705 60.8271 46.3926C60.4623 46.3001 60.0907 46.2369 59.7159 46.2037C59.527 46.2037 59.327 46.3592 59.1714 46.437C58.0602 45.6147 58.3713 44.7369 59.1714 43.6257L57.1712 43.3257C56.9601 42.859 56.6934 42.3034 56.4489 41.77C56.4489 41.0033 57.8157 40.7255 57.1712 39.8476C56.9379 39.5254 56.3378 39.4809 55.7489 39.2476C54.7155 37.503 54.7155 37.503 56.0378 36.0584C55.8156 34.825 54.8377 35.6473 54.3377 35.2584C53.8932 33.9916 55.6155 33.7027 55.5155 32.3581L53.8154 31.9136C52.9709 30.7247 54.9266 30.1357 54.6933 28.9801C54.1488 28.48 52.9376 28.68 53.0376 27.5689C53.0376 27.1688 53.5043 26.8021 53.9043 26.2021C55.1822 28.0356 56.3267 29.5135 57.3712 31.1136ZM52.3597 24.2241C52.5486 24.5353 52.7931 24.9575 52.7153 25.2464C52.532 25.7026 52.2769 26.1265 51.9597 26.5021L51.5708 26.4021C51.4606 25.9314 51.3937 25.4516 51.3708 24.9686C51.4083 24.6575 51.5492 24.368 51.7708 24.1464C51.8632 24.1011 51.9653 24.0794 52.0681 24.0833C52.1708 24.0872 52.271 24.1165 52.3597 24.1686V24.2241ZM51.0041 28.5134C51.2708 29.769 51.6375 30.9247 50.3707 32.0914C50.7556 32.0964 51.1244 32.247 51.4028 32.513C51.6811 32.779 51.8484 33.1405 51.8708 33.5249C52.0819 34.7028 52.4264 35.8584 52.5597 37.0474C52.5375 37.5919 52.4249 38.1289 52.2264 38.6364C52.7512 39.5981 53.2043 40.5972 53.5821 41.6255C54.6597 45.0746 56.3705 48.2927 58.6269 51.1152C59.9159 52.8486 61.016 54.7488 62.4272 56.3934C64.51 59.0368 67.0413 61.2936 69.9056 63.0606C72.0088 64.2075 74.1713 65.2423 76.3839 66.1608C77.9001 66.8693 79.611 67.0455 81.2398 66.6609C81.683 66.5469 82.1515 66.5833 82.5718 66.7643C82.9921 66.9453 83.3404 67.2607 83.5622 67.6609C85.529 70.3167 87.5403 72.928 89.6738 75.7282L88.1292 75.8616C88.996 78.2951 88.8071 78.9063 86.9402 79.2618C86.9402 78.2951 86.9403 77.3617 86.9958 76.395C85.8846 75.9171 85.4068 76.6505 84.8401 77.2172C86.0402 79.3063 85.7735 80.1064 83.8511 80.273C83.94 79.3285 84.0178 78.384 84.0956 77.4617C82.7844 77.1506 82.6844 77.1839 82.5621 78.0618C82.5663 78.5728 82.5179 79.0829 82.4177 79.5841C82.2843 79.9619 81.8621 80.2397 81.3065 80.862C80.8509 79.6174 80.5286 78.7618 80.1953 77.6951C79.3841 77.2728 78.9952 77.9617 78.6507 78.8063L77.1172 78.4507C77.1172 77.9506 77.1172 77.495 77.1728 77.0506C77.1923 76.9358 77.1849 76.818 77.1513 76.7065C77.1178 76.595 77.0589 76.4928 76.9793 76.4078C76.8997 76.3228 76.8015 76.2574 76.6924 76.2166C76.5834 76.1758 76.4664 76.1608 76.3505 76.1727C75.8505 76.1727 75.4616 76.4061 75.5838 77.0395C75.5716 77.2324 75.5342 77.4229 75.4727 77.6062L74.4837 77.0506C74.2281 76.3283 75.1838 75.5949 74.2726 75.0948C73.3614 74.5948 73.2725 75.6282 72.8391 75.8616C71.1057 75.4838 72.6058 73.4392 70.9945 72.9725L70.1278 74.0837C69.7944 73.8614 69.2055 73.6836 69.1166 73.3614C69.0269 73.0415 68.835 72.7597 68.5701 72.5591C68.3053 72.3584 67.9821 72.25 67.6498 72.2502C67.2746 72.1414 66.9314 71.9431 66.6497 71.6724C66.572 70.6945 66.7609 69.6166 66.4053 69.3944C66.0497 69.1722 64.9607 69.3166 63.8495 69.3166C63.6308 68.9733 63.4659 68.5986 63.3606 68.2054C63.205 67.2831 62.9606 66.7053 61.8271 66.9164C61.1827 67.0275 60.816 66.7053 60.8493 65.9163C60.8493 64.3495 60.7493 64.2607 59.2825 64.7385C58.2824 63.9829 59.0269 63.2161 59.3936 62.405L58.2824 61.4493L57.549 62.6272C57.3916 62.6313 57.2357 62.5955 57.0958 62.5232C56.9559 62.4508 56.8366 62.3443 56.7489 62.2134C56.6613 62.0825 56.6082 61.9316 56.5946 61.7747C56.5811 61.6178 56.6074 61.46 56.6712 61.316C57.0157 60.6493 57.2823 60.0825 56.4378 59.4381C56.0822 59.6825 55.6822 59.9381 55.2044 60.2381C55.0377 59.9381 54.7155 59.627 54.7488 59.3825C54.8039 59.0487 54.7608 58.706 54.6247 58.3963C54.4886 58.0865 54.2653 57.823 53.9821 57.6379C53.3376 57.0934 53.4598 56.4489 53.9821 55.8155C54.2893 55.4056 54.5677 54.9749 54.8155 54.5266C55.0599 54.0376 54.9377 53.6376 54.271 53.4153L52.8709 54.8932C52.2486 54.0487 51.7597 53.382 52.0708 52.3375C52.382 51.293 52.3153 51.2263 51.1485 50.804C50.978 50.6893 50.8335 50.5399 50.7244 50.3657C50.6153 50.1915 50.544 49.9964 50.5151 49.7928C50.4596 49.515 50.7596 49.1817 50.8818 48.8594C51.2708 47.9149 51.0152 47.6038 49.9151 47.6482H49.3928C49.2827 47.4398 49.1862 47.2246 49.1039 47.0037C48.9928 46.6815 48.915 46.3481 48.7928 45.8925C49.0691 45.634 49.3084 45.3386 49.5039 45.0147C49.659 44.6873 49.679 44.3121 49.5595 43.9702C49.2484 43.4479 48.8928 43.859 48.5705 44.0813C48.4559 44.127 48.3367 44.1605 48.215 44.1813C47.7371 43.6924 47.4149 43.1812 48.0149 42.5812C48.4372 42.1589 48.6928 41.6477 48.2038 41.2699C47.9038 41.0366 47.3149 41.1699 46.6482 41.1366C46.1592 40.4921 46.1926 39.8254 47.0815 39.1698C47.2324 39.0293 47.3489 38.856 47.4221 38.6634C47.4953 38.4707 47.5233 38.2638 47.5038 38.0586C47.326 37.503 46.8037 37.4696 46.2259 37.6697C45.6481 37.8697 45.6036 37.8141 44.6258 37.1585L47.0149 35.3361C46.2148 33.3693 45.2703 35.625 44.3924 35.0139C44.2873 34.8382 44.2233 34.641 44.2053 34.437C44.1873 34.2331 44.2157 34.0277 44.2884 33.8363C44.3611 33.6449 44.4762 33.4725 44.6251 33.3319C44.774 33.1914 44.9528 33.0864 45.148 33.0248C45.2925 32.9471 45.5036 32.8804 45.5703 32.7582C45.737 32.4248 46.0037 32.0136 45.9148 31.747C45.737 31.2025 45.2592 31.2247 44.8036 31.4914C44.5813 31.6247 44.3258 31.7136 44.048 31.847C43.3146 29.8913 45.6147 30.0802 45.8481 28.5134L45.2369 27.5911L43.759 28.7023C43.4813 28.1022 43.3035 27.6577 43.948 27.3244C44.4035 27.091 44.8703 26.8799 45.3258 26.6354C46.1037 26.2021 46.1037 26.2021 46.437 25.0687C45.0592 23.7352 44.6813 26.1132 43.5368 25.8243C43.3368 24.8131 43.4479 23.9908 44.648 23.5352C45.234 23.2754 45.7599 22.897 46.1926 22.424C46.4037 22.224 46.337 21.7351 46.3926 21.3795C46.037 21.3795 45.637 21.1795 45.2814 21.2906C44.8032 21.5078 44.352 21.78 43.9368 22.1017C43.3701 21.135 43.5257 20.5683 44.4591 20.1349C45.1308 19.813 45.7582 19.4059 46.3259 18.9237C46.5704 18.7237 46.5926 18.2681 46.7148 17.9236C46.3481 17.8681 45.937 17.6792 45.6036 17.8014C44.9643 18.1168 44.3544 18.4887 43.7813 18.9126C43.7813 18.1792 43.7813 17.657 43.7813 17.2569L46.8815 15.2012L51.0596 21.8684C49.6817 24.0797 50.5374 26.3243 51.0041 28.5134ZM43.9257 15.4679C43.9257 14.5678 43.9257 14.0789 43.9924 13.49C44.7369 13.3566 45.4481 12.8455 46.2148 13.8678L43.9257 15.4679ZM41.5367 6.5783C42.4589 7.76728 43.2034 8.80069 44.0035 9.78966C42.07 13.0677 42.4589 16.668 42.2256 20.2016C42.0589 23.3341 42.0923 26.4741 42.3256 29.6023C42.6211 34.9766 43.7456 40.2729 45.6592 45.3036C45.7853 45.7899 45.8818 46.2835 45.9481 46.7815C45.9887 47.1081 46.1283 47.4144 46.3481 47.6593C46.7982 48.0459 47.1623 48.5225 47.4169 49.0584C47.6714 49.5943 47.8108 50.1776 47.826 50.7707C47.8702 51.1092 47.9756 51.4368 48.1372 51.7374C49.5817 54.571 50.9818 57.449 52.582 60.227C53.2714 61.2781 54.0603 62.2605 54.9377 63.1606C55.9267 64.2718 56.9823 65.383 57.938 66.6275C58.2742 67.1832 58.5534 67.7714 58.7714 68.3832C59.3659 68.4448 59.9313 68.6723 60.4028 69.0397C60.8743 69.4071 61.2331 69.8997 61.4382 70.4612C61.616 70.8723 62.2272 71.0834 62.5494 71.4501C65.6719 74.6726 69.4833 77.0061 73.1614 79.473C74.7157 80.5632 76.4696 81.3363 78.3229 81.7481C80.1762 82.16 82.0925 82.2025 83.9622 81.8732C86.8249 81.485 89.5204 80.2989 91.7406 78.4507C93.6519 80.6064 95.0742 83.0177 96.8299 85.329C96.2521 85.7735 95.8743 85.9624 95.6076 85.329C95.3409 84.6956 95.0187 84.0733 94.1075 84.4067C94.0408 85.0401 93.9853 85.6401 93.9297 86.2291L93.5963 86.2957C93.3408 85.5624 93.4741 84.5845 92.2296 84.6067C91.7406 85.7179 92.1296 87.6625 89.9405 87.1847C89.3516 86.7291 89.9405 85.1068 88.2626 85.6068C88.2626 86.2402 88.2626 86.8513 88.2626 87.5625L86.7847 87.7847C86.318 87.3292 86.7847 86.318 85.9068 86.2846C84.6734 86.2846 85.2401 87.5625 84.5512 88.1514L82.3288 88.2737C82.3288 87.7181 82.3288 87.2291 82.3288 86.7402C82.3288 86.2513 82.0732 85.8179 81.5287 85.8401C80.9842 85.8624 80.8175 86.2846 80.9064 86.818C80.9023 87.0802 80.8688 87.3411 80.8064 87.5958L79.1507 87.3736C79.0709 87.2544 79.0109 87.123 78.973 86.9847C78.9063 86.4291 79.0285 85.6735 78.284 85.5957C77.3395 85.5068 77.6284 86.4402 77.3951 87.1514L75.8727 86.6735C75.406 86.118 76.2505 85.0068 75.1504 84.9734C74.7059 84.9734 74.2504 85.5623 73.6836 85.9624C73.637 85.7243 73.611 85.4826 73.6059 85.2401C73.6059 84.7401 73.6059 84.3067 73.0392 84.1289C72.4724 83.9511 72.2057 84.34 72.0168 84.8178C71.9145 85.0105 71.7994 85.1961 71.6724 85.3734L69.7611 84.5845C69.8945 84.1956 70.1167 83.8622 70.0611 83.5955C69.9799 83.2314 69.7608 82.9128 69.45 82.7066C69.2982 82.6744 69.1406 82.6821 68.9927 82.7289C68.8447 82.7756 68.7113 82.8598 68.6055 82.9733C68.2388 83.9178 67.7498 83.3955 67.1609 83.1066C67.0609 82.5288 67.9387 81.5287 66.5609 81.2176L65.5941 82.3288C63.8495 81.7176 65.3385 80.4175 64.8163 79.4174L63.7829 79.0952C63.5717 79.8286 63.3939 80.4731 63.1939 81.1953L61.5049 80.4731C61.6494 80.0286 61.7383 79.6508 61.8827 79.2952C62.0272 78.9396 62.2272 78.184 61.6271 77.9729C61.0271 77.7617 60.5159 77.9729 60.4381 78.7396C60.3647 79.003 60.2524 79.2539 60.1048 79.4841C59.4603 78.5173 60.3826 77.7173 60.0492 76.9172C58.8269 76.2172 58.8602 77.7617 58.1157 78.0284C57.3379 77.4395 56.7156 76.8505 57.349 75.806C57.4455 75.6626 57.4814 75.4869 57.449 75.3171C57.3707 75.0134 57.1998 74.7415 56.9601 74.5393C56.8156 74.4504 56.3823 74.6059 56.2378 74.7837C55.9835 75.1318 55.7639 75.504 55.5822 75.8949C54.7044 75.8949 54.5932 75.4838 54.8488 74.7837C55.3714 73.8764 55.658 72.8525 55.6822 71.8057C54.871 71.4946 54.3599 71.6946 54.1488 72.5391C54.0154 73.0725 53.8932 73.6503 53.7376 74.2503C52.782 73.7503 52.1042 73.3391 52.5597 72.3391C52.8042 71.7946 53.1376 71.2279 52.5597 70.8056C52.2042 70.5723 51.5374 70.8056 50.8485 70.8056C50.9374 70.2834 51.0374 69.6944 51.1263 69.1055C51.0041 68.9499 50.9485 68.8166 50.8707 68.7832C49.015 68.2943 49.015 68.3054 50.0151 66.7053C50.1399 66.4787 50.2513 66.245 50.3485 66.0052C49.5817 64.894 49.0484 66.2275 48.2483 66.0052C48.3705 65.6719 48.5039 65.3941 48.5817 65.1163C48.6594 64.8385 48.7039 64.5273 48.7706 64.2273L47.5149 64.0606L47.0037 62.9494L48.1149 61.5382L47.9372 61.1937L46.2037 61.4271C45.8481 60.8382 45.737 60.3159 46.4148 59.8159C46.826 59.5269 47.0926 59.1825 46.6482 58.5935L45.2925 58.9269C44.2702 58.3269 45.2925 57.5823 45.1147 56.849C44.5813 56.6712 43.559 56.6712 43.6146 55.56C43.9924 55.1377 44.3702 54.7043 44.7258 54.2821L44.5369 53.9376L42.8256 54.0487L42.3256 53.1264L43.7146 51.4819C43.7146 51.3485 43.6035 51.2263 43.5368 51.0929L42.0034 51.1152C41.2922 50.004 41.2922 50.004 42.1367 49.0928C42.5367 48.6928 42.5367 48.6928 42.3589 47.7371L40.8477 48.0816C40.681 47.6704 40.5255 47.2593 40.3588 46.7926L42.6479 44.648C42.5819 44.5253 42.5226 44.3992 42.4701 44.2702L40.581 44.5146C39.8587 43.3368 39.8699 43.259 40.7588 42.6145C41.1922 42.3145 41.6033 41.9922 42.1478 41.5811C41.7777 41.3927 41.3703 41.289 40.9552 41.2774C40.5401 41.2659 40.1276 41.3468 39.7476 41.5144L39.192 40.0921L40.9255 38.7031C40.2365 37.7474 39.4698 38.5253 38.7031 38.3808L37.7475 37.2696L40.7144 35.7028C39.7587 34.6694 38.8475 35.5473 37.8364 35.6139C37.7363 35.1917 37.6363 34.7805 37.5363 34.3916C38.1697 33.936 38.7809 33.5138 39.3809 33.1026L39.2476 32.7248L37.2474 32.5248L40.0476 30.0246C39.1365 28.9134 38.4364 30.1579 37.603 30.1357C37.514 29.9918 37.459 29.8294 37.4422 29.661C37.4254 29.4926 37.4474 29.3226 37.5063 29.164C37.5653 29.0053 37.6597 28.8622 37.7824 28.7456C37.9051 28.629 38.0527 28.542 38.2142 28.4911C38.4827 28.392 38.7312 28.2452 38.9476 28.0578C39.1148 27.7833 39.2455 27.4882 39.3365 27.1799C38.999 27.0687 38.6535 26.9832 38.3031 26.9244C38.09 26.9567 37.8857 27.0323 37.703 27.1466C36.7918 25.4798 38.4809 25.1575 39.2254 24.1908L37.6808 23.5685C37.1585 22.0129 39.1587 22.5573 39.3254 21.4017L37.9364 20.7461C37.5474 18.8237 39.392 19.2904 40.281 18.6793C40.0254 17.4569 38.9364 18.0459 38.2475 17.6347C38.2475 17.2421 38.292 16.8087 38.3808 16.3346L40.9588 15.1456L38.892 14.6012C38.6586 13.7011 39.1142 13.3233 39.9254 13.0233C40.5032 12.8121 41.37 12.8455 41.4811 11.7009L39.5254 11.512C39.0365 9.74521 41.1811 10.5231 41.4589 9.28962L40.3477 8.57845C40.6366 8.04508 41.0366 7.4117 41.5367 6.58941V6.5783ZM38.8031 5.15596C39.0364 4.66703 39.3476 4.22255 39.981 4.66703C40.6144 5.11151 40.481 5.53377 39.981 5.9338C39.2714 6.60848 38.8161 7.50721 38.692 8.47845C37.4899 13.2936 36.7165 18.2058 36.3807 23.1574C36.0081 28.502 36.2205 33.8713 37.0141 39.1698C37.7252 43.0812 38.292 47.026 39.2365 50.904C39.9145 53.3158 40.7307 55.6866 41.6811 58.0046C41.7662 58.1555 41.8333 58.3159 41.8811 58.4824C42.3812 61.6716 44.3258 64.2273 45.5814 67.0831C45.8037 67.5831 45.8926 68.1943 46.0815 68.6499C46.2005 68.9493 46.3494 69.2359 46.5259 69.5055C47.1371 70.4611 47.726 71.4279 48.3927 72.3391C48.7751 72.8234 49.203 73.2699 49.6706 73.6725C51.893 75.8949 54.1154 78.1173 56.5045 80.1508C57.7975 81.1753 59.1941 82.0617 60.6715 82.7955C63.8162 84.5067 66.9942 86.1957 70.1945 87.807C73.5003 89.4235 77.1858 90.1038 80.8509 89.7738C84.7067 89.4738 88.5515 88.8404 92.374 88.2292C93.5948 87.9259 94.7879 87.5208 95.941 87.018C97.4744 86.4846 97.4744 86.5735 98.5412 87.7625C99.4412 88.7737 100.53 89.6182 101.53 90.5516C101.732 90.7624 101.922 90.985 102.097 91.2183L100.908 92.0295C101.118 92.6498 101.264 93.2904 101.341 93.9408C101.341 94.1186 100.641 94.2853 100.23 94.4631C99.1968 91.9962 99.1968 91.9962 97.8633 92.4296C98.13 93.1741 98.3967 93.9408 98.719 94.8631L97.0855 95.3409C96.1521 94.652 96.8855 92.7074 94.8631 93.1185C95.0409 94.0408 95.1965 94.8964 95.3854 95.9298L93.5408 96.041C93.4728 95.4329 93.3576 94.831 93.1963 94.2408C93.1074 94.0075 92.6185 93.663 92.474 93.7297C92.3296 93.7963 91.8184 94.2408 91.8184 94.5186C91.8585 95.1224 91.9704 95.7193 92.1518 96.2965L90.5961 96.5188C90.5443 96.0493 90.4399 95.5871 90.285 95.1409C90.1627 94.8964 89.7071 94.5853 89.5293 94.652C89.2055 94.8106 88.9521 95.0838 88.8182 95.4187C88.7182 95.6965 88.8182 96.0632 88.9182 96.6521L86.3291 96.5299C86.2304 96.0103 86.0967 95.498 85.9291 94.9964C85.8506 94.8893 85.7509 94.7995 85.6362 94.7326C85.5215 94.6656 85.3942 94.6231 85.2623 94.6075C85.129 94.6075 84.8623 94.852 84.8179 95.0409C84.6957 95.5719 84.6066 96.11 84.5512 96.6521H82.1732C81.9176 95.9965 81.7176 95.5409 81.5176 94.9409C81.1792 94.863 80.8241 94.9087 80.5164 95.0697C80.2087 95.2306 79.9687 95.4963 79.8397 95.8187C79.3952 96.5743 78.6285 96.541 78.3285 95.8187C78.1173 95.2742 78.0618 94.5408 77.3173 94.7075C76.7764 94.9487 76.3115 95.3329 75.9727 95.8187C75.206 96.0187 74.4948 96.0521 74.1948 94.9742C74.0503 94.4631 73.4392 94.4853 73.0836 94.852C72.728 95.2187 72.728 95.6409 72.0613 95.5298C71.3946 95.4187 71.1279 94.9853 70.8834 94.4186C70.8167 94.2742 70.6612 94.1741 70.4834 94.0075C69.5944 94.3297 68.7055 95.1187 67.8499 94.4075C67.5943 93.563 67.5609 92.674 67.2276 92.5407C66.2942 92.174 66.2831 93.2407 65.9275 93.6519C64.594 93.963 65.0385 92.5962 64.5496 92.174L62.2272 92.2295C62.0049 91.4406 62.0272 90.6294 61.6716 90.3961C60.816 89.8516 60.6715 90.9739 60.2492 91.285C59.0158 91.285 59.138 90.0738 58.3713 89.596L56.1489 89.996C55.8933 89.1293 56.7156 88.2737 55.7489 87.7736C55.2266 88.0181 54.5266 88.5848 54.2377 88.4181C53.9487 88.2514 53.6932 87.4292 53.4154 86.818L51.6152 87.018C51.5263 86.0513 52.5597 84.8845 50.8707 84.5178L49.7595 85.9068C49.0484 84.6845 50.7485 84.2622 50.1707 83.0733C49.7663 83.3115 49.3931 83.5989 49.0595 83.9289C48.4372 84.6956 47.9483 84.4734 47.226 83.7511L48.5705 81.4287C47.3816 81.1175 47.0371 82.2288 46.1815 82.7843L44.7147 81.4509C45.2703 80.7175 45.7481 80.1064 46.3037 79.3952C44.9814 78.8729 44.4702 80.1286 43.5701 80.4175C43.4079 80.3617 43.2618 80.2668 43.145 80.1412C43.0281 80.0155 42.944 79.8631 42.9 79.6972C42.8561 79.5313 42.8537 79.3572 42.893 79.1902C42.9324 79.0231 43.0123 78.8684 43.1257 78.7396C43.4813 78.1618 43.9702 77.6284 44.3702 77.1172C44.5796 76.8018 44.7653 76.4712 44.9258 76.1283C43.1257 76.1283 42.7034 77.595 41.5922 78.3507C40.9033 78.1284 40.6588 77.6951 41.1366 76.9839C41.4345 76.629 41.7127 76.258 41.97 75.8727C42.0747 75.5421 42.1272 75.1972 42.1256 74.8504C41.7678 74.8492 41.4131 74.9171 41.0811 75.0504C40.6733 75.3814 40.3009 75.7538 39.9699 76.1616C39.0698 75.3171 38.9587 75.906 41.2589 72.3169C40.4366 71.8279 40.4366 71.8279 38.7031 73.3169C36.9474 71.7168 39.092 70.8167 39.4476 69.4944C38.2364 68.8944 37.9586 70.2834 37.0363 70.5056C36.2585 68.9277 38.0253 68.2832 38.3142 67.0831C37.9697 66.5608 37.4919 66.572 36.9807 67.0275C36.6918 67.2942 36.4585 67.6276 36.1584 67.8943C35.6806 68.3165 35.3362 68.0721 35.0472 67.472C35.325 67.0164 35.6473 66.4942 35.9807 65.983C36.314 65.4719 36.5918 65.1385 36.8918 64.7051C35.6362 63.894 35.325 65.4163 34.4805 65.3385C33.9138 64.7162 34.4028 64.2273 34.7028 63.8162C35.1253 63.2785 35.5185 62.7183 35.8806 62.1383C36.0251 61.8716 35.8806 61.4604 35.8806 60.7604L33.6249 62.4494C32.7582 61.6938 33.2582 61.0048 33.7138 60.3381C34.1694 59.6714 34.825 58.8047 35.3917 57.9824C33.7694 57.049 33.7027 59.0047 32.736 59.0158C31.847 57.4046 31.847 57.2157 32.8804 56.0156C33.4027 55.4044 33.9916 54.9044 34.5361 54.2821C34.8695 53.9265 35.3584 53.5598 34.7361 52.9264C33.5471 53.1709 32.8582 54.2376 31.8581 54.8932C31.715 54.7488 31.6054 54.5747 31.5369 54.3833C31.4684 54.1918 31.4428 53.9877 31.4619 53.7853C31.481 53.5829 31.5443 53.3871 31.6473 53.2118C31.7503 53.0365 31.8906 52.886 32.0581 52.7709C33.0138 51.8041 33.9805 50.8263 34.9139 49.8373C35.0925 49.5408 35.2343 49.2236 35.3362 48.8928C33.3249 48.6928 32.9137 50.8263 31.3136 51.1152C31.115 50.7655 31.0495 50.3559 31.1292 49.9618C31.2088 49.5677 31.4282 49.2156 31.747 48.9706C32.5363 48.166 33.2784 47.3164 33.9694 46.4259C34.1346 46.115 34.2544 45.7819 34.325 45.4369C32.7582 45.2703 32.2137 46.5481 31.1692 47.2037C30.6913 46.237 30.6358 45.5036 31.5692 44.8036C32.3301 44.1481 33.0465 43.4428 33.7138 42.6923C33.3138 41.6922 32.8471 42.1367 32.3693 42.47C31.8914 42.8034 31.4359 43.059 30.6802 43.5812C31.1136 41.5033 32.9026 40.6032 33.5694 38.9364C32.0692 38.4919 31.8692 40.1476 30.7691 40.281C30.5938 39.9019 30.5747 39.4689 30.7161 39.0759C30.8575 38.6828 31.148 38.3613 31.5247 38.1808C32.138 37.7113 32.7037 37.1828 33.2138 36.6029C31.9803 35.1028 31.6803 36.8918 30.9358 37.0029C30.2802 35.6806 31.7025 35.2472 32.047 34.3138L30.9914 34.0805C31.158 32.2581 33.7138 32.1137 33.9027 29.9357L31.547 31.358C31.1803 29.1356 33.5027 28.4578 33.9472 26.6354L32.4804 26.6688C32.247 24.8242 34.2027 24.4464 35.0139 22.8129L33.5916 22.6018C33.3249 21.435 33.9694 20.6239 34.9361 19.8682C33.8249 18.3459 34.625 17.2458 35.5806 16.3457C35.4766 15.6719 35.4766 14.9861 35.5806 14.3122C36.2362 12.0898 37.003 9.86745 37.803 7.64505C38.0891 6.79715 38.423 5.96612 38.8031 5.15596ZM34.8472 4.04476C35.1859 3.62678 35.5575 3.23661 35.9584 2.878L36.2696 3.08913C35.9473 3.70029 35.614 4.30034 35.325 4.93372C35.0361 5.5671 34.8695 6.22271 34.5694 6.83387C32.1248 11.6009 29.6357 16.3457 27.2133 21.1239C26.1192 23.4211 25.27 25.8272 24.6798 28.3022C24.6798 28.5245 24.6798 28.8134 24.5353 28.9579C23.1241 30.4913 23.7352 32.5804 23.0241 34.3249C22.3868 36.1878 21.8489 38.0832 21.4128 40.0032L22.2796 39.5142C22.2796 39.6031 22.424 39.7365 22.4018 39.7809C21.9267 40.4863 21.7108 41.3345 21.7906 42.1811C21.7906 42.1811 21.7906 42.3145 21.7906 42.3478C20.6794 43.7035 21.235 45.3925 20.9461 46.9037C19.7458 52.3921 19.7193 58.0723 20.8683 63.5717C21.367 65.9681 22.1117 68.3066 23.0907 70.55L23.2463 70.4834L23.1574 70.7056C23.4574 71.3168 23.7797 71.9279 24.1353 72.528C25.8021 75.2504 27.6355 77.884 29.3468 80.5842C30.654 82.6736 32.2771 84.5478 34.1583 86.1402C34.6973 86.7253 35.2019 87.3412 35.6695 87.9848C38.0395 90.6884 40.8042 93.0186 43.8702 94.8964C45.3925 95.7854 46.8037 96.8632 48.315 97.93L47.826 99.119C47.6185 99.1165 47.4124 99.0828 47.2149 99.019C44.3147 97.6744 41.4589 96.2743 39.4365 93.6074C39.3365 93.4741 39.2587 93.2963 39.1253 93.2185C35.9918 91.6184 33.6249 89.1071 31.2581 86.5513C30.7523 85.8 30.3312 84.995 30.0024 84.1511C28.8912 84.24 28.6356 82.8621 27.8578 82.1065C27.1809 81.4102 26.5913 80.6341 26.1021 79.7952C24.7353 77.5061 23.4241 75.1726 22.1684 73.0058L23.1352 70.6167L23.0685 70.4612L21.5573 71.0279C21.4456 70.9171 21.3519 70.7897 21.2795 70.6501C20.1602 67.9022 19.4128 65.0172 19.0571 62.0716C18.6941 58.901 18.3904 55.7303 18.1459 52.5597C18.1487 51.6085 18.2118 50.6583 18.3348 49.7151C18.4015 48.6039 18.3348 47.4927 18.4682 46.4592C18.8015 43.4146 19.0571 40.3476 19.5794 37.3363C20.0279 35.5083 20.5959 33.7118 21.2795 31.9581C21.8018 30.3246 22.2462 28.6245 22.8241 27.0688C23.5463 25.0353 24.502 23.0796 25.102 21.0128C25.9286 18.6495 26.9974 16.378 28.2912 14.2345C29.343 12.0303 30.6322 9.94741 32.1359 8.02285C33.1804 6.81165 33.9249 5.36709 34.8472 4.06699V4.04476ZM31.4359 4.04476L31.8248 4.25589C30.6099 6.07085 29.4283 7.8784 28.28 9.67854C28.7912 7.46726 29.4913 5.38931 31.4359 4.06699V4.04476ZM25.8799 12.3565C25.56 12.8053 25.1432 13.1762 24.6603 13.4416C24.1775 13.7071 23.641 13.8604 23.0907 13.89C24.6686 11.2564 25.3131 8.33399 27.9467 6.61163C27.3794 8.57122 26.7005 10.4967 25.9132 12.3788L25.8799 12.3565ZM20.5128 11.3565C21.624 10.6008 22.6574 9.90078 24.0464 8.96737C23.9349 9.49457 23.7902 10.0142 23.613 10.5231C23.1241 11.6343 22.5018 12.6454 22.1129 13.7789C21.9442 14.2941 21.6691 14.7681 21.3054 15.1701C20.9416 15.5721 20.4974 15.8932 20.0016 16.1124L17.457 17.2903C18.2126 15.479 18.8126 13.9567 19.5016 12.4899C19.7533 12.0394 20.112 11.6578 20.5461 11.3787L20.5128 11.3565ZM17.4903 14.0567C17.0155 15.6059 16.4629 17.1301 15.8346 18.6237C15.5568 19.1904 14.7234 19.5127 14.0234 20.0571C14.1676 18.8744 14.5526 17.7338 15.1546 16.7056C15.7566 15.6774 16.5628 14.7835 17.5236 14.0789L17.4903 14.0567ZM13.6344 17.7792C13.6813 19.1201 13.221 20.4295 12.3454 21.4461C10.5231 23.613 8.58959 25.6798 6.88946 27.9467C6.73966 28.0923 6.56698 28.2125 6.3783 28.3022C8.19381 24.4148 10.6463 20.8581 13.6344 17.7792ZM6.56721 31.4247C6.85612 30.8358 6.92279 30.1246 7.15614 29.4912C7.32536 29.1767 7.53452 28.8854 7.77842 28.6245L7.96732 28.8134C7.51173 31.7803 7.12281 34.7583 6.57832 37.703C6.27622 38.6049 5.86578 39.4668 5.356 40.2699C5.14093 40.0329 4.9862 39.7476 4.90495 39.438C4.8237 39.1285 4.81833 38.804 4.8893 38.4919C5.05923 36.0604 5.62603 33.6731 6.56721 31.4247ZM2.48911 42.4811C2.89607 41.1131 3.03566 39.6795 2.90025 38.2586C2.90076 36.2434 3.47504 34.27 4.55594 32.5692C4.43371 33.6804 4.35592 34.5138 4.27814 35.2917C4.04479 37.4363 3.80032 39.5809 3.57808 41.7366C3.594 42.0157 3.57533 42.2956 3.52252 42.57C3.25583 43.259 2.91136 43.9035 2.60023 44.5702L2.22242 44.448C2.25853 43.7863 2.34771 43.1286 2.48911 42.4811ZM2.28909 45.1591C2.77802 45.3147 3.02248 45.3258 3.07804 45.4258C3.42537 47.9241 3.39165 50.4605 2.97803 52.9486C2.76691 50.4262 2.13352 47.9371 2.28909 45.1591ZM4.34481 55.9267C4.34481 52.6486 3.967 49.3595 4.90041 46.1037C5.12265 45.3592 4.60039 44.448 4.44482 43.3368L7.01169 39.792C7.01169 40.4477 7.07836 40.7143 7.01169 40.9699C6.78204 44.4591 6.53758 47.9371 6.2783 51.4041C6.21788 51.7981 6.21788 52.199 6.2783 52.5931C6.8339 54.4154 6.02272 55.9267 4.78929 57.4712C4.57522 56.9777 4.42582 56.4585 4.34481 55.9267ZM3.10027 56.0489H3.51141C3.72254 57.1601 4.77818 58.1935 3.51141 59.4492L3.10027 56.0489ZM6.66722 66.4164C6.35608 65.383 6.05606 64.3384 5.80048 63.2828C5.356 61.4604 4.95597 59.6158 6.28941 57.949C6.42911 57.7851 6.58553 57.6361 6.75611 57.5046C6.88522 57.8192 6.99289 58.1422 7.07836 58.4713C7.65618 61.8049 7.91176 65.2607 8.98962 68.5388C9.15828 68.9542 9.19106 69.4123 9.08326 69.8475C8.97546 70.2827 8.73263 70.6725 8.38958 70.9612C7.22282 69.5611 7.06725 67.9387 6.66722 66.4164ZM14.6456 83.34L14.9901 83.1288C14.8367 82.7902 14.6584 82.4633 14.4567 82.151C12.9783 80.25 11.7946 78.1373 10.9453 75.8838C10.3777 74.3997 9.90272 72.8819 9.523 71.339C9.42299 70.939 9.74524 70.4389 9.87858 70.0056C10.812 70.1056 10.9898 70.6945 11.1898 71.1945C12.0899 73.2391 12.9344 75.306 13.8678 77.3284C14.5345 78.784 15.3012 80.1841 16.0346 81.6065C16.2884 81.9806 16.4798 82.3934 16.6013 82.8288C16.6013 83.1399 16.3124 83.4844 15.9902 84.1289C16.2021 84.6936 16.5063 85.2193 16.8902 85.6846C19.6349 88.3959 22.4462 91.0294 25.2242 93.7408C25.5881 94.1876 25.8907 94.6808 26.1243 95.2076L25.7132 95.452C22.4351 92.2184 19.1682 88.9626 15.8457 85.7624C12.958 82.9865 10.6535 79.662 9.06741 75.9838C8.85717 75.3413 8.82643 74.6535 8.97851 73.9948C10.5786 77.2728 11.8565 80.7731 14.6456 83.34ZM6.66722 70.7945C7.42283 71.7501 8.88962 72.4724 7.77842 74.2948C7.37838 72.9836 7.04502 71.8835 6.66722 70.7945Z" fill="#101A24"/>
</svg>
