<svg width="94" height="144" viewBox="0 0 94 144" fill="none" xmlns="http://www.w3.org/2000/svg">
<g opacity="0.2" clip-path="url(#clip0_1_127)">
<path d="M93.4537 70.6689C93.0371 69.0835 92.0882 68.748 90.8269 69.7431C90.64 69.8686 90.4724 70.0206 90.3293 70.1944C88.5588 72.6824 86.0825 74.5339 84.3583 77.1375C82.6341 79.7412 80.8867 81.9166 79.2783 84.393C78.6765 85.284 78.1211 86.2214 77.5078 87.0892C76.1076 89.0217 74.719 90.9542 73.2494 92.8751C72.0922 94.391 70.7036 95.7796 69.477 97.2608C68.2504 98.742 67.1626 100.281 66.0054 101.693C64.1308 103.81 62.1636 105.859 60.2195 107.93C59.6641 108.52 59.1549 109.157 58.5532 109.689C55.4983 112.339 52.4086 114.954 49.2958 117.592C48.3932 118.356 47.5253 119.155 46.6343 119.907C46.6777 119.394 46.8575 118.903 47.155 118.483C48.046 117.13 48.9718 115.787 49.8628 114.445C51.2051 112.431 52.5706 110.441 53.8666 108.404C55.1627 106.368 56.3546 104.539 57.4192 102.503C58.9351 99.633 60.2543 96.7169 61.7007 93.7662C62.9042 91.6533 63.9002 89.4289 64.6747 87.1239C65.0279 86.0549 65.4532 85.0111 65.9476 83.9996C67.0236 81.8777 67.9554 79.6856 68.7364 77.4384C69.4307 74.8347 70.368 72.2889 71.1664 69.7084C72.0459 66.8733 72.9832 64.0498 73.7122 61.18C74.6496 57.5118 75.3786 53.7972 76.2349 50.1174C76.4891 48.6938 76.4891 47.2363 76.2349 45.8127C76.2383 45.4734 76.1435 45.1404 75.962 44.8537C75.7804 44.5671 75.5198 44.3391 75.2115 44.1972C74.9033 44.0553 74.5606 44.0056 74.2248 44.0541C73.889 44.1025 73.5743 44.2471 73.3188 44.4704C72.3269 45.1599 71.4518 46.0037 70.7267 46.9699C69.9445 48.2428 69.2375 49.5604 68.6091 50.9158C67.3309 53.24 66.2881 55.6861 65.4963 58.2176C64.9987 59.8955 64.4895 61.585 63.9109 63.2398C63.3324 64.8946 62.7538 66.179 62.2446 67.6602C61.7354 69.1414 61.3073 70.854 60.775 72.4278C59.7142 75.0523 58.8781 77.7621 58.2755 80.528C58.168 80.9922 58.0288 81.4484 57.8589 81.8935C57.3903 83.3401 57.0039 84.8121 56.7017 86.3024C56.2198 89.0169 55.4437 91.6709 54.3874 94.2174C53.4501 96.6012 52.3739 98.9272 51.3671 101.276C50.3604 103.625 49.5735 105.697 48.5899 107.872C47.7683 109.712 46.7731 111.483 45.94 113.334C45.2576 114.949 44.4287 116.499 43.4636 117.963C42.7924 118.969 42.3064 120.069 41.6584 121.122C41.3018 121.931 40.8173 122.677 40.2235 123.332C40.0353 123.181 39.9034 122.971 39.8488 122.736C39.7942 122.501 39.8202 122.254 39.9226 122.036C40.1078 121.284 40.3161 120.543 40.4665 119.803C40.8021 118.067 41.0104 116.331 41.4501 114.618C42.1791 111.83 43.047 109.087 43.8455 106.31C45.2802 101.987 46.1931 97.5076 46.5648 92.9677C46.6537 90.4905 47.3533 88.0737 48.6015 85.9321C49.7587 83.8607 51.0084 81.8241 52.1887 79.7527C52.3854 79.4287 52.6516 78.908 52.5243 78.6765C52.2119 78.098 52.5243 77.7277 52.7442 77.2995C53.6583 75.4133 54.6535 73.5618 55.4983 71.6409C56.343 69.72 57.0142 67.7991 57.8126 65.855C58.3449 64.5243 58.9698 63.2167 59.4442 61.8743C60.3353 59.4211 61.2031 56.9679 62.0132 54.4915C62.9505 51.6796 63.8762 48.8561 64.6978 46.0094C65.4616 43.4173 66.0633 40.779 66.7807 38.1753C67.3246 36.2313 67.9379 34.3103 68.5165 32.3894C69.0951 30.4685 69.5811 28.5707 70.044 26.6035C70.7602 24.2373 71.3131 21.8247 71.6987 19.3827C72.0112 16.3857 72.7171 13.4349 73.1337 10.4378C73.4577 8.1234 73.6544 5.69333 73.7817 3.30954C73.821 2.64384 73.6329 1.98454 73.2481 1.43991C72.8632 0.895279 72.3046 0.497695 71.664 0.312452C71.0593 0.00141079 70.3667 -0.0947124 69.7001 0.0398705C69.0335 0.174453 68.4325 0.53174 67.9958 1.05305C67.8453 1.22662 67.6949 1.38863 67.5561 1.5622C66.2251 3.16131 65.187 4.98291 64.4895 6.94308C63.7489 9.25744 63.2051 11.5718 62.638 13.9903C62.071 16.4088 61.6776 18.619 61.1684 20.8639C60.7056 22.9237 60.1964 24.9719 59.7335 27.0317C59.5021 28.0732 59.3517 29.1262 59.1318 30.1792C58.6342 32.563 58.1019 34.9352 57.639 37.319C57.2456 39.3556 56.9563 41.4038 56.5744 43.452C56.0074 46.5417 55.2668 49.6198 54.8387 52.7095C54.4784 56.2888 53.8674 59.8385 53.0103 63.3324C52.3276 65.7509 51.9573 68.2735 51.3671 70.5879C50.9871 72.1557 50.5196 73.701 49.9669 75.2166C49.2611 77.1144 48.4048 78.9427 47.6526 80.8405C47.2949 81.669 47.2217 82.5927 47.4443 83.4673C47.7952 82.9566 48.0901 82.4095 48.3237 81.8356C48.8561 80.6785 48.9139 79.4287 50.1521 78.6418C50.7957 78.1364 51.288 77.4639 51.5754 76.6978C52.6056 74.2613 53.464 71.7556 54.1444 69.1993C54.804 66.9659 55.3941 64.6978 56.019 62.4529C56.109 62.1038 56.229 61.7631 56.3777 61.4346C57.1067 59.803 57.153 57.9631 58.044 56.3777C58.2755 55.9843 58.044 55.3594 58.2292 54.9197C58.8151 53.2685 59.2527 51.5685 59.5368 49.8397C60.3005 45.8937 61.1684 41.9593 61.9669 38.0133C62.3256 36.2544 62.638 34.4723 62.9273 32.6903C62.9639 31.5057 63.1865 30.3342 63.5869 29.2188C63.8562 28.6175 64.073 27.9942 64.2349 27.3557C64.2815 27.1861 64.3049 27.0109 64.3044 26.835C64.3895 25.452 64.5634 24.076 64.8251 22.7154C65.3209 21.0412 65.7074 19.3366 65.9823 17.6123C66.1869 16.4344 66.4809 15.2739 66.8617 14.1407C66.9363 14.8255 66.9324 15.5166 66.8502 16.2005C66.3642 19.186 65.8666 22.1484 65.3458 25.1223C65.0218 27.0317 64.7325 28.941 64.3391 30.8388C64.0151 32.32 63.4828 33.7665 63.1819 35.2592C62.4066 39.3325 61.5619 43.3595 61.0527 47.5022C60.6072 50.1024 60.0004 52.6725 59.2359 55.1974C58.7036 57.3729 58.0209 59.5137 57.4655 61.6776C56.7552 64.8399 55.7797 67.9366 54.5494 70.935C53.7625 72.6939 52.9872 74.4066 52.235 76.2118C51.0778 78.7691 49.8628 81.3381 48.5899 83.8491C48.2428 84.5203 48.0923 85.527 46.8426 85.689C46.9583 84.2542 46.9814 82.9118 47.1781 81.5811C47.5253 79.3709 48.0576 77.1838 48.3353 74.962C48.613 72.7402 48.8213 70.3333 48.9602 68.0189C49.0643 66.26 48.9602 64.5474 49.0528 62.7422C49.1916 58.7731 49.3884 54.804 49.5272 50.8464C49.5966 48.8214 49.6661 46.7847 49.5272 44.7597C49.3884 40.8484 49.0528 36.9371 48.9718 33.0259C48.9139 30.4107 49.1685 27.807 49.2842 25.1918C49.3884 22.808 49.4809 20.4126 49.5851 18.0288C49.5851 17.9016 49.5851 17.7627 49.5851 17.6238C49.5851 16.7791 49.5851 15.9344 49.5851 15.0896C49.6139 14.7315 49.6139 14.3716 49.5851 14.0134C49.3074 11.8727 49.0412 9.73188 48.6593 7.61424C48.4878 6.91576 48.1854 6.25611 47.7683 5.67019C47.3854 5.17577 46.8451 4.82705 46.2368 4.68183C45.6286 4.53661 44.989 4.60361 44.4241 4.87173C43.6903 5.22121 42.996 5.64792 42.3527 6.14463C41.7433 6.60404 41.2482 7.19808 40.9062 7.8804C40.1192 9.89685 39.6885 12.0347 39.6333 14.1986C39.6333 15.3558 39.6333 16.5129 39.6333 17.6701C39.6333 19.5448 39.4829 21.431 39.4945 23.3056C39.4945 26.8581 39.6333 30.4107 39.7259 33.9632C39.7259 35.942 39.7259 37.9323 39.9342 39.8995C40.1888 42.4106 40.5938 44.8985 41.0104 47.3865C41.8088 52.2582 42.6651 57.1299 43.452 62.0016C43.8159 63.3841 43.8751 64.8292 43.6256 66.2369C43.5002 65.7219 43.4037 65.2004 43.3363 64.6747C43.0702 63.1704 42.8966 61.6429 42.5147 60.1733C41.9708 58.0788 41.2534 56.0306 40.6401 53.9592C40.0268 51.8879 39.5639 49.967 38.9275 47.9998C37.886 44.8291 36.7288 41.7047 35.6874 38.5456C34.8311 35.942 34.0326 33.3036 33.2804 30.6652C32.4164 27.6489 31.5948 24.617 30.8156 21.5698C30.435 19.489 29.674 17.4962 28.5707 15.6913C28.4187 15.4688 28.3161 15.2163 28.2699 14.9508C28.1242 14.2864 27.8437 13.6591 27.4455 13.1077C27.0474 12.5563 26.5403 12.0926 25.9555 11.7454C25.4364 11.2182 24.7337 10.9118 23.9942 10.8902C23.2546 10.8687 22.5353 11.1336 21.9864 11.6297C20.8475 12.4292 20.0278 13.6055 19.672 14.9508C19.0807 16.6608 18.9451 18.4954 19.2786 20.2738C19.753 22.5881 20.2159 24.9025 20.6903 27.2747C20.7544 27.4468 20.8399 27.6101 20.9449 27.7607C21.8475 29.5775 22.7617 31.3827 23.6411 33.211C25.0066 36.0461 26.3374 38.9043 27.6797 41.751C29.2419 45.13 30.8967 48.3816 32.401 51.749C33.5582 54.4684 34.5418 57.2803 35.5948 60.0576C36.266 61.8628 36.8214 63.7142 37.6314 65.45C38.5312 67.2537 39.2633 69.1362 39.8185 71.0739C40.3855 73.2841 41.1377 75.4712 41.5427 77.7045C42.0287 80.447 42.2486 83.2358 42.5494 86.0131C42.6776 86.7792 42.6776 87.5613 42.5494 88.3274C41.958 90.9918 41.5942 93.7016 41.4617 96.4277C41.4617 97.1451 41.2765 97.851 41.184 98.5684C41.0451 99.6446 40.8715 100.709 40.8021 101.785C40.6473 104.616 40.2053 107.423 39.4829 110.163C39.1126 111.564 38.6497 112.929 38.3257 114.329C38.2114 115.398 38.0415 116.46 37.8166 117.511C37.3446 118.792 37.079 120.14 37.0297 121.504C37.0297 121.504 36.9255 121.504 36.833 121.596C36.914 120.578 37.0065 119.594 37.0528 118.611C37.2033 115.672 37.3537 112.744 37.4694 109.816C37.5851 107.07 37.6661 104.323 37.7124 101.577C37.7488 100.418 37.7063 99.2585 37.5851 98.1056C37.3734 95.1499 36.987 92.2094 36.428 89.2994C35.9767 87.3322 35.6642 85.3188 35.1435 83.3747C34.2525 80.0189 33.2457 76.6978 32.2853 73.3535C31.7182 71.3748 31.1281 69.3844 30.5726 67.4056C29.5775 64.0382 28.6054 60.6709 27.564 57.3266C27.247 56.2517 26.8286 55.2094 26.3142 54.2138C26.1875 53.9257 26.0004 53.6682 25.7656 53.4587C25.5308 53.2491 25.2537 53.0924 24.9531 52.9992C24.6525 52.9059 24.3354 52.8783 24.0233 52.9182C23.7111 52.958 23.4111 53.0644 23.1436 53.2302C22.5622 53.5788 22.0721 54.0607 21.714 54.6362C21.3558 55.2117 21.1398 55.8642 21.0838 56.5397C20.5516 59.4841 20.4658 62.4917 20.8292 65.4616C21.0259 68.0537 21.5119 70.6342 21.917 73.2031C22.4145 76.1283 23.1894 78.9995 24.2313 81.7778C25.0876 84.0921 25.9324 86.5106 26.6498 88.906C27.483 91.6601 28.2583 94.4373 28.9642 97.2261C29.9478 101.323 30.8272 105.454 31.7414 109.562L31.5447 109.666C31.4416 109.518 31.3562 109.359 31.2901 109.191C31.2031 108.937 31.1297 108.678 31.0702 108.416C29.6245 102.696 27.2602 97.2479 24.0693 92.285C22.1561 89.5077 20.2275 86.7382 18.2834 83.9764C17.566 82.9465 16.7675 81.9745 15.9691 80.9793C14.349 78.8848 12.7405 76.7672 11.0858 74.7074C9.67401 72.9485 8.22754 71.2359 6.76949 69.5233C5.54288 68.0884 4.3047 66.6535 3.00866 65.288C2.58214 64.8882 2.07234 64.5878 1.5159 64.4085C0.879454 64.1771 0.555444 64.4085 0.289294 65.0797C0.0545032 65.6181 -0.0666809 66.1992 -0.0666809 66.7865C-0.0666809 67.3739 0.0545032 67.955 0.289294 68.4934C1.58533 71.5599 2.83509 74.6496 4.31627 77.6235C5.54602 80.0177 6.91779 82.3362 8.42426 84.5666C9.78973 86.6264 11.3982 88.5241 12.8562 90.5145C14.4532 92.7015 16.0385 94.8886 17.5544 97.122C18.7116 98.8693 19.8687 100.593 20.9218 102.491C22.079 104.609 23.1204 106.831 24.3933 108.937C25.9239 111.685 27.2393 114.548 28.3277 117.5C29.8104 121.454 30.9222 125.537 31.6488 129.697C32.0731 131.372 31.9181 133.142 31.2091 134.719C30.8156 135.529 30.5148 136.385 30.2023 137.218C29.7629 138.264 29.7115 139.432 30.0573 140.512C30.4032 141.592 31.1236 142.513 32.0885 143.108C32.321 143.301 32.5979 143.432 32.8941 143.49C33.1903 143.548 33.4963 143.53 33.7841 143.439C34.0719 143.348 34.3323 143.187 34.5414 142.969C34.7506 142.752 34.9019 142.485 34.9815 142.194C35.4095 141.406 35.568 140.5 35.4328 139.614C35.3982 139.258 35.4539 138.9 35.5948 138.572C35.8957 137.484 36.2081 136.408 36.509 135.32C37.1121 132.54 38.5113 129.995 40.5359 127.995C41.0104 127.567 41.4733 127.151 41.9708 126.757C43.2669 125.727 44.5514 124.663 45.9168 123.725C47.5137 122.649 49.2032 121.724 50.8233 120.682C53.207 119.143 55.5561 117.558 57.9283 115.996C61.6681 113.789 65.1396 111.156 68.2735 108.15C70.2176 106.102 72.2542 104.123 74.1983 102.075C75.934 100.246 77.6698 98.3833 79.313 96.5087C80.9562 94.634 82.5647 93.0371 83.9417 91.1046C85.3187 89.1722 86.6495 87.0892 87.9224 85.0295C89.9335 81.6205 91.6784 78.0612 93.1413 74.3834C93.6523 73.2136 93.7622 71.9076 93.4537 70.6689Z" fill="white"/>
<path d="M93.4537 70.6689C93.0371 69.0835 92.0882 68.748 90.8269 69.7431C90.64 69.8686 90.4724 70.0206 90.3293 70.1944C88.5588 72.6824 86.0825 74.5339 84.3583 77.1375C82.6341 79.7412 80.8867 81.9166 79.2783 84.393C78.6765 85.284 78.1211 86.2214 77.5078 87.0892C76.1076 89.0217 74.719 90.9542 73.2494 92.8751C72.0922 94.391 70.7036 95.7796 69.477 97.2608C68.2504 98.742 67.1626 100.281 66.0054 101.693C64.1308 103.81 62.1636 105.859 60.2195 107.93C59.6641 108.52 59.1549 109.157 58.5532 109.689C55.4983 112.339 52.4086 114.954 49.2958 117.592C48.3932 118.356 47.5253 119.155 46.6343 119.907C46.6777 119.394 46.8575 118.903 47.155 118.483C48.046 117.13 48.9718 115.787 49.8628 114.445C51.2051 112.431 52.5706 110.441 53.8666 108.404C55.1627 106.368 56.3546 104.539 57.4192 102.503C58.9351 99.633 60.2543 96.7169 61.7007 93.7662C62.9042 91.6533 63.9002 89.4289 64.6747 87.1239C65.0279 86.0549 65.4532 85.0111 65.9476 83.9996C67.0236 81.8777 67.9554 79.6856 68.7364 77.4384C69.4307 74.8347 70.368 72.2889 71.1664 69.7084C72.0459 66.8733 72.9832 64.0498 73.7122 61.18C74.6496 57.5118 75.3786 53.7972 76.2349 50.1174C76.4891 48.6938 76.4891 47.2363 76.2349 45.8127C76.2383 45.4734 76.1435 45.1404 75.962 44.8537C75.7804 44.5671 75.5198 44.3391 75.2115 44.1972C74.9033 44.0553 74.5606 44.0056 74.2248 44.0541C73.889 44.1025 73.5743 44.2471 73.3188 44.4704C72.3269 45.1599 71.4518 46.0037 70.7267 46.9699C69.9445 48.2428 69.2375 49.5604 68.6091 50.9158C67.3309 53.24 66.2881 55.6861 65.4963 58.2176C64.9987 59.8955 64.4895 61.585 63.9109 63.2398C63.3324 64.8946 62.7538 66.179 62.2446 67.6602C61.7354 69.1414 61.3073 70.854 60.775 72.4278C59.7142 75.0523 58.8781 77.7621 58.2755 80.528C58.168 80.9922 58.0288 81.4484 57.8589 81.8935C57.3903 83.3401 57.0039 84.8121 56.7017 86.3024C56.2198 89.0169 55.4437 91.6709 54.3874 94.2174C53.4501 96.6012 52.3739 98.9272 51.3671 101.276C50.3604 103.625 49.5735 105.697 48.5899 107.872C47.7683 109.712 46.7731 111.483 45.94 113.334C45.2576 114.949 44.4287 116.499 43.4636 117.963C42.7924 118.969 42.3064 120.069 41.6584 121.122C41.3018 121.931 40.8173 122.677 40.2235 123.332C40.0353 123.181 39.9034 122.971 39.8488 122.736C39.7942 122.501 39.8202 122.254 39.9226 122.036C40.1078 121.284 40.3161 120.543 40.4665 119.803C40.8021 118.067 41.0104 116.331 41.4501 114.618C42.1791 111.83 43.047 109.087 43.8455 106.31C45.2802 101.987 46.1931 97.5076 46.5648 92.9677C46.6537 90.4905 47.3533 88.0737 48.6015 85.9321C49.7587 83.8607 51.0084 81.8241 52.1887 79.7527C52.3854 79.4287 52.6516 78.908 52.5243 78.6765C52.2119 78.098 52.5243 77.7277 52.7442 77.2995C53.6583 75.4133 54.6535 73.5618 55.4983 71.6409C56.343 69.72 57.0142 67.7991 57.8126 65.855C58.3449 64.5243 58.9698 63.2167 59.4442 61.8743C60.3353 59.4211 61.2031 56.9679 62.0132 54.4915C62.9505 51.6796 63.8762 48.8561 64.6978 46.0094C65.4616 43.4173 66.0633 40.779 66.7807 38.1753C67.3246 36.2313 67.9379 34.3103 68.5165 32.3894C69.0951 30.4685 69.5811 28.5707 70.044 26.6035C70.7602 24.2373 71.3131 21.8247 71.6987 19.3827C72.0112 16.3857 72.7171 13.4349 73.1337 10.4378C73.4577 8.1234 73.6544 5.69333 73.7817 3.30954C73.821 2.64384 73.6329 1.98454 73.2481 1.43991C72.8632 0.895279 72.3046 0.497695 71.664 0.312452C71.0593 0.00141079 70.3667 -0.0947124 69.7001 0.0398705C69.0335 0.174453 68.4325 0.53174 67.9958 1.05305C67.8453 1.22662 67.6949 1.38863 67.5561 1.5622C66.2251 3.16131 65.187 4.98291 64.4895 6.94308C63.7489 9.25744 63.2051 11.5718 62.638 13.9903C62.071 16.4088 61.6776 18.619 61.1684 20.8639C60.7056 22.9237 60.1964 24.9719 59.7335 27.0317C59.5021 28.0732 59.3517 29.1262 59.1318 30.1792C58.6342 32.563 58.1019 34.9352 57.639 37.319C57.2456 39.3556 56.9563 41.4038 56.5744 43.452C56.0074 46.5417 55.2668 49.6198 54.8387 52.7095C54.4784 56.2888 53.8674 59.8385 53.0103 63.3324C52.3276 65.7509 51.9573 68.2735 51.3671 70.5879C50.9871 72.1557 50.5196 73.701 49.9669 75.2166C49.2611 77.1144 48.4048 78.9427 47.6526 80.8405C47.2949 81.669 47.2217 82.5927 47.4443 83.4673C47.7952 82.9566 48.0901 82.4095 48.3237 81.8356C48.8561 80.6785 48.9139 79.4287 50.1521 78.6418C50.7957 78.1364 51.288 77.4639 51.5754 76.6978C52.6056 74.2613 53.464 71.7556 54.1444 69.1993C54.804 66.9659 55.3941 64.6978 56.019 62.4529C56.109 62.1038 56.229 61.7631 56.3777 61.4346C57.1067 59.803 57.153 57.9631 58.044 56.3777C58.2755 55.9843 58.044 55.3594 58.2292 54.9197C58.8151 53.2685 59.2527 51.5685 59.5368 49.8397C60.3005 45.8937 61.1684 41.9593 61.9669 38.0133C62.3256 36.2544 62.638 34.4723 62.9273 32.6903C62.9639 31.5057 63.1865 30.3342 63.5869 29.2188C63.8562 28.6175 64.073 27.9942 64.2349 27.3557C64.2815 27.1861 64.3049 27.0109 64.3044 26.835C64.3895 25.452 64.5634 24.076 64.8251 22.7154C65.3209 21.0412 65.7074 19.3366 65.9823 17.6123C66.1869 16.4344 66.4809 15.2739 66.8617 14.1407C66.9363 14.8255 66.9324 15.5166 66.8502 16.2005C66.3642 19.186 65.8666 22.1484 65.3458 25.1223C65.0218 27.0317 64.7325 28.941 64.3391 30.8388C64.0151 32.32 63.4828 33.7665 63.1819 35.2592C62.4066 39.3325 61.5619 43.3595 61.0527 47.5022C60.6072 50.1024 60.0004 52.6725 59.2359 55.1974C58.7036 57.3729 58.0209 59.5137 57.4655 61.6776C56.7552 64.8399 55.7797 67.9366 54.5494 70.935C53.7625 72.6939 52.9872 74.4066 52.235 76.2118C51.0778 78.7691 49.8628 81.3381 48.5899 83.8491C48.2428 84.5203 48.0923 85.527 46.8426 85.689C46.9583 84.2542 46.9814 82.9118 47.1781 81.5811C47.5253 79.3709 48.0576 77.1838 48.3353 74.962C48.613 72.7402 48.8213 70.3333 48.9602 68.0189C49.0643 66.26 48.9602 64.5474 49.0528 62.7422C49.1916 58.7731 49.3884 54.804 49.5272 50.8464C49.5966 48.8214 49.6661 46.7847 49.5272 44.7597C49.3884 40.8484 49.0528 36.9371 48.9718 33.0259C48.9139 30.4107 49.1685 27.807 49.2842 25.1918C49.3884 22.808 49.4809 20.4126 49.5851 18.0288C49.5851 17.9016 49.5851 17.7627 49.5851 17.6238C49.5851 16.7791 49.5851 15.9344 49.5851 15.0896C49.6139 14.7315 49.6139 14.3716 49.5851 14.0134C49.3074 11.8727 49.0412 9.73188 48.6593 7.61424C48.4878 6.91576 48.1854 6.25611 47.7683 5.67019C47.3854 5.17577 46.8451 4.82705 46.2368 4.68183C45.6286 4.53661 44.989 4.60361 44.4241 4.87173C43.6903 5.22121 42.996 5.64792 42.3527 6.14463C41.7433 6.60404 41.2482 7.19808 40.9062 7.8804C40.1192 9.89685 39.6885 12.0347 39.6333 14.1986C39.6333 15.3558 39.6333 16.5129 39.6333 17.6701C39.6333 19.5448 39.4829 21.431 39.4945 23.3056C39.4945 26.8581 39.6333 30.4107 39.7259 33.9632C39.7259 35.942 39.7259 37.9323 39.9342 39.8995C40.1888 42.4106 40.5938 44.8985 41.0104 47.3865C41.8088 52.2582 42.6651 57.1299 43.452 62.0016C43.8159 63.3841 43.8751 64.8292 43.6256 66.2369C43.5002 65.7219 43.4037 65.2004 43.3363 64.6747C43.0702 63.1704 42.8966 61.6429 42.5147 60.1733C41.9708 58.0788 41.2534 56.0306 40.6401 53.9592C40.0268 51.8879 39.5639 49.967 38.9275 47.9998C37.886 44.8291 36.7288 41.7047 35.6874 38.5456C34.8311 35.942 34.0326 33.3036 33.2804 30.6652C32.4164 27.6489 31.5948 24.617 30.8156 21.5698C30.435 19.489 29.674 17.4962 28.5707 15.6913C28.4187 15.4688 28.3161 15.2163 28.2699 14.9508C28.1242 14.2864 27.8437 13.6591 27.4455 13.1077C27.0474 12.5563 26.5403 12.0926 25.9555 11.7454C25.4364 11.2182 24.7337 10.9118 23.9942 10.8902C23.2546 10.8687 22.5353 11.1336 21.9864 11.6297C20.8475 12.4292 20.0278 13.6055 19.672 14.9508C19.0807 16.6608 18.9451 18.4954 19.2786 20.2738C19.753 22.5881 20.2159 24.9025 20.6903 27.2747C20.7544 27.4468 20.8399 27.6101 20.9449 27.7607C21.8475 29.5775 22.7617 31.3827 23.6411 33.211C25.0066 36.0461 26.3374 38.9043 27.6797 41.751C29.2419 45.13 30.8967 48.3816 32.401 51.749C33.5582 54.4684 34.5418 57.2803 35.5948 60.0576C36.266 61.8628 36.8214 63.7142 37.6314 65.45C38.5312 67.2537 39.2633 69.1362 39.8185 71.0739C40.3855 73.2841 41.1377 75.4712 41.5427 77.7045C42.0287 80.447 42.2486 83.2358 42.5494 86.0131C42.6776 86.7792 42.6776 87.5613 42.5494 88.3274C41.958 90.9918 41.5942 93.7016 41.4617 96.4277C41.4617 97.1451 41.2765 97.851 41.184 98.5684C41.0451 99.6446 40.8715 100.709 40.8021 101.785C40.6473 104.616 40.2053 107.423 39.4829 110.163C39.1126 111.564 38.6497 112.929 38.3257 114.329C38.2114 115.398 38.0415 116.46 37.8166 117.511C37.3446 118.792 37.079 120.14 37.0297 121.504C37.0297 121.504 36.9255 121.504 36.833 121.596C36.914 120.578 37.0065 119.594 37.0528 118.611C37.2033 115.672 37.3537 112.744 37.4694 109.816C37.5851 107.07 37.6661 104.323 37.7124 101.577C37.7488 100.418 37.7063 99.2585 37.5851 98.1056C37.3734 95.1499 36.987 92.2094 36.428 89.2994C35.9767 87.3322 35.6642 85.3188 35.1435 83.3747C34.2525 80.0189 33.2457 76.6978 32.2853 73.3535C31.7182 71.3748 31.1281 69.3844 30.5726 67.4056C29.5775 64.0382 28.6054 60.6709 27.564 57.3266C27.247 56.2517 26.8286 55.2094 26.3142 54.2138C26.1875 53.9257 26.0004 53.6682 25.7656 53.4587C25.5308 53.2491 25.2537 53.0924 24.9531 52.9992C24.6525 52.9059 24.3354 52.8783 24.0233 52.9182C23.7111 52.958 23.4111 53.0644 23.1436 53.2302C22.5622 53.5788 22.0721 54.0607 21.714 54.6362C21.3558 55.2117 21.1398 55.8642 21.0838 56.5397C20.5516 59.4841 20.4658 62.4917 20.8292 65.4616C21.0259 68.0537 21.5119 70.6342 21.917 73.2031C22.4145 76.1283 23.1894 78.9995 24.2313 81.7778C25.0876 84.0921 25.9324 86.5106 26.6498 88.906C27.483 91.6601 28.2583 94.4373 28.9642 97.2261C29.9478 101.323 30.8272 105.454 31.7414 109.562L31.5447 109.666C31.4416 109.518 31.3562 109.359 31.2901 109.191C31.2031 108.937 31.1297 108.678 31.0702 108.416C29.6245 102.696 27.2602 97.2479 24.0693 92.285C22.1561 89.5077 20.2275 86.7382 18.2834 83.9764C17.566 82.9465 16.7675 81.9745 15.9691 80.9793C14.349 78.8848 12.7405 76.7672 11.0858 74.7074C9.67401 72.9485 8.22754 71.2359 6.76949 69.5233C5.54288 68.0884 4.3047 66.6535 3.00866 65.288C2.58214 64.8882 2.07234 64.5878 1.5159 64.4085C0.879454 64.1771 0.555444 64.4085 0.289294 65.0797C0.0545032 65.6181 -0.0666809 66.1992 -0.0666809 66.7865C-0.0666809 67.3739 0.0545032 67.955 0.289294 68.4934C1.58533 71.5599 2.83509 74.6496 4.31627 77.6235C5.54602 80.0177 6.91779 82.3362 8.42426 84.5666C9.78973 86.6264 11.3982 88.5241 12.8562 90.5145C14.4532 92.7015 16.0385 94.8886 17.5544 97.122C18.7116 98.8693 19.8687 100.593 20.9218 102.491C22.079 104.609 23.1204 106.831 24.3933 108.937C25.9239 111.685 27.2393 114.548 28.3277 117.5C29.8104 121.454 30.9222 125.537 31.6488 129.697C32.0731 131.372 31.9181 133.142 31.2091 134.719C30.8156 135.529 30.5148 136.385 30.2023 137.218C29.7629 138.264 29.7115 139.432 30.0573 140.512C30.4032 141.592 31.1236 142.513 32.0885 143.108C32.321 143.301 32.5979 143.432 32.8941 143.49C33.1903 143.548 33.4963 143.53 33.7841 143.439C34.0719 143.348 34.3323 143.187 34.5414 142.969C34.7506 142.752 34.9019 142.485 34.9815 142.194C35.4095 141.406 35.568 140.5 35.4328 139.614C35.3982 139.258 35.4539 138.9 35.5948 138.572C35.8957 137.484 36.2081 136.408 36.509 135.32C37.1121 132.54 38.5113 129.995 40.5359 127.995C41.0104 127.567 41.4733 127.151 41.9708 126.757C43.2669 125.727 44.5514 124.663 45.9168 123.725C47.5137 122.649 49.2032 121.724 50.8233 120.682C53.207 119.143 55.5561 117.558 57.9283 115.996C61.6681 113.789 65.1396 111.156 68.2735 108.15C70.2176 106.102 72.2542 104.123 74.1983 102.075C75.934 100.246 77.6698 98.3833 79.313 96.5087C80.9562 94.634 82.5647 93.0371 83.9417 91.1046C85.3187 89.1722 86.6495 87.0892 87.9224 85.0295C89.9335 81.6205 91.6784 78.0612 93.1413 74.3834C93.6523 73.2136 93.7622 71.9076 93.4537 70.6689ZM53.1839 69.5117H52.9062C52.9756 69.0835 53.0566 68.6554 53.1376 68.2388H53.4153C53.3459 68.6438 53.2302 69.0835 53.2302 69.5233L53.1839 69.5117ZM54.1096 64.9871L53.8898 63.83L54.9197 64.316C54.9197 64.4433 54.9197 64.559 54.9197 64.6747L54.1096 64.9871ZM55.3825 59.1202C55.3825 59.6757 55.4635 60.2196 55.5098 60.7981C54.8502 60.5436 54.8502 60.5436 55.3825 59.1318V59.1202ZM60.2543 41.8667C59.6872 41.9477 58.8772 41.1724 58.7384 42.237C58.7384 42.561 59.1665 42.9545 59.3748 43.2669C59.0719 43.6095 58.7935 43.9729 58.5416 44.3546C58.1135 45.1415 58.3796 45.5118 59.4558 45.4308C59.4558 45.778 59.3979 46.1136 59.3748 46.4376C58.9466 46.7269 58.2176 46.2177 58.0788 46.9467C58.0004 47.2072 58.0075 47.486 58.0992 47.7422C58.1908 47.9983 58.3621 48.2184 58.5879 48.3701C58.8078 48.5436 58.8888 48.9139 59.0276 49.2032L58.7846 49.3768C58.6458 49.2148 58.5301 49.0296 58.3796 48.8792C58.2292 48.7288 57.7548 48.6594 57.6275 49.0181C57.4076 49.6545 57.1762 50.3141 57.7316 50.9158C57.8847 51.0453 58.01 51.2045 58.0997 51.3838C58.1895 51.5631 58.2419 51.7588 58.2538 51.959C58.2657 52.1591 58.2368 52.3596 58.169 52.5483C58.1011 52.737 57.9956 52.9099 57.8589 53.0566C57.3729 53.1608 56.7017 53.1492 56.5744 53.3691C56.4623 53.6285 56.4045 53.9081 56.4045 54.1907C56.4045 54.4733 56.4623 54.7528 56.5744 55.0123C57.2225 55.9611 56.748 56.7365 56.4471 57.5465C56.3777 57.7316 55.9958 57.7895 55.5445 58.0209C56.0275 51.4602 57.0492 44.9504 58.5995 38.5572C59.0508 39.5061 59.2591 40.4781 60.3931 40.6285C60.3584 41.0567 60.3121 41.4501 60.2543 41.8783V41.8667ZM60.4857 38.9391C60.4635 38.7404 60.398 38.549 60.2938 38.3785C60.1896 38.2079 60.0492 38.0623 59.8826 37.9519C59.7159 37.8416 59.5271 37.7691 59.3294 37.7397C59.1317 37.7104 58.9299 37.7247 58.7384 37.7819C58.9235 36.7404 59.0971 35.78 59.2822 34.7154C59.9602 35.3398 60.5657 36.0385 61.0874 36.7983C61.4346 37.4463 61.2031 38.1869 60.4857 38.9506V38.9391ZM65.1144 16.9527C65.0757 17.0181 65.0219 17.0732 64.9575 17.1135C64.893 17.1538 64.8199 17.178 64.7441 17.1841C64.1887 16.9295 63.8068 17.1841 63.7952 17.6817C63.7952 17.89 64.3738 18.0983 64.8714 18.4223C64.8714 18.4223 64.8714 18.8504 64.6978 18.9314C63.5406 19.5448 63.7142 20.4936 63.9457 21.4888C64.0013 21.7795 64.0399 22.0731 64.0614 22.3683C63.5638 22.6807 62.7769 22.2063 62.6496 22.9816C62.5223 23.7569 63.3786 23.6296 63.8068 24.1387C63.6216 24.3818 63.4828 24.7173 63.2282 24.8678C61.8512 25.7009 61.8396 25.6894 62.9042 27.1243L61.8396 26.7308C61.1337 27.7839 61.261 28.8947 62.2446 30.2834C61.9457 30.3482 61.6547 30.4452 61.3767 30.5727C61.1851 30.7341 61.0209 30.9256 60.8907 31.1397C61.1223 31.2841 61.3619 31.4154 61.6082 31.5331C61.7417 31.5616 61.8797 31.5616 62.0132 31.5331C61.7284 31.7947 61.4863 32.0992 61.2957 32.4357C61.18 32.7597 61.1106 33.373 61.2957 33.5119C62.0016 34.0673 61.5966 34.5996 61.4461 35.3634C60.8907 34.6228 60.6477 33.6045 59.4327 34.2062C60.4394 27.1706 62.5455 20.5168 63.6679 13.377L64.2928 14.1176L64.7094 14.6615C64.5127 15.3211 63.9688 16.0269 64.9987 16.5014C65.1723 16.4898 65.2186 16.7791 65.1723 16.9064L65.1144 16.9527ZM65.531 14.8119L65.2417 14.7077L65.4847 14.106L65.7393 14.1986L65.531 14.8119ZM65.2533 10.8659C65.0103 12.0231 66.4104 12.1735 66.1327 13.1803C65.8264 13.0225 65.4991 12.9094 65.1607 12.8447C64.766 12.9066 64.3784 13.0074 64.0035 13.1456C64.3241 11.0589 64.9195 9.02394 65.774 7.09352C66.827 8.25069 66.5724 9.50045 66.8039 10.565L65.2533 10.8659ZM65.7971 6.2372C66.8733 4.74444 67.6602 3.47155 68.5628 2.31437C68.9667 1.83814 69.4785 1.46522 70.0556 1.22662C70.3278 1.15283 70.6129 1.13952 70.8908 1.18763C71.1687 1.23574 71.4327 1.3441 71.6643 1.5051C71.8959 1.66611 72.0894 1.87585 72.2313 2.1196C72.3732 2.36336 72.46 2.63522 72.4856 2.9161C72.6366 4.30172 72.5781 5.70217 72.3121 7.07037C72.069 8.75985 71.8492 10.4609 71.5946 12.1504C71.4789 12.9025 71.3053 13.6431 71.1317 14.4647C69.9746 14.3375 69.9746 14.3375 69.477 15.6219H68.1462C67.9263 15.1822 67.9032 14.8466 68.4008 14.6036C68.6322 14.4879 68.8752 14.3606 69.1067 14.2217C70.3217 13.4927 70.4258 13.0646 69.6737 11.9074L69.0141 10.8543C69.4885 10.4725 69.8936 10.1485 70.3217 9.82446C71.3053 9.09543 71.2706 8.82928 70.0787 8.16969C70.1713 7.74153 70.2407 7.40595 70.8656 7.33652C71.4905 7.26709 71.6409 7.16295 71.664 6.0752L70.2523 5.85533C70.6573 5.21889 71.0392 4.61715 71.4095 4.00385C71.6409 3.62198 71.9186 3.14754 71.4095 2.84667C70.9003 2.54581 70.5647 2.84667 70.2523 3.33269C70.1663 3.46093 70.0736 3.58454 69.9746 3.70298C69.3844 3.42526 68.6901 3.29797 68.3314 3.94599C67.9726 4.59401 67.4519 5.10317 68.0305 5.91319C68.6091 6.72322 68.0305 7.18609 67.7759 7.86882C67.1163 7.32495 67.4519 5.98262 65.855 6.22563L65.7971 6.2372ZM67.6602 11.0742C67.8329 11.808 67.7385 12.5792 67.3941 13.2497C66.827 12.3124 67.6718 11.7569 67.6602 11.0742C67.6602 11.0742 67.6602 11.0163 67.6602 10.9932C67.8988 9.65695 68.4499 8.39604 69.2687 7.31338C69.2359 7.52825 69.1895 7.74083 69.1298 7.94983C68.8058 8.82928 68.4934 9.70874 68.1462 10.565C68.0652 10.7386 67.8338 10.8543 67.6602 10.9932V11.0742ZM63.2745 39.7144C63.2745 39.4019 63.2745 39.0895 63.3439 38.6845L64.4317 38.1637C64.1223 37.6952 63.8917 37.1792 63.7489 36.6363C63.8003 36.0674 63.9491 35.5116 64.1887 34.9931C65.2417 34.9931 65.5426 34.1599 65.6467 33.3267C65.6467 32.9912 65.1954 32.5861 64.8714 32.1001C64.874 31.8156 64.9554 31.5374 65.1065 31.2963C65.2577 31.0553 65.4727 30.8609 65.7277 30.7347C65.9823 30.5958 66.017 30.0519 66.2484 29.4733C66.179 29.4733 66.2484 29.4733 66.2484 29.4733L66.3642 29.4039L67.3362 28.5592L66.2947 27.6103C66.908 27.2284 66.746 26.7424 66.422 26.0134C66.2203 25.2865 66.2203 24.5185 66.422 23.7916C66.422 23.5139 66.9312 23.3172 67.232 23.0857C67.4635 22.6344 67.5561 22.0558 68.1925 21.9285C67.4172 21.2227 68.5165 20.5978 68.3314 19.8225L67.1742 19.7299C67.0122 19.2555 67.1048 18.943 67.6718 18.8967C68.337 18.8228 68.9653 18.5529 69.477 18.1214C68.9794 17.08 68.0768 18.052 67.4866 17.5197C67.7412 17.1378 68.1462 16.8254 68.5628 16.9874C69.4538 17.323 69.9051 16.837 70.3564 16.2468C70.5202 16.1032 70.6942 15.9717 70.8772 15.8534L69.9283 21.1995C69.7646 21.1279 69.5881 21.09 69.4094 21.0881C69.2307 21.0861 69.0535 21.1202 68.8883 21.1882C68.7231 21.2563 68.5732 21.3569 68.4477 21.4841C68.3222 21.6112 68.2236 21.7624 68.1578 21.9285H68.2735C68.0999 22.5187 68.4586 22.646 68.91 22.5766C69.1672 22.4972 69.4095 22.376 69.6274 22.2178C69.8125 23.3056 68.2504 29.1609 66.7807 33.7896C65.6236 37.5504 64.6747 41.3923 63.5985 45.3614L62.6959 44.3778L64.3854 40.1425L63.2745 39.7144ZM62.2099 48.8098C61.7817 47.6526 62.395 46.9699 63.3671 46.0326C63.2435 47.3486 62.8495 48.625 62.2099 49.7818C62.2033 49.8123 62.2033 49.8439 62.2099 49.8744C61.9669 51.0316 61.7354 52.1887 61.504 53.4385L61.2147 53.3691C61.0977 52.1279 61.4531 50.8882 62.2099 49.8975C62.2043 49.8708 62.2043 49.8432 62.2099 49.8165C62.2882 49.4855 62.2882 49.1408 62.2099 48.8098ZM60.5436 54.1559L60.8213 54.2369C60.937 55.0701 60.3005 55.7297 60.1385 56.5513C59.9334 57.3355 59.6862 58.1081 59.3979 58.8657H59.0971C59.5831 57.1878 60.0575 55.6718 60.5436 54.1559ZM53.7278 106.356C53.8319 106.125 53.9476 105.893 54.0402 105.662C54.1328 105.431 54.1444 105.315 54.2254 105.164C55.3825 102.954 56.5397 100.756 57.5233 98.4411C57.7307 98.0775 57.975 97.7363 58.2523 97.4228L58.5648 97.6196C57.0489 100.57 55.9496 103.741 53.7278 106.356ZM59.3285 96.4392C58.5069 95.7218 58.5069 95.7218 59.4442 94.2637C60.4625 95.1548 59.3401 95.7218 59.3285 96.4392ZM60.9717 92.0072C60.9717 93.2686 60.8328 93.3959 59.9071 93.3033C59.7682 92.4585 60.6014 92.4354 60.9717 92.0072C61.0759 91.0236 61.1916 90.04 61.3304 88.9523L62.4876 89.2763C62.6843 89.7507 61.6776 91.5097 60.9717 92.0072ZM63.1703 87.5984L62.1057 87.3901C62.0225 87.062 62.0686 86.7144 62.2344 86.4194C62.4003 86.1243 62.6732 85.9042 62.9968 85.8048C63.7721 85.5155 64.0729 85.1105 63.7374 84.4046C63.582 84.0361 63.5088 83.6381 63.5228 83.2385C63.5368 82.8388 63.6376 82.447 63.8184 82.0902L65.9591 81.0025C65.0218 83.2127 64.1077 85.365 63.1703 87.5984ZM69.6737 70.5879C68.7364 73.5387 67.7528 76.4895 66.7923 79.4287L64.478 80.4007C64.4663 80.1865 64.5115 79.9731 64.6091 79.782C64.7066 79.591 64.853 79.4291 65.0334 79.313C65.3629 79.0896 65.6557 78.8163 65.9013 78.503C66.6882 77.5657 66.665 77.5194 65.6004 76.8019C65.5871 76.6668 65.6029 76.5303 65.6467 76.4018C65.6906 76.2733 65.7616 76.1557 65.8548 76.057C65.9481 75.9583 66.0614 75.8807 66.1872 75.8296C66.313 75.7784 66.4483 75.7548 66.584 75.7605C67.0469 75.7605 67.3246 75.4827 67.3015 74.9736C67.2783 74.4644 67.2089 74.4876 66.2716 74.3256C66.5609 73.7585 66.4683 73.1684 67.2899 72.9485C67.6255 72.8791 67.7875 72.0691 68.0536 71.6062C68.3198 71.1433 68.0536 70.7267 67.3478 70.3217L69.477 69.477C69.477 69.1298 69.477 68.7017 69.5927 67.9958L68.2735 68.991C68.3661 68.1347 68.4818 67.5445 69.315 67.2552C69.8478 67.0055 70.3522 66.699 70.8193 66.341C70.5531 65.9823 70.4143 65.7624 70.2407 65.5657C70.0481 65.3927 69.8988 65.1768 69.8047 64.9355C69.7107 64.6943 69.6747 64.4343 69.6994 64.1765C69.7242 63.9188 69.8091 63.6704 69.9473 63.4514C70.0855 63.2325 70.2732 63.049 70.4953 62.9158C70.5647 62.9158 70.6573 62.8348 70.7267 62.7769L72.5319 61.4925C71.502 64.7326 70.5879 67.6834 69.6737 70.5879ZM72.7749 60.3931L71.5483 60.046C71.907 59.641 72.1963 59.317 72.5319 58.9582C72.3468 58.5532 72.15 58.1598 71.9302 57.6853L73.4114 57.3498L72.6824 56.586C72.1385 56.019 72.231 55.614 72.9716 55.3131L74.1288 54.8618C73.6428 56.8985 73.2262 58.6342 72.7749 60.4163V60.3931ZM74.3024 53.4501L72.9022 53.6584L73.7585 51.5523C74.5454 52.154 74.5454 52.154 74.3024 53.4385V53.4501ZM73.828 46.507L72.6708 46.2524C72.7945 46.0992 72.9342 45.9596 73.0874 45.8358C73.5849 45.4887 74.0015 44.7944 74.7074 45.0721C75.4133 45.3498 75.4133 46.2293 75.4596 46.8194C75.529 47.7568 75.4596 48.7056 75.5406 49.7008C74.9059 49.8556 74.2801 50.0449 73.666 50.2678C73.5356 50.3315 73.4193 50.4206 73.3239 50.5299C73.2285 50.6392 73.156 50.7665 73.1105 50.9043C72.3815 53.0682 71.7913 55.2784 70.9697 57.4076C70.3217 59.0971 70.206 60.9602 69.1992 62.5455C68.8637 63.0778 69.0025 63.8878 68.7017 64.4548C68.3915 65.1233 68.1623 65.8265 68.0189 66.5493C67.7528 67.6371 67.313 68.6785 66.9543 69.7431C65.9591 72.6592 64.9408 75.6447 63.9572 78.6881C63.5059 80.0536 63.0662 81.4191 62.5918 82.7845C61.8743 84.9022 61.18 87.0314 60.3815 89.1259C59.4712 91.4865 58.4953 93.8356 57.4539 96.1731C55.9264 99.5752 54.3874 102.989 52.721 106.298C52.0267 107.687 51.5639 109.238 50.1174 110.221C50.4182 109.562 50.7075 108.89 51.0084 108.231C51.4481 107.305 51.8879 106.368 52.3623 105.454C52.6632 104.863 53.0798 104.296 53.3459 103.718C54.1212 101.959 54.8502 100.165 55.6603 98.3949C56.3083 96.8674 56.991 95.3515 57.6506 93.7662C58.4491 91.8684 59.2938 89.9822 59.965 88.0497C60.5436 86.4991 60.9486 84.879 61.4461 83.2937C62.0942 81.2455 62.7538 79.1857 63.4481 77.1491C63.6679 76.5126 64.2002 75.9919 64.2697 75.3323C64.3894 74.6056 64.5674 73.8897 64.802 73.1915C65.4037 70.8772 66.4452 68.7827 67.1163 66.5262C67.8916 63.911 68.8868 61.3536 69.7663 58.7615C69.8761 58.3831 69.9535 57.9959 69.9977 57.6043C70.0511 56.5441 70.3866 55.5174 70.9697 54.6304C71.5991 53.4911 72.0739 52.2731 72.3815 51.0084C72.8675 49.6661 73.3651 48.3122 73.8395 46.9699C73.8683 46.7971 73.8643 46.6205 73.828 46.4491V46.507ZM71.3516 48.1155V48.0576C71.3723 47.8274 71.411 47.5991 71.4673 47.3749C71.4673 47.3055 71.664 47.2707 72.0575 47.0972L71.3516 48.0576C71.3459 48.0882 71.3459 48.1196 71.3516 48.1502C71.4446 48.5506 71.4293 48.9685 71.3073 49.361C71.1853 49.7535 70.9609 50.1065 70.6573 50.3835C70.419 50.5677 70.1253 50.6656 69.8241 50.6613C70.449 49.7587 70.4374 48.6015 71.3516 48.0576V48.1155ZM68.8637 52.316L70.0208 53.4732L68.1346 54.3874C68.4008 53.5542 68.6091 52.9872 68.8637 52.2582V52.316ZM67.8453 55.3363C69.2224 56.2389 69.3381 57.2572 68.3082 59.9071C67.7643 59.5715 68.0652 59.1087 68.1231 58.7499C68.1809 58.3912 68.2966 57.8936 68.4008 57.4308C67.8916 57.1646 67.4635 57.153 67.313 57.6159C66.9312 58.7731 66.0286 59.9303 67.1048 61.0874L65.2186 62.0132C65.9448 59.7128 66.8223 57.463 67.8453 55.2784V55.3363ZM64.9293 63.0894L67.3478 62.8348C67.2783 63.1009 67.2089 63.4249 67.0932 63.8878C65.936 63.2166 65.5541 64.559 64.478 64.7326C64.6631 63.9804 64.802 63.4365 64.9293 63.0315V63.0894ZM63.7721 66.2369C64.8367 66.584 65.1028 67.5098 65.6583 68.2619C64.5011 67.8454 63.8415 68.4818 62.9273 69.2571L63.7721 66.2369ZM62.8232 69.9167C63.1667 70.039 63.5245 70.1168 63.8878 70.1481C64.2874 70.0731 64.6761 69.9487 65.045 69.7778C64.8251 70.5647 64.64 71.2127 64.4664 71.8608H64.1655L63.9804 70.8772C62.7422 70.7846 62.8811 72.0343 62.395 72.5898C62.152 71.745 62.1867 71.5252 62.8 69.8588L62.8232 69.9167ZM61.8164 73.5503C62.0585 73.7311 62.3138 73.8936 62.5802 74.0363C62.8646 74.1136 63.1549 74.1678 63.4481 74.1983C63.3439 75.1124 61.9437 75.4596 62.7306 76.6515C62.071 76.6515 61.3999 75.691 61.0064 76.6515C60.937 77.6119 62.3835 77.5888 62.1057 78.7344C61.8528 78.5662 61.5758 78.4375 61.2841 78.3525C60.8925 78.3593 60.5034 78.4176 60.127 78.5261L61.5387 80.4702C61.0946 80.5961 60.6701 80.783 60.2774 81.0256C59.9534 81.2918 59.8608 81.8472 59.2012 81.7199C59.9997 78.9311 60.4047 76.0845 61.7933 73.4924L61.8164 73.5503ZM56.9332 89.5193C57.0792 89.1443 57.1915 88.7571 57.2687 88.3621C57.5408 86.2962 58.0775 84.2738 58.8656 82.3448C59.3864 83.2706 59.3864 83.2705 60.6014 82.7267C60.5204 83.0391 60.6014 83.3863 60.3931 83.4673C60.1619 83.5748 59.9577 83.7325 59.7952 83.929C59.6328 84.1255 59.5163 84.3558 59.4542 84.6031C59.3921 84.8504 59.386 85.1084 59.4363 85.3583C59.4866 85.6083 59.5921 85.8438 59.7451 86.0478C58.5879 86.4065 58.4838 87.1355 58.7499 88.1538C58.8772 88.5936 58.5879 89.149 58.4722 89.716L56.9332 89.473C57.1067 89.716 57.2687 89.959 57.4307 90.2136L57.882 90.8732C57.6159 91.7179 57.072 91.6601 56.4703 91.3824C56.6323 90.7343 56.7827 90.0979 56.9332 89.473V89.5193ZM56.0421 92.6321L56.8753 93.257C56.586 93.824 56.5397 94.4142 55.7875 94.7729C55.459 94.9264 55.2043 95.2032 55.0786 95.5434C54.9529 95.8835 54.9665 96.2595 55.1164 96.5897C55.1658 96.6794 55.1963 96.7784 55.206 96.8804C55.2158 96.9823 55.2046 97.0853 55.1732 97.1828C55.1418 97.2803 55.0908 97.3704 55.0233 97.4475C54.9558 97.5246 54.8733 97.5871 54.7808 97.6311C54.3431 97.8721 54.0121 98.2689 53.8535 98.7427C53.6949 99.2164 53.7202 99.7325 53.9245 100.188L52.8599 100.026L56.0421 92.6321ZM52.397 101.38L53.2302 101.589C52.7442 102.387 52.7789 103.463 51.3671 103.741L52.397 101.38ZM51.2398 104.32C51.5754 105.65 51.5754 105.65 50.5571 106.923C50.1637 106.356 50.4067 105.431 51.2167 104.32H51.2398ZM49.2611 108.775C49.4115 110.129 47.5253 114.075 45.8937 115.602L49.2611 108.775ZM46.5996 78.2253L46.2524 78.1211C46.3218 77.855 46.4028 77.5772 46.4838 77.3111H46.75C46.7037 77.6467 46.6458 77.936 46.5996 78.2253ZM48.2427 63.3439C48.2493 67.4066 47.8891 71.4616 47.1666 75.4596C47.1666 74.9273 47.1666 74.395 47.1666 73.8627C47.1666 71.6988 47.1666 69.5464 47.1666 67.3941C47.1666 66.8039 47.1666 66.2369 47.1666 65.6352C47.1467 65.1946 47.2343 64.7558 47.4218 64.3567C47.6093 63.9575 47.891 63.61 48.2427 63.3439ZM48.1502 62.1173C47.4559 62.1173 47.1319 61.8396 47.1319 61.0874C47.1319 60.3353 47.0393 59.3054 46.993 58.4144L48.5089 57.3613C48.3816 59.0161 48.2659 60.5899 48.1502 62.1173ZM48.6015 55.5446L46.9814 56.6207C46.9004 56.181 46.831 55.7413 46.75 55.29L47.4906 54.8271C47.5449 54.1652 47.6454 53.5078 47.7915 52.8599C48.0345 52.0499 47.9997 51.9573 47.0161 51.8879C46.9062 51.8509 46.8012 51.8003 46.7037 51.7374C46.7037 51.344 46.7037 50.9043 46.6343 50.5803C47.2939 49.9554 47.8725 49.4231 48.4395 48.8561C47.7799 47.8725 47.2823 48.6015 46.6227 48.8561C46.4838 47.6989 46.0788 46.7037 47.4096 46.0441C47.4096 46.9236 48.1155 46.6111 48.6478 46.7153C48.6015 49.7587 48.6015 52.7442 48.6015 55.5446ZM48.6015 43.4752C48.6534 43.9173 48.6534 44.3639 48.6015 44.806C48.6015 44.9795 48.4279 45.1415 48.3237 45.3151L47.965 45.2457C47.9336 44.8606 47.9336 44.4736 47.965 44.0885C48.1155 43.3132 47.6179 43.3363 47.0509 43.1975C46.912 43.7413 46.8078 44.2042 46.6574 44.8175C46.1367 44.1926 46.4376 43.5562 46.2293 42.966C46.4337 42.8633 46.6242 42.735 46.7963 42.5842C46.9339 42.3761 47.1447 42.2273 47.3869 42.1673C47.6291 42.1073 47.885 42.1404 48.1039 42.2602C48.3585 42.5032 48.4279 43.0702 48.5089 43.4868L48.6015 43.4752ZM48.4279 41.1608L46.2871 41.0335C46.2293 39.9689 45.9747 38.9853 47.0161 38.21C47.3633 37.9439 47.4212 37.2959 47.7104 36.5553C48.4048 38.1869 48.1849 39.5871 48.3353 41.184L48.4279 41.1608ZM47.9419 35.6758L46.2871 36.2891C46.2871 35.5832 46.2871 34.8889 46.2871 34.2409C46.7268 33.8938 47.5137 34.2409 47.4443 33.4772C47.3749 32.7134 46.8078 32.7482 46.2177 32.725C46.2177 31.8108 45.7432 30.9314 46.2177 29.7973C46.7268 30.5148 46.2177 31.9266 47.7104 31.3133C47.722 32.9102 47.7914 34.3219 47.8493 35.699L47.9419 35.6758ZM42.7346 7.40595C43.1107 6.9045 43.598 6.49719 44.1582 6.21607C44.7185 5.93495 45.3363 5.7877 45.9631 5.7859C46.129 5.79599 46.2912 5.83905 46.4402 5.91257C46.5892 5.98608 46.7221 6.08858 46.831 6.21406C47.1665 6.82051 47.4565 7.45096 47.6989 8.10026L46.5417 7.86882C46.3526 8.12158 46.2614 8.43419 46.2848 8.74896C46.3082 9.06373 46.4446 9.35942 46.669 9.58145L47.7452 9.07229C48.2884 11.4946 48.402 13.9935 48.0807 16.4551C48.1786 17.0144 48.2481 17.5783 48.289 18.1446C48.289 19.5679 48.3469 21.0144 48.289 22.4377C48.1733 24.6363 47.965 26.8234 47.7915 29.0568L46.0325 28.2814C45.962 28.0072 45.9079 27.729 45.8705 27.4483C45.8011 26.5572 45.94 26.4184 46.8078 26.6151C47.2707 26.7193 47.6063 26.7308 47.7336 26.0365C46.5764 25.7357 46.4723 24.5438 45.8242 23.7222C45.6622 23.537 45.8242 22.7038 45.9747 22.6923C46.5648 22.6228 46.5301 21.998 46.8889 21.7897C48.1502 21.0722 47.8262 19.8803 47.8262 18.7926C47.8262 18.5959 47.5484 18.3991 47.4096 18.2024C47.2244 18.3991 46.8889 18.5959 46.8657 18.8042C46.8793 19.2107 46.7962 19.6147 46.6232 19.9829C46.4502 20.351 46.1922 20.6728 45.8705 20.9218C45.8127 20.9218 45.7201 20.9218 45.4424 20.9912C45.4711 19.8126 45.6659 18.6439 46.021 17.5197C46.3681 16.6865 46.7731 15.8881 47.1781 15.0549C47.5832 14.2217 47.398 13.8977 46.6227 13.296L45.8011 14.8119C45.6491 14.335 45.6139 13.8285 45.6984 13.3351C45.783 12.8417 45.9849 12.3759 46.2871 11.9768C46.5818 11.5492 46.83 11.0915 47.0277 10.6113L45.7548 10.16C45.7548 9.11858 44.7712 8.11183 45.859 7.07037C45.1299 6.6075 44.6439 6.81579 44.4009 7.24395C44.1724 7.63457 44.0781 8.08929 44.1324 8.53858C44.1868 8.98786 44.3867 9.40699 44.7018 9.73188C43.5446 9.90546 43.0239 8.30855 41.913 9.29215C41.8805 8.93405 41.9388 8.57354 42.0823 8.24389C42.2259 7.91423 42.4502 7.62606 42.7346 7.40595ZM45.1299 40.7211C44.3893 38.4067 44.7481 35.8841 44.4935 33.4772C44.2389 31.0702 44.1463 28.455 44.1001 25.9439C44.0538 23.4329 44.1001 21.0028 44.1001 18.538C44.1001 16.0732 44.3083 13.6779 44.4125 11.2478H44.7018C44.7018 11.8842 44.7018 12.5207 44.7018 13.1687C44.7018 15.3211 44.7018 17.4965 44.5282 19.6373C44.3546 21.7781 44.7249 23.861 44.7596 25.9671C44.7596 27.1243 44.7596 28.3856 44.8291 29.6006C44.8291 30.0519 44.8291 30.5032 44.8291 30.9545C45.1151 33.3075 45.2157 35.6793 45.1299 38.048C45.0258 38.9275 45.2109 39.8185 45.1299 40.7211ZM41.5195 9.68559C42.2254 10.4956 43.2206 10.7733 43.3247 11.8379L41.751 12.5207L42.9892 13.3307L42.1676 13.8051C41.9708 14.8698 42.4684 16.1195 41.2187 17.0337L42.0056 17.8437C41.905 17.9776 41.8372 18.1332 41.8074 18.298C41.7775 18.4628 41.7866 18.6322 41.8338 18.7929C41.881 18.9536 41.965 19.101 42.0792 19.2235C42.1934 19.346 42.3346 19.4401 42.4916 19.4985H42.561C42.9776 19.6258 43.452 19.7068 43.128 20.4126C42.642 20.2506 42.3759 20.0192 42.561 19.4985L42.2486 19.5795C41.8436 19.6836 41.3923 19.7646 41.3923 20.2853C41.3923 20.8061 41.7973 21.1185 42.318 21.2689C43.0933 21.4888 43.3016 21.9054 43.128 22.7501C42.9776 23.3982 42.7462 23.5486 41.9014 23.4329C41.5539 23.3708 41.2101 23.2896 40.8715 23.1899C40.9757 18.7579 40.5938 14.3143 41.5195 9.68559ZM43.2437 24.8562C43.2164 25.0779 43.1778 25.298 43.128 25.5158L42.8156 25.4579C42.8156 25.2381 42.8966 25.0066 42.9313 24.7868L43.2437 24.8562ZM40.6517 24.428L41.9246 24.347C42.0171 24.6942 42.0981 24.9835 42.1907 25.3538L40.9294 25.6894C40.8484 25.2959 40.7558 24.9141 40.6517 24.428ZM40.941 33.4887C40.8831 31.7414 40.86 30.0172 40.8137 28.2352C40.8137 27.5061 40.8137 27.4714 41.9708 26.592C43.128 27.6913 43.128 27.6913 43.2669 28.3393C42.7346 28.3393 42.1097 27.8996 41.7047 28.7443L42.8619 30.7925C42.4569 31.3017 41.508 31.51 41.913 32.6787L43.533 31.915C43.128 32.5399 42.6999 32.9912 43.0007 33.6623C43.0702 33.8243 42.5841 34.2409 42.2486 34.6806L43.8802 36.104L41.1145 36.4511C41.0104 35.4328 40.9641 34.4608 40.941 33.4887ZM42.9892 52.2929C42.9892 51.911 43.047 51.5292 43.0702 51.1357C42.9562 50.9596 42.8666 50.7689 42.804 50.5687C42.3064 47.3286 41.8088 44.1001 41.346 40.8484C41.2071 39.8301 41.184 38.8002 41.103 37.6199L43.5562 37.2496C43.6256 37.9207 43.6835 38.4068 43.7413 39.0201C43.1743 39.1936 42.1907 39.0201 42.5841 40.1772C42.6536 40.3855 42.2833 40.7558 42.075 41.1377C42.237 41.6469 42.3874 42.2949 43.2322 42.2949C43.3479 41.913 43.4405 41.589 43.5446 41.265H43.7298C43.7298 42.0171 43.8108 42.7577 43.8802 43.8108C43.7089 43.628 43.554 43.4305 43.4173 43.2206C43.2206 42.8272 42.885 42.6536 42.5494 42.8735C42.4386 42.972 42.3541 43.0966 42.3035 43.236C42.253 43.3754 42.2381 43.5253 42.2601 43.6719C42.4453 44.3199 42.4916 45.0837 43.4173 45.3267C43.5219 45.3589 43.6161 45.4181 43.6906 45.4982C43.7651 45.5784 43.8173 45.6766 43.8419 45.7832C43.8665 45.8899 43.8627 46.0011 43.8308 46.1057C43.799 46.2104 43.7402 46.3049 43.6603 46.3797C43.4244 46.5774 43.2347 46.8244 43.1045 47.1033C42.9744 47.3822 42.9069 47.6862 42.9069 47.994C42.9069 48.3018 42.9744 48.6058 43.1045 48.8847C43.2347 49.1636 43.4244 49.4106 43.6603 49.6082C43.7737 49.748 43.878 49.8949 43.9728 50.048C43.6719 50.4414 43.3826 50.8001 43.0933 51.2051C43.0933 51.2051 43.0933 51.2051 43.0933 51.263C43.4868 51.4829 43.4867 51.8647 42.9892 52.2929ZM44.0653 54.2369C44.0653 55.2553 44.0653 56.0537 44.0653 56.8522C43.7066 56.0421 43.0239 55.2321 44.0653 54.2369ZM44.6786 48.8098C44.6612 48.7219 44.6612 48.6315 44.6786 48.5436C44.6786 46.6073 44.7018 44.6787 44.7481 42.7577C44.768 42.5189 44.8106 42.2826 44.8754 42.0519H45.0837C45.1878 42.9545 45.3151 43.8686 45.3729 44.7828C45.5002 47.1666 45.7085 49.5504 45.6622 51.9342C45.6115 54.4007 45.7353 56.8678 46.0325 59.317C46.2851 61.7731 46.3702 64.2436 46.2871 66.7113C46.4325 68.429 46.3351 70.1587 45.9978 71.8492C45.7895 70.8887 45.5697 69.9283 45.3845 68.9678C44.9102 66.5374 44.7469 64.0566 44.8985 61.585C45.0605 59.3401 44.8985 57.0836 44.9911 54.8387C45.229 52.8259 45.1233 50.7872 44.6786 48.8098ZM38.777 53.8551C38.9275 53.7278 38.8349 53.2881 38.9622 52.9756C40.2235 56.8059 41.67 60.5667 42.1444 64.5474L41.8436 64.64C41.4501 63.3902 41.1261 62.1173 40.6864 60.8907C40.0846 59.317 39.3209 57.8011 38.7192 56.262C38.3952 55.5446 37.7703 54.6535 38.777 53.8551ZM37.6199 48.4279C36.3007 49.2958 36.1502 50.1058 37.2264 51.0894C37.6777 51.4944 37.5736 51.8184 37.4231 52.478C36.1514 50.9841 35.5085 49.0553 35.6295 47.0972L36.8908 46.6343L37.6199 48.4279ZM36.4627 44.9564L35.3055 44.8754C35.1898 45.535 35.1782 45.535 34.5186 46.1251C34.3103 45.4887 34.1136 44.968 33.8359 44.0538L35.3055 44.8754L36.0345 43.9728L36.4627 44.9564ZM33.6276 39.2399C33.6276 39.6565 33.535 40.1888 33.7549 40.455C33.9747 40.7211 34.5186 40.7443 35.0278 40.9063C35.7684 42.237 35.7684 42.2717 34.6575 43.5446C34.6575 43.1859 34.6575 42.9429 34.7269 42.6999C34.7963 42.4569 34.7269 42.2602 34.7269 42.0982C34.1483 41.5543 33.8012 42.2486 33.373 42.2602C33.17 41.7637 33.0903 41.2254 33.1407 40.6913C33.191 40.1573 33.37 39.6434 33.6623 39.1936L33.6276 39.2399ZM32.806 34.1946C32.3547 34.6691 32.482 35.1782 32.4704 35.7105C32.3867 36.0956 32.2463 36.466 32.0538 36.8098L31.2785 35.7221L32.5861 33.3152C32.8291 33.4887 33.1879 33.778 32.8407 34.1483L32.806 34.1946ZM30.2255 27.2516C30.2181 26.6516 30.2568 26.052 30.3412 25.4579C31.4174 27.5177 31.5678 29.8205 32.4241 31.9613L30.6189 32.9912C30.4106 32.6324 30.2255 32.2969 30.0519 32.0191C30.5264 31.348 30.9429 30.7809 31.3364 30.2486C30.7346 29.3345 30.2486 30.1445 29.67 30.2486C29.4502 29.8899 29.2072 29.5196 28.9063 29.0915C29.3113 28.9063 29.7973 28.8369 29.9593 28.5707C30.1586 28.135 30.2613 27.6613 30.2602 27.1821L30.2255 27.2516ZM20.4705 21.0607C21.4888 20.6094 22.3335 21.1532 23.1898 21.1995C23.3287 21.1995 23.5139 21.512 23.5601 21.7087C23.7106 22.2641 23.7916 22.8659 23.9073 23.4907C23.051 23.618 22.8427 23.1899 22.7501 22.5534C22.5765 21.7202 22.5071 21.7202 21.3846 22.1484C21.5531 22.7604 21.7539 23.363 21.9864 23.9536C22.2988 24.5669 22.0674 24.8562 21.4194 25.1918C21.1069 23.7685 20.8292 22.4493 20.4705 21.0607ZM21.6277 26.0712C21.9773 26.0692 22.326 26.0344 22.6691 25.9671C23.0134 25.8322 23.3462 25.6697 23.6643 25.4811C23.5717 26.6383 24.6595 26.835 25.4232 27.5524C24.266 27.4598 23.1898 26.4878 22.5418 28.2352L21.6277 26.0712ZM24.833 32.563C24.5206 32.0191 24.2197 31.5331 23.9536 31.024C23.5486 30.2371 23.1783 29.4271 22.7964 28.6286C23.699 28.7096 24.3007 28.9642 24.3933 29.8668C24.3933 30.3875 24.8446 30.6999 25.4695 30.8388C25.5736 30.5032 25.6662 30.2371 25.7588 29.9478C25.7588 29.9478 25.8514 29.9478 25.8629 29.9478C26.1059 30.4917 26.4299 30.9892 25.5505 31.3595C25.1802 31.5331 25.0413 32.1117 24.7868 32.563H24.833ZM29.9941 43.1512C28.374 39.8301 26.8581 36.7288 25.2959 33.5003L26.1985 33.292C26.2795 32.9449 26.3605 32.5977 26.4647 32.1348C27.0664 33.211 27.078 33.2226 26.1985 33.292C25.9902 33.6855 25.8745 34.0673 26.3489 34.3913C26.8234 34.7154 27.2863 35.0741 27.7491 35.4097L27.3557 36.0577C27.9227 36.8909 28.4203 37.5967 28.8947 38.372C29.0105 38.5572 29.1725 38.8465 29.103 38.9738C28.698 39.7607 29.1956 40.212 29.6238 40.7327C29.8977 41.0656 30.0731 41.4684 30.1304 41.8958C30.1876 42.3231 30.1244 42.7579 29.9478 43.1512H29.9941ZM33.2573 50.6728C32.2505 48.4395 31.2438 46.2177 30.3065 43.9728C31.3248 44.3084 31.267 45.2804 31.6604 45.9631C32.0287 46.6804 32.3458 47.4229 32.6093 48.1849C32.9101 48.9602 33.1994 49.7471 33.5003 50.4993L33.2573 50.6728ZM35.8262 56.8869C35.5717 56.424 35.3171 55.9611 35.0509 55.5098L35.3865 55.3594C35.5369 55.8686 36.0461 56.2389 35.8262 56.8869C36.2813 57.4191 36.5495 58.0856 36.59 58.7847C36.3123 58.5568 36.0937 58.2653 35.9526 57.9349C35.8116 57.6046 35.7524 57.245 35.7799 56.8869H35.8262ZM36.509 107.895L35.4907 107.444C35.8841 106.75 36.4627 106.287 35.5717 105.65C35.1088 105.338 35.2476 104.771 35.5717 104.354C35.8833 103.952 36.2155 103.566 36.5668 103.197C36.509 104.875 36.4858 106.298 36.4627 107.895H36.509ZM36.3932 102.04L35.0856 102.491L34.4145 100.397C34.9005 100.05 35.1435 100.304 35.4675 100.617C35.7915 100.929 36.104 100.837 36.4743 100.952C36.4048 101.323 36.3701 101.716 36.347 102.04H36.3932ZM35.8725 98.9734L34.9468 97.203L35.7684 96.0458C36.5668 97.8394 36.6015 98.4643 35.8725 98.9734ZM33.4424 82.2985C34.021 84.6939 34.5996 87.1124 35.1435 89.5193C35.2245 89.8665 35.2824 90.2136 35.3518 90.5723C35.4212 90.9311 35.6295 91.3824 35.1088 91.7295C35.0252 91.7924 34.9594 91.8761 34.918 91.9722C34.8766 92.0683 34.861 92.1735 34.8726 92.2775C34.8843 92.3815 34.9229 92.4806 34.9846 92.5651C35.0463 92.6497 35.129 92.7166 35.2245 92.7594C36.1155 93.1066 35.8378 93.8472 35.9882 94.5762C34.3103 94.5762 34.7501 96.3467 33.7433 96.8095C33.1647 95.9069 33.1763 95.7796 33.8359 95.1548L35.0856 93.9976C34.4376 93.3959 34.4376 93.3959 33.2341 94.2522C32.7019 93.2454 32.6903 93.095 33.6045 92.8983C34.5186 92.7015 34.4029 91.9957 34.6806 91.4634C34.8262 91.2073 34.8748 90.9073 34.8174 90.6183C34.76 90.3293 34.6006 90.0707 34.3682 89.8896C33.3152 89.959 33.8937 91.0468 33.211 91.4865C32.5977 91.4865 32.0538 91.4055 31.9728 90.3293C33.3152 90.2252 33.5582 89.0564 33.9516 88.015C34.102 87.6331 34.0095 87.1934 33.3499 87.0661L31.996 89.5424H31.753C31.7023 89.2748 31.7023 89.0001 31.753 88.7324C32.2158 87.4711 32.2274 87.4827 30.9892 86.9272C31.9942 86.3594 32.8322 85.5373 33.4193 84.5434C32.6787 84.0574 32.6787 84.0574 31.753 85.0295C31.753 84.7749 31.6835 84.5897 31.6372 84.4277C31.591 84.2657 31.51 84.0574 31.3827 83.6756L30.5958 84.8327L30.0288 83.1664L33.049 81.2686C33.2141 81.598 33.3458 81.943 33.4424 82.2985ZM27.6566 63.0546L27.9227 63.1357C28.617 65.6352 29.3345 68.1115 30.0172 70.611C30.4916 72.3815 30.9082 74.1751 31.4174 76.2002C31.1397 76.6283 30.6884 77.3574 30.2023 78.017C31.0471 78.8964 31.3595 77.6119 32.0885 77.5425C32.3547 78.4914 32.6208 79.475 32.9101 80.5049L31.348 81.1992C31.348 80.6438 31.348 80.1809 31.267 79.4981C30.3412 80.1462 30.1098 81.0256 29.6353 81.8935L29.1377 80.3429C29.2535 80.1809 29.346 80.0883 29.4155 79.9726C29.589 79.6486 29.751 79.313 29.9246 78.9774L28.7674 78.665C27.6681 78.0401 28.131 76.7556 27.6103 75.5753L28.9295 75.4365C29.4733 74.3834 28.698 73.828 28.0153 73.1221L27.2284 73.5734C27.078 72.8791 26.9391 72.2311 26.7424 71.259C26.9678 71.4861 27.1802 71.7257 27.3788 71.9765C27.9574 72.7865 28.3393 72.8444 28.941 72.1153C29.2041 71.8121 29.4011 71.4574 29.5196 71.0739C29.7858 70.125 29.3692 69.7663 28.2236 69.9167C28.2236 70.1944 28.2236 70.4953 28.1541 70.7962L26.2679 69.3613C26.0249 68.5397 26.6961 67.3131 25.3769 66.4105C26.7887 66.2485 26.6267 65.1376 27.0317 64.4085C27.1873 64.0841 27.3263 63.7519 27.4483 63.4134C27.503 63.2903 27.5648 63.1705 27.6334 63.0546H27.6566ZM28.8137 90.5492H28.5129C28.0506 89.3047 27.6642 88.0333 27.3557 86.7421C26.9059 84.6309 26.2188 82.5774 25.3075 80.6206C24.4718 78.5888 23.8512 76.4751 23.456 74.314C22.8427 71.421 22.5765 68.4587 22.1831 65.5194C22.1597 65.1109 22.1597 64.7014 22.1831 64.2928C22.4261 64.5127 22.6228 64.6053 22.646 64.721C22.97 66.5725 23.1898 68.4355 23.5833 70.2639C23.9767 72.0922 24.5553 73.7354 25.0182 75.4365C25.3738 76.5336 25.6294 77.6606 25.7819 78.8038C26.0593 80.5777 26.5168 82.3186 27.1474 83.9996C27.7337 85.9668 28.3046 87.9378 28.86 89.9127C28.8844 90.1253 28.8727 90.3405 28.8253 90.5492H28.8137ZM31.0702 102.052C30.9198 101.218 30.7346 100.385 30.5264 99.5636C30.4454 99.2512 30.4454 99.0545 30.7578 98.9619V98.8924C30.503 98.5606 30.2966 98.1944 30.1445 97.8047C29.7279 96.1962 29.3692 94.5762 28.9873 92.9561C28.9682 92.6517 28.9682 92.3464 28.9873 92.042C29.2187 92.3428 29.3576 92.447 29.3923 92.5627C29.8861 94.4296 30.3682 96.2927 30.8388 98.1519C30.8785 98.3971 30.8785 98.6472 30.8388 98.8924V98.9503C31.429 101.473 32.0538 103.984 32.5398 106.518C32.9217 108.451 33.1184 110.418 33.373 112.374C33.3872 112.493 33.3771 112.614 33.3433 112.729C33.3095 112.845 33.2527 112.952 33.1763 113.045C33.063 112.868 32.9844 112.672 32.9449 112.466C32.8452 110.863 32.5697 109.276 32.1233 107.733C31.672 105.859 31.4174 103.949 31.0818 102.052H31.0702ZM18.0057 90.0516C17.8321 90.6302 17.5891 91.2088 17.3808 91.7874C15.9806 91.3592 17.1725 90.8038 17.1031 90.1905C16.7791 89.554 15.0086 90.0979 15.4136 88.5588C16.1889 88.2811 16.5708 90.202 17.5544 88.8134C16.9642 87.9455 16.7791 86.6379 15.24 86.9157C15.0951 86.692 15.0022 86.4386 14.9681 86.1743C14.9341 85.9099 14.9598 85.6413 15.0433 85.3882C15.1547 84.8611 15.1315 84.3144 14.9758 83.7986C14.82 83.2829 14.5368 82.8147 14.1523 82.4374C13.95 82.8641 13.8209 83.3218 13.7704 83.7913C13.9093 84.6476 13.4233 85.0295 12.729 85.3998L11.7685 84.0921L12.4628 83.1085C11.5255 81.9514 11.5255 81.9514 10.3336 82.5184C10.2295 81.7894 10.1253 81.1066 10.0212 80.3313H8.94499C8.64412 79.799 8.33168 79.1741 7.96138 78.5377C8.5284 78.0285 8.8987 77.3805 8.3664 76.7094C8.20439 76.5011 7.61423 76.6168 7.11664 76.5821C7.11664 76.4432 6.96621 76.2118 6.89678 76.0613C7.22079 75.6679 7.71838 75.3207 7.68366 75.043C7.59109 74.2908 6.90835 74.4991 6.34133 74.5223C5.09481 72.7809 4.06869 70.8919 3.28638 68.8984C3.12438 68.4702 2.99709 68.1347 2.30278 68.3545C2.3269 68.678 2.39303 68.997 2.4995 69.3034C3.47153 71.2938 4.50142 73.2378 5.48502 75.2166C5.66154 75.5903 5.80856 75.9772 5.92475 76.3738C6.55833 78.1888 7.48903 79.8859 8.67883 81.3959C10.0674 83.2127 11.3172 85.1336 12.6248 87.0082L15.1706 90.7228L14.9623 90.8848C14.268 90.0863 13.5274 89.3342 12.9025 88.501C11.2825 86.2908 9.62772 84.1037 8.12339 81.8241C5.64461 77.8097 3.54861 73.5712 1.86306 69.1645C1.43687 67.9661 1.24058 66.6981 1.28447 65.4269C1.92884 65.9223 2.54323 66.4555 3.12438 67.0238C4.28156 68.4124 5.43874 69.8704 6.59591 71.2938C8.10025 73.099 9.65086 74.8694 11.1205 76.6862C12.5901 78.503 14.0366 80.447 15.4946 82.3332L17.809 85.4229C17.6933 85.7353 17.4387 86.0709 17.4965 86.3486C17.5544 86.6264 17.9131 86.7652 18.1677 86.9041C18.4223 87.0429 18.8157 87.0429 19.0471 87.2281C19.2786 87.4132 19.2786 87.6678 19.3712 87.9108H19.4522V87.9803C19.6978 88.1133 19.9174 88.2897 20.1002 88.501C21.8128 91.2319 23.5717 93.9282 25.1918 96.7632C26.4109 98.9659 27.3886 101.294 28.1079 103.706C28.7096 105.685 29.4386 107.629 30.0172 109.608C30.5032 111.24 30.8504 112.906 31.3132 114.827C29.1609 113.23 28.9989 110.892 27.8996 108.694C28.05 108.694 28.3393 108.694 28.3856 108.59C28.5555 108.313 28.6287 107.987 28.5939 107.664C28.5939 107.49 28.1079 107.421 27.8301 107.328C27.5524 107.236 27.1937 107.236 27.0664 107.062C27.0067 106.992 26.965 106.909 26.9447 106.819C26.9245 106.729 26.9265 106.636 26.9504 106.547C26.9743 106.458 27.0195 106.376 27.082 106.309C27.1446 106.241 27.2226 106.19 27.3094 106.16L27.4251 106.09C27.8764 105.743 28.0963 105.257 27.7723 104.794C27.4483 104.331 26.9044 104.62 26.6151 104.794C26.4647 104.215 26.3142 103.637 26.1291 102.943C27.078 101.785 27.078 101.785 26.3489 100.929L25.0992 102.156C25.0298 99.7719 25.1918 97.4113 23.0278 95.6755C22.4608 97.4576 24.3007 98.6842 23.7569 100.489L22.2062 98.175L22.7964 97.4228C22.6335 97.0186 22.432 96.6311 22.1947 96.2657C21.6971 95.6061 21.1879 95.7218 20.7829 96.5781C19.672 95.3541 18.853 93.8942 18.3876 92.3081C19.1611 90.993 19.5351 89.4812 19.4637 87.9571H19.4059C18.8736 87.7488 18.5264 87.9571 18.376 88.5241C18.2256 89.0911 18.1677 89.5424 18.0057 90.0516ZM18.0751 95.2242C18.3705 95.3468 18.6471 95.5104 18.8967 95.7102C20.8957 97.9395 22.6457 100.38 24.1156 102.989C24.8562 104.32 25.6431 105.639 26.3258 106.993C26.8 107.962 27.206 108.964 27.5408 109.99C28.3624 112.455 29.67 114.746 30.0751 117.349C30.1452 117.53 30.2386 117.702 30.3528 117.859C31.0008 117.685 31.0008 117.257 30.8851 116.701C30.7694 116.146 30.5032 115.822 31.2901 115.486C32.1811 119.594 33.2457 123.587 32.8523 127.891C30.2371 116.03 24.5553 105.546 18.0751 95.2242ZM34.1252 141.176C33.9845 141.372 33.8569 141.576 33.7433 141.789C33.4424 142.472 33.0606 142.402 32.5861 141.916L33.1994 140.759L34.102 141.222C33.8572 140.979 33.6434 140.707 33.4656 140.412C33.373 140.215 33.4656 139.914 33.4656 139.579C34.5418 139.926 34.1136 140.586 34.1252 141.176ZM45.697 121.619C45.778 121.967 45.8474 122.256 45.9284 122.638C45.1299 123.147 44.3199 123.702 43.4752 124.2C41.3088 125.492 39.4113 127.19 37.886 129.199C37.0307 130.441 36.353 131.796 35.8725 133.226C35.2592 134.823 34.8658 136.501 34.3682 138.179L31.9381 137.993C31.8077 137.036 32.0342 136.064 32.5746 135.263C32.8667 134.769 33.0594 134.222 33.1416 133.654C33.2689 133.052 33.5003 132.497 33.697 131.826C32.7134 131.027 32.9101 129.778 32.9449 128.701C32.9449 128.157 33.6045 127.544 34.102 127.139C34.3725 126.93 34.5531 126.626 34.6068 126.288C34.6606 125.951 34.5835 125.605 34.3913 125.322C33.87 123.882 33.7227 122.334 33.9632 120.821C33.9632 120.219 34.345 120.092 34.8889 119.93L34.5765 116.609C34.4608 115.452 34.3219 114.294 34.2293 113.137C34.1368 111.98 34.2293 111.066 34.0673 110.059C33.8012 108.057 33.5119 106.055 33.13 104.077C32.6324 101.485 32.1117 98.8924 31.4752 96.3235C30.7925 93.5347 29.9709 90.7806 29.2303 88.0034C28.9757 87.0545 28.86 86.0709 28.6054 85.122C28.293 83.9649 27.8533 82.8077 27.5408 81.6505C26.835 79.0121 26.1754 76.3622 25.5042 73.7123C25.0645 71.9765 24.6479 70.2407 24.2197 68.4818C23.9304 67.3246 23.6064 66.1675 23.3634 65.0103C23.3718 64.616 23.442 64.2255 23.5717 63.8531L22.0442 63.6448C22.0442 60.9254 21.6971 58.1829 22.8774 55.5446C23.132 54.966 23.3981 54.3874 24.1503 54.2717C24.9025 54.1559 25.4463 54.3527 25.5389 55.128C25.8722 57.0753 26.4394 58.9753 27.2284 60.7866C27.3258 61.1662 27.3916 61.5533 27.4251 61.9438C25.9555 61.9438 26.2679 63.3092 25.7125 64.2581C25.4579 63.5175 25.2728 62.9505 25.0413 62.2562C25.6546 62.2562 26.0597 61.9669 25.9786 61.2957C25.8976 60.6246 25.9786 59.6063 24.8215 59.5715C24.8812 58.3225 24.7604 57.0715 24.4627 55.857H24.1387C23.9828 56.2285 23.8702 56.6168 23.8032 57.0142C23.6578 58.0634 23.6734 59.1287 23.8494 60.1733C23.9981 60.8301 24.0718 61.5017 24.0693 62.1752C24.2571 64.5525 24.6442 66.9099 25.2265 69.2224C26.0337 73.2863 27.0456 77.3068 28.2583 81.2686C29.3576 85.0295 30.5726 88.7671 31.4637 92.5627C32.6512 96.7647 33.5177 101.051 34.0557 105.384C34.1252 106.171 34.2988 106.958 34.426 107.699L35.3981 107.872C35.4478 108.343 35.4006 108.82 35.2592 109.272C35.1053 109.568 35.0145 109.893 34.9926 110.225C34.9707 110.558 35.0182 110.891 35.1319 111.205C35.2462 111.87 35.3081 112.543 35.3171 113.218C35.2907 113.46 35.3163 113.705 35.3921 113.937C35.4679 114.168 35.5923 114.381 35.7568 114.561C36.097 115.182 36.2154 115.9 36.0924 116.597C36.0569 118.67 35.8868 120.738 35.5832 122.788C35.3286 124.212 35.1204 125.612 35.0046 127.035C35.0046 127.718 35.1204 128.192 35.9419 128.308C36.4048 127.914 36.3932 127.07 37.2033 126.908C37.3769 126.908 37.5157 126.294 37.5504 125.959C37.6314 125.195 37.5504 124.431 37.6893 123.644C37.8629 122.256 38.1059 120.879 38.3142 119.513C38.3167 119.375 38.3441 119.237 38.3952 119.108C39.1015 117.504 39.4942 115.78 39.5523 114.028C39.7838 112.57 40.2698 111.147 40.5938 109.7C40.9178 108.254 41.265 106.622 41.4848 105.072C41.9708 101.6 42.399 98.1287 42.8272 94.7497C42.9429 93.7199 42.966 92.6784 43.0817 91.6485C43.057 91.3116 43.1063 90.9733 43.2263 90.6574C43.3462 90.3415 43.5339 90.0558 43.776 89.8202C43.9843 89.6582 44.0191 89.1606 43.9959 88.8366C43.8918 87.0777 43.7876 85.365 43.6025 83.583C43.452 82.1944 43.2206 80.8173 42.9429 79.4634C42.4569 77.0334 41.913 74.6264 41.3691 72.2195C41.1815 71.5723 40.9614 70.9351 40.7095 70.3102L41.6584 70.5879C41.6584 69.9514 41.6584 69.3613 41.5658 68.6091L40.4087 68.91C40.4087 68.91 40.3161 68.91 40.3161 68.8174C39.9609 65.8986 39.2618 63.032 38.2332 60.2774C37.238 57.5002 36.0924 54.7577 35.0394 52.0036C33.9863 49.2495 32.9564 46.4607 31.915 43.6835C31.6835 43.0586 31.3942 42.4453 31.1628 41.8204C31.0124 41.427 30.6305 41.0683 31.0124 40.5707C31.0818 40.4781 31.0124 40.1078 30.8156 40.0037C30.3313 39.5135 30.0292 38.8724 29.9593 38.1869C29.8237 37.7572 29.6535 37.3392 29.4502 36.9371C29.3692 36.7288 29.1725 36.5437 29.1493 36.3354C28.9179 35.0144 28.501 33.7327 27.9111 32.5283C27.1358 30.4685 26.8234 28.293 25.8398 26.2795C25.2978 24.7799 24.9101 23.229 24.6826 21.6508C24.5437 21.1301 24.3239 20.6441 24.1734 20.1349C24.0087 19.635 23.9304 19.1106 23.942 18.5843C24.3933 19.3596 25.2843 19.8688 25.0992 20.8986C25.0066 21.4078 25.4116 21.7318 25.8861 21.8475C26.3605 21.9633 26.592 21.5698 26.7424 21.1879C26.8928 20.8061 27.2053 20.1118 27.3673 19.5448C27.3857 19.1561 27.3507 18.7667 27.2631 18.3876L26.1059 19.8109C24.9488 18.7347 25.8166 17.7396 26.1754 16.756C25.5852 16.1658 25.2728 16.9758 24.8215 16.9411C24.185 16.3394 24.185 16.3394 23.3056 16.7907C22.9121 16.1311 22.9121 16.1311 23.2361 15.2748C22.079 14.7772 21.5929 15.0896 21.7434 16.2468C21.7393 16.8804 21.9749 17.4922 22.403 17.9594C22.6541 18.2056 22.8323 18.5162 22.9181 18.8572C23.0038 19.1982 22.9938 19.5563 22.889 19.8919C22.1484 19.4985 21.5698 18.6074 20.4821 19.4059C20.2542 18.078 20.3374 16.7155 20.7251 15.4252C21.0248 14.5915 21.4544 13.8105 21.998 13.1108C22.1639 12.7921 22.4376 12.5427 22.7704 12.407C23.1031 12.2714 23.4733 12.2583 23.8147 12.3702C24.023 11.9652 24.3933 11.7685 24.7752 12.0231C25.157 12.2777 25.6778 12.7174 25.6662 13.053C25.6748 13.5005 25.7831 13.9405 25.9833 14.3409C26.1835 14.7413 26.4705 15.092 26.8234 15.3673C28.146 16.5993 29.0418 18.2206 29.3807 19.9961C29.6353 21.2689 29.9478 22.5418 30.2371 23.8379L29.2766 24.2198L27.7723 23.4329C27.7723 23.0973 27.7723 22.646 27.7723 22.0905C27.2983 22.3501 26.9261 22.7624 26.716 23.2602C26.5059 23.7581 26.4703 24.3124 26.6151 24.8331C27.0085 26.1638 27.3441 27.5177 27.7723 28.8253C28.0963 29.8089 28.5707 30.7231 28.9295 31.6835C29.6469 33.616 30.3991 35.537 31.0239 37.4694C31.6488 39.4019 32.1811 41.6237 32.7829 43.6835C33.0259 44.5514 33.373 45.3845 33.6276 46.2524C33.8822 47.1203 34.0095 47.9072 34.2293 48.7288C34.2895 49.0807 34.4151 49.4183 34.5996 49.724C35.7607 51.539 36.7119 53.4801 37.4347 55.5098C38.3836 57.9168 39.4713 60.289 40.4202 62.6959C40.7812 63.7094 41.0901 64.7406 41.346 65.7856C42.318 69.1414 43.2322 72.5204 44.2852 75.8646C44.7858 77.815 45.0308 79.8221 45.0142 81.8356C45.0028 82.0594 45.0342 82.2833 45.1068 82.4952C46.0325 84.2889 45.7201 86.1751 45.6275 88.0613C45.4887 90.8038 44.8175 93.5 44.9448 96.2657C44.8812 97.1626 44.6943 98.0465 44.3893 98.8924C43.938 100.721 43.4636 102.549 43.0239 104.389C42.4221 106.881 41.832 109.376 41.2534 111.876C40.6632 114.468 40.0962 117.072 39.5061 119.641C39.2234 120.83 38.8362 121.991 38.3489 123.112C38.1942 123.376 38.1042 123.674 38.0861 123.979C38.068 124.285 38.1223 124.59 38.2447 124.871C38.4067 125.218 38.6729 125.739 38.9159 125.751C39.1359 125.739 39.3515 125.684 39.5501 125.589C39.7487 125.493 39.9265 125.36 40.0731 125.195C40.7442 124.42 41.3344 123.552 41.9477 122.73C42.0518 122.58 42.1213 122.383 42.2601 122.291C44.1463 120.995 45.0142 118.819 46.426 117.187C46.7029 116.783 46.9467 116.358 47.155 115.915C47.3205 115.619 47.5597 115.372 47.8493 115.197C47.2707 117.604 45.535 119.398 44.3778 121.434C44.7828 122.001 45.2804 121.631 45.7085 121.573L45.697 121.619ZM29.0105 25.4579C28.9063 26.1985 28.8137 26.8118 28.7096 27.5524C28.1889 26.8581 28.1889 26.8581 28.05 25.6431L29.0105 25.4579ZM85.4807 77.1606L86.8809 77.6467C87.3438 76.6052 86.5916 76.5589 85.9205 76.2928L88.339 73.4692L88.5588 73.5965C88.5588 73.8511 88.6283 74.1636 88.5588 74.3487C87.6562 75.8067 87.9687 77.7045 86.8231 79.0816L84.2541 78.8848L85.4807 77.1606ZM85.203 81.0025C85.5039 82.1597 84.1616 82.4837 84.15 83.6987L83.6177 81.9745C83.8723 81.4075 84.474 81.1876 85.203 81.0025ZM82.5299 81.0025L82.9812 82.3564C82.7615 82.5067 82.5561 82.6772 82.3679 82.8655C81.9166 83.3863 81.9629 83.6524 82.5299 84.1616C82.7845 84.393 83.0044 84.6592 83.2011 84.8674C82.8887 86.1056 81.9629 85.5849 81.5001 85.6775L80.4239 84.3814L82.5299 81.0025ZM81.0025 87.8645C80.9458 87.896 80.8821 87.9124 80.8173 87.9124C80.7525 87.9124 80.6888 87.896 80.6322 87.8645C80.204 87.4132 80.4933 87.0777 80.933 86.5569C81.2339 87.1008 81.5348 87.4827 81.0025 87.8645ZM80.2387 88.5704L80.4586 88.7671C80.3082 88.9407 80.1577 89.1027 79.9957 89.2647C79.8337 89.4267 79.8453 89.1027 79.8453 89.1027L80.2387 88.5704ZM79.5213 85.6312C79.5213 86.4528 79.5213 86.9735 79.5213 87.3438L78.2484 89.2416C78.4798 89.311 78.8385 89.392 78.8385 89.473C78.9236 90.1299 78.7492 90.7941 78.3525 91.3245L78.2484 89.2416C78.0054 89.149 77.7739 89.0449 77.4152 88.8829L79.5213 85.6312ZM76.9061 89.7855C76.9871 90.607 77.0565 91.2551 77.1375 91.9725C76.6862 92.0767 75.9803 91.9725 75.9803 92.6437C76.0379 93.2102 76.1702 93.7666 76.3737 94.2984L74.7306 95.0159L73.4808 94.4142L76.9061 89.7855ZM57.0142 112.605C56.368 113.833 55.4735 114.912 54.3874 115.776C53.8505 115.762 53.3237 115.923 52.8857 116.234C52.4477 116.545 52.122 116.989 51.9573 117.5C51.6556 118.037 51.171 118.447 50.5918 118.657C49.803 119.161 49.0665 119.742 48.3932 120.393C47.9882 120.74 47.6179 121.168 46.8773 120.798C49.6198 118.368 52.3276 115.949 55.047 113.565C57.4655 111.425 59.9302 109.33 62.3488 107.178C62.7431 106.758 63.0957 106.301 63.4018 105.812C64.3738 104.84 65.4153 103.915 66.2947 102.873C67.9263 100.952 69.4654 98.9619 71.0507 97.0178C71.6177 96.3351 72.2079 95.6755 72.9369 94.8539C72.9369 95.3978 72.9948 95.7912 73.0064 96.1037C72.6489 96.362 72.3227 96.661 72.0343 96.9947C71.9649 97.0757 72.3236 97.4576 72.4393 97.6311C73.1221 97.6311 73.1568 96.6475 74.0478 97.0525L72.7865 98.2097C72.1385 98.1519 71.5599 97.932 71.259 98.1287C70.5416 98.5916 71.097 99.2859 71.1549 100.05C70.9466 100.107 70.7267 100.258 70.5647 100.212C69.4075 99.876 69.4075 99.9455 69.5811 101.08V101.427C68.8521 101.774 68.0884 102.167 68.1925 103.139C67.6023 103.243 67.0353 103.139 66.665 103.452C66.2947 103.764 66.2947 104.308 66.0864 104.736C65.8781 105.164 65.5657 105.639 65.2764 106.136L63.3555 105.824C63.3961 106.379 63.3961 106.936 63.3555 107.49C63.3047 107.876 63.1511 108.24 62.9109 108.545C62.6706 108.851 62.3525 109.086 61.99 109.226C60.0691 109.909 58.8309 111.54 57.1414 112.501C57.0922 112.526 57.0488 112.562 57.0142 112.605ZM92.5048 72.9717C91.9999 74.4645 91.4048 75.9252 90.7228 77.3458C89.8664 79.1163 88.8713 80.8173 87.934 82.5762C87.8245 82.8736 87.6552 83.1454 87.4364 83.3747C87.1221 83.5904 86.8566 83.8698 86.6572 84.1948C86.4579 84.5197 86.3291 84.8829 86.2792 85.2609C86.2098 85.7701 85.6659 86.2214 85.3419 86.7074C85.0179 87.1934 84.7749 87.5521 84.3699 88.1423C83.3747 88.5588 83.3747 88.5588 83.3978 89.8317C81.6621 90.2946 82.0092 90.1442 82.2406 91.4865C81.9051 91.6022 81.4306 91.6254 81.2108 91.88C80.9909 92.1345 81.0835 92.5858 81.0372 93.0371L80.0767 93.2917C79.7064 93.7546 79.9841 94.6688 79.0237 94.6109C78.9811 94.6239 78.9426 94.6478 78.9122 94.6803C78.8817 94.7128 78.8603 94.7527 78.8501 94.796C78.8501 95.6408 78.1905 95.9532 77.6929 96.555C76.5358 97.7121 75.5869 99.1007 74.4413 100.304C71.6255 103.267 68.7749 106.198 65.8897 109.099C65.1007 109.835 64.2489 110.501 63.3439 111.089C61.7354 112.246 60.0923 113.322 58.4606 114.422C58.3436 114.474 58.2183 114.506 58.0903 114.514C58.0903 114.399 58.0903 114.294 58.0903 114.26C59.5715 112.906 61.0759 111.575 62.5339 110.198C63.3902 109.4 64.1424 108.509 64.964 107.675C65.3763 107.22 65.8382 106.813 66.341 106.46C67.5998 105.44 68.7339 104.275 69.72 102.989C71.097 101.577 72.4046 100.107 73.7007 98.6263C75.3323 96.7864 76.9639 94.9233 78.5377 93.0256C79.3824 91.9957 80.0536 90.8038 80.852 89.7623C84.4161 85.3419 85.284 83.583 88.1538 78.2715C88.4907 77.7415 88.8782 77.2454 89.311 76.7904C90.3993 75.4527 91.3528 74.0108 92.1577 72.4856C90.7806 72.1269 90.7691 73.2378 90.2367 73.8048L89.5887 72.4509C90.2625 71.5961 91.0717 70.8573 91.9841 70.2639C92.3378 70.6075 92.5775 71.0515 92.6706 71.5358C92.7638 72.0201 92.7059 72.5213 92.5048 72.9717ZM24.7405 84.7286C24.7405 84.6244 24.7405 84.4856 24.8099 84.15L25.1339 84.879L24.995 84.9947C24.9025 84.9022 24.7752 84.8327 24.7405 84.7286ZM26.8581 67.4519C26.969 67.0536 27.1162 66.6662 27.2978 66.2947C28.5129 66.4683 28.5244 66.4799 28.3624 67.3478C28.293 67.7296 28.2236 68.1231 28.1657 68.505C26.9854 68.829 26.6151 68.5512 26.8581 67.4519ZM21.6971 94.9928C21.6294 95.1006 21.5386 95.192 21.4312 95.2603C21.3237 95.3287 21.2024 95.3722 21.076 95.3877C20.9497 95.4032 20.8214 95.3903 20.7007 95.35C20.5799 95.3098 20.4696 95.243 20.3779 95.1548C19.8225 94.634 20.239 93.9976 20.2275 93.2801C21.5467 93.2686 21.4078 94.2869 21.6971 94.9928ZM28.9295 75.4596C29.149 75.2785 29.4058 75.1481 29.6816 75.0777C29.832 75.0777 30.1792 75.4827 30.1445 75.5753C29.9015 76.1539 29.9709 76.9639 29.0799 77.2069C28.5244 76.6515 28.9295 76.0266 28.9295 75.4596ZM47.2244 38.9738C47.4096 38.9738 47.5947 39.2052 47.9419 39.4714C47.5484 39.6218 47.3286 39.7838 47.1203 39.7722C46.912 39.7607 46.831 39.5176 46.6806 39.3788C46.8657 39.2283 47.0393 38.9738 47.2244 38.9738ZM47.2244 22.4146C47.4711 22.7417 47.6662 23.1046 47.803 23.4907C47.8153 23.5925 47.8048 23.6957 47.7724 23.793C47.7401 23.8902 47.6865 23.9791 47.6157 24.0532C47.5449 24.1273 47.4586 24.1848 47.3629 24.2216C47.2673 24.2584 47.1646 24.2736 47.0624 24.266C46.5648 24.266 46.3913 23.8147 46.5186 23.3866C46.6458 22.9584 46.9004 22.8774 47.2476 22.4146H47.2244ZM19.3943 91.4171C20.1696 90.8848 20.5515 91.0352 21.3499 92.366C20.2853 92.8288 20.1002 92.7247 19.3943 91.4171ZM48.0807 16.4435C48.1965 17.2767 47.4559 17.3461 46.9814 17.7511C46.8046 17.597 46.6956 17.3793 46.6783 17.1453C46.661 16.9113 46.7366 16.6799 46.8889 16.5014C47.2476 16.0154 47.6757 16.3278 48.0807 16.4435ZM27.9343 21.2342C27.939 20.5958 27.9816 19.9583 28.0616 19.3249C29.1146 20.0423 28.8137 20.9334 28.9873 21.6392C28.9873 21.6392 28.4897 21.9285 28.3046 21.8591C28.1965 21.7931 28.1063 21.7016 28.0417 21.5927C27.9772 21.4838 27.9403 21.3607 27.9343 21.2342ZM67.2783 23.0857L68.8752 23.5717C68.0999 24.2776 67.5676 24.7289 67.0353 25.2496C66.3989 24.4396 66.4452 24.1735 67.2899 23.1436L67.2783 23.0857ZM11.1205 79.4866C11.1205 79.6833 10.6345 79.8453 10.322 80.0536C9.9633 79.4634 9.69715 79.0237 9.41943 78.584C9.48886 78.4798 9.54672 78.3757 9.60458 78.2715C9.97192 78.3301 10.3275 78.4473 10.6576 78.6187C10.7905 78.7236 10.9002 78.8548 10.9798 79.0042C11.0595 79.1536 11.1074 79.3178 11.1205 79.4866ZM13.9671 81.2223C14.106 81.4885 14.2101 81.9861 14.0713 82.1597C13.9324 82.3332 13.3307 82.4258 13.0993 81.9745C12.8678 81.5232 12.6248 81.6274 12.2314 81.6274C11.8379 81.6274 11.5486 81.2686 11.2131 81.0719L11.3172 80.8058C11.9515 80.7406 12.5889 80.7097 13.2265 80.7132C13.3777 80.7444 13.5211 80.8055 13.6483 80.8929C13.7755 80.9804 13.8839 81.0924 13.9671 81.2223ZM23.5833 13.053C23.6101 12.8435 23.6606 12.6378 23.7337 12.4397C24.8909 12.7521 24.9603 12.7984 24.8909 13.9093C24.8912 14.2192 24.868 14.5287 24.8215 14.835C24.6967 15.087 24.5326 15.3174 24.3355 15.5178C24.0924 15.3095 23.6643 15.1359 23.6296 14.8929C23.5563 14.2824 23.5408 13.6664 23.5833 13.053Z" fill="#101A24"/>
</g>
<defs>
<clipPath id="clip0_1_127">
<rect width="93.6273" height="143.502" fill="white"/>
</clipPath>
</defs>
</svg>
