<svg width="313" height="245" viewBox="0 0 313 245" fill="none" xmlns="http://www.w3.org/2000/svg">
<g opacity="0.2" clip-path="url(#clip0_1_107)">
<path d="M286.655 121.918C286.746 120.995 285.915 120.53 285.224 120.267C283.591 119.528 281.879 118.979 280.121 118.63C275.135 117.85 270.208 116.732 265.373 115.282C263.936 114.866 262.434 114.662 260.991 114.265C256.765 113.116 252.537 111.903 248.323 110.716C246.667 110.508 245.126 109.757 243.943 108.579C245.381 108.785 246.615 109.002 247.859 109.148C249.727 109.368 251.607 109.612 253.477 109.685C255.916 109.793 258.351 109.71 260.815 109.773C265.212 109.875 269.598 110.048 273.975 110.144C276.241 110.199 278.521 110.069 280.786 110.092C283.051 110.116 285.658 110.265 288.095 110.278C288.436 110.328 288.784 110.288 289.105 110.162C289.426 110.036 289.708 109.828 289.923 109.559C290.139 109.291 290.28 108.97 290.333 108.629C290.386 108.289 290.349 107.94 290.225 107.618C290.093 106.503 289.664 105.442 288.982 104.549C288.301 103.656 287.392 102.962 286.35 102.54C284.826 102.03 283.26 101.656 281.671 101.422C276.769 100.585 271.794 101.131 266.866 101.005C262.432 100.875 257.998 101.23 253.641 102.063C252.816 102.161 251.987 102.209 251.156 102.205L251.093 101.752C253.845 100.836 256.503 99.7424 259.369 99.0402C263.144 98.1286 267.012 97.5728 270.824 96.8202C273.437 96.3123 276.04 95.745 278.633 95.1182C279.422 94.9354 280.161 94.5831 280.8 94.0859C281.438 93.5886 281.961 92.9583 282.331 92.2387C282.997 91.0571 282.708 90.2716 281.453 89.7098C281.102 89.529 280.722 89.4133 280.331 89.3683C278.853 89.2707 277.373 89.2008 275.893 89.1587C272.49 89.1804 269.11 89.7157 265.867 90.7463C262.279 91.7361 258.722 92.9361 255.252 94.2682C250.869 95.8929 246.56 97.6883 242.212 99.4081C237.572 101.251 232.869 103.159 227.888 103.45C225.843 103.625 223.831 104.071 221.904 104.777C220.706 105.076 219.486 105.277 218.255 105.379C218.8 104.909 219.442 104.567 220.135 104.376C224.612 102.928 228.583 100.438 232.722 98.2632C235.921 96.5834 239.237 95.1347 242.643 93.9281C245.793 92.8155 248.88 91.5255 252.032 90.2657L260.696 86.7631C261.546 86.4559 262.318 85.9661 262.958 85.3282C263.597 84.6903 264.089 83.9199 264.399 83.0712C264.971 81.5019 264.631 80.4683 263.046 80.0494C262.038 79.7237 260.956 79.7032 259.936 79.9904C257.329 80.8137 254.693 81.5226 252.174 82.5099C250.055 83.3611 247.984 84.3251 245.969 85.3978C244.354 86.2589 242.739 87.1201 241.198 88.088C239.435 89.1578 237.738 90.3217 235.968 91.3468C232.477 93.3489 228.981 95.3106 225.48 97.2319C224.024 98.1701 222.443 98.8985 220.784 99.3957C221.354 98.6353 222.051 97.9787 222.844 97.4547C226.782 94.9655 230.574 92.2306 234.652 89.9423C238.73 87.654 242.844 84.7955 246.88 82.1246C248.496 81.0523 249.998 79.7976 251.476 78.5883C252.031 78.1295 252.461 77.5386 252.727 76.8699C252.994 76.2012 253.087 75.4762 253 74.7617C253.011 74.4264 252.938 74.0935 252.79 73.7926C252.642 73.4917 252.422 73.2319 252.149 73.0362C251.877 72.8405 251.56 72.7148 251.228 72.6703C250.895 72.6258 250.557 72.6638 250.242 72.781C249.169 73.0598 248.125 73.4429 247.125 73.9247C244.476 75.3376 241.867 76.8261 239.352 78.4593C236.044 80.6122 232.816 82.8845 229.655 85.251C227.653 86.7236 225.784 88.3845 223.868 89.9572C222.342 91.2573 220.914 92.6508 219.394 93.9636C216.409 96.447 213.47 99.0188 210.338 101.289C208.582 102.695 206.556 103.725 204.386 104.317C204.077 104.438 203.739 104.465 203.415 104.396C203.09 104.328 202.793 104.166 202.559 103.93C202.133 103.569 201.63 103.311 201.089 103.176C200.548 103.041 199.982 103.031 199.437 103.149C198.824 103.216 198.218 103.264 197.613 103.376C195.685 103.626 193.773 103.986 191.885 104.454C186.986 105.932 182.18 107.523 177.258 109.111C177.258 109.111 177.114 108.993 176.99 108.881C179.05 107.93 181.159 107.087 183.307 106.355C187.499 105.186 191.509 103.44 195.221 101.168C196.867 100.042 198.443 98.8173 199.941 97.5004C200.246 97.2655 200.464 96.9345 200.559 96.5606C200.654 96.1868 200.619 95.792 200.462 95.4399C200.4 95.1224 200.364 94.8004 200.354 94.477L210.188 93.1375C212.435 92.9197 214.638 92.3725 216.727 91.5137C218.244 90.8342 218.954 89.8561 218.568 88.555C218.07 86.8924 217.797 85.5307 215.671 85.4331C212.525 85.2627 209.37 85.4659 206.272 86.0384C203.014 86.6741 199.735 87.24 196.457 87.8379C195.304 88.0473 194.151 88.2247 193.02 88.5039C190.529 89.0981 188.046 89.7305 185.574 90.401C184.158 90.7836 182.815 91.305 181.406 91.7003C180.127 92.2609 178.772 92.6285 177.386 92.791C180.266 91.0874 183.297 89.6504 186.438 88.4978C188.196 87.9655 189.933 87.3634 191.691 86.8311C192.312 86.6293 192.975 86.5351 193.617 86.3711C195.237 85.9767 196.83 85.4999 198.478 85.1879C200.973 84.7002 203.53 84.4219 206.023 83.8703C208.198 83.391 210.252 82.6846 212.449 82.064L224.548 78.5926C225.795 78.1242 227.091 77.8025 228.412 77.6339C229.414 77.6203 230.403 77.4118 231.325 77.0201C232.627 76.423 233.773 75.7149 235.05 75.1632C237.427 74.0902 238.512 71.8102 240.075 69.9718C240.168 69.8361 240.229 69.6816 240.255 69.5193C240.361 69.1111 240.356 68.6822 240.242 68.2763C240.128 67.8703 239.909 67.5018 239.606 67.2082C239.34 66.9183 238.981 66.7297 238.591 66.6747C238.201 66.6196 237.805 66.7014 237.468 66.9062C236.636 67.3503 235.803 67.7943 234.905 68.1761C232.697 69.3535 230.531 70.6385 228.269 71.7149C223.433 73.5887 218.484 75.1565 213.451 76.409C209.835 77.5275 206.176 78.4744 202.511 79.4725C201.68 79.7055 200.821 79.8879 199.969 80.083C200.475 79.5694 201.068 79.149 201.721 78.8409C202.23 78.6198 202.696 78.311 203.098 77.9284C204.421 76.5083 206.028 75.3811 207.814 74.6192C210.191 73.379 212.669 72.3445 215.223 71.527C217.968 70.5978 220.778 69.9738 223.559 69.1715C225.749 68.5383 227.959 67.9429 230.088 67.1642C232.72 66.2529 235.273 65.1246 237.719 63.7911C241.249 61.8115 245.033 60.2793 248.455 58.0658C251.876 55.8524 255.383 54.4682 258.366 51.8889C259.191 51.1572 260.208 50.6635 261.105 50.0067C262.309 49.1988 263.463 48.3184 264.56 47.3703C265.094 46.8347 265.395 46.1093 265.395 45.3528C265.396 44.5964 265.096 43.8705 264.563 43.3343C263.882 42.5916 263.004 42.0572 262.031 41.793C261.059 41.5287 260.031 41.5455 259.068 41.8413C255.044 43.1643 251.226 45.0475 247.727 47.4354C244.393 49.5379 241.125 51.7664 237.831 53.9446L228.955 59.8449C228.425 60.1274 227.883 60.4167 227.393 60.775C227.329 60.6686 227.271 60.5592 227.218 60.447C228.064 59.5455 228.964 58.6972 229.915 57.9072C233.151 55.4684 235.84 52.4299 239.274 50.1777C242.323 48.1787 244.969 45.6658 247.968 43.4507C250.967 41.2356 253.544 39.2618 256.454 37.3048C259.672 35.0216 262.767 32.5704 265.727 29.9614C266.173 29.5488 266.567 29.0831 266.9 28.5746C267.291 27.8478 267.491 27.0335 267.482 26.2082C267.472 25.3828 267.254 24.5734 266.846 23.8556C265.757 22.5357 264.197 21.6921 262.496 21.5039C260.795 21.3158 259.088 21.7979 257.737 22.8479C255.267 24.9915 252.896 27.2605 250.636 29.6161C246.664 33.7437 242.842 38.0017 238.929 42.1789C237.032 44.2115 235.095 46.2005 233.158 48.1894C232.841 48.4964 232.51 48.7869 232.164 49.0598L231.868 48.7798L234.802 44.558C236.851 41.7154 238.985 38.941 240.916 36.0311C242.527 33.5519 243.989 31.0061 245.379 28.4176C247.252 25.2594 248.434 21.7406 248.849 18.0926C248.935 17.4976 248.869 16.8907 248.657 16.328C248.446 15.7653 248.096 15.265 247.64 14.8734C247.184 14.4817 246.637 14.2114 246.048 14.0875C245.46 13.9635 244.85 13.9898 244.275 14.1641C242.119 14.793 240.192 16.0347 238.728 17.7382C237.394 19.3123 236.344 21.1058 235.624 23.039C234.454 25.98 232.955 28.789 231.654 31.6374C229.318 36.9181 226.982 42.2307 224.775 47.5399C222.986 51.6231 220.672 55.4554 217.891 58.9396C217.548 59.3568 217.181 59.753 216.79 60.1263L219.232 51.5489C219.566 50.3824 219.939 49.2277 220.305 48.0604L223.995 36.1434L227.302 25.6628C227.484 25.1688 227.522 24.6331 227.411 24.1184C227.3 23.6038 227.045 23.1313 226.675 22.7562C225.847 21.9017 224.829 22.1203 223.874 22.5164C221.557 23.5011 219.568 25.1239 218.138 27.1957C216.429 29.53 215.148 32.1495 214.356 34.932C213.63 37.3245 213.045 39.7575 212.604 42.2185C212.244 44.5818 212.188 47.0905 211.778 49.4806C211.218 52.7765 210.422 56.0531 209.765 59.2876C209.638 59.6327 209.471 59.9613 209.266 60.2665C209.055 59.9388 208.972 59.5449 209.032 59.1598C209.762 54.7118 209.798 50.1777 209.139 45.7187C208.505 41.1622 208.22 36.5639 208.285 31.964C208.216 30.641 208.315 29.3146 208.578 28.0162C208.609 27.4369 208.485 26.8598 208.221 26.3435C208.187 26.2221 208.129 26.1088 208.05 26.0102C207.972 25.9116 207.874 25.8298 207.763 25.7695C207.653 25.7092 207.531 25.6717 207.406 25.6592C207.28 25.6467 207.154 25.6594 207.033 25.6967C206.004 25.7846 205.011 26.1192 204.138 26.6721C203.265 27.225 202.538 27.9799 202.019 28.8731C201.242 30.2932 200.741 31.8471 200.54 33.4532C200.128 36.0225 199.475 38.6556 200.833 41.172C200.887 41.2729 200.839 41.3957 200.867 41.5101C201.243 43.6429 201.747 45.7723 201.982 47.9152C202.627 53.1635 202.543 58.4758 201.732 63.701C201.332 65.9886 200.32 68.1323 199.72 70.3803C199.005 72.8699 197.439 75.0297 195.295 76.4834C192.666 78.4202 189.857 80.1122 187.102 81.8732C185.039 83.2003 182.916 84.4138 180.885 85.772C178.553 87.3236 176.301 88.9946 174.022 90.6152C174.244 90.1649 174.54 89.755 174.898 89.4025C177.848 86.3059 180.832 83.2405 183.737 80.1196C184.789 78.9763 185.768 77.767 186.667 76.4991C187.605 75.2208 188.324 73.8651 189.212 72.5818C190.322 70.9191 191.073 69.0433 191.418 67.0739C191.763 65.1046 191.693 63.085 191.214 61.1441C191.052 60.4947 190.792 59.8739 190.442 59.3031C190.102 58.6552 189.552 58.1415 188.882 57.8456C188.212 57.5497 187.462 57.4889 186.754 57.6731C185.428 58.0725 185.163 59.186 184.984 60.4316C184.876 61.3651 184.617 62.2748 184.217 63.1253C182.953 65.6466 181.605 68.1318 180.257 70.6169C178.781 73.3485 177.253 76.075 175.777 78.8066C174.881 80.4676 174.101 82.1958 173.133 83.8139C172.606 84.9411 171.81 85.9218 170.816 86.6699L171.783 84.5338C172.527 82.8896 173.277 81.2581 174.007 79.5887C175.093 77.0976 175.913 74.4728 177.22 72.1231C178.527 69.7733 179.659 67.5817 180.719 65.1041C181.903 62.1968 182.144 58.9909 181.406 55.9396C181.221 55.1192 180.742 54.3947 180.06 53.9027C179.494 53.4987 178.847 53.2208 178.164 53.0877C177.481 52.9545 176.777 52.9691 176.1 53.1305C174.327 53.3306 174.033 53.5686 173.637 55.2868C173.315 56.6896 173.116 58.1084 172.827 59.5423C172.252 62.474 171.478 65.3982 171.058 68.377C170.72 71.5174 170.184 74.6333 169.455 77.7064C168.695 80.9315 167.546 84.0523 166.034 87.0003C164.412 90.0363 162.499 92.9201 160.598 95.7971C159.611 97.1838 158.556 98.5201 157.435 99.8011C157.112 100.182 156.76 100.538 156.382 100.865C154.591 102.276 152.641 103.473 150.572 104.433C147.772 105.927 145.065 107.597 142.292 109.141C139.518 110.685 137.006 111.96 134.369 113.366C133.347 113.911 132.259 114.362 131.197 114.831C129.725 115.336 128.304 115.975 126.949 116.74C123.988 118.724 120.441 119.303 117.364 120.977C117.364 120.977 117.364 120.977 117.195 120.872C117.27 120.744 117.357 120.621 117.454 120.507C119.052 119.039 120.665 117.596 122.237 116.109C122.924 115.451 123.453 114.651 124.166 114.044C125.692 112.743 127.364 111.625 128.832 110.275C132.02 107.499 134.968 104.458 137.643 101.185C139.165 99.2068 140.725 97.2406 142.416 95.3988C143.455 94.239 144.266 92.8941 144.807 91.4344C145.341 90.0963 145.855 88.7524 146.325 87.3841C146.586 86.7106 146.755 86.0047 146.826 85.2858C146.88 84.7808 146.798 84.2706 146.589 83.8077C146.38 83.3447 146.052 82.9458 145.638 82.6519C145.223 82.3579 144.738 82.1796 144.233 82.1352C143.727 82.0909 143.218 82.182 142.759 82.3993C141.456 83.0105 140.234 83.7817 139.122 84.6952C137.45 86.242 136.068 88.0764 135.043 90.1112C133.387 92.8091 131.829 95.5684 130.445 98.4127C129.266 100.883 127.775 103.193 126.008 105.284C123.64 108.137 121.037 110.788 118.228 113.208C117.427 113.895 116.659 114.612 115.865 115.311C116.341 114.169 116.941 113.083 117.654 112.072C119.214 109.62 120.86 107.267 122.362 104.797C123.698 102.562 125.001 100.296 126.122 97.9315C127.243 95.5675 127.999 93.1874 129.057 90.857C129.963 88.76 130.595 86.555 130.938 84.2963C131.018 83.9172 131.05 83.5296 131.035 83.1425C130.999 82.5824 130.789 82.0475 130.435 81.6121C130.081 81.1767 129.6 80.8623 129.059 80.7127C127.922 80.2821 127.332 80.9372 126.819 81.6479C125.647 83.2777 124.468 84.895 123.485 86.6669C122.041 89.1546 120.792 91.7651 119.437 94.2696C118.473 96.0155 117.379 97.7008 116.368 99.4224C115.358 101.144 114.384 103.024 113.318 104.792C111.468 107.885 109.455 110.887 107.702 114.041C105.26 118.657 102.124 122.87 98.4046 126.534C96.8468 127.961 95.0083 129.046 93.0069 129.721C89.6991 130.902 86.4326 132.19 83.1459 133.44C82.8558 133.595 82.511 133.617 82.1998 133.702C82.9032 132.957 83.6611 132.266 84.4672 131.634C88.1215 128.065 92.309 125.07 95.3392 120.878C96.5672 119.17 98.1735 117.746 99.3291 115.963C102.515 111.083 105.358 105.988 107.838 100.715C108.111 99.9881 108.168 99.1981 108.002 98.4398C107.966 98.1427 107.864 97.8574 107.704 97.6048C107.543 97.3522 107.328 97.1389 107.074 96.9805C106.82 96.8221 106.534 96.7226 106.237 96.6895C105.939 96.6563 105.638 96.6903 105.355 96.7889C104.091 97.0503 102.953 97.7317 102.125 98.7223C100.14 101.32 98.0057 103.82 96.0402 106.423C93.0923 110.345 90.2748 114.359 87.3455 118.254C87.1144 118.512 86.8617 118.75 86.5903 118.965C87.2951 116.094 88.1892 113.365 89.1219 110.647C89.6325 109.144 90.3491 107.692 90.7629 106.159C91.004 105.034 91.1197 103.885 91.1078 102.734C91.2673 100.569 90.8985 98.3967 90.0331 96.4049C89.3292 94.9332 88.373 94.5681 87.1258 95.5412C85.8785 96.5142 84.601 97.795 83.352 98.9472C83.2133 99.0212 83.2133 99.2642 83.1208 99.3946C81.9112 101.34 81.0946 103.504 80.717 105.764C79.6193 110.238 78.8177 114.782 77.8488 119.284C77.5505 120.871 77.1384 122.433 76.6157 123.96C75.5862 126.648 74.3886 129.264 73.2195 131.994C73.2666 132.082 73.4819 132.243 73.7123 132.492C71.9159 135.443 69.9419 138.214 66.5299 139.563C66.862 138.951 67.2264 138.356 67.6216 137.782C69.0943 134.923 70.5089 132.046 71.9042 129.163C72.2774 128.41 72.5489 127.612 72.7117 126.788C72.8121 126.452 72.8263 126.096 72.7532 125.754C72.68 125.411 72.5218 125.092 72.2931 124.827C72.0644 124.562 71.7725 124.358 71.4445 124.235C71.1164 124.112 70.7626 124.074 70.4158 124.123C69.862 124.133 69.3137 124.234 68.7926 124.422C68.0026 124.687 67.2367 125.02 66.5034 125.416C65.8085 125.746 65.1756 126.193 64.6321 126.738C63.0449 128.542 61.7637 130.594 60.839 132.812C59.3675 136.476 57.5128 139.974 55.3057 143.248C55.015 143.581 54.8397 143.998 54.8061 144.438C54.9103 145.485 54.2459 145.758 53.4932 146.078C51.3865 146.959 49.2999 147.877 47.2066 148.783C45.8367 149.4 44.3525 149.722 42.8501 149.729C45.5549 147.266 47.9207 144.805 50.2209 142.282C52.5212 139.759 55.093 137.107 57.3966 134.469C58.837 132.691 59.8975 130.636 60.5128 128.432C60.7526 127.917 60.8108 127.335 60.6778 126.782C60.5448 126.229 60.2284 125.738 59.7803 125.388C59.3021 124.999 58.7323 124.738 58.1249 124.631C57.5176 124.523 56.893 124.573 56.3103 124.776C54.5105 125.355 52.9278 126.464 51.7696 127.959C49.7427 130.66 47.847 133.486 45.8663 136.243C44.4475 138.231 43.1313 140.23 41.551 142.158C38.3816 145.737 34.9951 149.118 31.4106 152.281C30.7556 153.01 30.0067 153.649 29.1835 154.182C26.9254 155.386 24.6672 156.59 22.2745 157.542C20.2072 158.355 18.0967 159.053 15.9526 159.634C14.5632 160.067 13.9468 160.703 14.7045 162.762C15.6026 165.297 17.8304 166.102 19.8261 167.079L21.3021 165.806C22.0095 165.377 22.6215 164.808 23.1003 164.134C23.4316 163.378 24.0341 162.773 24.789 162.439C27.1582 161.322 29.5543 160.255 31.91 159.112C35.301 157.449 38.6365 155.622 42.088 154.073C44.5026 152.979 47.066 152.196 49.5622 151.286C49.865 151.124 50.2299 151.14 50.8464 150.99L48.7488 154.166C47.7951 155.598 46.907 157.093 45.8615 158.444C44.1357 160.677 42.6142 163.141 39.8767 164.358C39.5677 164.48 39.3029 164.693 39.1172 164.968C38.9314 165.244 38.8335 165.569 38.8364 165.901C38.7593 167.401 39.235 168.877 40.1735 170.049C41.1507 171.456 41.9353 171.621 43.3743 170.643C44.5619 169.832 45.5223 168.898 46.6594 168.113C49.1344 166.133 51.7965 164.399 54.6079 162.935C54.8668 162.834 55.0974 162.672 55.2799 162.463C55.9284 161.682 56.7732 161.088 57.7274 160.741C58.6817 160.394 59.7109 160.308 60.7095 160.491C65.4783 161.083 70.124 162.422 74.4759 164.459C76.9905 165.468 79.548 166.405 82.135 167.245C84.7219 168.085 87.2769 168.683 89.8116 169.486C92.4148 170.355 95.1686 170.679 97.9022 170.438C98.6199 170.388 99.3165 170.173 99.9381 169.811C100.56 169.448 101.089 168.948 101.487 168.348C102.147 167.429 102.076 166.932 101.194 166.219C99.7291 165.083 98.0029 164.333 96.1732 164.036C93.7116 163.583 91.3004 162.859 88.8329 162.425C85.3814 161.787 81.8357 161.701 78.4961 160.452C77.5399 160.087 76.5618 159.863 75.6114 159.479L75.6586 159.081C76.1181 158.968 76.5878 158.902 77.0605 158.884C78.2261 158.905 79.3897 158.988 80.5465 159.132C82.9476 159.471 85.352 159.939 87.7607 160.323C90.1693 160.708 92.4871 161.043 94.8251 161.417C98.941 162.025 103.064 162.678 107.148 163.255C107.972 163.366 108.81 163.285 109.597 163.018C109.909 162.937 110.192 162.77 110.414 162.535C110.635 162.301 110.786 162.009 110.849 161.693C110.912 161.377 110.885 161.05 110.771 160.748C110.656 160.447 110.459 160.184 110.202 159.989C109.515 159.345 108.743 158.797 107.908 158.361C104.212 156.546 100.267 155.292 96.2012 154.639C91.4609 153.638 86.6038 153.305 81.7712 153.65C78.9445 153.91 76.096 154.068 73.261 154.251C72.7631 154.29 72.2501 154.239 71.6227 154.217C73.2728 152.997 74.6899 151.917 76.1474 150.913C76.5665 150.567 77.0803 150.355 77.6217 150.305C81.2826 150.394 84.9461 150.579 88.6137 150.681C91.1039 150.763 93.5555 150.833 96.0996 150.772C96.9357 150.72 97.7558 150.519 98.5208 150.178C98.8067 150.069 99.065 149.898 99.2776 149.678C99.4901 149.458 99.6517 149.194 99.7509 148.904C99.8501 148.615 99.8844 148.307 99.8515 148.003C99.8186 147.699 99.7192 147.406 99.5604 147.144C99.2773 146.552 98.8471 146.043 98.3108 145.665C97.7744 145.287 97.1501 145.054 96.4975 144.986C94.3967 144.875 92.3068 144.693 90.2042 144.518C89.4516 144.415 88.7049 144.272 87.9672 144.091C89.0206 143.279 90.2591 142.741 91.5718 142.525C94.7292 142.13 97.6623 140.686 99.9004 138.424C101.345 138.642 102.881 138.908 104.409 139.13C107.175 139.401 109.902 139.979 112.539 140.855C114.097 141.466 115.72 141.897 117.319 142.405C119.635 143.163 122.031 143.765 124.275 144.723C126.219 145.55 128.338 145.879 130.441 145.68C130.862 145.689 131.276 145.572 131.631 145.345C131.986 145.119 132.266 144.792 132.435 144.406C132.739 143.486 132.744 142.494 132.45 141.571C132.156 140.648 131.577 139.842 130.797 139.268C129.409 138.574 127.965 138 126.479 137.552C124.545 136.964 122.698 136.539 120.716 136.105C121.286 135.935 121.886 135.897 122.472 135.995C126.846 136.903 131.173 137.755 135.526 138.626C138.85 139.3 142.161 139.948 145.529 140.55C146.346 140.669 147.179 140.602 147.967 140.352C148.241 140.287 148.494 140.151 148.7 139.957C148.905 139.764 149.057 139.52 149.139 139.25C149.221 138.98 149.231 138.694 149.168 138.418C149.105 138.143 148.971 137.89 148.779 137.683C148.521 137.317 148.191 137.008 147.809 136.774C146.6 135.98 145.344 135.259 144.049 134.615C139.463 132.57 134.592 131.233 129.604 130.652C124.284 129.973 118.881 130.019 113.508 129.79C111.843 129.705 110.098 129.745 108.402 129.725C109.735 129.151 111.111 128.683 112.517 128.325C113.481 128.038 114.403 127.579 115.376 127.367C119.065 126.567 122.788 125.861 126.477 125.061C128.517 124.396 130.699 124.29 132.794 124.754C133.383 124.877 133.983 124.943 134.584 124.95C135.742 125.001 136.896 125.133 138.036 125.345C138.924 125.626 139.789 125.977 140.622 126.397C141.673 126.741 142.704 127.143 143.711 127.601C147.155 129.41 150.543 131.298 153.988 133.139C154.234 133.251 154.486 133.349 154.744 133.432C156.893 134.425 159.161 135.273 161.219 136.46C163.812 138.089 166.673 139.246 169.669 139.877C171.075 140.083 172.458 140.61 173.853 140.887C174.824 141.098 175.824 141.18 176.807 141.321C177.619 141.399 178.437 141.236 179.157 140.852C179.878 140.468 180.469 139.88 180.856 139.161C181.27 138.6 181.333 138.08 180.65 137.651C180.34 137.423 180.108 137.105 179.987 136.741C179.625 135.782 178.902 135.004 177.972 134.574C177.337 134.233 176.701 133.891 176.028 133.602C172.944 132.072 169.694 130.902 166.342 130.115C161.181 129.284 156.146 127.804 151.356 125.712C151.391 125.596 151.439 125.473 151.467 125.344C153.784 125.859 156.117 126.316 158.428 126.882C161.222 127.563 163.994 128.386 166.795 129.079C169.061 129.653 171.326 130.163 173.616 130.659C178.015 131.826 182.5 132.636 187.029 133.082C188.412 133.155 189.77 133.241 191.177 133.236C191.792 133.21 192.384 132.995 192.871 132.619C193.359 132.243 193.717 131.725 193.898 131.136C193.98 130.525 193.892 129.902 193.642 129.337C193.392 128.773 192.991 128.288 192.483 127.937C191.22 127.131 189.865 126.477 188.447 125.99C184.736 125.012 180.922 124.479 177.085 124.402C172.665 124.166 168.222 124.008 163.763 123.729C160.412 123.523 157.104 123.213 153.799 122.788C149.332 122.352 144.841 122.203 140.355 122.342C139.773 122.313 139.195 122.243 138.623 122.132C138.881 122.004 139.15 121.898 139.427 121.817C144.12 121.501 148.455 119.999 152.936 118.922C155.637 118.276 158.365 117.647 161.09 117.198C164.846 116.771 168.646 116.967 172.337 117.779C175.171 118.293 178.036 118.742 180.872 119.32C183.674 119.782 186.416 120.553 189.049 121.619C191.586 122.761 194.221 123.721 196.745 124.838C197.276 125.079 197.856 125.19 198.439 125.161C199.021 125.133 199.588 124.965 200.092 124.673C200.4 124.547 200.655 124.318 200.812 124.024C200.969 123.73 201.018 123.391 200.952 123.065C200.9 122.054 200.575 121.076 200.013 120.235C199.45 119.394 198.67 118.721 197.756 118.288C195.552 117.214 193.293 116.255 190.99 115.415C189.569 115.017 188.126 114.705 186.667 114.479C185.496 114.197 184.323 113.882 183.139 113.574C182.881 113.49 182.629 113.392 182.382 113.281C182.825 112.999 183.33 112.83 183.853 112.788C187.171 112.477 190.518 112.312 193.8 111.842C196.591 111.455 199.48 111.373 202.032 109.899C202.477 109.676 202.965 109.554 203.462 109.541C204.736 109.405 206.023 109.593 207.205 110.089C209.69 111.036 212.023 112.341 214.131 113.962C215.157 114.792 216.041 115.811 217.006 116.739C218.398 117.936 219.525 119.409 220.318 121.065C220.52 121.462 220.759 121.839 221.032 122.191C222.284 124.084 223.581 125.968 224.789 127.9C226.759 131.047 228.301 134.485 230.674 137.384C231.062 137.85 231.507 138.266 231.998 138.622C232.755 139.191 233.549 139.707 234.349 140.205C235.084 140.697 235.856 141.13 236.66 141.5C236.889 141.606 237.139 141.657 237.391 141.651C237.643 141.644 237.89 141.578 238.113 141.459C238.335 141.341 238.527 141.172 238.674 140.967C238.82 140.761 238.916 140.524 238.956 140.275C239.473 138.944 239.631 137.5 239.416 136.088C239.2 134.676 238.618 133.346 237.727 132.229C236.84 131.082 235.864 129.982 235.04 128.801C231.783 124.151 228.036 119.864 223.863 116.015C222.912 115.145 221.893 114.327 220.899 113.496C221.46 113.453 222.024 113.527 222.555 113.715C226.784 115.216 230.837 117.173 234.644 119.55C236.835 120.95 239.123 122.193 241.489 123.272C244.487 124.427 247.548 125.517 250.441 126.81C251.913 127.315 253.485 127.46 255.025 127.233C255.211 127.235 255.394 127.193 255.56 127.111C255.726 127.028 255.87 126.908 255.98 126.759C256.09 126.61 256.164 126.437 256.194 126.254C256.225 126.071 256.212 125.884 256.156 125.707C255.492 123.096 254.752 120.493 252.068 119.137C251.327 118.755 250.552 118.441 249.754 118.2C246.816 117.369 243.849 116.667 240.939 115.739C239.033 115.051 237.171 114.248 235.363 113.333C230.326 111.245 225.047 109.798 219.649 109.026C218.46 108.802 217.296 108.564 216.05 108.353C217.499 107.758 219.033 107.394 220.595 107.274C223.928 107.076 227.269 107.491 230.451 108.499C232.313 109.059 234.125 109.773 235.867 110.634C237.229 111.333 238.829 111.598 240.263 112.162C242.493 113.031 244.649 114.036 246.866 114.911C249.962 116.128 253.046 117.384 256.221 118.446C259.9 119.724 263.626 120.816 267.345 121.927C269.422 122.569 271.62 122.985 273.742 123.652C276.286 124.471 278.954 124.836 281.625 124.73C282.792 124.656 283.946 124.443 285.062 124.096C285.518 123.94 285.916 123.647 286.201 123.257C286.486 122.868 286.644 122.401 286.655 121.918ZM61.7561 149.206C64.3556 149.311 66.9669 149.376 69.5732 149.493C69.9249 149.575 70.2611 149.713 70.569 149.902C69.9416 150.366 69.4908 150.736 69.0005 151.063C68.4289 151.408 67.8394 151.722 67.2343 152.004L53.4836 158.609C53.5913 158.358 53.7243 158.118 53.8806 157.895C55.9479 155.269 58.0353 152.681 60.0639 150.044C60.2476 149.768 60.5007 149.545 60.7977 149.398C61.0948 149.251 61.4253 149.185 61.7561 149.206Z" fill="white"/>
<path d="M232.52 88.1627C232.114 88.5252 231.754 88.944 231.039 88.7581C231.053 87.8431 231.792 87.4974 232.3 87.0811C234.309 85.2454 236.523 83.6463 238.897 82.3153C239.566 81.9156 240.157 81.3972 240.641 80.7856C241.599 79.7837 242.742 78.9762 244.007 78.4073C244.625 78.0776 245.382 77.6739 246.087 78.4805C245.002 79.0591 244.018 79.5838 243.022 80.1153C242.451 80.4534 241.932 80.872 241.481 81.3583C239.763 83.1496 237.486 84.1369 235.554 85.5884C234.501 86.4092 233.521 87.3049 232.52 88.1627ZM247.767 39.2154C250.367 36.8892 253.045 34.6505 255.671 32.3429C257.121 31.0511 258.505 29.6971 259.969 28.4306C260.687 27.7721 261.438 27.1447 262.189 26.5174C261.725 25.6469 261.187 25.8529 260.698 26.2431C260.002 26.7923 259.3 27.3288 258.651 27.9344C256.977 29.475 255.356 31.0527 253.682 32.5934C251.328 34.7724 248.941 36.9203 246.568 39.0934C245.793 39.7982 245.052 40.566 244.271 41.2581C242.52 42.7752 240.743 44.2739 239.005 45.8163C238.707 46.1622 238.46 46.5501 238.274 46.9676L238.563 47.235C239.609 46.5565 240.619 45.8233 241.588 45.0384C243.661 43.1226 245.668 41.1127 247.767 39.2154ZM285.062 124.096C283.954 124.455 282.807 124.68 281.645 124.768C278.965 124.864 276.29 124.486 273.742 123.652C271.62 122.985 269.422 122.569 267.301 121.934C263.581 120.823 259.849 119.719 256.169 118.441C253.007 117.372 249.91 116.123 246.815 114.906C244.598 114.031 242.441 113.026 240.212 112.157C238.777 111.593 237.178 111.328 235.816 110.629C234.073 109.768 232.262 109.054 230.4 108.494C227.217 107.486 223.876 107.071 220.543 107.269C219.025 107.401 217.535 107.764 216.126 108.345C217.31 108.589 218.474 108.827 219.726 109.018C225.098 109.798 230.351 111.248 235.363 113.333C237.212 114.214 239.114 114.98 241.058 115.627C243.967 116.555 246.934 117.257 249.873 118.088C250.671 118.329 251.446 118.643 252.187 119.025C254.871 120.381 255.611 122.984 256.274 125.595C256.33 125.772 256.343 125.959 256.313 126.142C256.282 126.325 256.209 126.498 256.099 126.647C255.988 126.796 255.844 126.917 255.678 126.999C255.512 127.082 255.329 127.123 255.144 127.121C253.617 127.36 252.055 127.232 250.586 126.749C247.643 125.483 244.633 124.366 241.635 123.21C239.268 122.132 236.981 120.888 234.789 119.489C230.961 117.103 226.884 115.143 222.63 113.643C222.099 113.455 221.535 113.38 220.974 113.424C221.968 114.255 222.987 115.072 223.937 115.943C228.12 119.803 231.874 124.102 235.135 128.767C235.959 129.948 236.935 131.048 237.822 132.195C238.713 133.311 239.295 134.642 239.511 136.054C239.726 137.466 239.568 138.909 239.051 140.241C239.011 140.49 238.915 140.727 238.768 140.932C238.622 141.138 238.43 141.306 238.208 141.425C237.985 141.544 237.738 141.609 237.486 141.616C237.234 141.623 236.983 141.571 236.755 141.465C235.951 141.095 235.178 140.662 234.444 140.17C233.644 139.673 232.85 139.157 232.093 138.588C231.602 138.231 231.157 137.816 230.768 137.35C228.396 134.451 226.854 131.012 224.884 127.866C223.676 125.934 222.379 124.049 221.127 122.157C220.854 121.805 220.614 121.428 220.413 121.031C219.604 119.343 218.446 117.845 217.016 116.636C216.051 115.709 215.167 114.689 214.141 113.859C212.033 112.239 209.7 110.934 207.215 109.986C206.033 109.491 204.746 109.302 203.472 109.439C202.975 109.452 202.487 109.574 202.042 109.796C199.49 111.27 196.601 111.353 193.81 111.739C190.528 112.209 187.181 112.374 183.863 112.685C183.34 112.728 182.835 112.897 182.392 113.178C182.639 113.29 182.891 113.388 183.148 113.472C184.333 113.779 185.506 114.094 186.677 114.377C188.136 114.602 189.579 114.914 191 115.312C193.303 116.152 195.562 117.111 197.766 118.185C198.68 118.619 199.46 119.292 200.023 120.133C200.585 120.974 200.91 121.951 200.962 122.962C201.028 123.288 200.979 123.628 200.822 123.921C200.665 124.215 200.41 124.445 200.102 124.571C199.598 124.863 199.031 125.03 198.448 125.059C197.866 125.088 197.286 124.977 196.755 124.736C194.218 123.593 191.583 122.633 189.059 121.516C186.426 120.45 183.684 119.679 180.882 119.217C178.086 118.715 175.171 118.293 172.337 117.779C168.641 116.968 164.837 116.774 161.078 117.205C158.339 117.629 155.625 118.282 152.923 118.929C148.442 120.006 144.069 121.528 139.414 121.823C139.137 121.905 138.868 122.01 138.61 122.139C139.182 122.249 139.761 122.32 140.342 122.349C144.829 122.21 149.319 122.359 153.786 122.795C157.091 123.22 160.425 123.516 163.75 123.736C168.171 124.035 172.615 124.193 177.072 124.409C180.913 124.483 184.732 125.014 188.447 125.99C189.865 126.477 191.22 127.131 192.483 127.937C192.991 128.288 193.392 128.773 193.642 129.337C193.892 129.902 193.98 130.525 193.898 131.137C193.717 131.725 193.359 132.243 192.871 132.619C192.384 132.995 191.792 133.21 191.177 133.236C189.797 133.291 188.385 133.104 187.028 133.082C182.5 132.636 178.014 131.826 173.616 130.659C171.326 130.163 169.061 129.653 166.795 129.079C163.994 128.386 161.222 127.563 158.428 126.882C156.117 126.316 153.783 125.859 151.467 125.344C151.439 125.473 151.391 125.596 151.355 125.712C156.146 127.804 161.181 129.284 166.342 130.115C169.707 130.846 172.977 131.962 176.088 133.44C176.76 133.73 177.396 134.071 178.032 134.413C178.962 134.843 179.685 135.621 180.046 136.579C180.168 136.944 180.4 137.262 180.71 137.489C181.406 137.944 181.343 138.464 180.916 139C180.528 139.718 179.937 140.307 179.217 140.691C178.497 141.075 177.679 141.238 176.866 141.159C175.884 141.019 174.884 140.936 173.913 140.725C172.504 140.423 171.121 139.897 169.729 139.716C166.732 139.084 163.872 137.928 161.279 136.299C159.177 135.183 156.973 134.301 154.803 133.271C154.546 133.187 154.294 133.089 154.047 132.977C150.615 131.129 147.202 129.256 143.77 127.44C142.764 126.982 141.732 126.579 140.681 126.235C139.849 125.816 138.984 125.464 138.095 125.184C136.955 124.972 135.802 124.839 134.644 124.789C134.036 124.798 133.428 124.747 132.83 124.638C130.734 124.174 128.553 124.28 126.512 124.945C122.823 125.745 119.1 126.451 115.411 127.251C114.438 127.463 113.517 127.922 112.552 128.209C111.146 128.567 109.77 129.035 108.438 129.609C110.083 129.656 111.84 129.61 113.543 129.674C118.916 129.903 124.319 129.857 129.64 130.536C134.627 131.117 139.498 132.454 144.084 134.499C145.379 135.143 146.635 135.864 147.844 136.658C148.226 136.892 148.556 137.201 148.814 137.566C149.006 137.774 149.14 138.027 149.203 138.302C149.267 138.578 149.257 138.864 149.174 139.134C149.092 139.404 148.941 139.648 148.735 139.841C148.529 140.035 148.277 140.171 148.002 140.236C147.215 140.485 146.381 140.553 145.564 140.434C142.21 139.857 138.865 139.146 135.561 138.51C131.188 137.601 126.827 136.686 122.508 135.879C121.922 135.781 121.321 135.819 120.752 135.989C122.632 136.477 124.619 136.859 126.514 137.436C128 137.884 129.444 138.458 130.832 139.152C131.612 139.726 132.191 140.532 132.485 141.455C132.779 142.378 132.774 143.37 132.47 144.29C132.301 144.676 132.021 145.003 131.666 145.229C131.311 145.456 130.897 145.573 130.476 145.564C128.373 145.763 126.254 145.434 124.31 144.607C122.066 143.649 119.671 143.047 117.355 142.289C115.755 141.781 114.132 141.35 112.574 140.739C109.937 139.863 107.21 139.285 104.444 139.014C102.916 138.792 101.38 138.526 99.9356 138.308C97.6975 140.57 94.7644 142.014 91.607 142.409C90.2944 142.625 89.0558 143.163 88.0024 143.975C88.7401 144.156 89.4868 144.299 90.2394 144.402C92.342 144.577 94.4319 144.759 96.5327 144.87C97.2023 144.93 97.8445 145.165 98.3947 145.551C98.9448 145.937 99.3837 146.462 99.6671 147.071C99.8259 147.333 99.9253 147.626 99.9582 147.93C99.9911 148.234 99.9568 148.542 99.8576 148.831C99.7584 149.121 99.5968 149.385 99.3842 149.605C99.1717 149.825 98.9134 149.995 98.6275 150.105C97.8625 150.446 97.0424 150.647 96.2063 150.699C93.7127 150.733 91.2107 150.69 88.7204 150.608C85.0528 150.506 81.3893 150.321 77.7284 150.232C77.187 150.282 76.6732 150.494 76.2541 150.84C74.7966 151.844 73.3795 152.924 71.7294 154.144C72.382 154.153 72.895 154.203 73.3677 154.178C76.2027 153.995 79.0512 153.837 81.8779 153.577C86.7105 153.232 91.5675 153.565 96.3079 154.566C100.373 155.219 104.319 156.473 108.015 158.288C108.85 158.724 109.622 159.272 110.309 159.916C110.566 160.111 110.763 160.374 110.877 160.675C110.992 160.976 111.019 161.304 110.956 161.62C110.893 161.936 110.742 162.228 110.52 162.462C110.299 162.696 110.016 162.864 109.704 162.945C108.917 163.212 108.078 163.293 107.254 163.182C103.121 162.632 98.9973 161.979 94.9318 161.344C92.5686 160.984 90.1928 160.631 87.8674 160.25C85.542 159.87 83.061 159.411 80.6532 159.058C79.4964 158.915 78.3328 158.832 77.1672 158.811C76.6945 158.829 76.2248 158.895 75.7652 159.008L75.7181 159.406C76.6794 159.719 77.6524 159.994 78.6028 160.379C81.9424 161.628 85.4881 161.714 88.9396 162.352C91.3945 162.793 93.8057 163.516 96.2799 163.963C98.1096 164.26 99.8358 165.01 101.301 166.146C102.183 166.859 102.254 167.356 101.593 168.275C101.196 168.875 100.666 169.375 100.045 169.738C99.4232 170.1 98.7266 170.315 98.0089 170.365C95.2908 170.583 92.5568 170.243 89.9747 169.367C87.4273 168.57 84.8143 167.955 82.298 167.125C79.7817 166.296 77.0073 165.378 74.4758 164.459C70.1206 162.46 65.4782 161.158 60.7187 160.599C59.7201 160.417 58.6908 160.503 57.7366 160.85C56.7823 161.196 55.9376 161.79 55.289 162.571C55.1065 162.781 54.8759 162.943 54.6171 163.043C51.8057 164.507 49.1436 166.242 46.6685 168.222C45.481 169.034 44.5205 169.967 43.3835 170.752C41.9445 171.73 41.1598 171.565 40.1826 170.158C39.2442 168.985 38.7684 167.51 38.8455 166.01C38.8427 165.678 38.9406 165.352 39.1263 165.077C39.312 164.801 39.5768 164.589 39.8859 164.467C42.6234 163.25 44.1449 160.786 45.8707 158.553C46.9161 157.201 47.8042 155.707 48.758 154.275L50.8556 151.098C50.2391 151.249 49.901 151.283 49.5713 151.394C47.0752 152.304 44.5117 153.088 42.0972 154.181C38.6456 155.73 35.3101 157.558 31.9191 159.22C29.5634 160.363 27.1674 161.43 24.7982 162.548C24.3885 162.698 24.0125 162.927 23.692 163.224C23.3716 163.52 23.113 163.876 22.9311 164.273C22.4523 164.947 21.8404 165.516 21.133 165.945L19.657 167.218C17.6613 166.241 15.4587 165.422 14.5353 162.901C13.8113 160.905 14.4067 160.199 15.7835 159.772C17.9276 159.192 20.0381 158.494 22.1054 157.681C24.4779 156.691 26.7562 155.525 29.0144 154.32C29.8375 153.788 30.5864 153.149 31.2414 152.42C34.8791 149.221 38.3138 145.798 41.5256 142.172C43.0555 140.27 44.4221 138.245 45.841 136.257C47.8553 133.562 49.7308 130.699 51.7443 127.972C52.9119 126.459 54.5138 125.339 56.3354 124.762C56.9181 124.56 57.5427 124.51 58.15 124.617C58.7574 124.724 59.3272 124.985 59.8054 125.374C60.2536 125.725 60.5699 126.216 60.7029 126.769C60.8359 127.322 60.7777 127.903 60.5379 128.419C59.9226 130.623 58.8621 132.678 57.4218 134.456C55.0677 137.121 52.5892 139.674 50.2461 142.268C47.9029 144.863 45.5674 147.259 42.8752 149.715C44.3776 149.709 45.8619 149.386 47.2317 148.769C49.325 147.864 51.4116 146.945 53.5183 146.065C54.2374 145.681 54.9354 145.471 54.8312 144.425C54.8649 143.985 55.0401 143.567 55.3308 143.235C57.5283 139.964 59.3746 136.47 60.8388 132.812C61.7669 130.605 63.0483 128.564 64.6328 126.77C65.1763 126.225 65.8092 125.778 66.5041 125.448C67.2374 125.052 68.0033 124.719 68.7934 124.454C69.3144 124.266 69.8628 124.165 70.4165 124.155C70.7633 124.106 71.1171 124.144 71.4452 124.267C71.7733 124.39 72.0651 124.594 72.2938 124.859C72.5225 125.124 72.6808 125.443 72.7539 125.786C72.8271 126.128 72.8128 126.484 72.7124 126.82C72.546 127.653 72.2682 128.461 71.8865 129.221C70.4911 132.104 69.0765 134.981 67.6038 137.84C67.2086 138.414 66.8442 139.009 66.5121 139.621C69.9107 138.246 71.8846 135.476 73.6946 132.55C73.4641 132.301 73.2741 132.126 73.2017 132.052C74.3708 129.322 75.5685 126.706 76.5979 124.018C77.1206 122.491 77.5327 120.929 77.831 119.342C78.8 114.84 79.6016 110.297 80.6992 105.822C81.0768 103.563 81.8935 101.399 83.103 99.4526C83.1955 99.3223 83.2157 99.1171 83.3343 99.0052C84.5832 97.8531 85.7792 96.6319 87.108 95.5992C88.4368 94.5665 89.266 94.9668 90.033 96.405C90.9071 98.4032 91.2806 100.584 91.1211 102.76C91.1331 103.91 91.0174 105.059 90.7762 106.184C90.3624 107.717 89.6458 109.169 89.1353 110.673C88.2025 113.39 87.3084 116.119 86.6036 118.99C86.8751 118.775 87.1277 118.538 87.3588 118.28C90.2613 114.334 93.099 110.357 96.0535 106.449C97.9921 103.794 100.154 101.345 102.138 98.7475C102.966 97.7569 104.105 97.0755 105.369 96.8141C105.649 96.7181 105.947 96.6853 106.241 96.7182C106.535 96.7511 106.818 96.8488 107.07 97.0043C107.322 97.1598 107.536 97.3692 107.697 97.6174C107.858 97.8657 107.962 98.1465 108.002 98.4399C108.167 99.1982 108.11 99.9881 107.838 100.715C105.358 105.988 102.515 111.083 99.329 115.963C98.1465 117.695 96.5671 119.17 95.3391 120.878C92.3089 125.07 88.1483 128.115 84.4671 131.634C83.661 132.266 82.9031 132.957 82.1997 133.702C82.5108 133.617 82.8355 133.557 83.1458 133.44C86.4325 132.19 89.699 130.902 93.0068 129.721C95.0082 129.046 96.8467 127.961 98.4045 126.534C102.124 122.87 105.26 118.657 107.702 114.041C109.455 110.887 111.468 107.885 113.318 104.792C114.384 103.024 115.341 101.202 116.368 99.4224C117.396 97.6428 118.473 96.0155 119.437 94.2696C120.842 91.7382 122.091 89.1277 123.484 86.667C124.488 84.9328 125.667 83.3156 126.819 81.6479C127.331 80.9373 127.922 80.2821 129.059 80.7128C129.6 80.8623 130.081 81.1767 130.435 81.6121C130.789 82.0475 130.999 82.5824 131.035 83.1425C131.05 83.5297 131.018 83.9172 130.938 84.2964C130.595 86.555 129.963 88.76 129.057 90.857C127.999 93.1874 127.232 95.6381 126.122 97.9315C125.011 100.225 123.723 102.549 122.362 104.797C120.84 107.23 119.254 109.695 117.654 112.072C116.941 113.083 116.341 114.169 115.865 115.311C116.659 114.612 117.427 113.895 118.227 113.208C121.037 110.788 123.64 108.138 126.008 105.284C127.775 103.193 129.266 100.883 130.445 98.4127C131.829 95.5685 133.387 92.8091 135.043 90.1112C136.068 88.0764 137.45 86.242 139.122 84.6952C140.234 83.7818 141.456 83.0105 142.759 82.3994C143.218 82.182 143.727 82.0909 144.232 82.1353C144.738 82.1797 145.223 82.358 145.637 82.6519C146.052 82.9458 146.38 83.3448 146.589 83.8077C146.798 84.2706 146.88 84.7808 146.826 85.2858C146.755 86.0047 146.586 86.7106 146.325 87.3841C145.855 88.7524 145.341 90.0964 144.807 91.4344C144.265 92.8941 143.455 94.239 142.416 95.3988C140.711 97.2154 139.151 99.1816 137.643 101.185C134.966 104.429 132.02 107.442 128.836 110.192C127.368 111.542 125.696 112.66 124.17 113.96C123.457 114.568 122.928 115.368 122.242 116.026C120.669 117.513 119.057 118.956 117.458 120.424C117.361 120.538 117.274 120.66 117.199 120.789C117.246 120.877 117.343 120.907 117.368 120.893C120.459 119.245 123.992 118.641 126.953 116.657C128.308 115.892 129.73 115.253 131.201 114.748C132.263 114.278 133.345 113.815 134.373 113.283C137.01 111.877 139.659 110.464 142.296 109.058C144.932 107.652 147.789 105.869 150.576 104.35C152.645 103.39 154.595 102.193 156.386 100.782C156.764 100.455 157.116 100.099 157.439 99.7179C158.575 98.4355 159.646 97.0966 160.647 95.7063C162.537 92.8999 164.412 90.0363 166.034 87.0003C167.608 84.0612 168.817 80.9407 169.634 77.7081C170.363 74.6351 170.899 71.5191 171.237 68.3788C171.62 65.4201 172.393 62.4959 173.006 59.544C173.295 58.1101 173.494 56.6913 173.816 55.2885C174.212 53.5703 174.493 53.3071 176.279 53.1322C176.956 52.9708 177.66 52.9562 178.343 53.0894C179.026 53.2226 179.673 53.5004 180.239 53.9044C180.921 54.3964 181.4 55.1209 181.585 55.9413C182.323 58.9926 182.083 62.1985 180.898 65.1058C179.842 67.5001 178.681 69.8205 177.399 72.1248C176.116 74.4291 175.209 77.133 174.186 79.5904C173.456 81.2598 172.706 82.8913 171.962 84.5355L170.995 86.6716C171.989 85.9235 172.785 84.9428 173.312 83.8156C174.28 82.1975 175.06 80.4693 175.956 78.8083C177.432 76.0767 178.96 73.3502 180.436 70.6186C181.784 68.1335 183.132 65.6483 184.396 63.127C184.796 62.2766 185.055 61.3668 185.163 60.4333C185.316 59.2012 185.543 58.1079 186.933 57.6748C187.641 57.4906 188.391 57.5514 189.061 57.8473C189.731 58.1433 190.281 58.6569 190.621 59.3048C190.971 59.8756 191.231 60.4965 191.393 61.1458C191.872 63.0867 191.942 65.1063 191.597 67.0756C191.253 69.045 190.501 70.9208 189.391 72.5835C188.466 73.887 187.746 75.2427 186.846 76.5008C185.947 77.7687 184.968 78.978 183.916 80.1213C181.031 83.2801 178.027 86.3076 175.077 89.4042C174.719 89.7567 174.423 90.1666 174.201 90.6169C176.48 88.9963 178.732 87.3253 181.064 85.7737C183.095 84.4155 185.218 83.202 187.281 81.8749C190.036 80.1139 192.845 78.4219 195.474 76.4851C197.618 75.0314 199.184 72.8716 199.899 70.382C200.499 68.134 201.523 65.9835 201.911 63.7027C202.736 58.4726 202.833 53.1535 202.199 47.8968C201.964 45.7539 201.523 43.5908 201.084 41.4916C201.03 41.3907 201.104 41.2544 201.05 41.1535C199.704 38.6304 200.345 36.004 200.757 33.4347C200.958 31.8286 201.459 30.2747 202.236 28.8546C202.755 27.9614 203.482 27.2065 204.355 26.6536C205.228 26.1007 206.221 25.7662 207.25 25.6782C207.37 25.641 207.497 25.6282 207.623 25.6407C207.748 25.6532 207.87 25.6907 207.98 25.751C208.091 25.8113 208.188 25.8931 208.267 25.9917C208.346 26.0903 208.404 26.2036 208.438 26.325C208.675 26.8224 208.784 27.3716 208.755 27.9221C208.491 29.2204 208.393 30.5468 208.462 31.8698C208.396 36.4698 208.682 41.068 209.316 45.6245C209.975 50.0835 209.938 54.6177 209.209 59.0656C209.148 59.4507 209.231 59.8447 209.442 60.1724C209.647 59.8671 209.815 59.5385 209.941 59.1935C210.636 55.9387 211.344 52.7093 211.954 49.3865C212.314 47.0232 212.37 44.5145 212.78 42.1244C213.221 39.6633 213.807 37.2303 214.533 34.8379C215.325 32.0553 216.605 29.4358 218.314 27.1015C219.744 25.0297 221.733 23.407 224.05 22.4223C225.019 22.0514 226.023 21.8076 226.852 22.662C227.221 23.0371 227.476 23.5096 227.587 24.0243C227.698 24.539 227.66 25.0746 227.478 25.5686L224.197 36.0357L220.506 47.9528C220.14 49.1201 219.768 50.2748 219.434 51.4413L217.044 60.0557C217.435 59.6824 217.802 59.2862 218.145 58.869C220.926 55.3848 223.24 51.5525 225.028 47.4693C227.216 42.1222 229.572 36.8475 231.908 31.5668C233.182 28.6679 234.681 25.8589 235.878 22.9684C236.595 21.0385 237.641 19.2473 238.969 17.6743C240.433 15.9708 242.36 14.7291 244.516 14.1002C245.092 13.9259 245.702 13.8996 246.29 14.0236C246.878 14.1476 247.425 14.4179 247.881 14.8095C248.337 15.2011 248.687 15.7014 248.898 16.2641C249.11 16.8268 249.176 17.4337 249.091 18.0287C248.676 21.6767 247.493 25.1956 245.62 28.3537C243.943 30.9818 242.515 33.5906 240.929 36.0244C238.997 38.9343 236.863 41.7087 234.815 44.5513L231.836 48.7806L232.132 49.0607C232.478 48.7878 232.809 48.4973 233.126 48.1903C235.063 46.2013 236.999 44.2124 238.897 42.1797C242.81 38.0025 246.632 33.7446 250.604 29.617C252.864 27.2614 255.235 24.9924 257.705 22.8487C259.058 21.7888 260.772 21.3008 262.481 21.4889C264.189 21.6771 265.756 22.5267 266.846 23.8557C267.256 24.5677 267.479 25.3718 267.495 26.1933C267.511 27.0148 267.319 27.8269 266.937 28.5544C266.605 29.0629 266.211 29.5287 265.765 29.9412C262.792 32.5473 259.684 34.9946 256.453 37.2729C253.516 39.1794 250.738 41.2928 247.967 43.4188C245.196 45.5448 242.373 48.1199 239.273 50.1458C235.839 52.3979 233.15 55.4364 229.914 57.8753C228.953 58.6895 228.044 59.5636 227.194 60.4924C227.246 60.6046 227.305 60.7141 227.369 60.8204C227.898 60.5379 228.441 60.2486 228.93 59.8903L237.807 53.99C241.101 51.8119 244.368 49.5833 247.703 47.4809C251.202 45.0929 255.019 43.2097 259.043 41.8868C260.007 41.5909 261.034 41.5742 262.007 41.8384C262.979 42.1026 263.857 42.637 264.538 43.3797C265.061 43.9108 265.356 44.6252 265.361 45.3706C265.365 46.116 265.077 46.8335 264.56 47.3703C263.463 48.3184 262.309 49.1988 261.105 50.0068C260.208 50.6636 259.191 51.1572 258.366 51.8889C255.383 54.4682 251.685 55.8894 248.455 58.0658C245.224 60.2423 241.289 61.8872 237.719 63.7912C235.273 65.1246 232.72 66.2529 230.087 67.1643C227.959 67.943 225.749 68.5384 223.559 69.1716C220.753 69.9873 217.928 70.554 215.222 71.527C212.669 72.3445 210.191 73.379 207.814 74.6192C206.028 75.3811 204.421 76.5083 203.097 77.9285C202.696 78.311 202.229 78.6198 201.721 78.8409C201.068 79.149 200.475 79.5694 199.969 80.0831C200.821 79.888 201.679 79.7055 202.511 79.4726C206.175 78.4744 209.835 77.5275 213.451 76.409C218.47 75.1153 223.404 73.5073 228.221 71.5946C230.51 70.5687 232.649 69.2332 234.857 68.0559C235.689 67.6118 236.556 67.2309 237.42 66.786C237.756 66.5812 238.153 66.4994 238.543 66.5544C238.933 66.6095 239.292 66.7981 239.558 67.088C239.861 67.3816 240.08 67.7501 240.194 68.156C240.308 68.562 240.313 68.9908 240.207 69.3991C240.181 69.5613 240.12 69.7158 240.027 69.8516C238.464 71.69 237.366 73.9766 235.002 75.043C233.7 75.6401 232.555 76.3482 231.277 76.8998C230.355 77.2915 229.366 77.5 228.364 77.5137C227.043 77.6822 225.747 78.004 224.5 78.4723L212.306 81.9782C210.166 82.5845 208.062 83.3178 205.88 83.7845C203.387 84.3362 200.83 84.6145 198.335 85.1022C196.687 85.4141 195.094 85.891 193.473 86.2853C192.832 86.4493 192.169 86.5435 191.548 86.7453C189.79 87.2776 188.053 87.8798 186.295 88.4121C183.153 89.5646 180.123 91.0016 177.243 92.7052C178.629 92.5427 179.984 92.1751 181.263 91.6145C182.672 91.2193 184.014 90.6979 185.431 90.3153C187.903 89.6448 190.385 89.0124 192.877 88.4181C194.008 88.139 195.161 87.9615 196.314 87.7521C199.592 87.1543 202.871 86.5884 206.129 85.9526C209.227 85.3801 212.382 85.177 215.528 85.3474C217.654 85.445 217.927 86.8066 218.425 88.4693C218.811 89.7703 218.101 90.7484 216.583 91.4279C214.522 92.2804 212.347 92.8288 210.128 93.0559L200.294 94.3954C200.304 94.7188 200.34 95.0409 200.402 95.3584C200.56 95.7105 200.594 96.1052 200.499 96.4791C200.404 96.8529 200.187 97.184 199.881 97.4188C198.383 98.7357 196.807 99.9605 195.161 101.086C191.449 103.359 187.439 105.104 183.247 106.273C181.099 107.005 178.99 107.848 176.93 108.8C177.004 108.938 177.154 109.037 177.198 109.029C182.07 107.468 186.863 105.884 191.825 104.372C193.713 103.904 195.625 103.544 197.554 103.294C198.158 103.182 198.765 103.134 199.377 103.067C199.948 102.943 200.541 102.959 201.105 103.112C201.668 103.265 202.187 103.552 202.617 103.948C202.851 104.183 203.148 104.345 203.473 104.414C203.797 104.483 204.135 104.455 204.444 104.335C206.614 103.743 208.64 102.712 210.396 101.306C213.541 99.0297 216.472 96.4454 219.452 93.9813C220.985 92.6938 222.413 91.3002 223.926 89.9748C225.822 88.3644 227.691 86.7034 229.713 85.2687C232.894 82.94 236.122 80.6677 239.41 78.4769C241.925 76.8438 244.554 75.3931 247.183 73.9424C248.183 73.4606 249.226 73.0775 250.3 72.7987C250.61 72.6939 250.94 72.665 251.263 72.7142C251.587 72.7635 251.893 72.8895 252.158 73.0818C252.422 73.2741 252.637 73.527 252.783 73.8193C252.93 74.1116 253.004 74.4348 253 74.7617C253.065 75.4538 252.962 76.1515 252.698 76.7946C252.434 77.4378 252.018 78.0072 251.485 78.4537C249.969 79.6832 248.467 80.938 246.89 81.9901C242.854 84.661 238.871 87.4329 234.661 89.8078C230.451 92.1827 226.792 94.8309 222.853 97.3202C222.06 97.8442 221.363 98.5008 220.793 99.2612C222.452 98.764 224.033 98.0356 225.489 97.0974C229.021 95.2136 232.517 93.2519 235.977 91.2123C237.748 90.1871 239.444 89.0232 241.207 87.9535C242.769 87.0234 244.343 86.0866 245.978 85.2632C247.993 84.1906 250.065 83.2266 252.183 82.3754C254.723 81.4259 257.359 80.717 259.946 79.8559C260.965 79.5687 262.047 79.5892 263.056 79.9149C264.64 80.3337 264.981 81.3674 264.408 82.9367C264.095 83.8006 263.594 84.5839 262.94 85.2296C262.287 85.8753 261.498 86.367 260.63 86.669L251.966 90.1716C248.864 91.4044 245.777 92.6944 242.577 93.8339C239.184 95.0712 235.884 96.5495 232.702 98.2574C228.577 100.457 224.593 102.922 220.115 104.37C219.422 104.561 218.78 104.903 218.236 105.373C219.466 105.271 220.687 105.07 221.885 104.772C223.812 104.065 225.824 103.619 227.869 103.444C232.913 103.119 237.552 101.245 242.192 99.4022C246.541 97.6825 250.85 95.887 255.233 94.2623C258.723 92.9681 262.26 91.7302 265.847 90.7405C269.09 89.7098 272.47 89.1746 275.873 89.1529C277.349 89.1866 278.829 89.2564 280.311 89.3624C280.703 89.4075 281.083 89.5232 281.433 89.7039C282.689 90.2657 282.978 91.0512 282.312 92.2328C281.944 92.9514 281.425 93.5815 280.79 94.0797C280.154 94.5779 279.419 94.9322 278.633 95.1183C276.035 95.7153 273.421 96.2723 270.791 96.7891C266.979 97.5417 263.111 98.0975 259.336 99.0091C256.533 99.6776 253.812 100.805 251.06 101.721L251.124 102.174C251.954 102.178 252.784 102.13 253.608 102.032C257.965 101.199 262.399 100.844 266.833 100.974C271.761 101.1 276.711 100.567 281.638 101.391C283.228 101.625 284.793 101.999 286.317 102.508C287.359 102.931 288.268 103.625 288.95 104.518C289.631 105.411 290.06 106.471 290.193 107.587C290.316 107.909 290.353 108.258 290.3 108.598C290.247 108.939 290.106 109.259 289.891 109.528C289.675 109.797 289.393 110.005 289.072 110.131C288.751 110.257 288.403 110.297 288.062 110.247C285.625 110.234 283.197 110.087 280.753 110.061C278.309 110.036 276.208 110.168 273.942 110.113C269.552 110.023 265.167 109.851 260.782 109.742C258.331 109.672 255.921 109.742 253.444 109.654C251.574 109.581 249.694 109.336 247.827 109.117C246.582 108.971 245.375 108.804 243.91 108.548C245.093 109.726 246.634 110.477 248.29 110.685C252.504 111.872 256.732 113.085 260.958 114.234C262.401 114.631 263.903 114.835 265.34 115.251C270.185 116.713 275.123 117.842 280.121 118.63C281.864 118.984 283.561 119.536 285.179 120.275C285.883 120.531 286.701 121.002 286.61 121.926C286.601 122.401 286.449 122.863 286.172 123.251C285.896 123.638 285.509 123.933 285.062 124.096ZM84.5538 129.092C84.5201 129.029 84.4798 128.954 84.3831 128.924L83.6917 129.633C83.6917 129.633 83.7523 129.747 83.7859 129.81L84.5538 129.092ZM88.3201 120.295C86.5867 122.726 84.8928 125.201 83.1855 127.651C82.908 128.042 82.6565 128.452 82.3983 128.848C82.5481 128.876 82.7022 128.87 82.8493 128.831C82.9965 128.791 83.1332 128.72 83.2494 128.621C84.6287 127.319 86.008 126.016 87.3284 124.664C88.5518 123.456 89.7139 122.187 90.8103 120.862C92.6059 118.609 94.2905 116.268 96.0146 113.971C98.214 111.016 100.649 108.259 102.015 104.744C102.287 104.307 102.624 103.915 103.014 103.579C103.171 104.416 103.066 105.281 102.714 106.056C101.238 108.847 99.4934 111.487 97.5041 113.939C96.0659 115.921 94.4452 117.774 92.9078 119.63C91.8431 120.976 90.8178 122.365 89.7724 123.717C89.6715 123.771 89.7219 123.987 89.7194 124.134L88.1156 125.168L86.5176 127.154L86.3662 127.235L86.2527 127.295L85.0584 128.094C85.1488 128.179 85.2345 128.268 85.3149 128.362L86.2022 127.322L86.341 127.248L86.4671 127.181C87.0567 126.737 87.621 126.306 88.1904 125.824C88.2787 125.777 88.1156 125.411 88.0651 125.194C88.9793 125.42 89.3737 124.853 89.6689 124.161C90.0192 124.031 90.3503 123.855 90.6529 123.636C91.7917 122.429 92.9237 121.21 94.0036 119.953C95.61 118.044 97.2097 116.121 98.7639 114.174C101.669 110.246 104.145 106.019 106.153 101.565C106.422 100.945 106.62 100.296 106.741 99.6307C106.881 99.1026 107.061 98.407 106.397 98.1942C106.166 98.1384 105.926 98.1344 105.694 98.1825C105.462 98.2307 105.243 98.3297 105.054 98.4726C102.643 100.341 100.561 102.601 98.8979 105.158C98.2662 106.192 97.6413 107.238 96.945 108.242C94.9724 111.065 92.9803 113.872 90.9685 116.662C90.1838 117.956 89.1712 119.095 88.3201 120.295ZM77.0905 133.267C78.7155 130.875 79.9907 128.264 80.8778 125.511C81.2175 124.279 81.6255 123.066 82.0999 121.878C83.4728 118.31 84.475 114.61 85.0908 110.837C85.3238 109.724 85.3054 108.535 85.4862 107.385C85.7091 105.646 86.0893 104.05 86.4165 102.384L87.0321 102.445C87.1817 104.974 86.2347 107.391 86.127 109.863C85.8652 112.409 85.3748 114.926 84.6617 117.385C84.0343 119.793 83.1369 122.152 82.3614 124.526C82.456 124.525 82.549 124.501 82.6325 124.457C82.716 124.412 82.7874 124.348 82.8408 124.27C84.2336 120.805 85.6668 117.416 87.0461 113.926C88.1841 110.742 89.1673 107.512 89.9899 104.254C90.4043 102.112 90.2668 99.8987 89.5906 97.8238C89.3906 97.3884 89.1393 96.9784 88.8421 96.6026C88.3116 96.7731 87.816 97.0375 87.3787 97.383C85.8169 99.0423 84.1281 100.737 83.7151 103.031C83.3021 105.325 83.1347 108.202 82.9092 110.817C82.7536 112.683 82.6879 114.565 82.5004 116.431C82.0623 119.519 81.1487 122.52 79.7921 125.329C79.623 125.711 79.4329 126.266 79.5936 126.536C80.0241 127.344 79.7012 127.954 79.3723 128.583C78.8542 129.556 78.2714 130.498 77.697 131.518C77.3223 132.026 77.1108 132.636 77.0905 133.267ZM78.0829 134.763L81.923 131.451L81.6464 131.145C80.3705 132.247 78.6918 132.867 78.0829 134.763ZM64.614 138.705C64.911 138.279 65.2358 137.874 65.5862 137.49C67.9579 134.503 69.7791 131.118 70.9648 127.492C71.1351 126.804 71.2429 126.101 71.2869 125.392C68.5923 126.052 66.3989 126.8 65.2366 129.057C63.6419 132.143 62.1079 135.343 60.6545 138.451L58.4198 142.981C59.688 142.724 60.892 142.216 61.9613 141.487C63.0305 140.758 63.9436 139.823 64.6468 138.737L64.614 138.705ZM36.4297 151.241L38.4902 149.332C40.3127 147.615 42.1815 145.954 43.9258 144.181C45.3337 142.749 46.5583 141.157 47.9468 139.719C48.2184 139.303 48.584 138.957 49.014 138.708C49.4441 138.459 49.9266 138.314 50.4228 138.285L45.9998 143.512C46.3538 143.523 46.6994 143.403 46.9694 143.173C49.2351 140.964 51.3773 138.631 53.3865 136.186C55.2479 134.195 56.6854 131.846 57.612 129.283C58.0267 128.323 58.5292 127.404 59.1132 126.538C58.9779 126.01 58.39 125.789 57.6625 125.853C57.0792 125.884 56.5133 126.062 56.018 126.372C55.5226 126.681 55.1141 127.112 54.8308 127.622C53.8501 129.247 52.8106 130.822 51.8367 132.46C49.3432 136.466 46.4571 140.215 43.221 143.649C41.1689 145.878 38.8334 148.031 36.6593 150.243C36.5273 150.33 36.5676 150.649 36.4625 151.272L36.4297 151.241ZM39.7593 149.919L40.5036 149.279C40.4565 149.191 40.4094 149.102 40.369 149.027L39.6247 149.667C39.6879 149.756 39.7438 149.851 39.7921 149.95L39.7593 149.919ZM150.577 128.93L150.673 128.717L149.824 128.278L149.679 128.615L150.577 128.93ZM152.672 123.745C153.678 124.072 154.707 124.325 155.75 124.502C158.827 125.259 161.868 126.101 164.939 126.877C166.208 127.189 167.511 127.385 168.803 127.62C169.68 127.897 170.558 128.207 171.447 128.446C175.242 129.484 179.268 129.833 183.026 131.198C183.184 131.235 183.345 131.252 183.507 131.25C185.219 131.422 187.052 131.547 188.814 131.66C189.99 131.729 191.147 131.339 192.041 130.571C191.947 130.352 191.835 130.141 191.704 129.941C190.599 128.458 188.969 127.455 187.147 127.137C184.872 126.73 182.713 126.115 180.474 125.835C178.741 125.625 177.068 125.739 175.358 125.631C172.322 125.468 169.285 125.262 166.246 125.013C163.105 124.744 159.962 124.411 156.814 124.129C155.46 123.96 154.102 123.874 152.731 123.763L152.672 123.745ZM145.008 125.872C146.155 126.517 147.411 126.946 148.713 127.137C149.625 127.181 150.508 127.472 151.268 127.978C151.681 128.251 152.12 128.484 152.578 128.673C154.962 129.589 157.336 130.575 159.748 131.331C164.289 132.798 168.866 134.148 173.369 135.603C173.863 135.797 174.346 136.022 174.813 136.275C174.653 136.523 174.587 136.703 174.549 136.692C167.35 134.871 160.273 132.6 153.359 129.893L153.197 130.32L161.32 133.733C161.573 133.841 161.926 133.896 162.059 134.084C163.144 135.693 164.894 136.088 166.572 136.652C167.669 137.039 168.785 137.4 169.877 137.806C171.666 138.558 173.559 139.035 175.491 139.219C176.258 139.271 177.028 139.179 177.761 138.948C178.96 138.584 179.171 138.067 178.611 136.956C178.387 136.51 178.051 136.131 177.635 135.856C176.854 135.36 176.037 134.924 175.189 134.551C172.342 133.172 169.363 132.085 166.297 131.306C162.477 130.555 158.722 129.508 155.066 128.173C153.037 127.407 151.052 126.57 149.023 125.805C147.721 125.341 146.295 125.365 145.008 125.872ZM136.373 123.413C136.427 123.514 136.36 123.663 136.357 123.778L138.458 123.646L138.443 123.346L136.373 123.413ZM213.965 101.801L214.12 102.091L216.435 100.629C217.566 100.031 218.643 99.3374 219.656 98.5556C223.095 95.3438 227.207 93.1186 231.059 90.4973C234.911 87.876 238.808 85.7651 242.606 83.2859C245.122 81.6528 247.537 79.8623 249.881 78.029C250.572 77.5964 251.094 76.9407 251.362 76.1705C251.629 75.4003 251.624 74.562 251.35 73.7945C249.934 74.2674 248.546 74.8185 247.191 75.4453C244.605 76.8245 241.993 78.2171 239.535 79.836C236.691 81.6441 233.903 83.5851 231.179 85.5883C228.989 87.1938 226.919 88.9623 224.788 90.6174C224.339 91.0893 223.917 91.5851 223.522 92.1026C225.66 91.6754 227.05 89.816 229.295 89.8017C226.764 91.8319 223.98 93.4785 221.475 95.4952C218.969 97.5119 216.435 99.6572 213.926 101.757L213.965 101.801ZM223.184 64.8832C222.354 65.4232 221.443 65.8117 220.572 66.2759C219.412 66.8948 218.264 67.5071 216.828 68.3699C218.208 68.5575 219.179 68.7366 220.015 67.9343C220.492 67.4994 221.022 67.1246 221.591 66.8184C222.575 66.2936 223.653 65.9455 224.618 65.4148C228.743 63.2148 233.205 61.6776 236.921 58.74L237.11 58.6391L242.599 55.5014C243.57 54.9834 244.567 54.4519 245.538 53.9339C248.016 52.3528 250.461 50.7087 252.94 49.1277C253.838 48.5758 254.769 48.0793 255.728 47.6409C256.232 47.3718 256.868 47.2271 257.357 47.8091C254.343 49.6921 251.405 51.5666 248.428 53.3974C246.778 54.4066 245.07 55.3341 243.407 56.3181C241.971 57.1809 240.515 58.0059 239.133 58.9377C236.157 60.7839 233.064 62.4335 229.873 63.8759C227.741 65.0129 225.501 65.9161 223.308 66.9395C225.015 67.0213 226.719 66.7366 228.307 66.1045C230.603 64.8801 232.958 63.7053 235.356 62.702C238.566 61.4415 241.668 59.9225 244.632 58.1599C245.976 57.2677 247.378 56.4659 248.829 55.7598C253.539 53.6532 257.607 50.5273 261.924 47.8042C262.628 47.268 263.203 46.5794 263.604 45.79C263.714 45.6248 263.788 45.4386 263.821 45.2432C263.855 45.0479 263.848 44.8476 263.8 44.6552C263.752 44.4627 263.665 44.2823 263.544 44.1254C263.423 43.9686 263.27 43.8386 263.096 43.7438C262.721 43.4556 262.291 43.2463 261.833 43.1287C261.375 43.011 260.898 42.9873 260.43 43.0592C258.762 43.2043 257.143 43.6979 255.677 44.5081C251.872 46.5085 248.19 48.7369 244.653 51.1812C242.011 53.0928 239.124 54.6973 236.368 56.4583C231.97 59.2092 227.587 62.0811 223.184 64.8832ZM214.627 68.5877L213.491 68.9182C213.131 69.0457 212.761 69.1452 212.386 69.2158C211.755 69.3128 211.164 69.5858 210.682 70.0036C210.2 70.4214 209.845 70.9669 209.659 71.5773L214.627 68.5877ZM215.154 65.7787C214.613 66.343 213.966 66.8013 213.366 67.316L213.567 67.6945C215.173 67.3148 216.738 66.7788 218.239 66.0942C220.255 64.914 222.16 63.556 223.934 62.0364C226.613 59.7977 229.147 57.4093 231.766 55.0891C233.459 53.5862 235.199 52.1078 236.925 50.636C238.652 49.1643 240.135 47.9037 241.782 46.5875C244.389 44.517 246.955 42.4028 249.655 40.477C253.045 38.0533 256.636 35.9441 259.794 33.2067C261.507 31.7097 263.227 30.2254 264.9 28.6847C266.193 27.493 266.336 24.9053 265.193 24.0079C263.495 22.6773 260.283 22.3652 258.836 23.7848C256.118 26.4659 253.236 28.9914 250.511 31.6918C248.392 33.7943 246.533 36.0498 244.477 38.1506C240.803 41.9249 237.126 45.6354 233.355 49.3803C232.184 50.556 230.822 51.5576 229.703 52.7703C228.795 53.7728 227.464 54.4666 226.936 56.0283C229.444 54.3506 231.154 51.7855 233.933 50.9194C233.755 51.4824 233.433 51.9891 232.999 52.3894C232.043 53.2397 230.994 53.9772 230.057 54.8333C228.708 56.0713 227.439 57.3967 226.063 58.5841C225.619 58.9106 225.13 59.1712 224.612 59.3578C223.874 59.571 223.171 59.8912 222.526 60.3081C220.88 61.9312 219.326 63.6351 217.712 65.5004C216.577 64.8906 216.547 64.7443 217.239 64.0353C218.59 62.6502 219.954 61.2584 221.221 59.8052C222.074 58.7912 222.872 57.7325 223.613 56.6338C225.135 54.4447 226.755 52.3169 228.185 50.0151C229.942 47.0523 231.482 44.044 233.063 40.9323C234.644 37.8206 235.97 35.2337 237.366 32.3827C238.631 29.8614 240.037 27.3939 241.21 24.8238C242.215 22.6675 243.871 20.6987 243.558 18.0462C244.459 17.7603 244.748 18.2708 244.648 18.8746C244.521 19.972 244.244 21.0468 243.824 22.0687C242.568 24.6666 241.118 27.1736 239.824 29.7597C237.398 34.5694 235.031 39.3967 232.651 44.2308C232.487 44.5613 232.381 44.9095 232.135 45.5427C232.403 45.3991 232.652 45.2229 232.876 45.018C237.018 39.7658 240.784 34.2272 244.145 28.4436C245.61 25.6891 246.728 22.7637 247.472 19.7342C247.656 18.8196 247.702 17.8829 247.61 16.9547C247.608 16.7273 247.556 16.5032 247.458 16.2979C247.36 16.0925 247.219 15.9108 247.045 15.7652C246.87 15.6197 246.666 15.5137 246.446 15.4546C246.227 15.3956 245.997 15.3848 245.773 15.4231C244.028 15.9487 242.114 16.37 241.004 17.9662C239.627 19.8409 238.41 21.8285 237.368 23.9079C235.728 27.245 234.271 30.6796 232.806 34.1016C231.552 37.0065 230.402 39.9533 229.155 42.8708C228.197 45.1154 227.207 47.3609 226.119 49.545C225.032 51.729 223.731 53.5733 222.75 55.6843C220.781 59.4378 218.216 62.847 215.154 65.7787ZM205.327 57.3767C205.457 58.9276 205.756 60.5827 205.766 62.1815C205.776 63.7802 205.536 65.3344 205.405 66.9432C205.494 66.8961 205.595 66.8423 205.645 66.8154C206.791 63.9788 207.528 60.9941 207.836 57.9504C208.251 54.5849 208.29 51.1837 207.953 47.8095C207.484 44.4049 207.219 40.9753 207.159 37.539C206.975 34.2938 206.987 31.0404 207.197 27.7967C207.175 27.5178 207.12 27.2424 207.035 26.9759C206.814 27.1079 206.61 27.2657 206.427 27.446C204.351 30.4906 203.322 34.1274 203.495 37.808C203.511 40.5626 203.726 43.3123 204.139 46.0357C204.314 47.3359 204.527 48.6159 204.727 49.9026C205.225 48.8327 205.347 47.6258 205.072 46.4781C204.653 42.8436 204.636 39.1739 205.021 35.5357C205.047 35.3111 205.234 35.1143 205.337 34.9133L205.671 34.9621L205.591 38.2454C205.577 38.9174 205.492 39.5784 205.522 40.2428C205.633 42.5169 205.821 44.7826 205.912 47.0508C205.983 48.1585 205.98 49.2697 205.904 50.377C205.736 52.5241 205.447 54.6552 205.235 56.8099C205.246 57.0014 205.277 57.1914 205.327 57.3767ZM202.643 70.15C204.458 67.2036 205.309 63.7651 205.078 60.3127L204.743 60.232L202.643 70.15ZM162.284 95.9511L164.249 93.5585C165.924 91.7191 167.479 89.7747 168.906 87.7371C170.391 85.1932 171.727 82.5654 172.908 79.867C173.658 78.2355 174.347 76.4904 175.064 74.7958C175.491 73.774 175.905 72.7269 176.385 71.7421C177.377 69.5925 178.437 67.5691 179.54 65.5061C180.927 62.6442 181.25 59.3818 180.45 56.3038C180.325 55.8374 180.094 55.4058 179.777 55.0423C179.05 54.1659 178.009 54.2188 177.024 54.2255C175.527 54.2137 175.124 54.461 174.785 55.9218C174.446 57.3826 174.387 58.5483 174.166 59.8653C173.534 63.5405 172.888 67.1905 172.275 70.8716C172.037 72.3105 171.897 73.7789 171.711 75.2229L172.029 75.3937C172.369 75.1014 172.678 74.7738 172.95 74.4164C173.122 74.1625 173.093 73.7731 173.238 73.4686C175.149 69.6301 176.077 65.3772 175.938 61.0915C175.933 60.4137 175.745 59.5744 176.776 58.8948C176.755 59.5301 176.77 60.1661 176.82 60.7997C177.171 64.0707 176.768 67.3787 175.641 70.4696C174.702 72.9613 173.591 75.3842 172.314 77.7208C171.731 78.9066 171.031 80.0251 170.481 81.242C169.809 82.686 169.338 84.2335 168.582 85.6413C167.826 87.0491 166.946 88.134 166.121 89.3518C165.469 90.3156 164.823 91.292 164.196 92.2742C163.569 93.2565 162.8 94.6391 162.075 95.7711L162.284 95.9511ZM155.293 104.443L153.438 105.432C156.557 104.353 159.6 103.102 162.645 101.884C165.737 100.485 168.968 99.4138 172.283 98.688C173.435 98.4786 174.581 98.2566 175.712 97.9775C179.939 96.9709 184.159 95.9517 188.352 94.882C189.556 94.6716 190.713 94.2469 191.767 93.6282C192.495 93.1455 193.349 92.8873 194.223 92.8856C196.604 92.7015 198.936 92.6082 201.346 92.3274C204.171 92.0037 206.967 91.5656 209.744 91.0896C211.775 90.7676 213.82 90.4388 215.817 89.9898C216.949 89.7425 217.154 89.2766 217.028 88.1606C217.02 87.959 216.971 87.7612 216.885 87.5785C216.8 87.3958 216.679 87.2319 216.53 87.0961C216.381 86.9603 216.206 86.8554 216.016 86.7874C215.826 86.7193 215.625 86.6895 215.423 86.6997C214.584 86.645 213.751 86.603 212.913 86.6122C208.052 86.612 203.443 87.9037 198.707 88.5335C195.182 89.0035 191.742 89.9958 188.304 90.841C186.581 91.2572 184.86 91.7054 183.167 92.268C180.529 93.1561 177.926 94.1391 175.31 95.097C174.562 95.3661 173.829 95.6924 172.741 96.1431C175.675 95.8421 177.936 94.5226 180.491 94.1485C184.088 93.5102 187.606 92.5095 191.224 91.698C193.341 91.233 195.451 90.6915 197.584 90.3475C201.144 89.7615 204.719 89.2645 208.296 88.8315C209.873 88.4901 211.508 88.5106 213.076 88.8913C212.506 89.8593 211.684 89.7146 211.027 89.7895C209.108 90.019 207.146 90.077 205.227 90.3385C202.423 90.7001 199.614 91.1449 196.805 91.5897C194.506 91.9891 192.208 92.4205 189.944 92.9149C188.322 93.2454 186.713 93.6011 185.086 93.9829C183.458 94.3647 182.074 94.7465 180.575 95.1568C177.317 96.0356 174.074 97.0035 170.79 97.8638C169.882 98.1051 168.968 98.3658 168.032 98.5247C167.842 98.6257 167.45 98.2842 167.297 98.058C167.144 97.8317 167.438 97.5937 167.586 97.3852C167.734 97.1766 167.876 97.2304 168.015 97.1564C169.276 96.4836 170.617 95.6553 171.889 94.8799C174.161 93.4898 176.42 92.0744 178.673 90.6784C179.669 89.9755 180.728 89.3673 181.836 88.8619C185.003 87.6593 188.209 86.5005 191.414 85.5528C193.978 84.801 196.653 84.3789 199.241 83.7927C201.303 83.374 203.373 83.0637 205.455 82.6828C206.645 82.4532 207.86 82.2102 209.035 81.8915C210.807 81.4164 212.538 80.8336 214.309 80.3265C217.617 79.3889 220.96 78.5782 224.232 77.5136C227.504 76.449 230.64 76.0083 233.336 73.9547C235.6 73.4602 236.693 71.4998 238.197 70.066C238.759 69.5395 239.163 68.8381 238.333 67.9197C237.634 68.2051 236.953 68.5305 236.292 68.8944C231.902 71.5499 227.17 73.5938 222.227 74.9695C217.705 76.1821 213.259 77.6293 208.746 78.9185C205.433 79.9074 202.118 80.8325 198.826 81.8592C197.423 82.2671 196.054 82.738 194.608 83.2174C195.185 83.2173 195.76 83.155 196.324 83.0315C197.887 82.6515 199.436 82.2142 201.007 81.8467C205.002 81.1048 208.934 80.0584 212.77 78.7168C214.747 77.8716 216.798 77.2117 218.897 76.7456C221.054 76.198 223.176 75.5207 225.252 74.7173L233.213 72.2054C233.683 72.0523 234.117 72.0473 234.186 72.9345L231.274 73.8554C229.783 74.3103 228.283 74.6887 226.8 75.1883C224.428 75.967 222.128 77.0316 219.712 77.5749C217.295 78.1181 214.658 79.2492 212.113 80.0068C210.724 80.4399 209.489 81.1632 208.046 81.4953C205.408 82.1084 202.712 82.4926 200.039 83.0106C198.894 83.2326 197.772 83.6203 196.631 83.759C194.025 83.9898 191.467 84.5956 189.035 85.5578C188.341 85.9278 187.903 85.5939 187.911 84.9093C188.592 84.546 189.253 84.3879 189.822 84.1171C191.598 83.3157 193.354 82.4764 195.124 81.6624C195.515 81.4538 196.071 81.4328 196.331 81.1317C197.959 79.2916 200.596 78.4036 201.404 75.7855C201.404 75.7855 201.631 75.6644 201.906 75.6636L201.682 76.3986L201.364 77.2001L206.433 73.6705C205.888 72.6487 206.416 72.0591 207.28 71.3393C209.044 70.1646 210.368 68.4382 211.046 66.4304C212.509 62.0754 213.689 57.6304 214.579 53.1232C215.31 48.8121 216.619 44.6139 217.698 40.3769C217.958 39.3466 218.246 38.3669 218.629 37.3526C219.483 34.8229 220.338 32.2931 221.238 29.7878C221.357 29.4648 221.773 29.2428 222.067 28.9729L222.354 29.1764C222.286 29.711 222.178 30.2398 222.031 30.7583C221.602 31.9593 221.057 33.1249 220.692 34.3242C220.214 35.859 220.014 37.4889 219.394 38.9699C218.053 42.2288 217.633 45.7257 216.686 49.083C216.203 50.7202 215.813 52.3832 215.518 54.0643C215.351 55.5363 215.04 56.9883 214.589 58.3997C214.082 60.0168 213.666 61.6613 213.344 63.3254C215.019 61.2584 216.175 58.8197 216.713 56.2139C217.743 52.8289 218.484 49.3555 219.456 45.9528C219.987 43.7578 220.866 41.6687 221.537 39.4636C223.02 34.8003 224.444 30.1192 225.934 25.4685C226.088 25.1628 226.144 24.8167 226.094 24.4779C226.044 24.1391 225.89 23.8241 225.654 23.5762C223.902 24.1806 222.36 25.2731 221.208 26.7248C218.009 31.013 215.917 36.0243 215.119 41.3145C214.493 44.7593 214.047 48.2377 213.492 51.6934C212.974 55.7717 211.949 59.7693 210.441 63.5936C209.166 66.5332 207.626 69.3505 205.839 72.0103C205.563 72.4334 205.268 72.9144 204.578 72.6831C203.887 72.4518 204.046 71.9296 204.031 71.3543C203.999 71.0496 203.926 70.7504 203.816 70.4645L203.425 70.43C202.205 72.4577 200.966 74.4794 199.786 76.5188C199.462 77.0966 199.226 77.6273 198.204 77.2L198.966 75.2867C198.411 75.5709 197.902 75.9356 197.453 76.3691C193.369 79.86 188.624 82.3577 184.207 85.3776C182.058 86.8477 179.796 88.1352 177.608 89.5615C175.419 90.9878 173.331 92.5714 171.115 93.9152C168.237 95.3852 165.624 97.326 163.386 99.6575C162.983 100.048 162.529 100.383 162.037 100.652C161.81 100.846 161.521 100.952 161.223 100.95C160.925 100.949 160.637 100.84 160.412 100.644C161.972 99.1637 163.405 97.7189 164.95 96.3927C167.258 94.4004 169.645 92.4956 171.999 90.5596C175.874 87.3429 178.882 83.2918 182.414 79.7067C184.078 77.9959 185.495 76.0622 186.625 73.961C187.521 72.2681 188.773 70.7576 189.531 68.9276C190.48 66.1881 190.657 63.2406 190.043 60.4073C189.862 59.9432 189.55 59.5416 189.145 59.2514C188.74 58.9611 188.259 58.7947 187.761 58.7724C186.893 58.8463 186.5 59.4451 186.269 60.6536C186.164 61.3706 185.958 62.0693 185.659 62.7293C184.064 65.8157 182.373 68.9047 180.715 71.9929C179.58 74.0886 178.304 76.1306 177.351 78.3239C176.249 80.7513 175.001 83.1101 173.616 85.3875C173.264 85.92 172.883 86.4319 172.473 86.9206C172.704 86.9162 172.933 86.8632 173.143 86.7652C173.353 86.6671 173.54 86.5261 173.692 86.3513C175.603 83.8577 178.045 81.6316 179.581 78.7386C180.409 77.4273 181.318 76.1688 182.303 74.9701C182.531 74.662 182.73 74.3335 182.897 73.9886C183.51 72.7381 184.092 71.4883 184.666 70.226L187.158 64.7814C187.34 64.3928 187.574 64.0413 187.806 63.6258C188.452 63.8966 188.702 64.1523 188.418 64.7738C187.614 66.3044 187.017 67.9192 186.141 69.4069C184.596 71.9484 183.73 74.7599 181.808 77.081C181.359 77.7162 180.949 78.3785 180.581 79.0641C179.8 80.2743 179.059 81.4962 178.194 82.6703C176.974 84.1799 175.663 85.6407 174.291 86.9879C173.407 87.913 172.418 88.7321 171.462 89.5824C171.268 89.7665 170.964 90.1071 170.841 90.0592C169.617 89.4965 169.367 90.6672 168.759 91.1693C168.017 91.9884 167.185 92.7206 166.277 93.3516C165.483 93.8442 164.799 94.4959 164.268 95.2657C163.008 96.8729 161.667 98.4153 160.251 99.887C159.553 100.583 158.96 101.143 159.557 102.413L158.298 101.966C157.311 102.638 156.828 104.224 155.172 103.487C155.252 103.85 155.265 104.118 155.273 104.406L155.293 104.443ZM184.522 97.6051L182.992 98.0163C182.172 98.2106 181.373 98.4746 180.551 98.605C176.817 99.187 173.136 100.067 169.542 101.235C166.567 102.168 163.643 103.257 160.782 104.497C156.963 106.178 153.219 108.029 149.501 109.898C147.343 111.049 145.24 112.3 143.089 113.463C140.939 114.626 138.586 115.865 136.287 116.993C135.757 117.276 135.24 117.552 134.66 117.861C134.861 117.965 134.959 118.058 135.036 118.05L145.832 115.354C146.263 115.289 146.698 115.251 147.134 115.243C148.686 115.247 150.236 115.099 151.759 114.802C155.573 113.546 159.26 111.937 162.775 109.997C165.654 108.559 168.465 106.963 171.316 105.442C173.675 104.184 176.074 103.002 178.38 101.675C180.485 100.455 182.475 99.0533 184.519 97.7203L184.522 97.6051ZM136.921 113.139C135.105 114.108 133.288 115.077 131.484 116.039C130.361 116.637 129.145 117.06 127.976 117.602C126.262 118.37 124.55 119.17 122.781 120.016C121.621 120.635 120.473 121.247 119.094 121.852C121 121.923 122.889 121.475 124.561 120.557C126.958 119.279 129.402 118.089 131.84 116.918C135.409 115.226 139.026 113.621 142.582 111.903C144.268 111.085 145.846 110.065 147.466 109.152L147.153 107.958C145.375 108.906 143.672 109.815 141.968 110.723C140.265 111.631 138.58 112.238 136.901 113.101L136.921 113.139ZM120.81 114.618C121.228 114.217 121.6 113.759 121.985 113.327L107.499 124.811C108.624 124.552 109.439 124.377 110.233 124.164C110.501 124.128 110.747 123.996 110.926 123.794C111.766 122.553 112.878 121.522 114.179 120.779C115.363 120.07 116.442 119.2 117.386 118.194C118.421 116.904 119.566 115.707 120.81 114.618ZM124.595 112.6C125.414 111.887 126.259 111.193 127.039 110.437C128.835 108.702 130.592 106.922 132.337 105.181C134.082 103.44 135.781 101.886 137.314 100.081C139.175 97.889 140.86 95.5485 142.532 93.2148C143.033 92.416 143.436 91.5592 143.731 90.6632C144.247 89.3832 144.718 88.0788 145.215 86.7929C145.376 86.4424 145.514 86.082 145.628 85.7138C145.765 85.3139 145.762 84.8797 145.62 84.4817C145.478 84.0836 145.206 83.7452 144.848 83.5213C144.521 83.2963 144.126 83.1917 143.73 83.2254C143.334 83.2591 142.963 83.4291 142.678 83.7063C141.47 84.6839 140.369 85.787 139.394 86.9971C137.988 88.9939 136.728 91.0898 135.625 93.2684C133.527 97.3769 131.134 101.328 128.465 105.091C127.836 105.978 127.247 106.908 126.676 107.812L126.963 108.047C130.065 105.072 132.947 101.878 135.59 98.4886C138.191 95.011 139.704 91.0121 142.249 87.3378C142.881 88.2486 142.43 88.8617 142.068 89.4596C141.099 91.2568 140.181 93.0911 139.237 94.9068C138.894 95.5374 138.517 96.1494 138.109 96.7402C137.696 97.3331 137.178 97.852 136.811 98.4692C134.277 102.439 131.158 106.004 127.559 109.042C126.293 109.983 125.285 111.229 124.628 112.663L124.595 112.6ZM103.578 125.752C106.038 123.891 108.366 121.859 110.543 119.672C112.793 117.213 114.829 114.566 116.629 111.76C118.351 108.913 120.356 106.11 122.116 103.211C123.218 101.353 124.212 99.4327 125.092 97.4597C126.228 94.9418 127.255 92.4011 128.274 89.7839C128.923 88.0166 129.452 86.2078 129.859 84.3695C130.018 83.6361 130.248 82.6387 129.231 82.1601C128.616 81.8885 127.849 82.3947 127.202 83.5503C125.46 86.6342 123.744 89.7367 121.996 92.808C120.349 95.5926 118.94 98.5118 117.786 101.534C117.532 102.152 117.218 102.743 116.848 103.299L110.262 114.102C110.026 114.477 109.771 114.841 109.498 115.19C106.891 119.032 104.094 122.741 101.117 126.303C100.971 126.524 100.853 126.761 100.764 127.01C101.77 126.747 102.732 126.343 103.624 125.809L103.578 125.752ZM19.9657 164.12C19.8143 164.201 19.7899 164.49 19.694 164.735C19.9009 164.819 20.1213 164.929 20.1524 164.896C20.2894 164.704 20.4083 164.499 20.5073 164.285C20.3601 164.283 20.1061 164.11 20.0119 164.177L19.9657 164.12ZM17.9776 163.431C17.3165 163.103 16.6732 162.717 16.0239 162.35C16.6799 163.215 17.0936 164.356 18.3038 164.65C18.7925 164.017 18.6251 163.734 18.0743 163.46L17.9776 163.431ZM24.9101 160.965C26.5879 160.07 28.2935 159.258 30.0302 158.413C31.7669 157.568 33.5432 156.766 35.2925 155.914C37.0418 155.062 38.7037 154.29 40.3428 153.383C41.982 152.476 43.9239 152.138 45.8179 150.949C45.3755 150.788 44.9023 150.729 44.4339 150.777C43.9654 150.824 43.5139 150.978 43.1132 151.225C42.1084 151.912 40.9777 152.394 39.7861 152.643C38.4992 152.781 37.2705 153.252 36.221 154.009C35.6912 154.292 35.1613 154.575 34.5053 154.924C34.3237 154.584 34.2901 154.278 34.1807 154.012L34.2438 153.978L37.4296 152.052L37.2547 151.724C36.5984 151.777 35.9705 152.015 35.4442 152.41C34.9178 152.805 34.5147 153.342 34.2816 153.958L34.1807 154.012C33.6888 154.274 33.1841 154.543 32.7333 154.913C32.2825 155.283 32.0454 155.75 31.7502 155.713C30.2481 155.51 29.3322 156.679 28.1355 157.139C26.9387 157.599 26.0245 158.102 24.9421 158.534C23.0305 159.294 21.0911 159.972 19.1862 160.745C18.6418 161.026 18.1218 161.352 17.632 161.719L19.8017 163.479C21.5199 162.66 23.2701 161.84 25.0068 160.995L24.9101 160.965ZM51.811 148.029L52.7521 147.818L52.6664 147.475L51.7547 147.832L51.811 148.029ZM68.7205 144.795C69.7475 144.358 70.8046 143.994 71.8835 143.708C74.2905 143.056 76.7186 142.474 79.139 141.848C80.6444 141.45 82.1423 141.008 83.6485 140.642C84.1759 140.507 84.8663 140.738 85.2944 140.477C86.3768 139.803 87.6577 139.622 88.7687 139.062C90.607 138.259 92.5644 137.762 94.5633 137.592C94.7735 137.561 95.009 137.759 95.6112 138.038C94.2488 138.589 92.8278 138.983 91.3758 139.211C90.0579 139.445 88.7684 139.817 87.529 140.323C86.3431 140.955 84.6864 140.218 83.6519 141.742C84.3146 141.648 84.7999 141.616 85.2834 141.52C87.7972 141.038 90.2707 140.481 92.8181 140.062C94.4639 139.904 96.0435 139.334 97.4117 138.406L97.3538 136.444C96.2184 136.173 95.056 136.032 93.8888 136.023C90.2415 136.43 86.6533 137.256 83.1953 138.486C80.0381 139.554 76.9238 140.793 73.7801 141.886C71.257 142.746 68.6785 143.441 66.1411 144.243C65.4304 144.46 64.7989 144.764 64.0714 145.071C65.6065 145.469 67.2295 145.354 68.6936 144.745L68.7205 144.795ZM51.8134 154.687C52.1855 154.454 52.4992 154.139 52.7301 153.766C52.961 153.393 53.1028 152.972 53.1447 152.535L55.2961 150.188L55.0085 149.953C54.5287 150.226 54.1145 150.601 53.7949 151.052C53.4753 151.502 53.258 152.017 53.1582 152.56C52.492 153.089 52.0115 153.816 51.7864 154.636L51.8134 154.687ZM51.5265 158.615C53.9444 155.705 56.9772 153.31 58.5197 149.701C58.1881 149.566 57.8181 149.561 57.4827 149.685C57.1473 149.81 56.8709 150.056 56.7082 150.375L51.3852 157.621C51.2504 157.85 51.1472 158.096 51.0782 158.352L51.5265 158.615ZM53.5281 158.601L67.2788 151.997C67.8838 151.715 68.4734 151.4 69.0449 151.055C69.5622 150.779 69.9861 150.359 70.6135 149.894C70.3056 149.706 69.9694 149.568 69.6177 149.486C67.0114 149.369 64.4001 149.303 61.8005 149.199C61.4694 149.188 61.1412 149.264 60.8489 149.42C60.5566 149.576 60.3105 149.806 60.1353 150.087C58.1336 152.775 56.0192 155.312 53.952 157.937C53.7892 158.144 53.6472 158.366 53.5281 158.601ZM43.7284 167.57C43.2288 167.059 42.8008 166.59 42.3534 166.116L41.8387 166.245C41.8302 166.654 41.6898 167.15 41.8647 167.478C42.1767 167.883 42.5583 168.228 42.9916 168.498L43.7284 167.57ZM68.2121 160.249L68.1246 160.571C70.1262 161.286 72.1211 161.988 74.3203 162.679C74.5592 161.79 75.2025 161.933 75.8728 162.126C77.7399 162.589 79.4925 163.08 81.2914 163.628C85.16 164.805 89.1809 165.448 93.1252 166.342C93.7173 166.48 94.4532 166.492 94.8543 167.154C93.4305 167.735 92.9957 167.74 85.7294 166.025C82.7043 165.305 79.7372 164.359 76.7273 163.485C76.7882 163.616 76.8747 163.732 76.9816 163.828C77.0885 163.924 77.2137 163.998 77.3496 164.045C82.0951 165.934 86.94 167.564 91.8628 168.927C93.8585 169.635 96.0078 169.792 98.0854 169.384C98.6653 169.301 99.2173 169.082 99.6964 168.744C100.176 168.407 100.568 167.962 100.842 167.444C99.8573 166.509 98.6673 165.817 97.3673 165.424C94.7047 164.868 92.0488 164.323 89.3752 163.837C84.7127 162.954 80.0686 162.125 75.4431 161.351C73.0546 161.004 70.6283 160.678 68.1742 160.269L68.2121 160.249ZM72.604 155.784C72.9234 155.947 73.2812 156.02 73.6389 155.995C73.9966 155.969 74.3407 155.847 74.6342 155.641C73.8907 155.098 73.2255 155.582 72.5661 155.804L72.604 155.784ZM63.8246 157.825C66.3804 157.969 68.9018 158.018 71.4265 157.951C73.6829 157.898 75.9638 157.557 78.1966 157.582C83.9071 157.777 89.5091 159.197 95.1724 160.033C96.8098 160.277 98.4187 160.651 100.051 160.947C101.953 161.294 103.857 161.672 105.776 161.929C106.824 162.043 107.879 162.071 108.931 162.012C109.089 162.004 109.244 161.962 109.383 161.887C109.523 161.813 109.644 161.708 109.739 161.581C109.769 161.431 109.765 161.277 109.728 161.128C109.691 160.98 109.621 160.842 109.524 160.724C109.279 160.422 108.972 160.177 108.623 160.005C107.723 159.449 106.773 158.98 105.784 158.602C102.669 157.623 99.5651 156.572 96.3878 155.901C93.5469 155.364 90.6688 155.046 87.7792 154.95C85.0123 154.806 82.2336 154.943 79.4675 155.073C77.883 155.14 76.3044 155.431 74.7174 155.645C75.1382 155.793 75.5776 155.88 76.0227 155.905C80.7305 155.942 85.4317 156.265 90.1003 156.872C91.8126 157.044 93.6385 157.156 95.4324 157.269C97.6409 157.339 99.7944 157.976 101.685 159.12C101.288 159.237 100.876 159.293 100.462 159.286C98.4835 158.98 96.5332 158.513 94.5451 158.309C90.9153 157.944 87.2695 157.701 83.617 157.445C81.2975 157.289 78.9721 157.152 76.6425 157.098C74.3129 157.044 71.7814 157.098 69.3257 157.111C69.032 157.08 68.7416 157.024 68.4578 156.942L68.4426 156.61L72.2726 155.831C71.1643 155.786 70.0543 155.804 68.9481 155.887C67.123 156.166 65.3773 156.826 63.8246 157.825ZM73.9405 151.15C74.4218 150.861 74.8854 150.543 75.329 150.199C74.7554 149.881 74.0996 149.743 73.4465 149.803C72.7935 149.862 72.1733 150.116 71.6664 150.532C70.3142 151.509 68.8845 152.375 67.3915 153.12C63.2475 155.254 59.0765 157.338 54.8787 159.371C51.7274 160.906 48.5349 162.333 45.3634 163.83C44.6569 164.207 43.773 164.403 43.5434 165.4C43.6253 165.599 43.7267 165.789 43.8462 165.968C44.1237 166.306 44.4391 166.624 44.7687 166.999C45.1472 166.797 45.4878 166.616 45.7754 166.365C48.1592 164.357 50.78 162.65 53.5793 161.28C53.8106 161.143 54.0196 160.971 54.1991 160.771C54.8931 160.093 55.663 159.498 56.4935 158.996C58.4455 158.069 60.4665 157.331 62.4984 156.523C63.8406 156.002 65.1694 155.698 66.4007 155.09C68.991 153.871 71.4561 152.508 73.8841 151.196L73.9405 151.15ZM75.1399 145.439C71.2124 145.67 67.379 146.078 63.4111 146.476C62.8241 146.53 62.264 146.634 61.6837 146.701C61.7173 146.764 61.751 146.827 61.6896 146.925L63.2429 147.133L63.1453 147.801L77.0952 149.014C77.7553 149.067 78.4214 149.101 79.0808 149.122C83.5163 149.235 87.9652 149.374 92.4057 149.437C94.0675 149.443 95.7286 149.363 97.382 149.197C97.6281 149.166 97.8641 149.08 98.073 148.946C98.2819 148.812 98.4584 148.634 98.5897 148.423C98.68 148.126 98.6596 147.806 98.5322 147.522C98.4048 147.239 98.1791 147.011 97.8968 146.881C97.5423 146.614 97.1367 146.422 96.7051 146.318C93.6549 145.728 90.573 145.315 87.475 145.083C83.3532 144.98 79.2466 145.209 75.1466 145.452L75.1399 145.439ZM114.071 135.403C112.614 134.944 111.07 134.825 109.559 135.055C111.815 135.699 114.104 136.164 116.328 136.809C118.551 137.454 120.753 138.24 122.948 139.014C125.143 139.788 127.435 140.105 129.294 141.463L129.123 142.024C128.72 142.029 128.317 141.988 127.924 141.902C125.991 141.215 124.062 140.516 122.137 139.803C118.842 138.465 115.408 137.498 111.898 136.919C109.522 136.565 107.165 136.429 104.786 136.191L103.788 136.173C104.112 136.508 104.52 136.749 104.97 136.871C108.523 137.973 112.082 139.057 115.623 140.166C119.164 141.275 122.165 142.316 125.416 143.337C126.702 143.668 128.01 143.908 129.33 144.053C129.635 144.1 129.948 144.047 130.221 143.901C130.494 143.756 130.712 143.526 130.844 143.245C131.026 142.952 131.144 142.624 131.189 142.282C131.234 141.94 131.205 141.592 131.104 141.262C131.003 140.932 130.833 140.627 130.604 140.368C130.376 140.11 130.095 139.903 129.78 139.762C129.494 139.589 129.19 139.447 128.873 139.338C126.475 138.64 124.065 137.948 121.65 137.308C119.234 136.668 116.683 135.955 114.071 135.403ZM101.251 131.66C101.03 131.654 100.81 131.636 100.591 131.607L96.3842 131.922L96.412 132.247L98.3126 132.287C100.309 132.324 102.292 132.336 104.263 132.354C106.233 132.373 108.034 132.498 109.935 132.57C111.368 132.583 112.816 132.411 114.243 132.444C117.674 132.526 121.116 132.57 124.545 132.864C127.467 133.142 130.372 133.578 133.247 134.17C134.667 134.559 136.058 135.046 137.41 135.628C137.187 135.892 136.881 136.071 136.542 136.137C136.203 136.203 135.851 136.151 135.546 135.99C133.91 135.491 132.247 135.091 130.564 134.791C126.772 134.334 122.919 134.007 119.15 133.716C118.884 133.754 118.625 133.832 118.382 133.947C120.847 134.253 123.185 134.626 125.447 135.04C128.615 135.603 131.779 136.249 134.929 136.87C138.542 137.568 142.175 138.304 145.775 138.977C146.302 139.015 146.832 138.988 147.353 138.897L147.449 138.44C145.848 137.372 144.187 136.397 142.473 135.52C140.622 134.798 138.731 134.183 136.809 133.68C133.563 132.697 130.217 132.079 126.834 131.838C122.629 131.488 118.42 131.464 114.188 131.307C109.9 130.882 105.576 130.989 101.314 131.626L101.251 131.66ZM148.527 118.373C148.628 118.319 148.754 118.252 148.946 118.004L147.573 117.343L147.565 116.326C147.189 116.323 146.813 116.35 146.442 116.407C144.344 116.909 142.234 117.419 140.137 117.954C138.295 118.418 136.465 118.876 134.642 119.378C132.445 119.966 130.263 120.676 128.078 121.258C126.321 121.56 124.626 122.147 123.058 122.995C122.568 123.23 122.03 123.345 121.487 123.331C120.902 123.266 120.314 123.238 119.726 123.249C118.236 123.493 116.7 123.956 115.171 124.188C112.591 124.575 110.358 126.252 107.655 126.106C107.489 126.123 107.327 126.17 107.179 126.246C104.236 127.2 101.273 128.116 98.3438 129.094C94.6035 130.365 90.8725 131.664 87.1507 132.99C84.3067 133.939 81.5552 135.146 78.9306 136.596C78.7062 136.764 78.4374 136.862 78.1577 136.878C76.6859 136.61 75.6758 137.602 74.5009 138.164C72.9619 138.985 71.7104 140.527 69.676 140.267C69.6129 140.301 69.4868 140.368 69.3985 140.415C68.3593 140.933 67.2825 141.372 66.1773 141.728C63.0306 142.636 60.0026 143.914 57.1565 145.534C56.8399 145.752 56.5522 146.009 56.3004 146.299C56.3542 146.4 56.4147 146.513 56.4686 146.614C56.7689 146.578 57.0649 146.512 57.3525 146.418C59.7595 145.523 62.1261 144.553 64.5407 143.703C66.5945 142.996 68.7491 142.479 70.7516 141.768C75.5101 140.056 80.2551 138.32 84.985 136.494C85.642 136.223 86.3153 135.994 87.001 135.808C88.7237 135.364 90.4698 135.017 92.2312 134.769C94.1977 134.462 96.205 134.542 98.141 135.003C98.9739 135.227 99.8228 135.386 100.68 135.48C101.168 135.544 101.593 135.399 101.48 134.762C101.426 134.661 101.302 134.581 101.212 134.565C97.5076 133.805 93.711 133.596 89.9454 133.946C89.4231 133.942 88.9027 133.883 88.3929 133.769C88.837 132.658 89.0455 132.32 89.768 132.307C91.0304 132.185 92.2745 131.918 93.476 131.512C95.8031 130.984 98.1605 130.634 100.463 129.909C105.011 128.471 109.649 127.262 114.252 125.958C114.411 125.906 114.575 125.868 114.741 125.843C117.91 125.447 121.036 124.757 124.076 123.781C124.94 123.547 125.812 123.39 126.677 123.188L134.138 121.38C134.774 121.235 135.422 121.052 136.077 120.913L148.527 118.373ZM156.387 114.182L151.501 116.171L151.656 116.461C153.289 115.817 155.515 116.801 156.483 114.211L156.387 114.182ZM195.427 99.2757C196.834 98.2984 198.169 97.2464 199.555 96.1994C198.599 94.408 196.674 95.143 195.505 94.2271C194.131 94.3849 192.788 94.7413 191.516 95.285C190.492 95.9044 189.435 96.4681 188.35 96.9736C187.214 97.5609 186.108 98.2048 185.036 98.9028C183.67 99.7446 182.318 100.612 180.972 101.491C180.329 101.834 179.859 102.442 179.209 102.772C175.737 104.526 172.225 106.205 168.766 107.984C167.19 108.825 165.68 109.793 164.156 110.702C164.436 110.893 164.608 110.882 164.754 110.821C167.036 109.782 169.303 108.687 171.599 107.705C175.109 106.174 178.666 104.763 182.122 103.131C185.307 101.667 188.404 100.015 191.394 98.1856C192.184 97.7925 193 97.4547 193.836 97.1748C194.156 98.1386 193.507 98.258 193.053 98.5321C191.287 99.474 189.602 100.567 187.836 101.509C185.149 102.942 182.449 104.382 179.695 105.689C175.823 107.543 171.692 108.579 168.149 111.02C169.265 110.651 170.348 110.22 171.43 109.789C175.677 108.091 179.911 106.367 184.166 104.714C188.143 103.395 191.941 101.587 195.473 99.332L195.427 99.2757ZM165.45 113.95C162.965 113.684 160.461 114.239 158.322 115.531C160.764 115.302 163.172 114.79 165.496 114.006L165.45 113.95ZM181.337 116.82C179.752 116.103 178.065 115.636 176.337 115.435C175.051 115.181 173.792 114.735 172.509 114.576C171.912 114.445 171.294 114.44 170.694 114.562C170.095 114.683 169.528 114.928 169.029 115.282L181.337 116.82ZM176.42 113.981C175.792 113.927 175.154 113.976 174.521 113.973L174.521 114.217C176.32 114.553 178.093 114.839 179.927 115.238C182.622 116.137 185.369 116.875 188.152 117.446C188.76 117.534 189.35 117.717 189.9 117.989C190.126 118.079 190.237 118.409 190.39 118.635L190.225 118.901L182.682 116.912C182.707 117.027 182.76 117.134 182.836 117.223C182.912 117.313 183.009 117.382 183.118 117.425C186.44 118.525 189.676 119.871 192.799 121.45C194.427 122.16 196.099 122.768 197.804 123.269C198 123.329 198.207 123.345 198.411 123.318C198.614 123.291 198.809 123.22 198.983 123.11C199.439 122.689 199.101 122.237 198.776 121.811C197.315 119.765 195.179 118.299 192.744 117.671C191.405 117.316 190.099 116.813 188.815 116.38C186.984 115.742 185.121 115.199 183.233 114.755C180.965 114.36 178.684 114.216 176.42 113.981ZM201.063 107.11C200.171 106.991 199.272 106.929 198.372 106.925C197.538 107.01 196.713 107.158 195.902 107.367C197.604 105.941 199.604 106.106 201.535 106.08C201.765 104.629 201.421 104.197 200.041 104.252C196.544 104.486 193.09 105.152 189.757 106.237C185.766 107.442 181.801 108.697 177.81 109.902C176.414 110.323 174.971 110.655 173.479 111.078C174.179 111.213 174.898 111.225 175.603 111.112C177.348 110.829 179.099 110.527 180.83 110.187C183.604 109.648 186.392 109.101 189.158 108.517C190.831 108.159 192.495 107.693 194.173 107.317C194.434 107.259 194.733 107.423 195.131 107.502C193.787 108.689 187.017 110.517 182.533 110.981L179.339 111.615C180.501 111.789 181.677 111.988 182.533 110.981C182.831 111.145 183.127 111.425 183.401 111.393C185.672 111.186 187.938 110.998 190.179 110.613C193.147 110.1 196.046 109.461 198.946 108.822C199.43 108.781 199.89 108.595 200.267 108.29C200.644 107.985 200.921 107.574 201.063 107.11ZM222.755 100.175C222.726 100.105 222.69 100.037 222.648 99.9736L214.136 103.427C214.169 103.49 214.21 103.566 214.243 103.629L222.755 100.175ZM227.53 99.8005C231.973 97.5282 236.273 94.927 241.061 93.3621C244.815 92.1376 248.445 90.5583 252.116 89.0866C254.988 87.879 257.806 86.5385 260.643 85.2359C261.213 85.0106 261.728 84.668 262.157 84.2303C262.585 83.7925 262.916 83.2695 263.129 82.6953C263.545 81.501 263.28 80.9132 262.03 81.0292C260.357 81.0856 258.698 81.3549 257.094 81.8305C253.488 83.1214 249.94 84.641 246.423 86.1278C245.311 86.6477 244.241 87.251 243.221 87.9325C239.802 89.9988 236.411 92.1475 232.965 94.1633C230.673 95.5156 228.273 96.666 225.954 97.9998C227.037 97.7741 228.09 97.4245 229.093 96.9579C230.749 96.2044 232.397 95.4063 234.046 94.6402C234.589 94.3509 235.205 94.2004 235.728 93.9052C238.476 92.3427 241.189 90.6851 243.984 89.2109C246.507 87.8654 249.131 86.709 251.837 85.525C254.352 84.1916 257.123 83.4101 259.964 83.2326C259.96 84.5311 259.012 84.4857 258.358 84.6564C256.723 85.0061 255.112 85.4543 253.532 85.9985C250.127 87.3928 246.777 88.888 243.448 90.485C241.509 91.4059 239.704 92.579 237.8 93.6588C236.779 94.2038 235.825 94.9069 234.783 95.414C230.828 97.296 226.726 98.9006 222.948 101.175C221.631 101.838 220.258 102.385 218.846 102.811L214.332 104.554C214.18 104.635 214.071 104.855 213.736 105.261C215.173 104.916 216.306 104.733 217.378 104.372C220.871 103.104 224.265 101.576 227.53 99.8005ZM214.068 112.051L217.357 114.267C218.49 115.056 219.668 115.806 220.74 116.692C223.839 118.99 226.36 121.979 228.101 125.421C228.519 126.207 229.079 126.908 229.754 127.488C231.061 128.752 231.322 130.428 232.079 132.211C231.711 132.117 231.374 131.929 231.101 131.667C230.827 131.404 230.626 131.075 230.517 130.711C229.949 129.324 229.112 128.063 228.053 127.002C227.529 126.429 227.076 125.795 226.705 125.112C225.715 123.243 224.424 121.551 222.883 120.102C222.17 119.494 221.599 118.729 220.936 118.062C220.555 117.682 220.105 117.355 219.627 116.945C219.634 117.201 219.605 117.329 219.646 117.405C221.669 120.652 223.674 123.926 225.747 127.114C226.756 128.544 227.599 130.084 228.26 131.704C228.635 132.509 229.075 133.283 229.574 134.017C231.162 136.389 233.311 138.332 235.831 139.673C236.353 139.931 236.901 140.134 237.465 140.276C237.93 139.53 238.201 138.68 238.254 137.803C238.307 136.926 238.14 136.05 237.768 135.254C237.294 134.25 236.725 133.295 236.069 132.401C232.921 127.889 229.527 123.554 225.903 119.415C222.837 115.77 218.693 113.192 214.068 112.051ZM218.378 110.045L218.218 110.535C218.707 110.663 219.19 110.778 219.674 110.925C221.427 111.448 223.181 111.971 224.935 112.527C225.825 112.797 226.705 113.203 227.582 113.448C228.852 113.824 230.174 114.026 231.39 114.512C233.226 115.251 235.316 115.465 236.839 116.921C238.49 116.98 239.642 118.197 241.077 118.793C242.132 119.251 243.223 119.625 244.313 119.999C245.404 120.374 246.557 120.682 247.63 121.115C248.117 121.243 248.568 121.478 248.952 121.804C249.336 122.129 249.642 122.536 249.848 122.994C249.269 122.85 248.909 122.783 248.586 122.663C247.721 122.288 246.837 121.959 245.937 121.677C242.441 120.803 239.367 118.959 236.083 117.632C233.726 116.675 231.364 115.73 228.999 114.799C228.749 114.743 228.492 114.721 228.236 114.736C232.316 117.162 236.406 119.453 240.611 121.504C243.857 123.094 247.251 124.444 250.567 125.771C252.001 126.35 253.587 126.439 255.076 126.023C254.475 123.346 253.601 121.009 250.819 120.046C248.677 119.309 246.501 118.541 244.293 118.017C241.537 117.367 238.86 116.421 236.307 115.195C234.948 114.472 233.536 113.855 232.082 113.349C228.582 112.316 225.033 111.405 221.492 110.506C220.431 110.278 219.399 110.197 218.378 110.045ZM240.574 105.24C240.298 105.307 240.032 105.411 239.782 105.548C240.77 105.728 241.772 105.807 242.776 105.783C246.102 105.823 249.423 105.513 252.684 104.857C255.476 104.383 258.309 104.197 261.138 104.302C262.189 104.358 263.237 104.318 264.258 104.259C266.475 104.162 268.696 103.95 270.915 103.95C273.461 103.953 276.022 104.077 278.554 104.267C279.297 104.324 280.18 104.096 280.956 104.882C280.603 105.028 280.234 105.132 279.857 105.192C278.08 105.232 276.308 105.221 274.53 105.23C272.478 105.239 270.431 105.229 268.366 105.277C266.596 105.329 264.842 105.535 263.058 105.563C261.274 105.591 259.951 105.6 258.397 105.603C256.075 105.631 253.762 105.883 251.489 106.353C249.542 106.744 247.594 107.07 245.582 107.43C246.664 107.788 247.772 108.058 248.897 108.238C250.815 108.431 252.747 108.438 254.686 108.489C258.731 108.6 262.776 108.679 266.814 108.778C268.312 108.821 269.804 108.885 271.294 108.884C275.126 108.898 278.976 108.886 282.801 108.888L288.627 108.876C288.754 107.945 288.617 106.996 288.232 106.139C287.846 105.282 287.228 104.55 286.447 104.027C284.06 102.943 281.485 102.335 278.865 102.237C276.562 101.991 274.207 102.162 271.883 102.088C268.886 101.999 265.887 102.183 262.924 102.637C262.482 102.679 262.037 102.688 261.594 102.666C259.306 102.72 257.01 102.729 254.729 102.827C253.795 102.932 252.868 103.091 251.953 103.303L240.574 105.24ZM227.354 105.274C228.117 105.216 228.884 105.247 229.64 105.367C230.556 105.657 231.009 104.896 231.734 104.736C231.835 104.683 231.972 104.788 232.074 104.766C232.986 104.578 233.887 104.341 234.773 104.055C236.129 103.559 237.519 102.915 238.879 102.336C240.201 101.776 241.421 101.207 242.719 100.725C245.748 99.6286 248.797 98.5698 251.819 97.4926C252.719 97.1747 253.585 96.7937 254.537 96.5128C257.256 95.7762 260.029 95.2044 262.725 94.334C264.933 93.6204 267.175 93.0192 269.444 92.5327C271.607 92.0242 273.825 91.7939 276.046 91.8475C275.758 92.7953 275.105 92.7869 274.43 92.8878C271.73 93.2118 269.05 93.6837 266.402 94.3013C263.9 94.9875 261.428 95.852 258.886 96.4945C255.188 97.4296 251.569 98.6952 247.976 99.9474C245.035 100.997 242.164 102.236 239.272 103.406C239.038 103.55 238.828 103.728 238.646 103.934C238.7 104.035 238.761 104.149 238.814 104.25C239.901 103.873 241.008 103.554 242.128 103.293C245.014 102.675 247.827 101.761 250.525 100.565C253.189 99.4084 255.946 98.48 258.767 97.7896C261.502 97.206 264.236 96.8335 266.967 96.3332C270.454 95.6403 273.905 94.8204 277.405 94.1527C278.248 94.0132 279.044 93.6682 279.722 93.1485C280.399 92.6287 280.939 91.95 281.293 91.1723C280.82 90.8721 280.305 90.6441 279.765 90.4961C278.433 90.3788 277.095 90.335 275.758 90.3648C272.087 90.4604 268.451 91.1101 264.974 92.2921C259.752 93.8941 254.611 95.6794 249.492 97.5345C246.058 98.7825 242.708 100.278 239.336 101.703C239.172 101.791 239.097 102.106 238.962 102.308C238.22 102.333 237.482 102.423 236.756 102.577C233.907 103.464 231.178 104.757 228.125 104.927C227.901 104.933 227.727 105.091 227.392 105.254L227.354 105.274ZM225.813 106.274L225.904 105.836L224.542 105.591L224.469 106.002L225.813 106.274ZM285.075 122.145C284.483 121.035 283.399 120.916 282.51 120.678C280.399 120.183 278.149 119.762 276.013 119.281C272.016 118.318 268.064 117.168 264.05 116.295C260.036 115.422 256.522 114.331 252.832 113.156C251.801 112.765 250.745 112.44 249.673 112.183C247.314 111.816 245.027 111.085 242.893 110.014C241.417 109.141 239.806 108.522 238.125 108.182C234.471 107.652 230.892 106.773 227.266 106.05C227.239 106.207 227.203 106.361 227.156 106.513C228.715 106.914 230.29 107.224 231.806 107.728C235.065 108.826 238.03 110.647 241.368 111.589C243.262 112.102 245.051 112.784 246.919 113.279C249.702 114.031 252.513 114.654 255.321 115.361C258.128 116.067 260.789 116.803 263.512 117.474L275.401 120.564C276.373 120.807 277.294 121.077 278.305 121.332C278.763 121.46 279.128 121.719 278.786 122.598C270.267 120.66 261.806 118.529 253.405 116.204C255.518 117.394 257.793 118.271 260.157 118.809C264.68 120.059 269.125 121.253 273.654 122.484C276.111 123.188 278.659 123.522 281.214 123.475C282.611 123.458 283.964 122.992 285.075 122.145ZM69.6682 147.514C69.8179 147.613 69.9626 147.762 70.0971 147.772C76.9531 147.907 83.8129 148.029 90.6767 148.139C90.8953 148.144 91.1132 148.11 91.3201 148.039C91.3201 148.039 91.437 147.863 91.6211 147.57C91.1142 147.401 90.5928 147.278 90.0636 147.202C87.8299 147.065 85.5591 146.979 83.2514 146.946C78.9892 146.854 74.7219 146.812 70.4538 146.739C69.8911 146.747 69.6338 146.933 69.6682 147.514ZM69.1641 128.339C69.281 128.164 69.0077 127.742 68.7983 127.076C65.8278 130.621 64.3702 134.542 62.1397 138.016C61.9244 138.341 61.937 138.821 61.7814 139.471C62.2356 139.229 62.4029 139.269 62.4585 139.191C64.7382 135.566 66.9839 131.938 69.1953 128.307L69.1641 128.339ZM109.51 119.315C110.476 118.173 111.381 116.981 112.224 115.745C113.117 114.554 113.943 113.313 114.698 112.028C116.683 108.49 119.359 105.394 121.052 101.672C121.547 100.565 122.237 99.5495 122.732 98.4428C123.7 96.3066 124.616 94.1974 125.546 92.0815C125.906 91.2085 126.229 90.3238 126.583 89.4382L126.29 89.254C126.014 89.3747 125.766 89.5511 125.562 89.772C124.601 91.2288 123.802 92.7853 123.176 94.4144C121.909 97.9676 120.234 101.362 118.185 104.53C115.967 108.483 113.34 112.186 110.855 115.973C110.267 116.834 109.621 117.654 108.924 118.429C107.217 120.393 105.483 122.338 103.769 124.289L103.964 124.655C104.439 124.475 104.888 124.236 105.302 123.942C106.687 122.377 108.15 120.867 109.541 119.283L109.51 119.315ZM175.149 128.156C178.528 128.173 181.885 128.693 185.11 129.698C186.028 129.978 186.968 130.176 187.921 130.289L188.154 129.906C187.903 129.618 187.723 129.099 187.396 129.062C184.367 128.426 181.332 127.808 178.337 127.267C177.039 127.051 175.692 127.138 174.384 127.025C172.499 126.864 170.625 126.631 168.758 126.412C168.47 126.341 168.169 126.332 167.877 126.387C167.585 126.443 167.308 126.56 167.065 126.731L168.859 127.573C169.557 127.547 170.255 127.558 170.952 127.608C172.313 127.79 173.727 128.072 175.149 128.156ZM55.8206 131.453C55.8206 131.453 55.6641 131.342 55.4362 131.188C53.9437 132.75 52.7103 134.54 51.7827 136.491C53.5707 135.408 54.3243 133.418 55.7726 132.062C55.8912 131.95 55.8449 131.651 55.8206 131.453Z" fill="#101A24"/>
</g>
<defs>
<clipPath id="clip0_1_107">
<rect width="288.003" height="124.057" fill="white" transform="translate(312.5 109.463) rotate(151.929)"/>
</clipPath>
</defs>
</svg>
